<svg width="27" height="30" viewBox="0 0 27 30" fill="none" xmlns="http://www.w3.org/2000/svg">
<path d="M20.4911 21.8973V26.3839C20.4911 28.3929 18.817 30 16.875 30H3.61607C1.60714 30 0 28.3929 0 26.3839V3.61607C0 1.60714 1.60714 0 3.61607 0H16.875C18.817 0 20.4911 1.60714 20.4911 3.61607V8.10268C23.9732 8.4375 26.7188 11.3839 26.7188 15C26.7188 18.6161 23.9732 21.5625 20.4911 21.8973ZM19.1518 8.10268V5.49107H1.33929V23.3705H19.1518V21.9643C15.6027 21.6295 12.7902 18.6161 12.7902 15C12.7902 11.3839 15.6027 8.4375 19.1518 8.10268ZM19.7545 9.375C16.6741 9.375 14.1295 11.9196 14.1295 15C14.1295 18.1473 16.6741 20.625 19.7545 20.625C22.8348 20.625 25.3795 18.0804 25.3795 15C25.3795 11.9196 22.8348 9.375 19.7545 9.375ZM1.33929 24.7098V26.3839C1.33929 27.6562 2.34375 28.6607 3.61607 28.6607H16.875C18.0804 28.6607 19.1518 27.6562 19.1518 26.3839V24.7098H1.33929ZM19.1518 4.15179V3.61607C19.1518 2.34375 18.0804 1.33929 16.875 1.33929H3.61607C2.34375 1.33929 1.33929 2.34375 1.33929 3.61607V4.15179H19.1518Z" fill="#F7941E"/>
<path d="M17.2767 15.7365C17.0089 15.4686 17.0089 14.9999 17.2767 14.799C17.5446 14.5311 17.9464 14.5311 18.2142 14.799L19.0848 15.6695L21.7633 12.9909C22.0312 12.7231 22.433 12.7231 22.7008 12.9909C22.9687 13.2588 22.9687 13.6606 22.7008 13.9284L19.5535 17.0758C19.2857 17.3436 18.8169 17.3436 18.616 17.0758L17.2767 15.7365Z" fill="#F7941E"/>
</svg>
