<svg width="108" height="108" viewBox="0 0 108 108" fill="none" xmlns="http://www.w3.org/2000/svg">
<g clip-path="url(#clip0)">
<path d="M82.5634 46.2968C82.5609 46.2768 82.5594 46.2565 82.5565 46.2367C82.5423 46.138 82.5235 46.0395 82.4969 45.9423C82.4967 45.9413 82.4962 45.9403 82.4959 45.9391C82.471 45.8482 82.4392 45.7585 82.4033 45.6698C82.3931 45.6444 82.3818 45.62 82.3708 45.5951C82.3425 45.5311 82.311 45.468 82.2767 45.406C82.2618 45.3788 82.2474 45.3517 82.2313 45.3251C82.2227 45.3107 82.2159 45.2958 82.2069 45.2813C82.1707 45.2239 82.1311 45.1699 82.091 45.1164C82.0835 45.1064 82.0774 45.0959 82.0698 45.0861C82.0087 45.0069 81.9427 44.9334 81.8736 44.8638C81.8606 44.8506 81.8465 44.8384 81.833 44.8256C81.7729 44.7677 81.7106 44.7135 81.6456 44.6624C81.629 44.6495 81.6129 44.6365 81.5958 44.6241C81.5088 44.5596 81.4191 44.4994 81.3255 44.4474L45.3278 23.9855L66.0541 10.9342L100.801 30.6848L86.1674 39.8997C85.0254 40.6186 84.6825 42.1274 85.4016 43.2692C86.1205 44.4112 87.6291 44.7541 88.7711 44.035L106.859 32.6454C107.586 32.1878 108.019 31.3817 108 30.5226C107.98 29.6635 107.511 28.8782 106.764 28.4535L67.1972 5.96277C66.4145 5.51758 65.4501 5.53957 64.6878 6.01921L39.2869 22.0141C39.2818 22.0173 39.2764 22.0207 39.2713 22.0239L26.5784 30.0166C26.5726 30.0202 26.5667 30.0239 26.5611 30.0275L1.1429 46.0334C0.41574 46.4911 -0.0174785 47.2972 0.00206888 48.1563C0.0213719 49.0154 0.490265 49.8007 1.23746 50.2254L40.8048 72.7161C41.1796 72.9294 41.596 73.0355 42.0121 73.0355C42.4648 73.0355 42.9169 72.9096 43.3139 72.6596L61.4016 61.2699C62.5437 60.551 62.8865 59.0422 62.1674 57.9004C61.4488 56.7583 59.9397 56.4153 58.7979 57.1346L41.9478 67.7449L7.20064 47.9938L27.9272 34.9422L64.9866 56.0075V83.907C64.9866 84.7969 65.4702 85.6161 66.2491 86.0462C66.6173 86.2495 67.0239 86.3504 67.43 86.3504C67.883 86.3504 68.3351 86.2246 68.7319 85.9746L81.4411 77.9717C82.1516 77.5243 82.5827 76.7436 82.5827 75.904V46.583C82.5827 46.5685 82.5802 46.5549 82.5797 46.5404C82.5783 46.4593 82.5729 46.3782 82.5634 46.2968ZM69.8734 79.4812V54.5861C69.8734 53.7072 69.4014 52.8963 68.6373 52.4621L32.6186 31.9884L40.6362 26.9396L75.3831 46.6905L72.3408 48.6061C71.1988 49.325 70.8559 50.8338 71.575 51.9756C72.0393 52.7135 72.8332 53.1174 73.6451 53.1174C74.0898 53.1174 74.5404 52.996 74.9445 52.7414L77.6956 51.0092V74.5555L69.8734 79.4812Z" fill="#CEFFAE"/>
<path d="M104.254 38.2834L86.1668 49.673C85.0248 50.3918 84.6819 51.9006 85.401 53.0424C85.8653 53.7804 86.6592 54.1843 87.4711 54.1843C87.9158 54.1843 88.3664 54.0628 88.7705 53.8082L106.858 42.4187C108 41.6998 108.343 40.191 107.624 39.0492C106.905 37.9072 105.396 37.5641 104.254 38.2834Z" fill="#CEFFAE"/>
<path d="M58.7968 66.9077L41.9467 77.518L3.65123 55.7503C2.47888 55.0837 0.986434 55.4932 0.319624 56.6671C-0.347185 57.8401 0.0630651 59.3318 1.2364 59.9987L40.8037 82.4894C41.1785 82.7027 41.5949 82.8087 42.011 82.8087C42.4638 82.8087 42.9158 82.6829 43.3129 82.4329L61.4005 71.0432C62.5426 70.3243 62.8854 68.8155 62.1663 67.6737C61.4477 66.5314 59.9386 66.1883 58.7968 66.9077Z" fill="#CEFFAE"/>
<path d="M104.254 48.0579L86.1668 59.4474C85.0248 60.1663 84.6819 61.6751 85.401 62.8169C85.8653 63.5548 86.6592 63.9587 87.4711 63.9587C87.9158 63.9587 88.3664 63.8373 88.7705 63.5827L106.858 52.1932C108 51.4743 108.343 49.9655 107.624 48.8237C106.905 47.6814 105.396 47.3386 104.254 48.0579Z" fill="#CEFFAE"/>
<path d="M58.7968 76.6811L41.9467 87.2915L3.65123 65.5237C2.47888 64.8572 0.986434 65.2667 0.319624 66.4405C-0.347185 67.6136 0.0630651 69.1053 1.2364 69.7721L40.8037 92.2628C41.1785 92.4762 41.5949 92.5822 42.011 92.5822C42.4638 92.5822 42.9158 92.4564 43.3129 92.2064L61.4005 80.8166C62.5426 80.0978 62.8854 78.589 62.1663 77.4471C61.4477 76.3046 59.9386 75.9618 58.7968 76.6811Z" fill="#CEFFAE"/>
<path d="M104.254 57.8312L86.1668 69.2207C85.0248 69.9396 84.6819 71.4484 85.401 72.5902C85.8653 73.3281 86.6592 73.732 87.4711 73.732C87.9158 73.732 88.3664 73.6106 88.7705 73.356L106.858 61.9664C108 61.2476 108.343 59.7388 107.624 58.597C106.905 57.4549 105.396 57.1121 104.254 57.8312Z" fill="#CEFFAE"/>
<path d="M58.7968 86.4555L41.9467 97.0659L3.65123 75.2981C2.47888 74.6316 0.986434 75.0411 0.319624 76.2149C-0.347185 77.388 0.0630651 78.8797 1.2364 79.5465L40.8037 102.037C41.1785 102.251 41.5949 102.357 42.011 102.357C42.4638 102.357 42.9158 102.231 43.3129 101.981L61.4005 90.591C62.5426 89.8722 62.8854 88.3634 62.1663 87.2215C61.4477 86.0792 59.9386 85.7362 58.7968 86.4555Z" fill="#CEFFAE"/>
</g>
<defs>
<clipPath id="clip0">
<rect width="108" height="108" fill="white"/>
</clipPath>
</defs>
</svg>
