<svg width="94" height="91" viewBox="0 0 94 91" fill="none" xmlns="http://www.w3.org/2000/svg">
<path d="M62.7805 58.3599C60.5533 58.3599 58.7414 56.8417 58.7414 54.9757C58.7414 53.1095 60.5533 51.5913 62.7805 51.5913C65.0077 51.5913 66.8196 53.1095 66.8196 54.9757C66.8196 55.9571 67.6417 56.753 68.6555 56.753C69.6693 56.753 70.4914 55.9571 70.4914 54.9757C70.4914 51.7187 67.9846 48.9802 64.6164 48.2369V47.3125C64.6164 46.331 63.7943 45.5352 62.7805 45.5352C61.7667 45.5352 60.9446 46.331 60.9446 47.3125V48.2369C57.5764 48.9802 55.0696 51.7187 55.0696 54.9757C55.0696 58.8018 58.5287 61.9146 62.7805 61.9146C65.0077 61.9146 66.8196 63.4328 66.8196 65.299C66.8196 67.1652 65.0077 68.6834 62.7805 68.6834C60.5533 68.6834 58.7414 67.1652 58.7414 65.299C58.7414 64.3176 57.9193 63.5217 56.9055 63.5217C55.8917 63.5217 55.0696 64.3176 55.0696 65.299C55.0696 68.556 57.5764 71.2945 60.9446 72.0378V72.8056C60.9446 73.787 61.7667 74.5829 62.7805 74.5829C63.7943 74.5829 64.6164 73.787 64.6164 72.8056V72.0378C67.9846 71.2945 70.4914 68.556 70.4914 65.299C70.4914 61.4727 67.0323 58.3599 62.7805 58.3599Z" fill="#ABECFF"/>
<path d="M82.8891 47.7877C80.4909 44.1699 77.112 41.275 73.1179 39.4162C72.2038 38.9907 71.1068 39.3633 70.6677 40.248C70.2283 41.1328 70.613 42.1946 71.5269 42.6199C78.4871 45.8589 82.9842 52.7797 82.9842 60.2513C82.9842 63.4484 82.1702 66.619 80.6304 69.4208C80.1541 70.2872 80.4936 71.3636 81.3888 71.8246C81.6635 71.9661 81.9587 72.0333 82.2495 72.0333C82.9064 72.0333 83.5418 71.691 83.8719 71.0904C85.6933 67.7767 86.6561 64.0285 86.6561 60.2513C86.6561 55.815 85.3535 51.5052 82.8891 47.7877Z" fill="#ABECFF"/>
<path d="M65.6664 37.1467L65.5429 37.1465C64.529 37.1465 63.7069 37.9422 63.7069 38.9238C63.7069 39.9054 64.529 40.7012 65.5429 40.7012L65.6492 40.7013C65.6521 40.7013 65.6549 40.7013 65.658 40.7013C66.6679 40.7013 67.489 39.9111 67.4937 38.9324C67.4983 37.9507 66.6802 37.1513 65.6664 37.1467Z" fill="#ABECFF"/>
<path d="M54.0512 77.884C47.0912 74.6448 42.594 67.7241 42.594 60.2527C42.594 57.0556 43.4081 53.885 44.9479 51.0832C45.4241 50.2167 45.0847 49.1404 44.1895 48.6793C43.2946 48.2183 42.1824 48.5469 41.7064 49.4135C39.8849 52.7274 38.9222 56.4755 38.9222 60.2527C38.9222 64.6889 40.2248 68.9986 42.6892 72.7163C45.0874 76.334 48.4663 79.229 52.4604 81.0879C52.7168 81.2073 52.9878 81.2637 53.2546 81.2637C53.9383 81.2637 54.5944 80.8924 54.9106 80.2561C55.3496 79.3713 54.9651 78.3094 54.0512 77.884Z" fill="#ABECFF"/>
<path d="M60.0354 79.8031L59.9291 79.8027C58.9105 79.801 58.0895 80.5899 58.0849 81.5717C58.0801 82.5534 58.8986 83.3528 59.9124 83.3574L60.0354 83.3578C61.0492 83.3578 61.8713 82.5619 61.8713 81.5804C61.8713 80.599 61.0492 79.8031 60.0354 79.8031Z" fill="#ABECFF"/>
<path d="M71.1257 34.117C70.9023 33.6275 70.6286 33.1662 70.31 32.7383H75.0897C79.7464 32.7383 83.535 29.255 83.535 24.9737C83.535 20.6923 79.7464 17.209 75.0897 17.209H60.3875C61.3222 15.9596 61.871 14.448 61.871 12.8203C61.871 8.53895 58.0823 5.05566 53.4257 5.05566H8.4453C3.78863 5.05566 0 8.53895 0 12.8203C0 17.1017 3.78863 20.5849 8.4453 20.5849H23.1475C22.2128 21.8344 21.664 23.346 21.664 24.9737C21.664 26.6014 22.2126 28.1129 23.1475 29.3624H18.3593C13.7027 29.3624 9.91404 32.8457 9.91404 37.127C9.91404 39.5859 11.165 41.7801 13.1113 43.2037C11.165 44.6273 9.91404 46.8215 9.91404 49.2804C9.91404 51.7392 11.165 53.9334 13.1113 55.357C11.165 56.7807 9.91404 58.9749 9.91404 61.4337C9.91404 63.8926 11.165 66.0868 13.1113 67.5104C11.165 68.934 9.91404 71.1282 9.91404 73.5871C9.91404 77.8684 13.7027 81.3517 18.3593 81.3517H39.9958C45.6957 86.9569 53.8043 90.4669 62.7891 90.4669C79.9988 90.4669 94 77.5941 94 61.7715C94 48.6025 84.3008 37.4786 71.1257 34.117ZM75.0897 20.5849C77.7219 20.5849 79.8631 22.5538 79.8631 24.9737C79.8631 27.3935 77.7219 29.3624 75.0897 29.3624H63.3397H30.1093C27.4771 29.3624 25.3359 27.3935 25.3359 24.9737C25.3359 22.5538 27.4771 20.5849 30.1093 20.5849H75.0897ZM8.4453 17.209C5.81312 17.209 3.67187 15.2402 3.67187 12.8203C3.67187 10.4004 5.81312 8.4316 8.4453 8.4316H53.4257C56.0579 8.4316 58.1991 10.4004 58.1991 12.8203C58.1991 15.2402 56.0579 17.209 53.4257 17.209H8.4453ZM18.3593 32.7383H63.3397C64.0792 32.7383 64.7874 32.8963 65.4226 33.1792C64.5542 33.1122 63.6763 33.0761 62.7891 33.0761C54.1703 33.0761 46.3566 36.305 40.703 41.5157H18.3593C15.7273 41.5157 13.5859 39.5469 13.5859 37.127C13.5859 34.7071 15.7273 32.7383 18.3593 32.7383ZM18.3593 44.8917H37.566C35.4818 47.517 33.8704 50.478 32.8471 53.6691H18.3593C15.7272 53.6691 13.5859 51.7004 13.5859 49.2804C13.5859 46.8605 15.7272 44.8917 18.3593 44.8917ZM18.3593 57.045H32.004C31.7255 58.5833 31.5783 60.1617 31.5783 61.7715C31.5783 63.1465 31.6864 64.4986 31.8907 65.8224H18.3593C15.7272 65.8224 13.5859 63.8538 13.5859 61.4337C13.5859 59.0137 15.7272 57.045 18.3593 57.045ZM18.3593 77.9758C15.7272 77.9758 13.5859 76.0071 13.5859 73.5871C13.5859 71.167 15.7272 69.1984 18.3593 69.1984H32.6403C33.5667 72.3739 35.0717 75.3335 37.0453 77.9758H18.3593ZM62.7891 87.091C47.6041 87.091 35.2501 75.7327 35.2501 61.7715C35.2501 47.8103 47.6041 36.452 62.7891 36.452C77.9741 36.452 90.3281 47.8103 90.3281 61.7715C90.3281 75.7327 77.9741 87.091 62.7891 87.091Z" fill="#ABECFF"/>
</svg>
