<svg width="101" height="101" viewBox="0 0 101 101" fill="none" xmlns="http://www.w3.org/2000/svg">
<g clip-path="url(#clip0)">
<path d="M100.797 87.9162L96.7932 73.9984C96.6979 73.7124 96.5072 73.4265 96.3166 73.2358C93.838 65.7049 87.7371 59.89 80.0156 57.8881L78.8717 57.6975C77.1558 57.2208 75.2492 57.7928 74.01 59.2227C69.8156 63.9891 64.4772 64.3704 58.8529 64.3704C53.2286 64.3704 47.8903 63.9891 43.6959 59.2227C42.4566 57.7928 40.5501 57.2208 38.8342 57.6975L37.6903 57.9834C31.8753 59.5087 26.9183 63.2264 23.7725 68.1835H11.7612C11.6659 68.1835 11.6659 68.1834 11.5706 68.0881C11.5706 67.9928 11.4753 67.8975 11.4753 67.7068L13.9538 58.8414C16.1463 51.8825 20.3407 49.7853 28.5388 47.6881C28.9202 47.5928 29.2061 47.4021 29.3968 47.2114C30.0641 47.7834 30.8267 48.26 31.5893 48.6414C31.8753 48.832 32.1613 48.832 32.4473 48.832C33.1146 48.832 33.7818 48.4507 34.1632 47.7834C34.6398 46.8301 34.2585 45.6862 33.3052 45.2096C28.9202 42.9217 25.7744 36.4395 25.7744 29.7666C25.7744 23.8563 30.636 18.9946 36.5463 18.9946C37.6903 18.9946 38.7389 19.1852 39.7875 19.4712C38.7389 22.045 38.1669 24.8095 38.1669 27.7647C38.1669 44.0656 47.9856 57.7928 59.6155 57.7928C71.0548 57.7928 81.1595 43.7797 81.1595 27.7647C81.1595 15.8488 71.5315 6.2207 59.6155 6.2207C52.0847 6.2207 45.4118 10.1291 41.5987 16.0394C39.9781 15.4675 38.2622 15.1815 36.5463 15.1815C31.3987 15.1815 26.823 17.946 24.2491 22.045C24.0585 21.8544 23.8678 21.7591 23.6772 21.6637C22.2472 20.9011 20.8173 20.6151 19.1968 20.6151C13.8584 20.5198 9.56872 24.8095 9.56872 30.1479C9.56872 33.1983 10.4267 36.0582 11.7612 38.346C7.37619 39.4899 3.46777 41.2058 1.65655 47.0208L0.131313 52.5498C-0.154669 53.5031 0.0359854 54.5517 0.607949 55.3143C1.17991 56.1722 2.22851 56.6489 3.27711 56.6489H10.6173C10.522 57.0302 10.3313 57.4115 10.236 57.7928L7.7575 66.7536C7.37619 67.9928 7.66217 69.3274 8.52011 70.376C9.28273 71.4246 10.4267 71.9966 11.7612 71.9966H21.8659C21.58 72.6638 21.3893 73.3311 21.1986 73.9984L17.1949 88.0115C16.8136 89.6321 17.0996 91.348 18.1482 92.6826C19.1968 94.0172 20.722 94.7798 22.3426 94.7798H79.5389H82.7801H95.6493C97.2698 94.7798 98.8904 94.0172 99.8437 92.6826C100.892 91.348 101.274 89.6321 100.797 87.9162ZM43.8865 19.7572C43.9819 19.6619 44.0772 19.5665 44.1725 19.3759C44.2678 19.2805 44.2678 19.0899 44.3632 18.9946C47.3183 13.6562 53.038 10.0338 59.6155 10.0338C67.5277 10.0338 74.2006 15.2768 76.4885 22.4263C73.152 23.0936 69.6249 21.7591 67.5277 18.8992C66.8604 18.0413 65.7165 17.8506 64.8585 18.5179C64.4772 18.8039 64.2866 19.0899 64.1913 19.4712C64.0959 19.5665 64.0959 19.6619 64.0006 19.7572C61.3314 25.1908 52.3707 27.4787 42.1707 25.4768C42.4566 23.4749 43.0286 21.5684 43.8865 19.7572ZM49.2249 29.9572C56.8511 29.9572 63.1427 27.574 66.3838 23.0936C68.767 25.1908 71.7221 26.3348 74.8679 26.3348C75.6305 26.3348 76.4885 26.2394 77.2511 26.0488C77.3464 26.6207 77.3464 27.0974 77.3464 27.6693C77.3464 41.6825 69.0529 53.9797 59.6155 53.9797C50.5595 53.9797 42.6473 42.6357 41.98 29.2899C44.4585 29.7666 46.937 29.9572 49.2249 29.9572ZM4.03973 52.8358L5.37431 48.0694C6.51824 44.161 8.90142 43.017 13.6678 41.8731C13.9538 41.7778 14.2398 41.6825 14.4304 41.4918C14.907 41.8731 15.2884 42.1591 15.8603 42.4451C16.1463 42.6357 16.4323 42.6357 16.7183 42.6357C17.3856 42.6357 18.0528 42.2544 18.4342 41.5871C18.9108 40.6339 18.5295 39.4899 17.6715 39.0133C15.193 37.6787 13.3818 33.961 13.3818 30.1479C13.3818 26.9067 15.9556 24.3329 19.1968 24.3329C20.2454 24.3329 21.1033 24.5235 21.9613 25.0002C22.2472 25.0955 22.4379 25.1908 22.7239 25.1908C22.2472 26.6207 21.9613 28.146 21.9613 29.7666C21.9613 35.2002 23.7725 40.5385 26.6323 44.2563C20.9127 45.6862 15.8603 47.5928 12.5239 52.8358H4.03973ZM96.8885 90.3947C96.6979 90.5854 96.3166 90.9667 95.6493 90.9667H82.7801H79.5389H22.3426C21.6753 90.9667 21.294 90.5854 21.1033 90.3947C20.8173 90.0134 20.722 89.4414 20.8173 89.0601L24.8211 75.1423C26.7276 68.5648 31.9706 63.4171 38.6435 61.7012L39.7875 61.4152C40.0735 61.3199 40.5501 61.5105 40.8361 61.7965C46.0791 67.8021 52.5613 68.2788 58.8529 68.2788C65.1445 68.2788 71.6268 67.8021 76.8698 61.7965C77.1558 61.5105 77.5371 61.3199 78.0137 61.4152L79.1576 61.7012C85.7352 63.4171 91.0735 68.5648 92.9801 75.1423L94.696 81.0526C94.7913 81.3386 94.8866 81.5293 95.0773 81.7199L97.1745 88.9648C97.2698 89.4414 97.1745 90.0134 96.8885 90.3947Z" fill="#FFA6AD"/>
</g>
<defs>
<clipPath id="clip0">
<rect width="101" height="101" fill="white"/>
</clipPath>
</defs>
</svg>
