<svg width="11" height="11" viewBox="0 0 11 11" fill="none" xmlns="http://www.w3.org/2000/svg">
<g clip-path="url(#clip0)">
<path d="M0.204078 2.61889C0.0679886 2.74763 2.46847e-07 2.90019 2.38765e-07 3.07641C2.30681e-07 3.25265 0.0679885 3.40522 0.204078 3.53396L5.01658 8.08906C5.15266 8.2178 5.31374 8.28223 5.49994 8.28223C5.68615 8.28223 5.84733 8.2178 5.98331 8.08906L10.7958 3.53396C10.9319 3.40526 11 3.25269 11 3.07641C11 2.90019 10.9319 2.74763 10.7958 2.61889C10.6598 2.49008 10.4986 2.42562 10.3124 2.42562L0.687446 2.42562C0.50124 2.42565 0.340205 2.49008 0.204078 2.61889Z" fill="#B4B8D7"/>
</g>
<defs>
<clipPath id="clip0">
<rect x="11" y="0.148438" width="10.4118" height="11" transform="rotate(90 11 0.148438)" fill="white"/>
</clipPath>
</defs>
</svg>
