<svg width="290" height="1080" viewBox="0 0 290 1080" fill="none" xmlns="http://www.w3.org/2000/svg">
<g filter="url(#filter0_b)">
<rect width="290" height="1080" fill="#212E55"/>
</g>
<path d="M79.976 612.998C79.7947 612.017 79.0747 611.526 77.816 611.526C77.144 611.526 76.6267 611.676 76.264 611.974C75.9013 612.262 75.72 612.614 75.72 613.03C75.72 613.436 75.832 613.745 76.056 613.958C76.28 614.172 76.6427 614.358 77.144 614.518L79.24 615.238C79.9547 615.484 80.52 615.82 80.936 616.246C81.3627 616.673 81.576 617.276 81.576 618.054C81.576 618.822 81.2453 619.473 80.584 620.006C79.9227 620.529 79.0373 620.79 77.928 620.79C76.8187 620.79 75.9067 620.513 75.192 619.958C74.488 619.393 74.1253 618.604 74.104 617.59H75.336C75.336 618.252 75.5653 618.758 76.024 619.11C76.4933 619.462 77.0907 619.638 77.816 619.638C78.552 619.638 79.1333 619.478 79.56 619.158C79.9867 618.828 80.2 618.444 80.2 618.006C80.2 617.558 80.0667 617.206 79.8 616.95C79.544 616.694 79.16 616.481 78.648 616.31L76.872 615.654C76.04 615.377 75.4107 615.046 74.984 614.662C74.5573 614.278 74.344 613.718 74.344 612.982C74.344 612.236 74.6427 611.617 75.24 611.126C75.8373 610.625 76.6747 610.374 77.752 610.374C78.8293 610.374 79.6507 610.614 80.216 611.094C80.792 611.564 81.1227 612.198 81.208 612.998H79.976ZM86.9435 619.766C87.9995 619.766 88.6022 619.302 88.7515 618.374H90.0475C89.9302 619.142 89.5888 619.74 89.0235 620.166C88.4688 620.582 87.7755 620.79 86.9435 620.79C85.9195 620.79 85.0875 620.428 84.4475 619.702C83.8075 618.966 83.4875 617.99 83.4875 616.774C83.4875 615.558 83.8075 614.588 84.4475 613.862C85.0982 613.137 85.9568 612.774 87.0235 612.774C88.1008 612.774 88.9008 613.19 89.4235 614.022C89.9568 614.854 90.1435 615.868 89.9835 617.062H84.7515C84.7515 617.852 84.9435 618.502 85.3275 619.014C85.7115 619.516 86.2502 619.766 86.9435 619.766ZM87.8715 613.974C87.6262 613.846 87.3275 613.782 86.9755 613.782C86.3248 613.782 85.8075 614.006 85.4235 614.454C85.0502 614.892 84.8315 615.441 84.7675 616.102H88.8475C88.8475 615.036 88.5222 614.326 87.8715 613.974ZM96.5379 620.39C95.6205 620.817 94.7832 620.908 94.0259 620.662C93.4819 620.492 93.0979 620.134 92.8739 619.59C92.7565 619.324 92.6979 619.004 92.6979 618.63V613.926H91.4659V612.966H92.6979V610.838H93.9459V612.966H96.3459V613.926H93.9459V618.614C93.9459 619.393 94.3085 619.782 95.0339 619.782C95.4285 619.782 95.8712 619.686 96.3619 619.494L96.5379 620.39ZM102.554 620.39C101.636 620.817 100.799 620.908 100.042 620.662C99.4975 620.492 99.1135 620.134 98.8895 619.59C98.7722 619.324 98.7135 619.004 98.7135 618.63V613.926H97.4815V612.966H98.7135V610.838H99.9615V612.966H102.362V613.926H99.9615V618.614C99.9615 619.393 100.324 619.782 101.049 619.782C101.444 619.782 101.887 619.686 102.378 619.494L102.554 620.39ZM104.649 612.95H105.913V620.614H104.649V612.95ZM105.273 611.158C105.017 611.158 104.814 611.089 104.665 610.95C104.526 610.801 104.457 610.609 104.457 610.374C104.457 610.129 104.526 609.937 104.665 609.798C104.814 609.649 105.017 609.574 105.273 609.574C105.529 609.574 105.732 609.649 105.881 609.798C106.041 609.937 106.121 610.129 106.121 610.374C106.121 610.609 106.041 610.801 105.881 610.95C105.732 611.089 105.529 611.158 105.273 611.158ZM110.566 614.438C111.068 613.329 111.926 612.774 113.142 612.774C114.049 612.774 114.753 613.073 115.254 613.67C115.766 614.268 116.022 615.084 116.022 616.118V620.614H114.774V616.118C114.774 615.382 114.598 614.828 114.246 614.454C113.905 614.081 113.414 613.894 112.774 613.894C112.134 613.894 111.617 614.156 111.222 614.678C110.828 615.201 110.62 615.926 110.598 616.854V620.614H109.334V612.966H110.422L110.566 614.438ZM119.311 620.374C118.671 620.065 118.351 619.59 118.351 618.95C118.351 618.62 118.474 618.332 118.719 618.086C118.975 617.83 119.29 617.66 119.663 617.574C119.087 617.062 118.799 616.39 118.799 615.558C118.799 614.726 119.092 614.054 119.679 613.542C120.276 613.03 120.98 612.774 121.791 612.774C122.602 612.774 123.29 612.966 123.855 613.35C123.93 612.785 124.154 612.332 124.527 611.99C124.911 611.649 125.412 611.478 126.031 611.478L125.919 612.726C124.98 612.726 124.49 613.121 124.447 613.91C124.82 614.369 125.007 614.918 125.007 615.558C125.007 616.38 124.708 617.057 124.111 617.59C123.524 618.113 122.788 618.374 121.903 618.374C121.295 618.374 120.756 618.252 120.287 618.006C120.074 618.049 119.882 618.15 119.711 618.31C119.54 618.46 119.455 618.668 119.455 618.934C119.455 619.5 119.924 619.782 120.863 619.782H123.839C124.554 619.782 125.119 619.937 125.535 620.246C125.951 620.545 126.159 620.966 126.159 621.51C126.159 622.321 125.748 623.03 124.927 623.638C124.116 624.246 123.087 624.55 121.839 624.55C120.591 624.55 119.61 624.316 118.895 623.846C118.18 623.388 117.823 622.806 117.823 622.102C117.823 621.644 117.956 621.27 118.223 620.982C118.5 620.694 118.863 620.492 119.311 620.374ZM119.071 622.054C119.071 622.46 119.29 622.806 119.727 623.094C120.175 623.393 120.847 623.542 121.743 623.542C122.65 623.542 123.402 623.345 123.999 622.95C124.607 622.566 124.911 622.113 124.911 621.59C124.911 621.345 124.82 621.132 124.639 620.95C124.468 620.78 124.202 620.694 123.839 620.694H120.751C120.207 620.716 119.791 620.844 119.503 621.078C119.215 621.324 119.071 621.649 119.071 622.054ZM123.775 615.558C123.775 615.004 123.61 614.556 123.279 614.214C122.948 613.862 122.49 613.686 121.903 613.686C121.327 613.686 120.874 613.862 120.543 614.214C120.212 614.556 120.047 615.004 120.047 615.558C120.047 616.113 120.212 616.572 120.543 616.934C120.884 617.286 121.343 617.462 121.919 617.462C122.495 617.462 122.948 617.281 123.279 616.918C123.61 616.556 123.775 616.102 123.775 615.558ZM127.638 614.838C127.638 614.209 127.905 613.708 128.438 613.334C128.982 612.961 129.713 612.774 130.63 612.774C131.547 612.774 132.262 612.966 132.774 613.35C133.297 613.734 133.569 614.22 133.59 614.806H132.358C132.262 614.113 131.675 613.766 130.598 613.766C130.075 613.766 129.67 613.884 129.382 614.118C129.105 614.353 128.966 614.609 128.966 614.886C128.966 615.153 129.073 615.382 129.286 615.574C129.499 615.756 129.841 615.916 130.31 616.054L131.846 616.566C132.497 616.769 132.993 617.03 133.334 617.35C133.686 617.66 133.862 618.092 133.862 618.646C133.862 619.19 133.579 619.686 133.014 620.134C132.449 620.572 131.659 620.79 130.646 620.79C129.633 620.79 128.843 620.566 128.278 620.118C127.713 619.66 127.414 619.073 127.382 618.358H128.598C128.619 618.838 128.811 619.201 129.174 619.446C129.547 619.681 130.011 619.798 130.566 619.798C131.121 619.798 131.579 619.681 131.942 619.446C132.305 619.212 132.486 618.934 132.486 618.614C132.486 618.284 132.379 618.033 132.166 617.862C131.953 617.692 131.606 617.542 131.126 617.414L129.638 616.918C128.305 616.524 127.638 615.83 127.638 614.838Z" fill="#B4B8D7"/>
<g clip-path="url(#clip0)">
<path d="M245.204 614.619C245.068 614.748 245 614.9 245 615.076C245 615.253 245.068 615.405 245.204 615.534L250.017 620.089C250.153 620.218 250.314 620.282 250.5 620.282C250.686 620.282 250.847 620.218 250.983 620.089L255.796 615.534C255.932 615.405 256 615.253 256 615.076C256 614.9 255.932 614.748 255.796 614.619C255.66 614.49 255.499 614.426 255.312 614.426L245.687 614.426C245.501 614.426 245.34 614.49 245.204 614.619Z" fill="#B4B8D7"/>
</g>
<mask id="path-5-outside-1" maskUnits="userSpaceOnUse" x="34" y="605.469" width="23" height="22" fill="black">
<rect fill="white" x="34" y="605.469" width="23" height="22"/>
<path d="M55.0919 614.386L53.6055 614.148C53.4507 613.675 53.2516 613.218 53.0084 612.783L53.8842 611.623C54.2558 611.129 54.1983 610.455 53.7427 610.028L52.4244 608.78C52.1767 608.546 51.8494 608.416 51.4999 608.416C51.2257 608.416 50.9647 608.495 50.7435 608.646L49.5137 609.475C49.036 609.236 48.5361 609.04 48.0186 608.893L47.7708 607.503C47.6647 606.904 47.1206 606.469 46.4792 606.469H44.6168C43.9754 606.469 43.4313 606.904 43.3252 607.503L43.0686 608.927C42.5732 609.073 42.091 609.266 41.6309 609.5L40.4144 608.671C40.1933 608.52 39.9279 608.441 39.6536 608.441C39.3041 608.441 38.9724 608.571 38.7291 608.805L37.4064 610.053C36.9552 610.48 36.8933 611.154 37.2649 611.648L38.1496 612.825C37.9063 613.264 37.7116 613.721 37.5612 614.194L36.0926 614.428C35.4601 614.529 35 615.044 35 615.651V617.414C35 618.021 35.4601 618.536 36.0926 618.636L37.5966 618.879C37.7515 619.348 37.9549 619.804 38.2027 620.24L37.3312 621.387C36.9596 621.881 37.0171 622.555 37.4728 622.982L38.791 624.23C39.0387 624.465 39.3661 624.594 39.7155 624.594C39.9898 624.594 40.2508 624.515 40.472 624.364L41.715 623.527C42.1618 623.749 42.6307 623.929 43.1128 624.071L43.3605 625.478C43.4667 626.077 44.0108 626.512 44.6522 626.512H46.519C47.1604 626.512 47.7045 626.077 47.8107 625.478L48.0628 624.071C48.5627 623.924 49.0448 623.736 49.5049 623.506L50.7302 624.335C50.9514 624.485 51.2168 624.565 51.4911 624.565C51.8405 624.565 52.1679 624.435 52.4156 624.201L53.7338 622.953C54.185 622.526 54.247 621.852 53.8754 621.358L52.9995 620.194C53.2428 619.754 53.4463 619.298 53.5967 618.829L55.083 618.594C55.7156 618.494 56.1756 617.979 56.1756 617.372V615.609C56.1845 615.002 55.7244 614.487 55.0919 614.386ZM54.9901 617.372C54.9901 617.426 54.9503 617.472 54.8928 617.481L53.0349 617.774C52.8004 617.811 52.6147 617.975 52.5571 618.188C52.3891 618.804 52.1325 619.394 51.7874 619.943C51.668 620.135 51.6769 620.374 51.814 620.558L52.9066 622.015C52.9376 622.057 52.9332 622.12 52.8933 622.158L51.5751 623.405C51.5442 623.435 51.5132 623.439 51.4911 623.439C51.4645 623.439 51.4424 623.43 51.4247 623.418L49.8897 622.384C49.6995 622.254 49.443 622.245 49.2395 622.358C48.66 622.685 48.0363 622.928 47.386 623.087C47.156 623.141 46.9835 623.322 46.9481 623.539L46.634 625.298C46.6251 625.352 46.5765 625.39 46.519 625.39H44.6567C44.5991 625.39 44.5505 625.352 44.5416 625.298L44.232 623.539C44.1922 623.317 44.0197 623.141 43.7941 623.087C43.1615 622.932 42.551 622.693 41.9804 622.384C41.8875 622.333 41.7813 622.308 41.6796 622.308C41.5602 622.308 41.4363 622.342 41.3346 622.413L39.7863 623.455C39.7642 623.468 39.7421 623.476 39.7199 623.476C39.7023 623.476 39.6669 623.472 39.6359 623.443L38.3177 622.195C38.2779 622.158 38.2734 622.099 38.3044 622.053L39.3926 620.608C39.5297 620.424 39.5386 620.181 39.4191 619.989C39.0741 619.444 38.8087 618.854 38.6406 618.238C38.5787 618.025 38.3929 617.862 38.1629 617.824L36.2917 617.522C36.2342 617.514 36.1944 617.468 36.1944 617.414V615.651C36.1944 615.596 36.2342 615.55 36.2917 615.542L38.1363 615.249C38.3708 615.211 38.561 615.048 38.6185 614.83C38.7822 614.215 39.0343 613.62 39.3749 613.072C39.4943 612.879 39.4811 612.64 39.3439 612.46L38.2425 610.995C38.2115 610.953 38.2159 610.89 38.2557 610.853L39.574 609.605C39.6049 609.576 39.6359 609.571 39.658 609.571C39.6846 609.571 39.7067 609.58 39.7244 609.592L41.2505 610.622C41.4451 610.752 41.7017 610.76 41.9052 610.647C42.4803 610.321 43.104 610.07 43.7542 609.91C43.9798 609.852 44.1524 609.676 44.1922 609.458L44.5107 607.687C44.5195 607.633 44.5682 607.595 44.6257 607.595H46.488C46.5455 607.595 46.5942 607.633 46.603 607.687L46.9127 609.433C46.9525 609.655 47.125 609.835 47.355 609.89C48.023 610.049 48.66 610.296 49.2527 610.626C49.4562 610.74 49.7084 610.731 49.903 610.601L51.4291 609.563C51.4513 609.55 51.4734 609.542 51.4955 609.542C51.5132 609.542 51.5486 609.546 51.5795 609.576L52.8978 610.823C52.9376 610.861 52.942 610.92 52.911 610.966L51.8184 612.419C51.6813 612.599 51.6724 612.841 51.7919 613.034C52.1369 613.582 52.3935 614.173 52.5616 614.788C52.6191 615.006 52.8093 615.169 53.0393 615.203L54.8972 615.5C54.9547 615.509 54.9945 615.555 54.9945 615.609V617.372H54.9901Z"/>
</mask>
<path d="M55.0919 614.386L53.6055 614.148C53.4507 613.675 53.2516 613.218 53.0084 612.783L53.8842 611.623C54.2558 611.129 54.1983 610.455 53.7427 610.028L52.4244 608.78C52.1767 608.546 51.8494 608.416 51.4999 608.416C51.2257 608.416 50.9647 608.495 50.7435 608.646L49.5137 609.475C49.036 609.236 48.5361 609.04 48.0186 608.893L47.7708 607.503C47.6647 606.904 47.1206 606.469 46.4792 606.469H44.6168C43.9754 606.469 43.4313 606.904 43.3252 607.503L43.0686 608.927C42.5732 609.073 42.091 609.266 41.6309 609.5L40.4144 608.671C40.1933 608.52 39.9279 608.441 39.6536 608.441C39.3041 608.441 38.9724 608.571 38.7291 608.805L37.4064 610.053C36.9552 610.48 36.8933 611.154 37.2649 611.648L38.1496 612.825C37.9063 613.264 37.7116 613.721 37.5612 614.194L36.0926 614.428C35.4601 614.529 35 615.044 35 615.651V617.414C35 618.021 35.4601 618.536 36.0926 618.636L37.5966 618.879C37.7515 619.348 37.9549 619.804 38.2027 620.24L37.3312 621.387C36.9596 621.881 37.0171 622.555 37.4728 622.982L38.791 624.23C39.0387 624.465 39.3661 624.594 39.7155 624.594C39.9898 624.594 40.2508 624.515 40.472 624.364L41.715 623.527C42.1618 623.749 42.6307 623.929 43.1128 624.071L43.3605 625.478C43.4667 626.077 44.0108 626.512 44.6522 626.512H46.519C47.1604 626.512 47.7045 626.077 47.8107 625.478L48.0628 624.071C48.5627 623.924 49.0448 623.736 49.5049 623.506L50.7302 624.335C50.9514 624.485 51.2168 624.565 51.4911 624.565C51.8405 624.565 52.1679 624.435 52.4156 624.201L53.7338 622.953C54.185 622.526 54.247 621.852 53.8754 621.358L52.9995 620.194C53.2428 619.754 53.4463 619.298 53.5967 618.829L55.083 618.594C55.7156 618.494 56.1756 617.979 56.1756 617.372V615.609C56.1845 615.002 55.7244 614.487 55.0919 614.386ZM54.9901 617.372C54.9901 617.426 54.9503 617.472 54.8928 617.481L53.0349 617.774C52.8004 617.811 52.6147 617.975 52.5571 618.188C52.3891 618.804 52.1325 619.394 51.7874 619.943C51.668 620.135 51.6769 620.374 51.814 620.558L52.9066 622.015C52.9376 622.057 52.9332 622.12 52.8933 622.158L51.5751 623.405C51.5442 623.435 51.5132 623.439 51.4911 623.439C51.4645 623.439 51.4424 623.43 51.4247 623.418L49.8897 622.384C49.6995 622.254 49.443 622.245 49.2395 622.358C48.66 622.685 48.0363 622.928 47.386 623.087C47.156 623.141 46.9835 623.322 46.9481 623.539L46.634 625.298C46.6251 625.352 46.5765 625.39 46.519 625.39H44.6567C44.5991 625.39 44.5505 625.352 44.5416 625.298L44.232 623.539C44.1922 623.317 44.0197 623.141 43.7941 623.087C43.1615 622.932 42.551 622.693 41.9804 622.384C41.8875 622.333 41.7813 622.308 41.6796 622.308C41.5602 622.308 41.4363 622.342 41.3346 622.413L39.7863 623.455C39.7642 623.468 39.7421 623.476 39.7199 623.476C39.7023 623.476 39.6669 623.472 39.6359 623.443L38.3177 622.195C38.2779 622.158 38.2734 622.099 38.3044 622.053L39.3926 620.608C39.5297 620.424 39.5386 620.181 39.4191 619.989C39.0741 619.444 38.8087 618.854 38.6406 618.238C38.5787 618.025 38.3929 617.862 38.1629 617.824L36.2917 617.522C36.2342 617.514 36.1944 617.468 36.1944 617.414V615.651C36.1944 615.596 36.2342 615.55 36.2917 615.542L38.1363 615.249C38.3708 615.211 38.561 615.048 38.6185 614.83C38.7822 614.215 39.0343 613.62 39.3749 613.072C39.4943 612.879 39.4811 612.64 39.3439 612.46L38.2425 610.995C38.2115 610.953 38.2159 610.89 38.2557 610.853L39.574 609.605C39.6049 609.576 39.6359 609.571 39.658 609.571C39.6846 609.571 39.7067 609.58 39.7244 609.592L41.2505 610.622C41.4451 610.752 41.7017 610.76 41.9052 610.647C42.4803 610.321 43.104 610.07 43.7542 609.91C43.9798 609.852 44.1524 609.676 44.1922 609.458L44.5107 607.687C44.5195 607.633 44.5682 607.595 44.6257 607.595H46.488C46.5455 607.595 46.5942 607.633 46.603 607.687L46.9127 609.433C46.9525 609.655 47.125 609.835 47.355 609.89C48.023 610.049 48.66 610.296 49.2527 610.626C49.4562 610.74 49.7084 610.731 49.903 610.601L51.4291 609.563C51.4513 609.55 51.4734 609.542 51.4955 609.542C51.5132 609.542 51.5486 609.546 51.5795 609.576L52.8978 610.823C52.9376 610.861 52.942 610.92 52.911 610.966L51.8184 612.419C51.6813 612.599 51.6724 612.841 51.7919 613.034C52.1369 613.582 52.3935 614.173 52.5616 614.788C52.6191 615.006 52.8093 615.169 53.0393 615.203L54.8972 615.5C54.9547 615.509 54.9945 615.555 54.9945 615.609V617.372H54.9901Z" fill="#B4B8D7"/>
<path d="M55.0919 614.386L53.6055 614.148C53.4507 613.675 53.2516 613.218 53.0084 612.783L53.8842 611.623C54.2558 611.129 54.1983 610.455 53.7427 610.028L52.4244 608.78C52.1767 608.546 51.8494 608.416 51.4999 608.416C51.2257 608.416 50.9647 608.495 50.7435 608.646L49.5137 609.475C49.036 609.236 48.5361 609.04 48.0186 608.893L47.7708 607.503C47.6647 606.904 47.1206 606.469 46.4792 606.469H44.6168C43.9754 606.469 43.4313 606.904 43.3252 607.503L43.0686 608.927C42.5732 609.073 42.091 609.266 41.6309 609.5L40.4144 608.671C40.1933 608.52 39.9279 608.441 39.6536 608.441C39.3041 608.441 38.9724 608.571 38.7291 608.805L37.4064 610.053C36.9552 610.48 36.8933 611.154 37.2649 611.648L38.1496 612.825C37.9063 613.264 37.7116 613.721 37.5612 614.194L36.0926 614.428C35.4601 614.529 35 615.044 35 615.651V617.414C35 618.021 35.4601 618.536 36.0926 618.636L37.5966 618.879C37.7515 619.348 37.9549 619.804 38.2027 620.24L37.3312 621.387C36.9596 621.881 37.0171 622.555 37.4728 622.982L38.791 624.23C39.0387 624.465 39.3661 624.594 39.7155 624.594C39.9898 624.594 40.2508 624.515 40.472 624.364L41.715 623.527C42.1618 623.749 42.6307 623.929 43.1128 624.071L43.3605 625.478C43.4667 626.077 44.0108 626.512 44.6522 626.512H46.519C47.1604 626.512 47.7045 626.077 47.8107 625.478L48.0628 624.071C48.5627 623.924 49.0448 623.736 49.5049 623.506L50.7302 624.335C50.9514 624.485 51.2168 624.565 51.4911 624.565C51.8405 624.565 52.1679 624.435 52.4156 624.201L53.7338 622.953C54.185 622.526 54.247 621.852 53.8754 621.358L52.9995 620.194C53.2428 619.754 53.4463 619.298 53.5967 618.829L55.083 618.594C55.7156 618.494 56.1756 617.979 56.1756 617.372V615.609C56.1845 615.002 55.7244 614.487 55.0919 614.386ZM54.9901 617.372C54.9901 617.426 54.9503 617.472 54.8928 617.481L53.0349 617.774C52.8004 617.811 52.6147 617.975 52.5571 618.188C52.3891 618.804 52.1325 619.394 51.7874 619.943C51.668 620.135 51.6769 620.374 51.814 620.558L52.9066 622.015C52.9376 622.057 52.9332 622.12 52.8933 622.158L51.5751 623.405C51.5442 623.435 51.5132 623.439 51.4911 623.439C51.4645 623.439 51.4424 623.43 51.4247 623.418L49.8897 622.384C49.6995 622.254 49.443 622.245 49.2395 622.358C48.66 622.685 48.0363 622.928 47.386 623.087C47.156 623.141 46.9835 623.322 46.9481 623.539L46.634 625.298C46.6251 625.352 46.5765 625.39 46.519 625.39H44.6567C44.5991 625.39 44.5505 625.352 44.5416 625.298L44.232 623.539C44.1922 623.317 44.0197 623.141 43.7941 623.087C43.1615 622.932 42.551 622.693 41.9804 622.384C41.8875 622.333 41.7813 622.308 41.6796 622.308C41.5602 622.308 41.4363 622.342 41.3346 622.413L39.7863 623.455C39.7642 623.468 39.7421 623.476 39.7199 623.476C39.7023 623.476 39.6669 623.472 39.6359 623.443L38.3177 622.195C38.2779 622.158 38.2734 622.099 38.3044 622.053L39.3926 620.608C39.5297 620.424 39.5386 620.181 39.4191 619.989C39.0741 619.444 38.8087 618.854 38.6406 618.238C38.5787 618.025 38.3929 617.862 38.1629 617.824L36.2917 617.522C36.2342 617.514 36.1944 617.468 36.1944 617.414V615.651C36.1944 615.596 36.2342 615.55 36.2917 615.542L38.1363 615.249C38.3708 615.211 38.561 615.048 38.6185 614.83C38.7822 614.215 39.0343 613.62 39.3749 613.072C39.4943 612.879 39.4811 612.64 39.3439 612.46L38.2425 610.995C38.2115 610.953 38.2159 610.89 38.2557 610.853L39.574 609.605C39.6049 609.576 39.6359 609.571 39.658 609.571C39.6846 609.571 39.7067 609.58 39.7244 609.592L41.2505 610.622C41.4451 610.752 41.7017 610.76 41.9052 610.647C42.4803 610.321 43.104 610.07 43.7542 609.91C43.9798 609.852 44.1524 609.676 44.1922 609.458L44.5107 607.687C44.5195 607.633 44.5682 607.595 44.6257 607.595H46.488C46.5455 607.595 46.5942 607.633 46.603 607.687L46.9127 609.433C46.9525 609.655 47.125 609.835 47.355 609.89C48.023 610.049 48.66 610.296 49.2527 610.626C49.4562 610.74 49.7084 610.731 49.903 610.601L51.4291 609.563C51.4513 609.55 51.4734 609.542 51.4955 609.542C51.5132 609.542 51.5486 609.546 51.5795 609.576L52.8978 610.823C52.9376 610.861 52.942 610.92 52.911 610.966L51.8184 612.419C51.6813 612.599 51.6724 612.841 51.7919 613.034C52.1369 613.582 52.3935 614.173 52.5616 614.788C52.6191 615.006 52.8093 615.169 53.0393 615.203L54.8972 615.5C54.9547 615.509 54.9945 615.555 54.9945 615.609V617.372H54.9901Z" stroke="#B4B8D7" stroke-width="0.3" mask="url(#path-5-outside-1)"/>
<path d="M45.5901 612.088C43.0311 612.088 40.9455 614.056 40.9455 616.488C40.9455 618.92 43.0311 620.888 45.5901 620.888C48.149 620.888 50.2346 618.92 50.2346 616.488C50.2346 614.056 48.149 612.088 45.5901 612.088ZM45.5901 619.608C43.7652 619.608 42.2899 618.206 42.2899 616.488C42.2899 614.771 43.7652 613.369 45.5901 613.369C47.4149 613.369 48.8902 614.771 48.8902 616.488C48.8902 618.206 47.4149 619.608 45.5901 619.608Z" fill="#B4B8D7" stroke="#B4B8D7" stroke-width="0.15"/>
<path d="M77.832 530.208C78.9413 530.208 79.784 530.491 80.36 531.056C80.9467 531.611 81.24 532.363 81.24 533.312C81.24 534.262 80.9467 535.014 80.36 535.568C79.784 536.112 78.9413 536.384 77.832 536.384H75.848V540.272H74.584V530.208H77.832ZM77.832 535.296C78.5253 535.296 79.048 535.12 79.4 534.768C79.7627 534.416 79.944 533.936 79.944 533.328C79.944 532.71 79.7627 532.219 79.4 531.856C79.048 531.483 78.5253 531.296 77.832 531.296H75.848V535.296H77.832ZM86.5954 533.696C85.39 533.696 84.766 534.646 84.7234 536.544V540.272H83.4594V532.608H84.7234V534.08C85.1074 533.014 85.7847 532.48 86.7554 532.48C87.0647 532.48 87.358 532.528 87.6354 532.624L87.5714 533.856C87.2514 533.75 86.926 533.696 86.5954 533.696ZM92.3211 532.432C93.3878 532.432 94.2465 532.779 94.8971 533.472C95.5585 534.166 95.8891 535.158 95.8891 536.448C95.8891 537.728 95.5585 538.715 94.8971 539.408C94.2465 540.102 93.3878 540.448 92.3211 540.448C91.2545 540.448 90.3905 540.102 89.7291 539.408C89.0785 538.715 88.7531 537.728 88.7531 536.448C88.7531 535.158 89.0785 534.166 89.7291 533.472C90.3905 532.779 91.2545 532.432 92.3211 532.432ZM94.6091 536.448C94.6091 535.531 94.4171 534.816 94.0331 534.304C93.6491 533.782 93.0838 533.52 92.3371 533.52C91.6011 533.52 91.0358 533.782 90.6411 534.304C90.2465 534.816 90.0491 535.531 90.0491 536.448C90.0491 537.355 90.2358 538.07 90.6091 538.592C90.9825 539.104 91.5371 539.36 92.2731 539.36C93.0198 539.36 93.5958 539.104 94.0011 538.592C94.4065 538.07 94.6091 537.355 94.6091 536.448ZM102.016 530.448C101.664 530.31 101.386 530.24 101.184 530.24C100.81 530.24 100.517 530.331 100.304 530.512C100.09 530.694 99.9835 531.014 99.9835 531.472V532.624H101.568V533.488H99.9835V540.272H98.7355V533.488H97.4715V532.624H98.7355V531.456C98.7355 530.699 98.9435 530.144 99.3595 529.792C99.7755 529.43 100.256 529.248 100.799 529.248C101.344 529.248 101.824 529.318 102.24 529.456L102.016 530.448ZM103.868 532.608H105.132V540.272H103.868V532.608ZM104.492 530.816C104.236 530.816 104.033 530.747 103.884 530.608C103.745 530.459 103.676 530.267 103.676 530.032C103.676 529.787 103.745 529.595 103.884 529.456C104.033 529.307 104.236 529.232 104.492 529.232C104.748 529.232 104.951 529.307 105.1 529.456C105.26 529.595 105.34 529.787 105.34 530.032C105.34 530.267 105.26 530.459 105.1 530.608C104.951 530.747 104.748 530.816 104.492 530.816ZM108.569 529.376H109.833V540.272H108.569V529.376ZM115.694 539.424C116.75 539.424 117.352 538.96 117.502 538.032H118.798C118.68 538.8 118.339 539.398 117.774 539.824C117.219 540.24 116.526 540.448 115.694 540.448C114.67 540.448 113.838 540.086 113.198 539.36C112.558 538.624 112.238 537.648 112.238 536.432C112.238 535.216 112.558 534.246 113.198 533.52C113.848 532.795 114.707 532.432 115.774 532.432C116.851 532.432 117.651 532.848 118.174 533.68C118.707 534.512 118.894 535.526 118.734 536.72H113.502C113.502 537.51 113.694 538.16 114.078 538.672C114.462 539.174 115 539.424 115.694 539.424ZM116.622 533.632C116.376 533.504 116.078 533.44 115.726 533.44C115.075 533.44 114.558 533.664 114.174 534.112C113.8 534.55 113.582 535.099 113.518 535.76H117.598C117.598 534.694 117.272 533.984 116.622 533.632Z" fill="#B4B8D7"/>
<g clip-path="url(#clip1)">
<path d="M52.9246 540.073C51.781 538.991 50.4198 538.189 48.9346 537.704C50.5253 536.667 51.5703 534.932 51.5703 532.969C51.5703 529.801 48.8472 527.224 45.5 527.224C42.1528 527.224 39.4297 529.801 39.4297 532.969C39.4297 534.932 40.4747 536.667 42.0654 537.704C40.5803 538.189 39.219 538.991 38.0754 540.073C36.0922 541.95 35 544.446 35 547.101H36.6406C36.6406 542.477 40.6149 538.715 45.5 538.715C50.3851 538.715 54.3594 542.477 54.3594 547.101H56C56 544.446 54.9078 541.95 52.9246 540.073ZM45.5 537.162C43.0575 537.162 41.0703 535.281 41.0703 532.969C41.0703 530.657 43.0575 528.777 45.5 528.777C47.9425 528.777 49.9297 530.657 49.9297 532.969C49.9297 535.281 47.9425 537.162 45.5 537.162Z" fill="#B4B8D7"/>
</g>
<path d="M74.616 449.805H78.376C79.432 449.805 80.2427 450.056 80.808 450.557C81.384 451.058 81.672 451.688 81.672 452.445C81.672 453.021 81.512 453.522 81.192 453.949C80.8827 454.376 80.408 454.664 79.768 454.813C80.3973 454.92 80.8987 455.192 81.272 455.629C81.656 456.066 81.848 456.562 81.848 457.117C81.848 458.354 81.2453 459.192 80.04 459.629C79.592 459.789 79.0427 459.869 78.392 459.869H74.616V449.805ZM78.36 458.765C79.128 458.765 79.6773 458.61 80.008 458.301C80.3387 457.992 80.504 457.581 80.504 457.069C80.504 456.557 80.3227 456.152 79.96 455.853C79.5973 455.544 79.064 455.389 78.36 455.389H75.88V458.765H78.36ZM75.88 454.301H78.344C78.9627 454.301 79.4533 454.152 79.816 453.853C80.1893 453.544 80.376 453.122 80.376 452.589C80.376 452.056 80.1947 451.64 79.832 451.341C79.48 451.042 78.984 450.893 78.344 450.893H75.88V454.301ZM89.7691 458.349C89.2465 459.458 88.3985 460.013 87.2251 460.013C86.3611 460.013 85.6625 459.773 85.1291 459.293C84.6065 458.813 84.3451 458.072 84.3451 457.069V452.205H85.6091V456.973C85.6091 458.264 86.2065 458.909 87.4011 458.909C88.0945 458.909 88.6545 458.642 89.0811 458.109C89.5185 457.576 89.7478 456.893 89.7691 456.061V452.205H91.0331V459.869H89.7691V458.349ZM92.7363 462.093C93.2589 462.498 93.8083 462.701 94.3843 462.701C94.8109 462.701 95.1789 462.488 95.4883 462.061C95.7123 461.752 95.9149 461.282 96.0963 460.653L96.3203 459.869L93.1842 452.221H94.5923L96.9123 458.317L98.7203 452.221H100L97.1363 461.389C96.8909 462.168 96.5656 462.765 96.1603 463.181C95.7656 463.597 95.2589 463.805 94.6403 463.805C94.0323 463.805 93.3976 463.618 92.7363 463.245V462.093ZM108.379 452.029C109.285 452.029 110.005 452.264 110.539 452.733C111.072 453.192 111.419 453.768 111.579 454.461L110.299 454.573C110.16 454.125 109.936 453.778 109.627 453.533C109.317 453.277 108.976 453.149 108.603 453.149C107.92 453.149 107.365 453.405 106.939 453.917C106.523 454.429 106.315 455.128 106.315 456.013C106.315 456.888 106.517 457.592 106.923 458.125C107.339 458.658 107.851 458.925 108.459 458.925C109.077 458.925 109.536 458.786 109.835 458.509C110.144 458.221 110.299 457.816 110.299 457.293H111.595C111.595 458.114 111.307 458.781 110.731 459.293C110.165 459.794 109.424 460.045 108.507 460.045C107.536 460.045 106.709 459.677 106.027 458.941C105.355 458.205 105.019 457.229 105.019 456.013C105.019 454.786 105.355 453.816 106.027 453.101C106.699 452.386 107.483 452.029 108.379 452.029ZM116.821 452.029C117.888 452.029 118.746 452.376 119.397 453.069C120.058 453.762 120.389 454.754 120.389 456.045C120.389 457.325 120.058 458.312 119.397 459.005C118.746 459.698 117.888 460.045 116.821 460.045C115.754 460.045 114.89 459.698 114.229 459.005C113.578 458.312 113.253 457.325 113.253 456.045C113.253 454.754 113.578 453.762 114.229 453.069C114.89 452.376 115.754 452.029 116.821 452.029ZM119.109 456.045C119.109 455.128 118.917 454.413 118.533 453.901C118.149 453.378 117.584 453.117 116.837 453.117C116.101 453.117 115.536 453.378 115.141 453.901C114.746 454.413 114.549 455.128 114.549 456.045C114.549 456.952 114.736 457.666 115.109 458.189C115.482 458.701 116.037 458.957 116.773 458.957C117.52 458.957 118.096 458.701 118.501 458.189C118.906 457.666 119.109 456.952 119.109 456.045ZM122.884 452.205H124.148V459.869H122.884V452.205ZM123.508 450.413C123.252 450.413 123.049 450.344 122.9 450.205C122.761 450.056 122.692 449.864 122.692 449.629C122.692 449.384 122.761 449.192 122.9 449.053C123.049 448.904 123.252 448.829 123.508 448.829C123.764 448.829 123.966 448.904 124.116 449.053C124.276 449.192 124.356 449.384 124.356 449.629C124.356 449.864 124.276 450.056 124.116 450.205C123.966 450.344 123.764 450.413 123.508 450.413ZM128.801 453.693C129.302 452.584 130.161 452.029 131.377 452.029C132.283 452.029 132.987 452.328 133.489 452.925C134.001 453.522 134.257 454.338 134.257 455.373V459.869H133.009V455.373C133.009 454.637 132.833 454.082 132.481 453.709C132.139 453.336 131.649 453.149 131.009 453.149C130.369 453.149 129.851 453.41 129.457 453.933C129.062 454.456 128.854 455.181 128.833 456.109V459.869H127.569V452.221H128.657L128.801 453.693ZM143.79 452.029C144.857 452.029 145.715 452.376 146.366 453.069C147.027 453.762 147.358 454.754 147.358 456.045C147.358 457.325 147.027 458.312 146.366 459.005C145.715 459.698 144.857 460.045 143.79 460.045C142.723 460.045 141.859 459.698 141.198 459.005C140.547 458.312 140.222 457.325 140.222 456.045C140.222 454.754 140.547 453.762 141.198 453.069C141.859 452.376 142.723 452.029 143.79 452.029ZM146.078 456.045C146.078 455.128 145.886 454.413 145.502 453.901C145.118 453.378 144.553 453.117 143.806 453.117C143.07 453.117 142.505 453.378 142.11 453.901C141.715 454.413 141.518 455.128 141.518 456.045C141.518 456.952 141.705 457.666 142.078 458.189C142.451 458.701 143.006 458.957 143.742 458.957C144.489 458.957 145.065 458.701 145.47 458.189C145.875 457.666 146.078 456.952 146.078 456.045ZM152.892 453.293C151.687 453.293 151.063 454.242 151.02 456.141V459.869H149.756V452.205H151.02V453.677C151.404 452.61 152.082 452.077 153.052 452.077C153.362 452.077 153.655 452.125 153.932 452.221L153.868 453.453C153.548 453.346 153.223 453.293 152.892 453.293ZM160.874 453.357V448.973H162.122V459.869H161.098L160.938 458.589C160.693 459.069 160.367 459.432 159.962 459.677C159.557 459.922 159.114 460.045 158.634 460.045C157.663 460.045 156.847 459.672 156.186 458.925C155.535 458.178 155.21 457.208 155.21 456.013C155.21 454.808 155.53 453.842 156.17 453.117C156.821 452.392 157.637 452.029 158.618 452.029C159.61 452.029 160.362 452.472 160.874 453.357ZM158.698 453.149C158.079 453.149 157.557 453.41 157.13 453.933C156.714 454.456 156.506 455.154 156.506 456.029C156.506 456.904 156.719 457.608 157.146 458.141C157.573 458.664 158.085 458.925 158.682 458.925C159.279 458.925 159.786 458.728 160.202 458.333C160.629 457.928 160.853 457.389 160.874 456.717V455.469C160.874 454.754 160.666 454.189 160.25 453.773C159.834 453.357 159.317 453.149 158.698 453.149ZM168.006 459.021C169.062 459.021 169.665 458.557 169.814 457.629H171.11C170.993 458.397 170.651 458.994 170.086 459.421C169.531 459.837 168.838 460.045 168.006 460.045C166.982 460.045 166.15 459.682 165.51 458.957C164.87 458.221 164.55 457.245 164.55 456.029C164.55 454.813 164.87 453.842 165.51 453.117C166.161 452.392 167.019 452.029 168.086 452.029C169.163 452.029 169.963 452.445 170.486 453.277C171.019 454.109 171.206 455.122 171.046 456.317H165.814C165.814 457.106 166.006 457.757 166.39 458.269C166.774 458.77 167.313 459.021 168.006 459.021ZM168.934 453.229C168.689 453.101 168.39 453.037 168.038 453.037C167.387 453.037 166.87 453.261 166.486 453.709C166.113 454.146 165.894 454.696 165.83 455.357H169.91C169.91 454.29 169.585 453.581 168.934 453.229ZM176.72 453.293C175.515 453.293 174.891 454.242 174.848 456.141V459.869H173.584V452.205H174.848V453.677C175.232 452.61 175.91 452.077 176.88 452.077C177.19 452.077 177.483 452.125 177.76 452.221L177.696 453.453C177.376 453.346 177.051 453.293 176.72 453.293ZM183.507 448.973H184.771V459.869H183.507V448.973ZM188.071 452.205H189.335V459.869H188.071V452.205ZM188.695 450.413C188.439 450.413 188.236 450.344 188.087 450.205C187.948 450.056 187.879 449.864 187.879 449.629C187.879 449.384 187.948 449.192 188.087 449.053C188.236 448.904 188.439 448.829 188.695 448.829C188.951 448.829 189.154 448.904 189.303 449.053C189.463 449.192 189.543 449.384 189.543 449.629C189.543 449.864 189.463 450.056 189.303 450.205C189.154 450.344 188.951 450.413 188.695 450.413ZM192.372 454.093C192.372 453.464 192.639 452.962 193.172 452.589C193.716 452.216 194.447 452.029 195.364 452.029C196.282 452.029 196.996 452.221 197.508 452.605C198.031 452.989 198.303 453.474 198.324 454.061H197.092C196.996 453.368 196.41 453.021 195.332 453.021C194.81 453.021 194.404 453.138 194.116 453.373C193.839 453.608 193.7 453.864 193.7 454.141C193.7 454.408 193.807 454.637 194.02 454.829C194.234 455.01 194.575 455.17 195.044 455.309L196.58 455.821C197.231 456.024 197.727 456.285 198.068 456.605C198.42 456.914 198.596 457.346 198.596 457.901C198.596 458.445 198.314 458.941 197.748 459.389C197.183 459.826 196.394 460.045 195.38 460.045C194.367 460.045 193.578 459.821 193.012 459.373C192.447 458.914 192.148 458.328 192.116 457.613H193.332C193.354 458.093 193.546 458.456 193.908 458.701C194.282 458.936 194.746 459.053 195.3 459.053C195.855 459.053 196.314 458.936 196.676 458.701C197.039 458.466 197.22 458.189 197.22 457.869C197.22 457.538 197.114 457.288 196.9 457.117C196.687 456.946 196.34 456.797 195.86 456.669L194.372 456.173C193.039 455.778 192.372 455.085 192.372 454.093ZM205.194 459.645C204.277 460.072 203.439 460.162 202.682 459.917C202.138 459.746 201.754 459.389 201.53 458.845C201.413 458.578 201.354 458.258 201.354 457.885V453.181H200.122V452.221H201.354V450.093H202.602V452.221H205.002V453.181H202.602V457.869C202.602 458.648 202.965 459.037 203.69 459.037C204.085 459.037 204.527 458.941 205.018 458.749L205.194 459.645Z" fill="#B4B8D7"/>
<g clip-path="url(#clip2)">
<path d="M45.508 447.673C39.7086 447.668 35.0048 452.062 34.9999 457.486C34.995 462.91 39.6924 467.309 45.4918 467.314C51.2903 467.309 55.9909 462.917 55.9999 457.493C55.9999 452.072 51.3041 447.677 45.508 447.673ZM45.4918 465.68C40.6579 465.68 36.7391 462.014 36.7391 457.493C36.7391 452.972 40.6579 449.307 45.4918 449.307C50.324 449.312 54.2396 452.974 54.2444 457.493C54.2444 462.014 50.3257 465.68 45.4918 465.68Z" fill="#B4B8D7"/>
<path d="M48.3282 457.015C49.0304 456.645 49.4099 455.904 49.2791 455.16C49.1165 454.013 47.6537 453.579 46.4996 453.488V451.763H45.3619V453.473H44.5979V451.763H43.4602V453.473H41.1683V454.575H42.0217C42.4036 454.575 42.5906 454.681 42.5906 454.97V459.706C42.5906 460.101 42.3792 460.223 42.1517 460.223H41.2821V461.348H43.4927V463.096H44.6385V461.348H45.4025V463.096H46.5159V461.348H46.7597C49.1002 461.348 49.8804 460.276 49.8804 458.816C49.8617 457.956 49.2238 457.216 48.3282 457.015ZM44.5979 454.643H45.4106C45.9795 454.643 47.101 454.735 47.101 455.601C47.14 456.167 46.702 456.662 46.1014 456.734H44.5979V454.643ZM45.8576 460.116V460.109H44.5979V457.828H46.0608C46.4021 457.828 47.6861 457.935 47.6861 458.786C47.6861 459.637 47.0766 460.116 45.8576 460.116Z" fill="#B4B8D7"/>
</g>
<path d="M78.104 371.223C79.1813 371.223 80.0453 371.495 80.696 372.039C81.3573 372.572 81.8107 373.271 82.056 374.135L80.696 374.407C80.4827 373.778 80.1467 373.282 79.688 372.919C79.24 372.546 78.712 372.359 78.104 372.359C77.2613 372.359 76.5627 372.711 76.008 373.415C75.4533 374.119 75.176 375.1 75.176 376.359C75.176 377.607 75.4213 378.61 75.912 379.367C76.4133 380.124 77.144 380.503 78.104 380.503C78.904 380.503 79.5333 380.295 79.992 379.879C80.4613 379.452 80.696 378.892 80.696 378.199H82.056C82.056 379.255 81.6933 380.092 80.968 380.711C80.2533 381.33 79.2667 381.639 78.008 381.639C76.76 381.639 75.7467 381.159 74.968 380.199C74.2 379.239 73.816 377.954 73.816 376.343C73.816 374.732 74.216 373.479 75.016 372.583C75.816 371.676 76.8453 371.223 78.104 371.223ZM87.5485 374.887C86.3432 374.887 85.7192 375.836 85.6765 377.735V381.463H84.4125V373.799H85.6765V375.271C86.0605 374.204 86.7378 373.671 87.7085 373.671C88.0178 373.671 88.3112 373.719 88.5885 373.815L88.5245 375.047C88.2045 374.94 87.8792 374.887 87.5485 374.887ZM88.9863 383.687C89.5089 384.092 90.0583 384.295 90.6343 384.295C91.0609 384.295 91.4289 384.082 91.7383 383.655C91.9623 383.346 92.1649 382.876 92.3463 382.247L92.5703 381.463L89.4342 373.815H90.8423L93.1623 379.911L94.9703 373.815H96.2503L93.3863 382.983C93.1409 383.762 92.8156 384.359 92.4103 384.775C92.0156 385.191 91.5089 385.399 90.8903 385.399C90.2823 385.399 89.6476 385.212 88.9863 384.839V383.687ZM99.4563 374.983C99.9576 374.076 100.704 373.623 101.696 373.623C102.699 373.623 103.531 373.991 104.192 374.727C104.864 375.463 105.2 376.434 105.2 377.639C105.2 378.844 104.864 379.815 104.192 380.551C103.52 381.276 102.694 381.639 101.712 381.639C100.731 381.639 100.006 381.271 99.5363 380.535V385.223H98.2723V373.815H99.3123L99.4563 374.983ZM101.648 380.519C102.246 380.519 102.768 380.263 103.216 379.751C103.675 379.239 103.904 378.54 103.904 377.655C103.904 376.759 103.686 376.05 103.248 375.527C102.822 375.004 102.299 374.743 101.68 374.743C101.062 374.743 100.555 374.94 100.16 375.335C99.7656 375.719 99.5576 376.242 99.5363 376.903V378.359C99.5363 379.031 99.7389 379.559 100.144 379.943C100.55 380.327 101.051 380.519 101.648 380.519ZM111.772 381.239C110.855 381.666 110.018 381.756 109.26 381.511C108.716 381.34 108.332 380.983 108.108 380.439C107.991 380.172 107.932 379.852 107.932 379.479V374.775H106.7V373.815H107.932V371.687H109.18V373.815H111.58V374.775H109.18V379.463C109.18 380.242 109.543 380.631 110.268 380.631C110.663 380.631 111.106 380.535 111.596 380.343L111.772 381.239ZM117.584 373.815L119.44 379.911L121.264 374.183H122.32L124.128 379.975L126 373.815H127.248L124.752 381.463H123.52L121.76 376.103L120.032 381.463H118.816L116.272 373.815H117.584ZM133.93 376.503C133.93 375.81 133.786 375.314 133.498 375.015C133.21 374.716 132.789 374.567 132.234 374.567C131.69 374.567 131.247 374.679 130.906 374.903C130.575 375.116 130.41 375.458 130.41 375.927H129.018C129.018 374.754 129.647 374.028 130.906 373.751C131.29 373.666 131.706 373.623 132.154 373.623C133.103 373.623 133.845 373.863 134.378 374.343C134.911 374.823 135.178 375.554 135.178 376.535V381.463H134.09L133.962 380.183C133.493 381.154 132.645 381.639 131.418 381.639C130.597 381.639 129.935 381.41 129.434 380.951C128.943 380.492 128.698 379.922 128.698 379.239C128.698 378.556 128.97 378.023 129.514 377.639C130.069 377.255 130.757 377.063 131.578 377.063C132.399 377.063 133.183 377.202 133.93 377.479V376.503ZM133.93 378.279C133.173 378.066 132.511 377.959 131.946 377.959C131.381 377.959 130.922 378.06 130.57 378.263C130.218 378.466 130.042 378.786 130.042 379.223C130.042 380.183 130.586 380.663 131.674 380.663C132.293 380.663 132.821 380.444 133.258 380.007C133.706 379.559 133.93 378.983 133.93 378.279ZM138.147 370.567H139.411V381.463H138.147V370.567ZM142.632 370.567H143.896V381.463H142.632V370.567ZM149.756 380.615C150.812 380.615 151.415 380.151 151.564 379.223H152.86C152.743 379.991 152.401 380.588 151.836 381.015C151.281 381.431 150.588 381.639 149.756 381.639C148.732 381.639 147.9 381.276 147.26 380.551C146.62 379.815 146.3 378.839 146.3 377.623C146.3 376.407 146.62 375.436 147.26 374.711C147.911 373.986 148.769 373.623 149.836 373.623C150.913 373.623 151.713 374.039 152.236 374.871C152.769 375.703 152.956 376.716 152.796 377.911H147.564C147.564 378.7 147.756 379.351 148.14 379.863C148.524 380.364 149.063 380.615 149.756 380.615ZM150.684 374.823C150.439 374.695 150.14 374.631 149.788 374.631C149.137 374.631 148.62 374.855 148.236 375.303C147.863 375.74 147.644 376.29 147.58 376.951H151.66C151.66 375.884 151.335 375.175 150.684 374.823ZM159.35 381.239C158.433 381.666 157.596 381.756 156.838 381.511C156.294 381.34 155.91 380.983 155.686 380.439C155.569 380.172 155.51 379.852 155.51 379.479V374.775H154.278V373.815H155.51V371.687H156.758V373.815H159.158V374.775H156.758V379.463C156.758 380.242 157.121 380.631 157.846 380.631C158.241 380.631 158.684 380.535 159.174 380.343L159.35 381.239Z" fill="#B4B8D7"/>
<g clip-path="url(#clip3)">
<path d="M245.204 375.765C245.068 375.894 245 376.047 245 376.223C245 376.399 245.068 376.552 245.204 376.68L250.017 381.236C250.153 381.364 250.314 381.429 250.5 381.429C250.686 381.429 250.847 381.364 250.983 381.236L255.796 376.68C255.932 376.552 256 376.399 256 376.223C256 376.047 255.932 375.894 255.796 375.765C255.66 375.637 255.499 375.572 255.312 375.572L245.687 375.572C245.501 375.572 245.34 375.637 245.204 375.765Z" fill="#B4B8D7"/>
</g>
<g clip-path="url(#clip4)">
<path d="M51.0293 378.537C49.8015 378.537 48.8027 379.482 48.8027 380.644C48.8027 381.806 49.8015 382.752 51.0293 382.752H54.1836C54.1961 382.752 54.2084 382.751 54.2209 382.75C54.2332 382.751 54.2453 382.752 54.2578 382.752C54.6677 382.752 55 382.437 55 382.049V376.535C55 375.6 54.5143 374.77 53.7696 374.259L51.2447 370.338C51.1417 370.178 50.9756 370.064 50.7832 370.021C50.5907 369.977 50.3879 370.008 50.2198 370.107L48.3578 371.2L47.5181 369.855C47.4171 369.693 47.252 369.576 47.0595 369.531C46.867 369.485 46.6632 369.514 46.4936 369.612L39.3439 373.725H38.2266C37.8235 373.725 37.4945 373.419 37.4846 373.04C37.4945 372.661 37.8235 372.355 38.2266 372.355H39.5996C40.0095 372.355 40.3418 372.04 40.3418 371.652C40.3418 371.264 40.0095 370.95 39.5996 370.95H38.2266C37.1764 370.95 36.2939 371.642 36.0605 372.569C36.0217 372.654 36 372.748 36 372.847V373.022V373.057V384.684C36 386.233 37.3318 387.494 38.9687 387.494H52.0312C53.3111 387.494 54.4431 386.722 54.8479 385.573C54.9776 385.205 54.7675 384.807 54.3787 384.685C53.9899 384.562 53.5695 384.761 53.4398 385.129C53.2374 385.703 52.6714 386.089 52.0312 386.089H38.9687C38.1503 386.089 37.4844 385.458 37.4844 384.684V375.009C37.7166 375.087 37.9664 375.13 38.2266 375.13H52.0312C52.8497 375.13 53.5156 375.76 53.5156 376.535V378.537H51.0293ZM53.5156 381.347H51.0293C50.62 381.347 50.2871 381.032 50.2871 380.644C50.2871 380.257 50.62 379.942 51.0293 379.942H53.5156V381.347ZM42.202 373.725L46.6224 371.182L47.4127 372.448C47.4279 372.483 47.4454 372.517 47.4669 372.55C47.483 372.574 47.5009 372.597 47.5196 372.619L48.2098 373.725H42.202ZM49.934 373.725L49.1131 372.41L50.3665 371.674L51.6871 373.725H49.934Z" fill="#B4B8D7"/>
</g>
<rect y="179" width="290" height="153" fill="#192447"/>
<rect y="179" width="6" height="153" fill="#F7941E"/>
<path d="M77.832 293.936C78.9413 293.936 79.784 294.219 80.36 294.784C80.9467 295.339 81.24 296.091 81.24 297.04C81.24 297.989 80.9467 298.741 80.36 299.296C79.784 299.84 78.9413 300.112 77.832 300.112H75.848V304H74.584V293.936H77.832ZM77.832 299.024C78.5253 299.024 79.048 298.848 79.4 298.496C79.7627 298.144 79.944 297.664 79.944 297.056C79.944 296.437 79.7627 295.947 79.4 295.584C79.048 295.211 78.5253 295.024 77.832 295.024H75.848V299.024H77.832ZM86.1154 303.152C87.1714 303.152 87.774 302.688 87.9234 301.76H89.2194C89.102 302.528 88.7607 303.125 88.1954 303.552C87.6407 303.968 86.9474 304.176 86.1154 304.176C85.0914 304.176 84.2594 303.813 83.6194 303.088C82.9794 302.352 82.6594 301.376 82.6594 300.16C82.6594 298.944 82.9794 297.973 83.6194 297.248C84.27 296.523 85.1287 296.16 86.1954 296.16C87.2727 296.16 88.0727 296.576 88.5954 297.408C89.1287 298.24 89.3154 299.253 89.1554 300.448H83.9234C83.9234 301.237 84.1154 301.888 84.4994 302.4C84.8834 302.901 85.422 303.152 86.1154 303.152ZM87.0434 297.36C86.798 297.232 86.4994 297.168 86.1474 297.168C85.4967 297.168 84.9794 297.392 84.5954 297.84C84.222 298.277 84.0034 298.827 83.9394 299.488H88.0194C88.0194 298.421 87.694 297.712 87.0434 297.36ZM92.9258 297.824C93.4271 296.715 94.2858 296.16 95.5018 296.16C96.4084 296.16 97.1124 296.459 97.6138 297.056C98.1258 297.653 98.3818 298.469 98.3818 299.504V304H97.1338V299.504C97.1338 298.768 96.9578 298.213 96.6058 297.84C96.2644 297.467 95.7738 297.28 95.1338 297.28C94.4938 297.28 93.9764 297.541 93.5818 298.064C93.1871 298.587 92.9791 299.312 92.9578 300.24V304H91.6938V296.352H92.7818L92.9258 297.824ZM106.358 297.488V293.104H107.606V304H106.582L106.422 302.72C106.177 303.2 105.852 303.563 105.446 303.808C105.041 304.053 104.598 304.176 104.118 304.176C103.148 304.176 102.332 303.803 101.67 303.056C101.02 302.309 100.694 301.339 100.694 300.144C100.694 298.939 101.014 297.973 101.654 297.248C102.305 296.523 103.121 296.16 104.102 296.16C105.094 296.16 105.846 296.603 106.358 297.488ZM104.182 297.28C103.564 297.28 103.041 297.541 102.614 298.064C102.198 298.587 101.99 299.285 101.99 300.16C101.99 301.035 102.204 301.739 102.63 302.272C103.057 302.795 103.569 303.056 104.166 303.056C104.764 303.056 105.27 302.859 105.686 302.464C106.113 302.059 106.337 301.52 106.358 300.848V299.6C106.358 298.885 106.15 298.32 105.734 297.904C105.318 297.488 104.801 297.28 104.182 297.28ZM110.93 296.336H112.194V304H110.93V296.336ZM111.554 294.544C111.298 294.544 111.096 294.475 110.946 294.336C110.808 294.187 110.738 293.995 110.738 293.76C110.738 293.515 110.808 293.323 110.946 293.184C111.096 293.035 111.298 292.96 111.554 292.96C111.81 292.96 112.013 293.035 112.162 293.184C112.322 293.323 112.402 293.515 112.402 293.76C112.402 293.995 112.322 294.187 112.162 294.336C112.013 294.475 111.81 294.544 111.554 294.544ZM116.848 297.824C117.349 296.715 118.208 296.16 119.424 296.16C120.33 296.16 121.034 296.459 121.536 297.056C122.048 297.653 122.304 298.469 122.304 299.504V304H121.056V299.504C121.056 298.768 120.88 298.213 120.528 297.84C120.186 297.467 119.696 297.28 119.056 297.28C118.416 297.28 117.898 297.541 117.504 298.064C117.109 298.587 116.901 299.312 116.88 300.24V304H115.616V296.352H116.704L116.848 297.824ZM125.592 303.76C124.952 303.451 124.632 302.976 124.632 302.336C124.632 302.005 124.755 301.717 125 301.472C125.256 301.216 125.571 301.045 125.944 300.96C125.368 300.448 125.08 299.776 125.08 298.944C125.08 298.112 125.374 297.44 125.96 296.928C126.558 296.416 127.262 296.16 128.072 296.16C128.883 296.16 129.571 296.352 130.136 296.736C130.211 296.171 130.435 295.717 130.808 295.376C131.192 295.035 131.694 294.864 132.312 294.864L132.2 296.112C131.262 296.112 130.771 296.507 130.728 297.296C131.102 297.755 131.288 298.304 131.288 298.944C131.288 299.765 130.99 300.443 130.392 300.976C129.806 301.499 129.07 301.76 128.184 301.76C127.576 301.76 127.038 301.637 126.568 301.392C126.355 301.435 126.163 301.536 125.992 301.696C125.822 301.845 125.736 302.053 125.736 302.32C125.736 302.885 126.206 303.168 127.144 303.168H130.12C130.835 303.168 131.4 303.323 131.816 303.632C132.232 303.931 132.44 304.352 132.44 304.896C132.44 305.707 132.03 306.416 131.208 307.024C130.398 307.632 129.368 307.936 128.12 307.936C126.872 307.936 125.891 307.701 125.176 307.232C124.462 306.773 124.104 306.192 124.104 305.488C124.104 305.029 124.238 304.656 124.504 304.368C124.782 304.08 125.144 303.877 125.592 303.76ZM125.352 305.44C125.352 305.845 125.571 306.192 126.008 306.48C126.456 306.779 127.128 306.928 128.024 306.928C128.931 306.928 129.683 306.731 130.28 306.336C130.888 305.952 131.192 305.499 131.192 304.976C131.192 304.731 131.102 304.517 130.92 304.336C130.75 304.165 130.483 304.08 130.12 304.08H127.032C126.488 304.101 126.072 304.229 125.784 304.464C125.496 304.709 125.352 305.035 125.352 305.44ZM130.056 298.944C130.056 298.389 129.891 297.941 129.56 297.6C129.23 297.248 128.771 297.072 128.184 297.072C127.608 297.072 127.155 297.248 126.824 297.6C126.494 297.941 126.328 298.389 126.328 298.944C126.328 299.499 126.494 299.957 126.824 300.32C127.166 300.672 127.624 300.848 128.2 300.848C128.776 300.848 129.23 300.667 129.56 300.304C129.891 299.941 130.056 299.488 130.056 298.944ZM138.132 293.936H139.396V304H138.132V293.936ZM145.56 293.936C147.075 293.936 148.285 294.395 149.192 295.312C150.109 296.219 150.568 297.44 150.568 298.976C150.568 300.501 150.109 301.723 149.192 302.64C148.285 303.547 147.075 304 145.56 304H142.6V293.936H145.56ZM143.864 302.896H145.56C146.68 302.896 147.571 302.528 148.232 301.792C148.893 301.045 149.224 300.101 149.224 298.96C149.224 297.819 148.888 296.885 148.216 296.16C147.555 295.424 146.669 295.056 145.56 295.056H143.864V302.896ZM157.007 293.936L159.887 302.4L162.783 293.936H164.111L160.543 304H159.231L155.679 293.936H157.007ZM170.227 299.04C170.227 298.347 170.083 297.851 169.795 297.552C169.507 297.253 169.086 297.104 168.531 297.104C167.987 297.104 167.544 297.216 167.203 297.44C166.872 297.653 166.707 297.995 166.707 298.464H165.315C165.315 297.291 165.944 296.565 167.203 296.288C167.587 296.203 168.003 296.16 168.451 296.16C169.4 296.16 170.142 296.4 170.675 296.88C171.208 297.36 171.475 298.091 171.475 299.072V304H170.387L170.259 302.72C169.79 303.691 168.942 304.176 167.715 304.176C166.894 304.176 166.232 303.947 165.731 303.488C165.24 303.029 164.995 302.459 164.995 301.776C164.995 301.093 165.267 300.56 165.811 300.176C166.366 299.792 167.054 299.6 167.875 299.6C168.696 299.6 169.48 299.739 170.227 300.016V299.04ZM170.227 300.816C169.47 300.603 168.808 300.496 168.243 300.496C167.678 300.496 167.219 300.597 166.867 300.8C166.515 301.003 166.339 301.323 166.339 301.76C166.339 302.72 166.883 303.2 167.971 303.2C168.59 303.2 169.118 302.981 169.555 302.544C170.003 302.096 170.227 301.52 170.227 300.816ZM177.564 297.424C176.359 297.424 175.735 298.373 175.692 300.272V304H174.428V296.336H175.692V297.808C176.076 296.741 176.753 296.208 177.724 296.208C178.033 296.208 178.327 296.256 178.604 296.352L178.54 297.584C178.22 297.477 177.895 297.424 177.564 297.424ZM180.618 296.336H181.882V304H180.618V296.336ZM181.242 294.544C180.986 294.544 180.783 294.475 180.634 294.336C180.495 294.187 180.426 293.995 180.426 293.76C180.426 293.515 180.495 293.323 180.634 293.184C180.783 293.035 180.986 292.96 181.242 292.96C181.498 292.96 181.701 293.035 181.85 293.184C182.01 293.323 182.09 293.515 182.09 293.76C182.09 293.995 182.01 294.187 181.85 294.336C181.701 294.475 181.498 294.544 181.242 294.544ZM189.031 294.176C188.679 294.037 188.402 293.968 188.199 293.968C187.826 293.968 187.532 294.059 187.319 294.24C187.106 294.421 186.999 294.741 186.999 295.2V296.352H188.583V297.216H186.999V304H185.751V297.216H184.487V296.352H185.751V295.184C185.751 294.427 185.959 293.872 186.375 293.52C186.791 293.157 187.271 292.976 187.815 292.976C188.359 292.976 188.839 293.045 189.255 293.184L189.031 294.176ZM190.884 296.336H192.148V304H190.884V296.336ZM191.508 294.544C191.252 294.544 191.049 294.475 190.9 294.336C190.761 294.187 190.692 293.995 190.692 293.76C190.692 293.515 190.761 293.323 190.9 293.184C191.049 293.035 191.252 292.96 191.508 292.96C191.764 292.96 191.966 293.035 192.116 293.184C192.276 293.323 192.356 293.515 192.356 293.76C192.356 293.995 192.276 294.187 192.116 294.336C191.966 294.475 191.764 294.544 191.508 294.544ZM198.129 296.16C199.035 296.16 199.755 296.395 200.289 296.864C200.822 297.323 201.169 297.899 201.329 298.592L200.049 298.704C199.91 298.256 199.686 297.909 199.377 297.664C199.067 297.408 198.726 297.28 198.353 297.28C197.67 297.28 197.115 297.536 196.689 298.048C196.273 298.56 196.065 299.259 196.065 300.144C196.065 301.019 196.267 301.723 196.673 302.256C197.089 302.789 197.601 303.056 198.209 303.056C198.827 303.056 199.286 302.917 199.585 302.64C199.894 302.352 200.049 301.947 200.049 301.424H201.345C201.345 302.245 201.057 302.912 200.481 303.424C199.915 303.925 199.174 304.176 198.257 304.176C197.286 304.176 196.459 303.808 195.777 303.072C195.105 302.336 194.769 301.36 194.769 300.144C194.769 298.917 195.105 297.947 195.777 297.232C196.449 296.517 197.233 296.16 198.129 296.16ZM208.555 299.04C208.555 298.347 208.411 297.851 208.123 297.552C207.835 297.253 207.414 297.104 206.859 297.104C206.315 297.104 205.872 297.216 205.531 297.44C205.2 297.653 205.035 297.995 205.035 298.464H203.643C203.643 297.291 204.272 296.565 205.531 296.288C205.915 296.203 206.331 296.16 206.779 296.16C207.728 296.16 208.47 296.4 209.003 296.88C209.536 297.36 209.803 298.091 209.803 299.072V304H208.715L208.587 302.72C208.118 303.691 207.27 304.176 206.043 304.176C205.222 304.176 204.56 303.947 204.059 303.488C203.568 303.029 203.323 302.459 203.323 301.776C203.323 301.093 203.595 300.56 204.139 300.176C204.694 299.792 205.382 299.6 206.203 299.6C207.024 299.6 207.808 299.739 208.555 300.016V299.04ZM208.555 300.816C207.798 300.603 207.136 300.496 206.571 300.496C206.006 300.496 205.547 300.597 205.195 300.8C204.843 301.003 204.667 301.323 204.667 301.76C204.667 302.72 205.211 303.2 206.299 303.2C206.918 303.2 207.446 302.981 207.883 302.544C208.331 302.096 208.555 301.52 208.555 300.816ZM216.772 303.776C215.855 304.203 215.018 304.293 214.26 304.048C213.716 303.877 213.332 303.52 213.108 302.976C212.991 302.709 212.932 302.389 212.932 302.016V297.312H211.7V296.352H212.932V294.224H214.18V296.352H216.58V297.312H214.18V302C214.18 302.779 214.543 303.168 215.268 303.168C215.663 303.168 216.106 303.072 216.596 302.88L216.772 303.776ZM218.868 296.336H220.132V304H218.868V296.336ZM219.492 294.544C219.236 294.544 219.033 294.475 218.884 294.336C218.745 294.187 218.676 293.995 218.676 293.76C218.676 293.515 218.745 293.323 218.884 293.184C219.033 293.035 219.236 292.96 219.492 292.96C219.748 292.96 219.951 293.035 220.1 293.184C220.26 293.323 220.34 293.515 220.34 293.76C220.34 293.995 220.26 294.187 220.1 294.336C219.951 294.475 219.748 294.544 219.492 294.544ZM226.321 296.16C227.388 296.16 228.246 296.507 228.897 297.2C229.558 297.893 229.889 298.885 229.889 300.176C229.889 301.456 229.558 302.443 228.897 303.136C228.246 303.829 227.388 304.176 226.321 304.176C225.254 304.176 224.39 303.829 223.729 303.136C223.078 302.443 222.753 301.456 222.753 300.176C222.753 298.885 223.078 297.893 223.729 297.2C224.39 296.507 225.254 296.16 226.321 296.16ZM228.609 300.176C228.609 299.259 228.417 298.544 228.033 298.032C227.649 297.509 227.084 297.248 226.337 297.248C225.601 297.248 225.036 297.509 224.641 298.032C224.246 298.544 224.049 299.259 224.049 300.176C224.049 301.083 224.236 301.797 224.609 302.32C224.982 302.832 225.537 303.088 226.273 303.088C227.02 303.088 227.596 302.832 228.001 302.32C228.406 301.797 228.609 301.083 228.609 300.176ZM233.52 297.824C234.021 296.715 234.88 296.16 236.096 296.16C237.002 296.16 237.706 296.459 238.208 297.056C238.72 297.653 238.976 298.469 238.976 299.504V304H237.728V299.504C237.728 298.768 237.552 298.213 237.2 297.84C236.858 297.467 236.368 297.28 235.728 297.28C235.088 297.28 234.57 297.541 234.176 298.064C233.781 298.587 233.573 299.312 233.552 300.24V304H232.288V296.352H233.376L233.52 297.824Z" fill="#B4B8D7"/>
<path d="M75.656 249.936V256.368C75.656 257.307 75.8907 257.984 76.36 258.4C76.8293 258.816 77.448 259.024 78.216 259.024C78.984 259.024 79.6027 258.816 80.072 258.4C80.5413 257.984 80.776 257.307 80.776 256.368V249.936H82.04V256.368C82.04 257.627 81.6933 258.576 81 259.216C80.3067 259.856 79.3733 260.176 78.2 260.176C77.0373 260.176 76.1093 259.856 75.416 259.216C74.7333 258.576 74.392 257.627 74.392 256.368V249.936H75.656ZM84.6848 254.224C84.6848 253.595 84.9514 253.093 85.4848 252.72C86.0288 252.347 86.7594 252.16 87.6768 252.16C88.5941 252.16 89.3088 252.352 89.8208 252.736C90.3434 253.12 90.6154 253.605 90.6368 254.192H89.4048C89.3088 253.499 88.7221 253.152 87.6448 253.152C87.1221 253.152 86.7168 253.269 86.4288 253.504C86.1514 253.739 86.0128 253.995 86.0128 254.272C86.0128 254.539 86.1194 254.768 86.3328 254.96C86.5461 255.141 86.8874 255.301 87.3568 255.44L88.8928 255.952C89.5434 256.155 90.0394 256.416 90.3808 256.736C90.7328 257.045 90.9088 257.477 90.9088 258.032C90.9088 258.576 90.6261 259.072 90.0608 259.52C89.4954 259.957 88.7061 260.176 87.6927 260.176C86.6794 260.176 85.8901 259.952 85.3248 259.504C84.7594 259.045 84.4608 258.459 84.4288 257.744H85.6448C85.6661 258.224 85.8581 258.587 86.2208 258.832C86.5941 259.067 87.0581 259.184 87.6128 259.184C88.1674 259.184 88.6261 259.067 88.9888 258.832C89.3514 258.597 89.5328 258.32 89.5328 258C89.5328 257.669 89.4261 257.419 89.2128 257.248C88.9994 257.077 88.6528 256.928 88.1727 256.8L86.6848 256.304C85.3514 255.909 84.6848 255.216 84.6848 254.224ZM96.1466 259.152C97.2026 259.152 97.8053 258.688 97.9546 257.76H99.2506C99.1333 258.528 98.792 259.125 98.2266 259.552C97.672 259.968 96.9786 260.176 96.1466 260.176C95.1226 260.176 94.2906 259.813 93.6506 259.088C93.0106 258.352 92.6906 257.376 92.6906 256.16C92.6906 254.944 93.0106 253.973 93.6506 253.248C94.3013 252.523 95.16 252.16 96.2266 252.16C97.304 252.16 98.104 252.576 98.6266 253.408C99.16 254.24 99.3466 255.253 99.1866 256.448H93.9546C93.9546 257.237 94.1466 257.888 94.5306 258.4C94.9146 258.901 95.4533 259.152 96.1466 259.152ZM97.0746 253.36C96.8293 253.232 96.5306 253.168 96.1786 253.168C95.528 253.168 95.0106 253.392 94.6266 253.84C94.2533 254.277 94.0346 254.827 93.9706 255.488H98.0506C98.0506 254.421 97.7253 253.712 97.0746 253.36ZM104.861 253.424C103.656 253.424 103.032 254.373 102.989 256.272V260H101.725V252.336H102.989V253.808C103.373 252.741 104.05 252.208 105.021 252.208C105.33 252.208 105.624 252.256 105.901 252.352L105.837 253.584C105.517 253.477 105.192 253.424 104.861 253.424Z" fill="#F7941E"/>
<path d="M75.656 204.993V211.425C75.656 212.363 75.8907 213.041 76.36 213.457C76.8293 213.873 77.448 214.081 78.216 214.081C78.984 214.081 79.6027 213.873 80.072 213.457C80.5413 213.041 80.776 212.363 80.776 211.425V204.993H82.04V211.425C82.04 212.683 81.6933 213.633 81 214.273C80.3067 214.913 79.3733 215.233 78.2 215.233C77.0373 215.233 76.1093 214.913 75.416 214.273C74.7333 213.633 74.392 212.683 74.392 211.425V204.993H75.656ZM84.6848 209.281C84.6848 208.651 84.9514 208.15 85.4848 207.777C86.0288 207.403 86.7594 207.217 87.6768 207.217C88.5941 207.217 89.3088 207.409 89.8208 207.793C90.3434 208.177 90.6154 208.662 90.6368 209.249H89.4048C89.3088 208.555 88.7221 208.209 87.6448 208.209C87.1221 208.209 86.7168 208.326 86.4288 208.561C86.1514 208.795 86.0128 209.051 86.0128 209.329C86.0128 209.595 86.1194 209.825 86.3328 210.017C86.5461 210.198 86.8874 210.358 87.3568 210.497L88.8928 211.009C89.5434 211.211 90.0394 211.473 90.3808 211.793C90.7328 212.102 90.9088 212.534 90.9088 213.089C90.9088 213.633 90.6261 214.129 90.0608 214.577C89.4954 215.014 88.7061 215.233 87.6927 215.233C86.6794 215.233 85.8901 215.009 85.3248 214.561C84.7594 214.102 84.4608 213.515 84.4288 212.801H85.6448C85.6661 213.281 85.8581 213.643 86.2208 213.889C86.5941 214.123 87.0581 214.241 87.6128 214.241C88.1674 214.241 88.6261 214.123 88.9888 213.889C89.3514 213.654 89.5328 213.377 89.5328 213.057C89.5328 212.726 89.4261 212.475 89.2128 212.305C88.9994 212.134 88.6528 211.985 88.1727 211.857L86.6848 211.361C85.3514 210.966 84.6848 210.273 84.6848 209.281ZM96.1466 214.209C97.2026 214.209 97.8053 213.745 97.9546 212.817H99.2506C99.1333 213.585 98.792 214.182 98.2266 214.609C97.672 215.025 96.9786 215.233 96.1466 215.233C95.1226 215.233 94.2906 214.87 93.6506 214.145C93.0106 213.409 92.6906 212.433 92.6906 211.217C92.6906 210.001 93.0106 209.03 93.6506 208.305C94.3013 207.579 95.16 207.217 96.2266 207.217C97.304 207.217 98.104 207.633 98.6266 208.465C99.16 209.297 99.3466 210.31 99.1866 211.505H93.9546C93.9546 212.294 94.1466 212.945 94.5306 213.457C94.9146 213.958 95.4533 214.209 96.1466 214.209ZM97.0746 208.417C96.8293 208.289 96.5306 208.225 96.1786 208.225C95.528 208.225 95.0106 208.449 94.6266 208.897C94.2533 209.334 94.0346 209.883 93.9706 210.545H98.0506C98.0506 209.478 97.7253 208.769 97.0746 208.417ZM104.861 208.481C103.656 208.481 103.032 209.43 102.989 211.329V215.057H101.725V207.393H102.989V208.865C103.373 207.798 104.05 207.265 105.021 207.265C105.33 207.265 105.624 207.313 105.901 207.409L105.837 208.641C105.517 208.534 105.192 208.481 104.861 208.481ZM112.863 208.881C113.365 207.771 114.223 207.217 115.439 207.217C116.101 207.217 116.655 207.382 117.103 207.713C117.551 208.033 117.877 208.481 118.079 209.057C118.559 207.83 119.45 207.217 120.751 207.217C121.669 207.217 122.378 207.515 122.879 208.113C123.381 208.71 123.631 209.526 123.631 210.561V215.057H122.383V210.561C122.383 209.825 122.207 209.27 121.855 208.897C121.514 208.523 121.018 208.337 120.367 208.337C119.717 208.337 119.21 208.603 118.847 209.137C118.495 209.67 118.319 210.406 118.319 211.345V215.057H117.071V210.561C117.071 209.825 116.895 209.27 116.543 208.897C116.202 208.523 115.711 208.337 115.071 208.337C114.431 208.337 113.914 208.598 113.519 209.121C113.125 209.643 112.917 210.369 112.895 211.297V215.057H111.631V207.409H112.719L112.863 208.881ZM131.336 210.097C131.336 209.403 131.192 208.907 130.904 208.609C130.616 208.31 130.195 208.161 129.64 208.161C129.096 208.161 128.654 208.273 128.312 208.497C127.982 208.71 127.816 209.051 127.816 209.521H126.424C126.424 208.347 127.054 207.622 128.312 207.345C128.696 207.259 129.112 207.217 129.56 207.217C130.51 207.217 131.251 207.457 131.784 207.937C132.318 208.417 132.584 209.147 132.584 210.129V215.057H131.496L131.368 213.777C130.899 214.747 130.051 215.233 128.824 215.233C128.003 215.233 127.342 215.003 126.84 214.545C126.35 214.086 126.104 213.515 126.104 212.833C126.104 212.15 126.376 211.617 126.92 211.233C127.475 210.849 128.163 210.657 128.984 210.657C129.806 210.657 130.59 210.795 131.336 211.073V210.097ZM131.336 211.873C130.579 211.659 129.918 211.553 129.352 211.553C128.787 211.553 128.328 211.654 127.976 211.857C127.624 212.059 127.448 212.379 127.448 212.817C127.448 213.777 127.992 214.257 129.08 214.257C129.699 214.257 130.227 214.038 130.664 213.601C131.112 213.153 131.336 212.577 131.336 211.873ZM136.77 208.881C137.271 207.771 138.13 207.217 139.346 207.217C140.252 207.217 140.956 207.515 141.458 208.113C141.97 208.71 142.226 209.526 142.226 210.561V215.057H140.978V210.561C140.978 209.825 140.802 209.27 140.45 208.897C140.108 208.523 139.618 208.337 138.978 208.337C138.338 208.337 137.82 208.598 137.426 209.121C137.031 209.643 136.823 210.369 136.802 211.297V215.057H135.538V207.409H136.626L136.77 208.881ZM149.93 210.097C149.93 209.403 149.786 208.907 149.498 208.609C149.21 208.31 148.789 208.161 148.234 208.161C147.69 208.161 147.247 208.273 146.906 208.497C146.575 208.71 146.41 209.051 146.41 209.521H145.018C145.018 208.347 145.647 207.622 146.906 207.345C147.29 207.259 147.706 207.217 148.154 207.217C149.103 207.217 149.845 207.457 150.378 207.937C150.911 208.417 151.178 209.147 151.178 210.129V215.057H150.09L149.962 213.777C149.493 214.747 148.645 215.233 147.418 215.233C146.597 215.233 145.935 215.003 145.434 214.545C144.943 214.086 144.698 213.515 144.698 212.833C144.698 212.15 144.97 211.617 145.514 211.233C146.069 210.849 146.757 210.657 147.578 210.657C148.399 210.657 149.183 210.795 149.93 211.073V210.097ZM149.93 211.873C149.173 211.659 148.511 211.553 147.946 211.553C147.381 211.553 146.922 211.654 146.57 211.857C146.218 212.059 146.042 212.379 146.042 212.817C146.042 213.777 146.586 214.257 147.674 214.257C148.293 214.257 148.821 214.038 149.258 213.601C149.706 213.153 149.93 212.577 149.93 211.873ZM154.467 214.817C153.827 214.507 153.507 214.033 153.507 213.393C153.507 213.062 153.63 212.774 153.875 212.529C154.131 212.273 154.446 212.102 154.819 212.017C154.243 211.505 153.955 210.833 153.955 210.001C153.955 209.169 154.249 208.497 154.835 207.985C155.433 207.473 156.137 207.217 156.947 207.217C157.758 207.217 158.446 207.409 159.011 207.793C159.086 207.227 159.31 206.774 159.683 206.433C160.067 206.091 160.569 205.921 161.187 205.921L161.075 207.169C160.137 207.169 159.646 207.563 159.603 208.353C159.977 208.811 160.163 209.361 160.163 210.001C160.163 210.822 159.865 211.499 159.267 212.033C158.681 212.555 157.945 212.817 157.059 212.817C156.451 212.817 155.913 212.694 155.443 212.449C155.23 212.491 155.038 212.593 154.867 212.753C154.697 212.902 154.611 213.11 154.611 213.377C154.611 213.942 155.081 214.225 156.019 214.225H158.995C159.71 214.225 160.275 214.379 160.691 214.689C161.107 214.987 161.315 215.409 161.315 215.953C161.315 216.763 160.905 217.473 160.083 218.081C159.273 218.689 158.243 218.993 156.995 218.993C155.747 218.993 154.766 218.758 154.051 218.289C153.337 217.83 152.979 217.249 152.979 216.545C152.979 216.086 153.113 215.713 153.379 215.425C153.657 215.137 154.019 214.934 154.467 214.817ZM154.227 216.497C154.227 216.902 154.446 217.249 154.883 217.537C155.331 217.835 156.003 217.985 156.899 217.985C157.806 217.985 158.558 217.787 159.155 217.393C159.763 217.009 160.067 216.555 160.067 216.033C160.067 215.787 159.977 215.574 159.795 215.393C159.625 215.222 159.358 215.137 158.995 215.137H155.907C155.363 215.158 154.947 215.286 154.659 215.521C154.371 215.766 154.227 216.091 154.227 216.497ZM158.931 210.001C158.931 209.446 158.766 208.998 158.435 208.657C158.105 208.305 157.646 208.129 157.059 208.129C156.483 208.129 156.03 208.305 155.699 208.657C155.369 208.998 155.203 209.446 155.203 210.001C155.203 210.555 155.369 211.014 155.699 211.377C156.041 211.729 156.499 211.905 157.075 211.905C157.651 211.905 158.105 211.723 158.435 211.361C158.766 210.998 158.931 210.545 158.931 210.001ZM165.834 214.209C166.89 214.209 167.493 213.745 167.642 212.817H168.938C168.821 213.585 168.479 214.182 167.914 214.609C167.359 215.025 166.666 215.233 165.834 215.233C164.81 215.233 163.978 214.87 163.338 214.145C162.698 213.409 162.378 212.433 162.378 211.217C162.378 210.001 162.698 209.03 163.338 208.305C163.989 207.579 164.847 207.217 165.914 207.217C166.991 207.217 167.791 207.633 168.314 208.465C168.847 209.297 169.034 210.31 168.874 211.505H163.642C163.642 212.294 163.834 212.945 164.218 213.457C164.602 213.958 165.141 214.209 165.834 214.209ZM166.762 208.417C166.517 208.289 166.218 208.225 165.866 208.225C165.215 208.225 164.698 208.449 164.314 208.897C163.941 209.334 163.722 209.883 163.658 210.545H167.738C167.738 209.478 167.413 208.769 166.762 208.417ZM172.645 208.881C173.146 207.771 174.005 207.217 175.221 207.217C175.882 207.217 176.437 207.382 176.885 207.713C177.333 208.033 177.658 208.481 177.861 209.057C178.341 207.83 179.231 207.217 180.533 207.217C181.45 207.217 182.159 207.515 182.661 208.113C183.162 208.71 183.413 209.526 183.413 210.561V215.057H182.165V210.561C182.165 209.825 181.989 209.27 181.637 208.897C181.295 208.523 180.799 208.337 180.149 208.337C179.498 208.337 178.991 208.603 178.628 209.137C178.277 209.67 178.101 210.406 178.101 211.345V215.057H176.853V210.561C176.853 209.825 176.677 209.27 176.325 208.897C175.983 208.523 175.493 208.337 174.853 208.337C174.213 208.337 173.695 208.598 173.301 209.121C172.906 209.643 172.698 210.369 172.677 211.297V215.057H171.413V207.409H172.501L172.645 208.881ZM189.022 214.209C190.078 214.209 190.68 213.745 190.83 212.817H192.126C192.008 213.585 191.667 214.182 191.102 214.609C190.547 215.025 189.854 215.233 189.022 215.233C187.998 215.233 187.166 214.87 186.526 214.145C185.886 213.409 185.566 212.433 185.566 211.217C185.566 210.001 185.886 209.03 186.526 208.305C187.176 207.579 188.035 207.217 189.102 207.217C190.179 207.217 190.979 207.633 191.502 208.465C192.035 209.297 192.222 210.31 192.062 211.505H186.83C186.83 212.294 187.022 212.945 187.406 213.457C187.79 213.958 188.328 214.209 189.022 214.209ZM189.95 208.417C189.704 208.289 189.406 208.225 189.054 208.225C188.403 208.225 187.886 208.449 187.502 208.897C187.128 209.334 186.91 209.883 186.846 210.545H190.926C190.926 209.478 190.6 208.769 189.95 208.417ZM197.736 208.481C196.531 208.481 195.907 209.43 195.864 211.329V215.057H194.6V207.393H195.864V208.865C196.248 207.798 196.925 207.265 197.896 207.265C198.205 207.265 198.499 207.313 198.776 207.409L198.712 208.641C198.392 208.534 198.067 208.481 197.736 208.481ZM204.71 214.833C203.792 215.259 202.955 215.35 202.198 215.105C201.654 214.934 201.27 214.577 201.046 214.033C200.928 213.766 200.87 213.446 200.87 213.073V208.369H199.638V207.409H200.87V205.281H202.118V207.409H204.518V208.369H202.118V213.057C202.118 213.835 202.48 214.225 203.206 214.225C203.6 214.225 204.043 214.129 204.534 213.937L204.71 214.833Z" fill="#B4B8D7"/>
<path d="M56.25 211.77C56.25 217.068 51.7003 221.432 46 221.432C40.2997 221.432 35.75 217.068 35.75 211.77C35.75 206.472 40.2997 202.108 46 202.108C51.7003 202.108 56.25 206.472 56.25 211.77Z" stroke="#B4B8D7" stroke-width="1.5"/>
<g clip-path="url(#clip5)">
<path d="M51.2543 216.199L51.1856 216.272L51.2543 216.199C50.4936 215.479 49.5971 214.935 48.6198 214.587C49.6626 213.837 50.3397 212.648 50.3397 211.311C50.3397 209.038 48.3878 207.198 46.0001 207.198C43.6124 207.198 41.6605 209.038 41.6605 211.311C41.6605 212.648 42.3375 213.837 43.3804 214.587C42.4031 214.935 41.5066 215.479 40.7459 216.199L40.8146 216.272L40.7459 216.199C39.3415 217.529 38.5667 219.298 38.5667 221.18V221.28H38.6667H39.8126H39.9126V221.18C39.9126 218.011 42.6383 215.424 46.0001 215.424C49.3619 215.424 52.0876 218.011 52.0876 221.18V221.28H52.1876H53.3334H53.4334V221.18C53.4334 219.298 52.6587 217.529 51.2543 216.199ZM46.0001 214.139C44.3442 214.139 43.0063 212.865 43.0063 211.311C43.0063 209.756 44.3442 208.482 46.0001 208.482C47.656 208.482 48.9938 209.756 48.9938 211.311C48.9938 212.865 47.656 214.139 46.0001 214.139Z" fill="#B4B8D7" stroke="#B4B8D7" stroke-width="0.2"/>
</g>
<g clip-path="url(#clip6)">
<path d="M245.204 214.98C245.068 214.851 245 214.698 245 214.522C245 214.346 245.068 214.193 245.204 214.065L250.017 209.51C250.153 209.381 250.314 209.316 250.5 209.316C250.686 209.316 250.847 209.381 250.983 209.51L255.796 214.065C255.932 214.193 256 214.346 256 214.522C256 214.698 255.932 214.851 255.796 214.98C255.66 215.109 255.499 215.173 255.312 215.173L245.687 215.173C245.501 215.173 245.34 215.109 245.204 214.98Z" fill="#B4B8D7"/>
</g>
<path d="M77.56 126.522C79.0747 126.522 80.2853 126.981 81.192 127.898C82.1093 128.805 82.568 130.026 82.568 131.562C82.568 133.087 82.1093 134.309 81.192 135.226C80.2853 136.133 79.0747 136.586 77.56 136.586H74.6V126.522H77.56ZM75.864 135.482H77.56C78.68 135.482 79.5707 135.114 80.232 134.378C80.8933 133.631 81.224 132.687 81.224 131.546C81.224 130.405 80.888 129.471 80.216 128.746C79.5547 128.01 78.6693 127.642 77.56 127.642H75.864V135.482ZM89.9301 131.626C89.9301 130.933 89.7861 130.437 89.4981 130.138C89.2101 129.839 88.7888 129.69 88.2341 129.69C87.6901 129.69 87.2475 129.802 86.9061 130.026C86.5755 130.239 86.4101 130.581 86.4101 131.05H85.0181C85.0181 129.877 85.6475 129.151 86.9061 128.874C87.2901 128.789 87.7061 128.746 88.1541 128.746C89.1035 128.746 89.8448 128.986 90.3781 129.466C90.9115 129.946 91.1781 130.677 91.1781 131.658V136.586H90.0901L89.9621 135.306C89.4928 136.277 88.6448 136.762 87.4181 136.762C86.5968 136.762 85.9355 136.533 85.4341 136.074C84.9435 135.615 84.6981 135.045 84.6981 134.362C84.6981 133.679 84.9701 133.146 85.5141 132.762C86.0688 132.378 86.7568 132.186 87.5781 132.186C88.3995 132.186 89.1835 132.325 89.9301 132.602V131.626ZM89.9301 133.402C89.1728 133.189 88.5115 133.082 87.9461 133.082C87.3808 133.082 86.9221 133.183 86.5701 133.386C86.2181 133.589 86.0421 133.909 86.0421 134.346C86.0421 135.306 86.5861 135.786 87.6741 135.786C88.2928 135.786 88.8208 135.567 89.2581 135.13C89.7061 134.682 89.9301 134.106 89.9301 133.402ZM93.7473 130.81C93.7473 130.181 94.0139 129.679 94.5473 129.306C95.0913 128.933 95.8219 128.746 96.7393 128.746C97.6566 128.746 98.3713 128.938 98.8833 129.322C99.4059 129.706 99.6779 130.191 99.6993 130.778H98.4673C98.3713 130.085 97.7846 129.738 96.7073 129.738C96.1846 129.738 95.7793 129.855 95.4913 130.09C95.2139 130.325 95.0753 130.581 95.0753 130.858C95.0753 131.125 95.1819 131.354 95.3953 131.546C95.6086 131.727 95.9499 131.887 96.4193 132.026L97.9553 132.538C98.6059 132.741 99.1019 133.002 99.4433 133.322C99.7953 133.631 99.9713 134.063 99.9713 134.618C99.9713 135.162 99.6886 135.658 99.1233 136.106C98.5579 136.543 97.7686 136.762 96.7552 136.762C95.7419 136.762 94.9526 136.538 94.3873 136.09C93.8219 135.631 93.5233 135.045 93.4913 134.33H94.7073C94.7286 134.81 94.9206 135.173 95.2833 135.418C95.6566 135.653 96.1206 135.77 96.6753 135.77C97.2299 135.77 97.6886 135.653 98.0513 135.418C98.4139 135.183 98.5953 134.906 98.5953 134.586C98.5953 134.255 98.4886 134.005 98.2753 133.834C98.0619 133.663 97.7153 133.514 97.2352 133.386L95.7473 132.89C94.4139 132.495 93.7473 131.802 93.7473 130.81ZM103.833 130.346C104.345 129.279 105.193 128.746 106.377 128.746C107.284 128.746 107.988 129.045 108.489 129.642C109.001 130.239 109.257 131.055 109.257 132.09V136.586H108.009V132.09C108.009 131.354 107.833 130.799 107.481 130.426C107.14 130.053 106.644 129.866 105.993 129.866C105.342 129.866 104.82 130.143 104.425 130.698C104.03 131.242 103.833 131.999 103.833 132.97V136.586H102.569V125.69H103.833V130.346ZM113.489 130.074C114.001 129.189 114.748 128.746 115.729 128.746C116.711 128.746 117.527 129.114 118.177 129.85C118.828 130.575 119.153 131.541 119.153 132.746C119.153 133.941 118.823 134.911 118.161 135.658C117.5 136.394 116.695 136.762 115.745 136.762C115.233 136.762 114.769 136.634 114.353 136.378C113.948 136.122 113.628 135.743 113.393 135.242L113.105 136.586H112.225V125.69H113.489V130.074ZM115.649 129.866C115.041 129.866 114.535 130.063 114.129 130.458C113.724 130.842 113.511 131.381 113.489 132.074V133.322C113.489 134.026 113.697 134.591 114.113 135.018C114.54 135.434 115.052 135.642 115.649 135.642C116.247 135.642 116.764 135.381 117.201 134.858C117.639 134.325 117.857 133.621 117.857 132.746C117.857 131.871 117.639 131.173 117.201 130.65C116.775 130.127 116.257 129.866 115.649 129.866ZM124.321 128.746C125.388 128.746 126.246 129.093 126.897 129.786C127.558 130.479 127.889 131.471 127.889 132.762C127.889 134.042 127.558 135.029 126.897 135.722C126.246 136.415 125.388 136.762 124.321 136.762C123.254 136.762 122.39 136.415 121.729 135.722C121.078 135.029 120.753 134.042 120.753 132.762C120.753 131.471 121.078 130.479 121.729 129.786C122.39 129.093 123.254 128.746 124.321 128.746ZM126.609 132.762C126.609 131.845 126.417 131.13 126.033 130.618C125.649 130.095 125.084 129.834 124.337 129.834C123.601 129.834 123.036 130.095 122.641 130.618C122.246 131.13 122.049 131.845 122.049 132.762C122.049 133.669 122.236 134.383 122.609 134.906C122.982 135.418 123.537 135.674 124.273 135.674C125.02 135.674 125.596 135.418 126.001 134.906C126.406 134.383 126.609 133.669 126.609 132.762ZM135.04 131.626C135.04 130.933 134.896 130.437 134.608 130.138C134.32 129.839 133.898 129.69 133.344 129.69C132.8 129.69 132.357 129.802 132.016 130.026C131.685 130.239 131.52 130.581 131.52 131.05H130.128C130.128 129.877 130.757 129.151 132.016 128.874C132.4 128.789 132.816 128.746 133.264 128.746C134.213 128.746 134.954 128.986 135.488 129.466C136.021 129.946 136.288 130.677 136.288 131.658V136.586H135.2L135.072 135.306C134.602 136.277 133.754 136.762 132.528 136.762C131.706 136.762 131.045 136.533 130.544 136.074C130.053 135.615 129.808 135.045 129.808 134.362C129.808 133.679 130.08 133.146 130.624 132.762C131.178 132.378 131.866 132.186 132.688 132.186C133.509 132.186 134.293 132.325 135.04 132.602V131.626ZM135.04 133.402C134.282 133.189 133.621 133.082 133.056 133.082C132.49 133.082 132.032 133.183 131.68 133.386C131.328 133.589 131.152 133.909 131.152 134.346C131.152 135.306 131.696 135.786 132.784 135.786C133.402 135.786 133.93 135.567 134.368 135.13C134.816 134.682 135.04 134.106 135.04 133.402ZM142.377 130.01C141.171 130.01 140.547 130.959 140.505 132.858V136.586H139.241V128.922H140.505V130.394C140.889 129.327 141.566 128.794 142.537 128.794C142.846 128.794 143.139 128.842 143.417 128.938L143.353 130.17C143.033 130.063 142.707 130.01 142.377 130.01ZM150.358 130.074V125.69H151.606V136.586H150.582L150.422 135.306C150.177 135.786 149.852 136.149 149.446 136.394C149.041 136.639 148.598 136.762 148.118 136.762C147.148 136.762 146.332 136.389 145.67 135.642C145.02 134.895 144.694 133.925 144.694 132.73C144.694 131.525 145.014 130.559 145.654 129.834C146.305 129.109 147.121 128.746 148.102 128.746C149.094 128.746 149.846 129.189 150.358 130.074ZM148.182 129.866C147.564 129.866 147.041 130.127 146.614 130.65C146.198 131.173 145.99 131.871 145.99 132.746C145.99 133.621 146.204 134.325 146.63 134.858C147.057 135.381 147.569 135.642 148.166 135.642C148.764 135.642 149.27 135.445 149.686 135.05C150.113 134.645 150.337 134.106 150.358 133.434V132.186C150.358 131.471 150.15 130.906 149.734 130.49C149.318 130.074 148.801 129.866 148.182 129.866Z" fill="#B4B8D7"/>
<path d="M52.9187 127.286C52.6388 127.008 52.1996 126.966 51.8724 127.188C50.6401 128.024 44.4591 132.225 43.7948 132.886C42.8314 133.844 42.8314 135.403 43.7948 136.361C44.2764 136.84 44.9092 137.08 45.5418 137.08C46.1745 137.08 46.8072 136.84 47.2889 136.361C47.9532 135.7 52.1769 129.552 53.0169 128.327C53.2397 128.001 53.1985 127.564 52.9187 127.286ZM46.1242 135.203C45.8031 135.522 45.2806 135.522 44.9595 135.203C44.6384 134.883 44.6383 134.364 44.9593 134.044C45.2174 133.791 46.9723 132.546 49.1315 131.053C47.6307 133.2 46.3791 134.946 46.1242 135.203Z" fill="#B4B8D7"/>
<path d="M38.7979 138.434L37.7812 138.928C37.0373 137.607 36.6471 136.133 36.6471 134.624C36.6471 133.519 36.8521 132.46 37.2261 131.483L38.3911 132.039C38.506 132.094 38.6272 132.12 38.7467 132.12C39.0536 132.12 39.3482 131.948 39.4899 131.655C39.6865 131.247 39.5136 130.758 39.1034 130.562L37.9532 130.013C39.3828 127.694 41.8563 126.077 44.7182 125.815V127.047C44.7182 127.499 45.0869 127.866 45.5417 127.866C45.9966 127.866 46.3653 127.499 46.3653 127.047V125.814C47.3465 125.903 48.2959 126.151 49.1972 126.556C49.6117 126.742 50.0995 126.559 50.2867 126.147C50.4738 125.734 50.2895 125.249 49.8749 125.063C48.5091 124.45 47.0513 124.139 45.5417 124.139C42.7259 124.139 40.0787 125.229 38.0876 127.21C36.0965 129.19 35 131.823 35 134.624C35 136.694 35.6176 138.707 36.786 140.445C36.9434 140.679 37.2036 140.809 37.4712 140.809C37.5928 140.809 37.7161 140.782 37.8318 140.726L39.5201 139.907C39.9289 139.708 40.0987 139.218 39.8993 138.811C39.6998 138.405 39.2068 138.236 38.7979 138.434Z" fill="#B4B8D7"/>
<path d="M55.1543 130.312C54.9672 129.9 54.4795 129.717 54.0648 129.903C53.6503 130.089 53.4659 130.574 53.6531 130.987C54.1728 132.132 54.4363 133.355 54.4363 134.622C54.4363 136.134 54.0449 137.61 53.2988 138.932L52.2373 138.429C51.8267 138.235 51.3352 138.408 51.1396 138.817C50.9441 139.225 51.1185 139.714 51.5291 139.909L53.2586 140.728C53.3724 140.782 53.493 140.807 53.6123 140.807C53.88 140.807 54.1402 140.677 54.2974 140.443C55.4659 138.705 56.0835 136.692 56.0835 134.622C56.0835 133.121 55.7708 131.671 55.1543 130.312Z" fill="#B4B8D7"/>
<path d="M178.561 34.0476C178.561 32.6026 178.795 31.3356 179.261 30.2466C179.75 29.1577 180.391 28.2571 181.184 27.5451C181.977 26.8121 182.886 26.2676 183.911 25.9116C184.937 25.5347 185.986 25.3462 187.058 25.3462C189.576 25.3462 191.534 26.0478 192.933 27.4509C194.355 28.854 195.066 30.9482 195.066 33.7335C195.066 33.9429 195.054 34.1838 195.031 34.456C195.031 34.7073 195.019 34.9377 194.996 35.1471H182.932H178.561V34.0476Z" fill="#F7941E"/>
<path d="M81.4592 34.3781C81.4592 33.061 81.6771 31.8347 82.1131 30.6993C82.5491 29.5411 83.1667 28.5419 83.9659 27.7017C84.7894 26.8615 85.7824 26.2029 86.9449 25.726C88.1075 25.2491 89.4154 25.0107 90.8685 25.0107C92.6608 25.0107 94.3562 25.3173 95.9547 25.9304L95.0101 29.3027C94.5015 29.0983 93.9202 28.928 93.2663 28.7917C92.6366 28.6555 91.9584 28.5873 91.2318 28.5873C89.5122 28.5873 88.2044 29.0983 87.3082 30.1202C86.4121 31.1194 85.964 32.5387 85.964 34.3781C85.964 36.1494 86.3879 37.5574 87.2356 38.602C88.0833 39.6239 89.5122 40.1349 91.5225 40.1349C92.2733 40.1349 93.012 40.0667 93.7386 39.9305C94.4652 39.7942 95.0949 39.6239 95.6277 39.4195L96.2453 42.8259C95.7609 43.053 95.0222 43.2574 94.0292 43.439C93.0604 43.6207 92.0553 43.7115 91.0139 43.7115C89.3911 43.7115 87.9743 43.4844 86.7633 43.0303C85.5765 42.5534 84.5835 41.9062 83.7843 41.0886C83.0092 40.2484 82.428 39.2606 82.0404 38.1251C81.6529 36.967 81.4592 35.718 81.4592 34.3781Z" fill="white"/>
<path d="M112.255 34.4463C112.255 32.6068 111.807 31.1762 110.911 30.1543C110.039 29.1324 108.622 28.6214 106.66 28.6214C106.249 28.6214 105.813 28.6441 105.352 28.6895C104.916 28.7122 104.481 28.7804 104.045 28.8939V39.0789C104.432 39.3287 104.941 39.5671 105.57 39.7942C106.224 39.9986 106.915 40.1008 107.641 40.1008C109.24 40.1008 110.402 39.5899 111.129 38.5679C111.88 37.546 112.255 36.1722 112.255 34.4463ZM116.76 34.3781C116.76 35.7407 116.566 36.9897 116.179 38.1251C115.815 39.2606 115.283 40.2371 114.58 41.0546C113.878 41.8721 112.994 42.508 111.928 42.9621C110.887 43.4163 109.7 43.6434 108.368 43.6434C107.472 43.6434 106.648 43.5412 105.897 43.3368C105.147 43.1325 104.529 42.9054 104.045 42.6556V49.5705H99.6487V26.0326C100.545 25.8055 101.647 25.5898 102.955 25.3854C104.263 25.181 105.643 25.0788 107.096 25.0788C108.598 25.0788 109.942 25.2945 111.129 25.726C112.316 26.1575 113.321 26.782 114.144 27.5995C114.992 28.3943 115.634 29.3708 116.07 30.529C116.53 31.6644 116.76 32.9475 116.76 34.3781Z" fill="white"/>
<path d="M138.474 34.3441C138.474 35.752 138.256 37.0351 137.82 38.1932C137.384 39.3514 136.767 40.3392 135.968 41.1568C135.168 41.9743 134.199 42.6101 133.061 43.0643C131.947 43.5185 130.712 43.7456 129.356 43.7456C127.999 43.7456 126.764 43.5185 125.65 43.0643C124.536 42.6101 123.579 41.9743 122.78 41.1568C121.981 40.3392 121.351 39.3514 120.891 38.1932C120.455 37.0351 120.237 35.752 120.237 34.3441C120.237 32.9361 120.455 31.6644 120.891 30.529C121.351 29.3708 121.981 28.383 122.78 27.5654C123.603 26.7479 124.572 26.1234 125.686 25.692C126.8 25.2378 128.023 25.0107 129.356 25.0107C130.688 25.0107 131.911 25.2378 133.025 25.692C134.163 26.1234 135.132 26.7479 135.931 27.5654C136.73 28.383 137.348 29.3708 137.784 30.529C138.244 31.6644 138.474 32.9361 138.474 34.3441ZM133.969 34.3441C133.969 32.5728 133.558 31.1762 132.734 30.1543C131.935 29.1097 130.809 28.5873 129.356 28.5873C127.902 28.5873 126.764 29.1097 125.941 30.1543C125.141 31.1762 124.742 32.5728 124.742 34.3441C124.742 36.1381 125.141 37.5574 125.941 38.602C126.764 39.6466 127.902 40.1689 129.356 40.1689C130.809 40.1689 131.935 39.6466 132.734 38.602C133.558 37.5574 133.969 36.1381 133.969 34.3441Z" fill="white"/>
<path d="M141.949 34.3781C141.949 33.061 142.167 31.8347 142.603 30.6993C143.039 29.5411 143.657 28.5419 144.456 27.7017C145.28 26.8615 146.273 26.2029 147.435 25.726C148.598 25.2491 149.906 25.0107 151.359 25.0107C153.151 25.0107 154.846 25.3173 156.445 25.9304L155.5 29.3027C154.992 29.0983 154.411 28.928 153.757 28.7917C153.127 28.6555 152.449 28.5873 151.722 28.5873C150.003 28.5873 148.695 29.0983 147.799 30.1202C146.902 31.1194 146.454 32.5387 146.454 34.3781C146.454 36.1494 146.878 37.5574 147.726 38.602C148.574 39.6239 150.003 40.1349 152.013 40.1349C152.764 40.1349 153.502 40.0667 154.229 39.9305C154.955 39.7942 155.585 39.6239 156.118 39.4195L156.736 42.8259C156.251 43.053 155.513 43.2574 154.52 43.439C153.551 43.6207 152.546 43.7115 151.504 43.7115C149.881 43.7115 148.465 43.4844 147.254 43.0303C146.067 42.5534 145.074 41.9062 144.275 41.0886C143.5 40.2484 142.918 39.2606 142.531 38.1251C142.143 36.967 141.949 35.718 141.949 34.3781Z" fill="white"/>
<path d="M164.535 32.4025C165.092 31.8574 165.685 31.2784 166.315 30.6652C166.945 30.0294 167.562 29.4049 168.168 28.7917C168.773 28.1559 169.342 27.5541 169.875 26.9864C170.432 26.3959 170.905 25.885 171.292 25.4535H176.487C175.276 26.7252 173.993 28.0423 172.636 29.4049C171.304 30.7674 169.96 32.0959 168.604 33.3903C169.33 33.958 170.093 34.6506 170.893 35.4682C171.692 36.263 172.467 37.1146 173.218 38.0229C173.968 38.9313 174.671 39.8397 175.325 40.748C175.979 41.6564 176.524 42.4966 176.96 43.2687H171.873C171.437 42.5647 170.929 41.8267 170.348 41.0546C169.791 40.2825 169.185 39.5331 168.531 38.8064C167.877 38.0797 167.211 37.3984 166.533 36.7626C165.855 36.104 165.189 35.5477 164.535 35.0935V43.2687H160.139V17.5167L164.535 16.8354V32.4025Z" fill="white"/>
<path d="M178.244 34.4463C178.244 32.8794 178.486 31.5055 178.97 30.3246C179.479 29.1437 180.145 28.1672 180.968 27.3951C181.792 26.6003 182.736 26.0099 183.802 25.6238C184.868 25.2151 185.958 25.0107 187.072 25.0107C189.687 25.0107 191.722 25.7714 193.175 27.2929C194.652 28.8144 195.391 31.0853 195.391 34.1056C195.391 34.3327 195.379 34.5939 195.355 34.8891C195.355 35.1616 195.343 35.4114 195.319 35.6385H182.785C182.906 37.0692 183.439 38.1819 184.383 38.9767C185.352 39.7488 186.745 40.1349 188.561 40.1349C189.627 40.1349 190.596 40.044 191.468 39.8624C192.364 39.6807 193.066 39.4877 193.575 39.2833L194.156 42.6556C193.914 42.7691 193.575 42.894 193.139 43.0303C192.727 43.1438 192.243 43.246 191.686 43.3368C191.153 43.4504 190.571 43.5412 189.942 43.6093C189.312 43.6775 188.67 43.7115 188.016 43.7115C186.345 43.7115 184.892 43.4844 183.657 43.0303C182.422 42.5534 181.404 41.9062 180.605 41.0886C179.806 40.2484 179.212 39.2719 178.825 38.1592C178.437 37.0237 178.244 35.7861 178.244 34.4463ZM190.995 32.6068C190.995 32.0391 190.911 31.5055 190.741 31.0059C190.571 30.4835 190.317 30.0407 189.978 29.6774C189.663 29.2913 189.264 28.9961 188.779 28.7917C188.319 28.5646 187.762 28.4511 187.108 28.4511C186.43 28.4511 185.837 28.576 185.328 28.8258C184.819 29.0529 184.383 29.3595 184.02 29.7455C183.681 30.1316 183.415 30.5744 183.221 31.074C183.027 31.5736 182.894 32.0845 182.821 32.6068H190.995Z" fill="white"/>
<path d="M199.834 20.7527L204.23 20.0715V25.4535H210.987V28.8939H204.23V36.1494C204.23 37.5801 204.472 38.602 204.956 39.2152C205.441 39.8283 206.264 40.1349 207.427 40.1349C208.226 40.1349 208.928 40.0554 209.534 39.8964C210.164 39.7375 210.66 39.5899 211.023 39.4536L211.75 42.7237C211.241 42.9281 210.575 43.1325 209.752 43.3368C208.928 43.5639 207.96 43.6775 206.846 43.6775C205.489 43.6775 204.351 43.5072 203.431 43.1665C202.534 42.8259 201.82 42.3376 201.287 41.7018C200.754 41.0432 200.379 40.2598 200.161 39.3514C199.943 38.4203 199.834 37.3644 199.834 36.1835V20.7527Z" fill="white"/>
<path d="M81.4591 34.3772C81.4591 33.0601 81.6771 31.8338 82.113 30.6984C82.549 29.5402 83.1666 28.541 83.9659 27.7008C84.7893 26.8605 85.7823 26.202 86.9449 25.7251C88.1074 25.2482 89.4153 25.0098 90.8685 25.0098C92.6608 25.0098 94.3561 25.3163 95.9546 25.9295L95.0101 29.3018C94.5015 29.0974 93.9202 28.9271 93.2662 28.7908C92.6365 28.6546 91.9584 28.5864 91.2318 28.5864C89.5122 28.5864 88.2043 29.0974 87.3082 30.1193C86.412 31.1185 85.964 32.5378 85.964 34.3772C85.964 36.1485 86.3878 37.5565 87.2355 38.6011C88.0832 39.623 89.5122 40.1339 91.5224 40.1339C92.2732 40.1339 93.0119 40.0658 93.7385 39.9296C94.4651 39.7933 95.0948 39.623 95.6277 39.4186L96.2453 42.825C95.7609 43.0521 95.0222 43.2564 94.0292 43.4381C93.0604 43.6198 92.0553 43.7106 91.0138 43.7106C89.3911 43.7106 87.9742 43.4835 86.7632 43.0293C85.5765 42.5525 84.5835 41.9052 83.7842 41.0877C83.0092 40.2475 82.4279 39.2597 82.0404 38.1242C81.6529 36.966 81.4591 35.7171 81.4591 34.3772Z" fill="#F7941E"/>
<path fill-rule="evenodd" clip-rule="evenodd" d="M79.2585 34.3478C79.2585 32.792 79.516 31.3436 80.0309 30.0024C80.5458 28.6344 81.2753 27.4542 82.2194 26.4617C83.1921 25.4692 84.365 24.6913 85.7382 24.128C86.3527 23.876 87.0016 23.6803 87.6848 23.541L79.2588 24.0569V24.0901L74.6023 24.0789C74.091 24.0788 73.6005 24.2394 73.2378 24.5257C72.8752 24.812 72.6699 25.2007 72.6669 25.6069V25.6287C72.6668 26.035 72.869 26.4247 73.2295 26.7128C73.5899 27.0009 74.0792 27.1641 74.5905 27.1665L76.5218 27.1711C77.033 27.1735 77.5223 27.3365 77.8827 27.6246C78.2432 27.9127 78.4454 28.3023 78.4454 28.1927V28.2145C78.4422 28.6207 78.2369 29.0094 77.8743 29.2958C77.5117 29.5821 77.0212 29.7429 76.5099 29.7429L69.8138 29.7268C69.3025 29.7267 68.812 29.8874 68.4493 30.1737C68.0867 30.46 67.8814 30.8488 67.8784 31.2549V31.2781C67.8784 31.6843 68.0808 32.0739 68.4412 32.362C68.8017 32.65 69.291 32.813 69.8022 32.8155L72.2342 32.8211C72.7455 32.8236 73.2349 32.9867 73.5954 33.2748C73.9558 33.5629 74.1581 33.9527 74.158 34.3589V34.3808C74.1552 34.787 73.9501 35.1758 73.5874 35.4621C73.2248 35.7485 72.7342 35.9092 72.2229 35.909L64.9122 35.8915C64.401 35.8915 63.9105 36.0522 63.5479 36.3385C63.1854 36.6249 62.9801 37.0136 62.9771 37.4197V37.4415C62.977 37.8478 63.1793 38.2375 63.5398 38.5256C63.9003 38.8137 64.3896 38.9768 64.901 38.9791L66.7657 38.9837C67.2769 38.9861 67.7662 39.1492 68.1267 39.4372C68.4871 39.7253 68.6895 40.1149 68.6896 40.5211V40.5314C68.6866 40.9376 68.4813 41.3263 68.1187 41.6126C67.756 41.899 67.2654 42.0597 66.7541 42.0595L58.8768 42.0405C58.3655 42.0406 57.875 42.2013 57.5124 42.4877C57.1498 42.774 56.9445 43.1627 56.9414 43.5689V43.5919C56.9413 43.9981 57.1436 44.3878 57.504 44.6759C57.8644 44.964 58.3537 45.127 58.865 45.1295L79.2588 45.1784V45.2062H88.0825C87.1571 45.0732 86.3042 44.8603 85.5236 44.5676C84.1218 44.0043 82.9489 43.2398 82.0048 42.2741C81.0894 41.2817 80.4028 40.1149 79.9451 38.7737C79.4873 37.4057 79.2585 35.9304 79.2585 34.3478ZM63.4722 25.6078C63.4721 26.014 63.6743 26.4038 64.0347 26.6919C64.3952 26.98 64.8845 27.1431 65.3958 27.1456L68.576 27.153C69.0872 27.1531 69.5777 26.9924 69.9403 26.706C70.3029 26.4197 70.5081 26.031 70.5111 25.6248V25.6019C70.5113 25.1957 70.309 24.8059 69.9486 24.5178C69.5881 24.2297 69.0988 24.0666 68.5875 24.0643L65.4074 24.0569C64.8961 24.0568 64.4056 24.2175 64.043 24.5038C63.6804 24.7902 63.4752 25.1789 63.4722 25.585V25.6078ZM54.0846 32.3292C53.7241 32.0411 53.5217 31.6515 53.5217 31.2453V31.2222C53.5247 30.816 53.73 30.4273 54.0926 30.1409C54.4553 29.8546 54.9458 29.6939 55.4571 29.694L63.8843 29.7143C64.3955 29.7167 64.8848 29.8798 65.2453 30.1678C65.6057 30.4558 65.8081 30.8455 65.8082 31.2517V31.2748C65.805 31.681 65.5997 32.0697 65.2371 32.356C64.8745 32.6423 64.384 32.803 63.8727 32.803L55.4455 32.7827C54.9343 32.7803 54.445 32.6172 54.0846 32.3292ZM57.0739 38.5138C56.7134 38.2257 56.5111 37.836 56.5112 37.4297L56.5109 37.4068C56.514 37.0006 56.7192 36.6119 57.0819 36.3256C57.4445 36.0393 57.9351 35.8787 58.4463 35.8788L59.0586 35.8802C59.5699 35.8826 60.0591 36.0457 60.4195 36.3337C60.7799 36.6218 60.9822 37.0114 60.9822 37.4175V37.4405C60.9793 37.8467 60.774 38.2354 60.4114 38.5218C60.0487 38.8082 59.5582 38.9689 59.0468 38.9689L58.4351 38.9673C57.9237 38.965 57.4344 38.8019 57.0739 38.5138ZM49 43.577C49 43.9832 49.2023 44.3729 49.5628 44.661C49.9232 44.9491 50.4126 45.1122 50.9239 45.1146L53.7742 45.1214C54.2857 45.1214 54.7765 44.9607 55.1392 44.6741C55.502 44.3876 55.7073 43.9987 55.7102 43.5923V43.5705C55.7105 43.1642 55.5082 42.7743 55.1477 42.4861C54.7872 42.198 54.2977 42.0349 53.7863 42.0327L50.9357 42.0257C50.4244 42.0257 49.9338 42.1864 49.5712 42.4728C49.2086 42.7591 49.0033 43.1479 49.0003 43.5541L49 43.577Z" fill="#F7941E"/>
<defs>
<filter id="filter0_b" x="-20" y="-20" width="330" height="1120" filterUnits="userSpaceOnUse" color-interpolation-filters="sRGB">
<feFlood flood-opacity="0" result="BackgroundImageFix"/>
<feGaussianBlur in="BackgroundImage" stdDeviation="10"/>
<feComposite in2="SourceAlpha" operator="in" result="effect1_backgroundBlur"/>
<feBlend mode="normal" in="SourceGraphic" in2="effect1_backgroundBlur" result="shape"/>
</filter>
<clipPath id="clip0">
<rect x="256" y="612.148" width="10.4118" height="11" transform="rotate(90 256 612.148)" fill="white"/>
</clipPath>
<clipPath id="clip1">
<rect x="35" y="527.224" width="21" height="19.877" fill="white"/>
</clipPath>
<clipPath id="clip2">
<rect x="35" y="447.673" width="21" height="19.641" fill="white"/>
</clipPath>
<clipPath id="clip3">
<rect x="256" y="373.295" width="10.4118" height="11" transform="rotate(90 256 373.295)" fill="white"/>
</clipPath>
<clipPath id="clip4">
<rect width="19" height="17.984" transform="matrix(-1 0 0 1 55 369.51)" fill="white"/>
</clipPath>
<clipPath id="clip5">
<rect x="38.6667" y="204.83" width="14.6667" height="13.8824" fill="white"/>
</clipPath>
<clipPath id="clip6">
<rect width="10.4118" height="11" transform="matrix(-4.61809e-08 -1 -1 3.98066e-08 256 217.45)" fill="white"/>
</clipPath>
</defs>
</svg>
