<svg width="22" height="17" viewBox="0 0 22 17" fill="none" xmlns="http://www.w3.org/2000/svg">
<path d="M17.9187 3.2868C17.6388 3.00849 17.1996 2.96745 16.8724 3.18916C15.6401 4.02463 9.45906 8.2258 8.79476 8.8865C7.83143 9.84473 7.83143 11.4038 8.79476 12.362C9.27643 12.8411 9.90918 13.0806 10.5418 13.0806C11.1745 13.0806 11.8072 12.8411 12.2889 12.362C12.9532 11.7013 17.1769 5.55321 18.0169 4.32748C18.2397 4.00215 18.1985 3.5652 17.9187 3.2868ZM11.1242 11.2035C10.8031 11.5229 10.2806 11.5229 9.9595 11.2035C9.63839 10.8841 9.63835 10.3646 9.95933 10.0452C10.2174 9.79148 11.9723 8.54659 14.1315 7.05377C12.6307 9.20139 11.3791 10.9468 11.1242 11.2035Z" fill="#B4B8D7"/>
<path d="M3.79793 14.4352L2.78124 14.9285C2.03731 13.6079 1.64714 12.134 1.64714 10.6251C1.64714 9.51956 1.85209 8.46074 2.22611 7.48424L3.39109 8.04005C3.50598 8.09485 3.62725 8.12082 3.74671 8.12082C4.05361 8.12082 4.34824 7.94941 4.48986 7.65574C4.68652 7.24783 4.51358 6.75849 4.10344 6.56283L2.95324 6.01407C4.38283 3.69499 6.8563 2.07814 9.71817 1.8156V3.04768C9.71817 3.50011 10.0869 3.86685 10.5417 3.86685C10.9966 3.86685 11.3653 3.50011 11.3653 3.04768V1.81498C12.3465 1.90382 13.2959 2.15236 14.1972 2.55703C14.6117 2.74319 15.0995 2.55973 15.2867 2.14749C15.4738 1.73511 15.2895 1.24996 14.8749 1.0638C13.5091 0.450607 12.0513 0.139648 10.5417 0.139648C7.72591 0.139648 5.07867 1.2303 3.08756 3.21073C1.09654 5.19121 0 7.82432 0 10.6251C0 12.6947 0.617595 14.7076 1.78604 16.4459C1.94342 16.68 2.20363 16.8099 2.4712 16.8099C2.59285 16.8099 2.71605 16.7831 2.8318 16.7269L4.52012 15.9077C4.92894 15.7094 5.09868 15.219 4.89925 14.8123C4.69983 14.4057 4.20675 14.2369 3.79793 14.4352Z" fill="#B4B8D7"/>
<path d="M20.1543 6.31343C19.9672 5.9011 19.4795 5.7176 19.0648 5.90384C18.6503 6.09 18.4659 6.57516 18.6531 6.98749C19.1728 8.13261 19.4363 9.35593 19.4363 10.6234C19.4363 12.1346 19.0449 13.6109 18.2988 14.933L17.2373 14.4303C16.8267 14.2358 16.3352 14.4092 16.1396 14.8177C15.9441 15.2261 16.1185 15.715 16.5291 15.9095L18.2586 16.7287C18.3724 16.7825 18.493 16.8083 18.6123 16.8083C18.88 16.8083 19.1402 16.6782 19.2974 16.4443C20.4659 14.706 21.0835 12.6931 21.0835 10.6234C21.0835 9.12193 20.7708 7.67183 20.1543 6.31343Z" fill="#B4B8D7"/>
</svg>
