<svg width="22" height="22" viewBox="0 0 22 22" fill="none" xmlns="http://www.w3.org/2000/svg">
<g clip-path="url(#clip0)">
<path d="M21.9137 19.9226L20.4034 15.5272C21.1298 14.0588 21.514 12.4221 21.5166 10.7752C21.521 7.93919 20.4237 5.25756 18.4267 3.22445C16.4295 1.19096 13.7681 0.0463611 10.9328 0.00137295C9.44731 -0.0224747 8.00589 0.251236 6.64636 0.813996C5.33508 1.35682 4.15916 2.1431 3.15129 3.15098C2.14337 4.15885 1.35709 5.33477 0.814307 6.64605C0.251546 8.00558 -0.0218638 9.44773 0.00164005 10.9325C0.0465423 13.7678 1.19118 16.4292 3.22468 18.4265C5.25383 20.4195 7.92854 21.5164 10.7585 21.5164C10.764 21.5164 10.7698 21.5164 10.7754 21.5164C12.4223 21.5138 14.059 21.1296 15.5275 20.4032L19.9229 21.9135C20.0919 21.9716 20.2652 21.9999 20.4365 21.9999C20.8436 21.9999 21.2396 21.84 21.5399 21.5396C21.9665 21.113 22.1098 20.4934 21.9137 19.9226ZM20.6175 20.6174C20.5743 20.6606 20.4816 20.7263 20.3467 20.68L15.6891 19.0795C15.6202 19.0559 15.5486 19.0441 15.4772 19.0441C15.3719 19.0441 15.2671 19.0696 15.1722 19.1199C13.8261 19.832 12.305 20.2097 10.7733 20.212C5.63642 20.2203 1.38716 16.0479 1.30578 10.9118C1.26483 8.32771 2.24778 5.89908 4.07357 4.0733C5.89935 2.24756 8.32725 1.26478 10.9121 1.30564C16.0481 1.38707 20.2202 5.63422 20.2122 10.7732C20.2098 12.3049 19.8321 13.826 19.12 15.172C19.0357 15.3313 19.0212 15.5185 19.0797 15.6889L20.6801 20.3465C20.7265 20.4814 20.6608 20.5741 20.6175 20.6174Z" fill="#B4B8D7"/>
<path d="M10.6524 15.5868C10.3112 15.5868 9.98441 15.8868 10.0002 16.239C10.016 16.5923 10.2867 16.8911 10.6524 16.8911C10.9935 16.8911 11.3203 16.5912 11.3045 16.239C11.2887 15.8856 11.018 15.5868 10.6524 15.5868Z" fill="#B4B8D7"/>
<path d="M10.6524 5.48599C8.8632 5.48599 7.40759 6.9416 7.40759 8.73077C7.40759 9.09094 7.69961 9.38295 8.05977 9.38295C8.41994 9.38295 8.71195 9.09094 8.71195 8.73077C8.71195 7.66085 9.58245 6.79035 10.6524 6.79035C11.7223 6.79035 12.5928 7.66085 12.5928 8.73077C12.5928 9.80069 11.7223 10.6712 10.6524 10.6712C10.2922 10.6712 10.0002 10.9632 10.0002 11.3234V13.9834C10.0002 14.3435 10.2922 14.6355 10.6524 14.6355C11.0125 14.6355 11.3046 14.3436 11.3046 13.9833V11.9097C12.7822 11.607 13.8972 10.2966 13.8972 8.73077C13.8972 6.9416 12.4415 5.48599 10.6524 5.48599Z" fill="#B4B8D7"/>
</g>
<defs>
<clipPath id="clip0">
<rect width="22" height="22" fill="white"/>
</clipPath>
</defs>
</svg>
