<svg width="22" height="22" viewBox="0 0 22 22" fill="none" xmlns="http://www.w3.org/2000/svg">
<g clip-path="url(#clip0)">
<path d="M11 17.4332C10.8066 17.4332 10.6215 17.3516 10.4913 17.2086L5.67879 11.9185C5.44779 11.6646 5.43953 11.2796 5.65953 11.0156L7.77062 8.48194C7.9017 8.32519 8.09512 8.23444 8.29862 8.23444H13.7015C13.9059 8.23444 14.0993 8.32519 14.2295 8.48194L16.3405 11.0156C16.5605 11.2796 16.5514 11.6646 16.3213 11.9185L11.5088 17.2086C11.3786 17.3516 11.1935 17.4332 11 17.4332ZM7.0987 11.4354L11 15.7236L14.9014 11.4345L13.3797 9.60852H8.62037L7.0987 11.4354Z" fill="#B4B8D7"/>
<path d="M15.5833 12.1422H6.41663C6.03713 12.1422 5.72913 11.8342 5.72913 11.4547C5.72913 11.0752 6.03713 10.7672 6.41663 10.7672H15.5833C15.9628 10.7672 16.2708 11.0752 16.2708 11.4547C16.2708 11.8342 15.9628 12.1422 15.5833 12.1422Z" fill="#B4B8D7"/>
<path d="M11 17.4332C10.6205 17.4332 10.3125 17.1252 10.3125 16.7457V8.92102C10.3125 8.54152 10.6205 8.23352 11 8.23352C11.3795 8.23352 11.6875 8.54152 11.6875 8.92102V16.7448C11.6875 17.1252 11.3795 17.4332 11 17.4332V17.4332Z" fill="#B4B8D7"/>
<path d="M19.4792 21.0833H2.52083C1.13025 21.0833 0 19.9531 0 18.5625V3.43752C0 2.04694 1.13025 0.916687 2.52083 0.916687H19.4792C20.8698 0.916687 22 2.04694 22 3.43752V18.5625C22 19.9531 20.8698 21.0833 19.4792 21.0833ZM2.52083 2.29169C1.88925 2.29169 1.375 2.80594 1.375 3.43752V18.5625C1.375 19.1941 1.88925 19.7083 2.52083 19.7083H19.4792C20.1108 19.7083 20.625 19.1941 20.625 18.5625V3.43752C20.625 2.80594 20.1108 2.29169 19.4792 2.29169H2.52083Z" fill="#B4B8D7"/>
<path d="M21.3125 5.5H0.6875C0.308 5.5 0 5.192 0 4.8125C0 4.433 0.308 4.125 0.6875 4.125H21.3125C21.692 4.125 22 4.433 22 4.8125C22 5.192 21.692 5.5 21.3125 5.5Z" fill="#B4B8D7"/>
</g>
<defs>
<clipPath id="clip0">
<rect width="22" height="22" fill="white"/>
</clipPath>
</defs>
</svg>
