<svg width="28" height="40" viewBox="0 0 28 40" fill="none" xmlns="http://www.w3.org/2000/svg">
<path d="M0.765607 11.5H23.7344C24.157 11.5 24.5 11.164 24.5 10.75C24.5 10.336 24.157 10 23.7344 10H0.765607C0.342964 10 0 10.336 0 10.75C0 11.164 0.343028 11.5 0.765607 11.5Z" fill="#B4B8D7"/>
<path d="M0.765607 20.5H23.7344C24.157 20.5 24.5 20.164 24.5 19.75C24.5 19.336 24.157 19 23.7344 19H0.765607C0.342964 19 0 19.336 0 19.75C0 20.164 0.343028 20.5 0.765607 20.5Z" fill="#B4B8D7"/>
<path d="M16.0781 27.5H0.765606C0.342963 27.5 0 27.836 0 28.25C0 28.664 0.343027 29 0.765606 29H16.0781C16.5008 29 16.8437 28.664 16.8437 28.25C16.8438 27.836 16.5008 27.5 16.0781 27.5Z" fill="#B4B8D7"/>
</svg>
