<svg width="22" height="22" viewBox="0 0 22 22" fill="none" xmlns="http://www.w3.org/2000/svg">
<g clip-path="url(#clip0)">
<path d="M19.3446 17.5077C19.2799 17.4658 18.7932 17.1248 18.3059 16.0933C17.4109 14.1992 17.223 11.5309 17.223 9.62607C17.223 9.61778 17.2228 9.60957 17.2225 9.60132C17.2128 7.08383 15.7053 4.91365 13.5481 3.93993V2.45077C13.5481 1.0994 12.4505 0 11.1014 0H10.8986C9.54948 0 8.45189 1.0994 8.45189 2.45077V3.93985C6.28747 4.9167 4.77699 7.09796 4.77699 9.62607C4.77699 11.5309 4.58913 14.1992 3.69413 16.0933C3.20682 17.1248 2.72012 17.4657 2.6554 17.5077C2.3829 17.6339 2.24853 17.9252 2.31123 18.2204C2.37452 18.5186 2.65321 18.7241 2.95756 18.7241H7.68185C7.70823 20.5349 9.1861 22 11 22C12.8139 22 14.2918 20.5349 14.3182 18.7241H19.0425C19.3468 18.7241 19.6255 18.5186 19.6888 18.2204C19.7514 17.9252 19.6171 17.6338 19.3446 17.5077V17.5077ZM9.741 2.45077C9.741 1.81135 10.2603 1.29117 10.8987 1.29117H11.1014C11.7398 1.29117 12.2591 1.81135 12.2591 2.45077V3.52142C11.8523 3.43733 11.4311 3.39307 10.9999 3.39307C10.5687 3.39307 10.1477 3.43729 9.74104 3.52129V2.45077H9.741ZM11 20.7088C9.89689 20.7088 8.99708 19.8229 8.97091 18.7242H13.0291C13.003 19.8229 12.1032 20.7088 11 20.7088V20.7088ZM13.5953 17.4329C13.5952 17.4329 4.42645 17.4329 4.42645 17.4329C4.53795 17.2592 4.65143 17.0624 4.76423 16.8401C5.62807 15.1366 6.06609 12.7095 6.06609 9.62607C6.06609 6.90112 8.27937 4.68424 10.9998 4.68424C13.7202 4.68424 15.9335 6.90112 15.9335 9.62822C15.9335 9.63617 15.9337 9.64408 15.934 9.65198C15.9364 12.723 16.3744 15.1415 17.2358 16.8401C17.3486 17.0625 17.4621 17.2592 17.5736 17.4329H13.5953Z" fill="#B4B8D7"/>
</g>
<defs>
<clipPath id="clip0">
<rect width="22" height="22" fill="white"/>
</clipPath>
</defs>
</svg>
