<svg width="21" height="21" viewBox="0 0 21 21" fill="none" xmlns="http://www.w3.org/2000/svg">
<g clip-path="url(#clip0)">
<path d="M17.9246 13.073C16.781 11.9906 15.4198 11.1893 13.9346 10.7042C15.5253 9.6672 16.5703 7.93172 16.5703 5.96933C16.5703 2.80116 13.8472 0.223633 10.5 0.223633C7.15284 0.223633 4.42969 2.80116 4.42969 5.96933C4.42969 7.93172 5.47472 9.6672 7.06543 10.7042C5.58026 11.1893 4.21903 11.9906 3.07539 13.073C1.09221 14.9502 0 17.446 0 20.1007H1.64062C1.64062 15.4768 5.61492 11.715 10.5 11.715C15.3851 11.715 19.3594 15.4768 19.3594 20.1007H21C21 17.446 19.9078 14.9502 17.9246 13.073ZM10.5 10.1621C8.05748 10.1621 6.07031 8.28128 6.07031 5.96933C6.07031 3.65739 8.05748 1.77652 10.5 1.77652C12.9425 1.77652 14.9297 3.65739 14.9297 5.96933C14.9297 8.28128 12.9425 10.1621 10.5 10.1621Z" fill="#B4B8D7"/>
</g>
<defs>
<clipPath id="clip0">
<rect y="0.223633" width="21" height="19.877" fill="white"/>
</clipPath>
</defs>
</svg>
