<svg width="26" height="24" viewBox="0 0 26 24" fill="none" xmlns="http://www.w3.org/2000/svg">
<path d="M12.9056 0C10.53 0 8.60383 1.9538 8.60383 4.36349C8.60383 5.58879 9.10586 6.69333 9.90827 7.48598L6.52118 13.4976L8.39056 14.5769L11.7818 8.55779C12.1422 8.65695 12.5139 8.72731 12.9056 8.72731C15.2812 8.72731 17.2074 6.77318 17.2074 4.36349C17.2074 1.9538 15.2812 0 12.9056 0ZM12.9056 6.5454C11.7176 6.5454 10.7546 5.5685 10.7546 4.36349C10.7546 3.15848 11.7176 2.18191 12.9056 2.18191C14.0936 2.18191 15.0567 3.15848 15.0567 4.36349C15.0567 5.5685 14.0936 6.5454 12.9056 6.5454Z" fill="#B4B8D7"/>
<path d="M8.45127 18.5454C7.9715 16.6672 6.30377 15.2727 4.30178 15.2727C1.92617 15.2727 0 17.2265 0 19.6362C0 22.0459 1.92617 24 4.30178 24C6.30377 24 7.9715 22.6052 8.45127 20.7273H15.1529V18.5454H8.45127ZM4.30178 21.8181C3.11381 21.8181 2.15105 20.8412 2.15105 19.6362C2.15105 18.4312 3.11381 17.4546 4.30178 17.4546C5.48975 17.4546 6.45283 18.4312 6.45283 19.6362C6.45283 20.8412 5.48975 21.8181 4.30178 21.8181Z" fill="#B4B8D7"/>
<path d="M21.5096 15.2728C21.1176 15.2728 20.7459 15.3432 20.3858 15.4423L16.9945 9.42285L15.1248 10.5022L18.5119 16.5138C17.7098 17.3065 17.2075 18.4103 17.2075 19.6363C17.2075 22.046 19.134 24.0001 21.5096 24.0001C23.8852 24.0001 25.8113 22.046 25.8113 19.6363C25.8113 17.2266 23.8852 15.2728 21.5096 15.2728ZM21.5096 21.8182C20.3216 21.8182 19.3585 20.8413 19.3585 19.6363C19.3585 18.4313 20.3216 17.4547 21.5096 17.4547C22.6975 17.4547 23.6603 18.4313 23.6603 19.6363C23.6603 20.8413 22.6975 21.8182 21.5096 21.8182Z" fill="#B4B8D7"/>
</svg>
