<svg width="23" height="21" viewBox="0 0 23 21" fill="none" xmlns="http://www.w3.org/2000/svg">
<mask id="path-1-outside-1" maskUnits="userSpaceOnUse" x="0" y="-0.53125" width="23" height="22" fill="black">
<rect fill="white" y="-0.53125" width="23" height="22"/>
<path d="M21.0919 8.3864L19.6055 8.14774C19.4507 7.67461 19.2516 7.21822 19.0084 6.78277L19.8842 5.62297C20.2558 5.1289 20.1983 4.45479 19.7427 4.02772L18.4244 2.77998C18.1767 2.54551 17.8494 2.41571 17.4999 2.41571C17.2257 2.41571 16.9647 2.49527 16.7435 2.646L15.5137 3.47503C15.036 3.23637 14.5361 3.03958 14.0186 2.89303L13.7708 1.50294C13.6647 0.9042 13.1206 0.46875 12.4792 0.46875H10.6168C9.97542 0.46875 9.43132 0.9042 9.32516 1.50294L9.06859 2.92653C8.57315 3.07308 8.09098 3.26568 7.63093 3.50015L6.41445 2.67112C6.19327 2.52039 5.92786 2.44084 5.6536 2.44084C5.30413 2.44084 4.97237 2.57063 4.72907 2.80511L3.40642 4.05284C2.95522 4.47991 2.89329 5.15402 3.26487 5.64809L4.14958 6.82464C3.90629 7.26428 3.71165 7.72067 3.56125 8.1938L2.09262 8.42827C1.46005 8.52876 1 9.04376 1 9.65088V11.4136C1 12.0207 1.46005 12.5357 2.09262 12.6362L3.59664 12.8791C3.75146 13.348 3.95494 13.8044 4.20266 14.2399L3.33122 15.3871C2.95964 15.8812 3.01715 16.5553 3.47278 16.9824L4.791 18.2301C5.03872 18.4646 5.36606 18.5944 5.71553 18.5944C5.98979 18.5944 6.25078 18.5148 6.47196 18.3641L7.71498 17.5267C8.16176 17.7486 8.63066 17.9286 9.11283 18.071L9.36055 19.4778C9.46671 20.0766 10.0108 20.512 10.6522 20.512H12.519C13.1604 20.512 13.7045 20.0766 13.8107 19.4778L14.0628 18.071C14.5627 17.9244 15.0448 17.736 15.5049 17.5057L16.7302 18.3348C16.9514 18.4855 17.2168 18.565 17.4911 18.565C17.8405 18.565 18.1679 18.4352 18.4156 18.2008L19.7338 16.953C20.185 16.526 20.247 15.8519 19.8754 15.3578L18.9995 14.1938C19.2428 13.7542 19.4463 13.2978 19.5967 12.8288L21.083 12.5944C21.7156 12.4939 22.1756 11.9789 22.1756 11.3717V9.60901C22.1845 9.00189 21.7244 8.48689 21.0919 8.3864ZM20.9901 11.3717C20.9901 11.4262 20.9503 11.4722 20.8928 11.4806L19.0349 11.7737C18.8004 11.8114 18.6147 11.9747 18.5571 12.1882C18.3891 12.8037 18.1325 13.3941 17.7874 13.9426C17.668 14.1352 17.6769 14.3738 17.814 14.5581L18.9066 16.0152C18.9376 16.057 18.9332 16.1198 18.8933 16.1575L17.5751 17.4052C17.5442 17.4345 17.5132 17.4387 17.4911 17.4387C17.4645 17.4387 17.4424 17.4304 17.4247 17.4178L15.8897 16.3836C15.6995 16.2538 15.443 16.2454 15.2395 16.3585C14.66 16.6851 14.0363 16.9279 13.386 17.087C13.156 17.1415 12.9835 17.3215 12.9481 17.5392L12.634 19.2978C12.6251 19.3522 12.5765 19.3899 12.519 19.3899H10.6567C10.5991 19.3899 10.5505 19.3522 10.5416 19.2978L10.232 17.5392C10.1922 17.3173 10.0197 17.1415 9.79406 17.087C9.16149 16.9321 8.55103 16.6934 7.98039 16.3836C7.8875 16.3334 7.78133 16.3082 7.67959 16.3082C7.56015 16.3082 7.43629 16.3417 7.33455 16.4129L5.7863 17.4555C5.76418 17.468 5.74207 17.4764 5.71995 17.4764C5.70225 17.4764 5.66687 17.4722 5.6359 17.4429L4.31768 16.1952C4.27787 16.1575 4.27344 16.0989 4.30441 16.0528L5.3926 14.6083C5.52974 14.4241 5.53858 14.1812 5.41915 13.9886C5.07411 13.4443 4.80869 12.854 4.6406 12.2385C4.57867 12.0249 4.39288 11.8616 4.16285 11.8239L2.29168 11.5225C2.23418 11.5141 2.19436 11.468 2.19436 11.4136V9.65088C2.19436 9.59645 2.23418 9.55039 2.29168 9.54202L4.13631 9.24893C4.37076 9.21125 4.56097 9.04795 4.61848 8.83023C4.78215 8.21473 5.0343 7.62018 5.37491 7.07168C5.49435 6.87908 5.48108 6.64042 5.34395 6.46037L4.24248 4.99492C4.21151 4.95305 4.21594 4.89024 4.25575 4.85256L5.57397 3.60483C5.60494 3.57552 5.6359 3.57133 5.65802 3.57133C5.68456 3.57133 5.70668 3.5797 5.72437 3.59227L7.2505 4.62227C7.44514 4.75207 7.70171 4.76044 7.90519 4.64739C8.48026 4.32081 9.10398 4.06959 9.75424 3.91048C9.97985 3.85186 10.1524 3.67601 10.1922 3.45828L10.5107 1.68717C10.5195 1.63274 10.5682 1.59506 10.6257 1.59506H12.488C12.5455 1.59506 12.5942 1.63274 12.603 1.68717L12.9127 3.43316C12.9525 3.65507 13.125 3.83511 13.355 3.88954C14.023 4.04865 14.66 4.29569 15.2527 4.62646C15.4562 4.73951 15.7084 4.73113 15.903 4.60134L17.4291 3.56296C17.4513 3.5504 17.4734 3.54202 17.4955 3.54202C17.5132 3.54202 17.5486 3.54621 17.5795 3.57552L18.8978 4.82325C18.9376 4.86093 18.942 4.91955 18.911 4.96561L17.8184 6.4185C17.6813 6.59855 17.6724 6.84139 17.7919 7.034C18.1369 7.58249 18.3935 8.17286 18.5616 8.78836C18.6191 9.00608 18.8093 9.16937 19.0393 9.20287L20.8972 9.50015C20.9547 9.50852 20.9945 9.55458 20.9945 9.60901V11.3717H20.9901Z"/>
</mask>
<path d="M21.0919 8.3864L19.6055 8.14774C19.4507 7.67461 19.2516 7.21822 19.0084 6.78277L19.8842 5.62297C20.2558 5.1289 20.1983 4.45479 19.7427 4.02772L18.4244 2.77998C18.1767 2.54551 17.8494 2.41571 17.4999 2.41571C17.2257 2.41571 16.9647 2.49527 16.7435 2.646L15.5137 3.47503C15.036 3.23637 14.5361 3.03958 14.0186 2.89303L13.7708 1.50294C13.6647 0.9042 13.1206 0.46875 12.4792 0.46875H10.6168C9.97542 0.46875 9.43132 0.9042 9.32516 1.50294L9.06859 2.92653C8.57315 3.07308 8.09098 3.26568 7.63093 3.50015L6.41445 2.67112C6.19327 2.52039 5.92786 2.44084 5.6536 2.44084C5.30413 2.44084 4.97237 2.57063 4.72907 2.80511L3.40642 4.05284C2.95522 4.47991 2.89329 5.15402 3.26487 5.64809L4.14958 6.82464C3.90629 7.26428 3.71165 7.72067 3.56125 8.1938L2.09262 8.42827C1.46005 8.52876 1 9.04376 1 9.65088V11.4136C1 12.0207 1.46005 12.5357 2.09262 12.6362L3.59664 12.8791C3.75146 13.348 3.95494 13.8044 4.20266 14.2399L3.33122 15.3871C2.95964 15.8812 3.01715 16.5553 3.47278 16.9824L4.791 18.2301C5.03872 18.4646 5.36606 18.5944 5.71553 18.5944C5.98979 18.5944 6.25078 18.5148 6.47196 18.3641L7.71498 17.5267C8.16176 17.7486 8.63066 17.9286 9.11283 18.071L9.36055 19.4778C9.46671 20.0766 10.0108 20.512 10.6522 20.512H12.519C13.1604 20.512 13.7045 20.0766 13.8107 19.4778L14.0628 18.071C14.5627 17.9244 15.0448 17.736 15.5049 17.5057L16.7302 18.3348C16.9514 18.4855 17.2168 18.565 17.4911 18.565C17.8405 18.565 18.1679 18.4352 18.4156 18.2008L19.7338 16.953C20.185 16.526 20.247 15.8519 19.8754 15.3578L18.9995 14.1938C19.2428 13.7542 19.4463 13.2978 19.5967 12.8288L21.083 12.5944C21.7156 12.4939 22.1756 11.9789 22.1756 11.3717V9.60901C22.1845 9.00189 21.7244 8.48689 21.0919 8.3864ZM20.9901 11.3717C20.9901 11.4262 20.9503 11.4722 20.8928 11.4806L19.0349 11.7737C18.8004 11.8114 18.6147 11.9747 18.5571 12.1882C18.3891 12.8037 18.1325 13.3941 17.7874 13.9426C17.668 14.1352 17.6769 14.3738 17.814 14.5581L18.9066 16.0152C18.9376 16.057 18.9332 16.1198 18.8933 16.1575L17.5751 17.4052C17.5442 17.4345 17.5132 17.4387 17.4911 17.4387C17.4645 17.4387 17.4424 17.4304 17.4247 17.4178L15.8897 16.3836C15.6995 16.2538 15.443 16.2454 15.2395 16.3585C14.66 16.6851 14.0363 16.9279 13.386 17.087C13.156 17.1415 12.9835 17.3215 12.9481 17.5392L12.634 19.2978C12.6251 19.3522 12.5765 19.3899 12.519 19.3899H10.6567C10.5991 19.3899 10.5505 19.3522 10.5416 19.2978L10.232 17.5392C10.1922 17.3173 10.0197 17.1415 9.79406 17.087C9.16149 16.9321 8.55103 16.6934 7.98039 16.3836C7.8875 16.3334 7.78133 16.3082 7.67959 16.3082C7.56015 16.3082 7.43629 16.3417 7.33455 16.4129L5.7863 17.4555C5.76418 17.468 5.74207 17.4764 5.71995 17.4764C5.70225 17.4764 5.66687 17.4722 5.6359 17.4429L4.31768 16.1952C4.27787 16.1575 4.27344 16.0989 4.30441 16.0528L5.3926 14.6083C5.52974 14.4241 5.53858 14.1812 5.41915 13.9886C5.07411 13.4443 4.80869 12.854 4.6406 12.2385C4.57867 12.0249 4.39288 11.8616 4.16285 11.8239L2.29168 11.5225C2.23418 11.5141 2.19436 11.468 2.19436 11.4136V9.65088C2.19436 9.59645 2.23418 9.55039 2.29168 9.54202L4.13631 9.24893C4.37076 9.21125 4.56097 9.04795 4.61848 8.83023C4.78215 8.21473 5.0343 7.62018 5.37491 7.07168C5.49435 6.87908 5.48108 6.64042 5.34395 6.46037L4.24248 4.99492C4.21151 4.95305 4.21594 4.89024 4.25575 4.85256L5.57397 3.60483C5.60494 3.57552 5.6359 3.57133 5.65802 3.57133C5.68456 3.57133 5.70668 3.5797 5.72437 3.59227L7.2505 4.62227C7.44514 4.75207 7.70171 4.76044 7.90519 4.64739C8.48026 4.32081 9.10398 4.06959 9.75424 3.91048C9.97985 3.85186 10.1524 3.67601 10.1922 3.45828L10.5107 1.68717C10.5195 1.63274 10.5682 1.59506 10.6257 1.59506H12.488C12.5455 1.59506 12.5942 1.63274 12.603 1.68717L12.9127 3.43316C12.9525 3.65507 13.125 3.83511 13.355 3.88954C14.023 4.04865 14.66 4.29569 15.2527 4.62646C15.4562 4.73951 15.7084 4.73113 15.903 4.60134L17.4291 3.56296C17.4513 3.5504 17.4734 3.54202 17.4955 3.54202C17.5132 3.54202 17.5486 3.54621 17.5795 3.57552L18.8978 4.82325C18.9376 4.86093 18.942 4.91955 18.911 4.96561L17.8184 6.4185C17.6813 6.59855 17.6724 6.84139 17.7919 7.034C18.1369 7.58249 18.3935 8.17286 18.5616 8.78836C18.6191 9.00608 18.8093 9.16937 19.0393 9.20287L20.8972 9.50015C20.9547 9.50852 20.9945 9.55458 20.9945 9.60901V11.3717H20.9901Z" fill="#B4B8D7"/>
<path d="M21.0919 8.3864L19.6055 8.14774C19.4507 7.67461 19.2516 7.21822 19.0084 6.78277L19.8842 5.62297C20.2558 5.1289 20.1983 4.45479 19.7427 4.02772L18.4244 2.77998C18.1767 2.54551 17.8494 2.41571 17.4999 2.41571C17.2257 2.41571 16.9647 2.49527 16.7435 2.646L15.5137 3.47503C15.036 3.23637 14.5361 3.03958 14.0186 2.89303L13.7708 1.50294C13.6647 0.9042 13.1206 0.46875 12.4792 0.46875H10.6168C9.97542 0.46875 9.43132 0.9042 9.32516 1.50294L9.06859 2.92653C8.57315 3.07308 8.09098 3.26568 7.63093 3.50015L6.41445 2.67112C6.19327 2.52039 5.92786 2.44084 5.6536 2.44084C5.30413 2.44084 4.97237 2.57063 4.72907 2.80511L3.40642 4.05284C2.95522 4.47991 2.89329 5.15402 3.26487 5.64809L4.14958 6.82464C3.90629 7.26428 3.71165 7.72067 3.56125 8.1938L2.09262 8.42827C1.46005 8.52876 1 9.04376 1 9.65088V11.4136C1 12.0207 1.46005 12.5357 2.09262 12.6362L3.59664 12.8791C3.75146 13.348 3.95494 13.8044 4.20266 14.2399L3.33122 15.3871C2.95964 15.8812 3.01715 16.5553 3.47278 16.9824L4.791 18.2301C5.03872 18.4646 5.36606 18.5944 5.71553 18.5944C5.98979 18.5944 6.25078 18.5148 6.47196 18.3641L7.71498 17.5267C8.16176 17.7486 8.63066 17.9286 9.11283 18.071L9.36055 19.4778C9.46671 20.0766 10.0108 20.512 10.6522 20.512H12.519C13.1604 20.512 13.7045 20.0766 13.8107 19.4778L14.0628 18.071C14.5627 17.9244 15.0448 17.736 15.5049 17.5057L16.7302 18.3348C16.9514 18.4855 17.2168 18.565 17.4911 18.565C17.8405 18.565 18.1679 18.4352 18.4156 18.2008L19.7338 16.953C20.185 16.526 20.247 15.8519 19.8754 15.3578L18.9995 14.1938C19.2428 13.7542 19.4463 13.2978 19.5967 12.8288L21.083 12.5944C21.7156 12.4939 22.1756 11.9789 22.1756 11.3717V9.60901C22.1845 9.00189 21.7244 8.48689 21.0919 8.3864ZM20.9901 11.3717C20.9901 11.4262 20.9503 11.4722 20.8928 11.4806L19.0349 11.7737C18.8004 11.8114 18.6147 11.9747 18.5571 12.1882C18.3891 12.8037 18.1325 13.3941 17.7874 13.9426C17.668 14.1352 17.6769 14.3738 17.814 14.5581L18.9066 16.0152C18.9376 16.057 18.9332 16.1198 18.8933 16.1575L17.5751 17.4052C17.5442 17.4345 17.5132 17.4387 17.4911 17.4387C17.4645 17.4387 17.4424 17.4304 17.4247 17.4178L15.8897 16.3836C15.6995 16.2538 15.443 16.2454 15.2395 16.3585C14.66 16.6851 14.0363 16.9279 13.386 17.087C13.156 17.1415 12.9835 17.3215 12.9481 17.5392L12.634 19.2978C12.6251 19.3522 12.5765 19.3899 12.519 19.3899H10.6567C10.5991 19.3899 10.5505 19.3522 10.5416 19.2978L10.232 17.5392C10.1922 17.3173 10.0197 17.1415 9.79406 17.087C9.16149 16.9321 8.55103 16.6934 7.98039 16.3836C7.8875 16.3334 7.78133 16.3082 7.67959 16.3082C7.56015 16.3082 7.43629 16.3417 7.33455 16.4129L5.7863 17.4555C5.76418 17.468 5.74207 17.4764 5.71995 17.4764C5.70225 17.4764 5.66687 17.4722 5.6359 17.4429L4.31768 16.1952C4.27787 16.1575 4.27344 16.0989 4.30441 16.0528L5.3926 14.6083C5.52974 14.4241 5.53858 14.1812 5.41915 13.9886C5.07411 13.4443 4.80869 12.854 4.6406 12.2385C4.57867 12.0249 4.39288 11.8616 4.16285 11.8239L2.29168 11.5225C2.23418 11.5141 2.19436 11.468 2.19436 11.4136V9.65088C2.19436 9.59645 2.23418 9.55039 2.29168 9.54202L4.13631 9.24893C4.37076 9.21125 4.56097 9.04795 4.61848 8.83023C4.78215 8.21473 5.0343 7.62018 5.37491 7.07168C5.49435 6.87908 5.48108 6.64042 5.34395 6.46037L4.24248 4.99492C4.21151 4.95305 4.21594 4.89024 4.25575 4.85256L5.57397 3.60483C5.60494 3.57552 5.6359 3.57133 5.65802 3.57133C5.68456 3.57133 5.70668 3.5797 5.72437 3.59227L7.2505 4.62227C7.44514 4.75207 7.70171 4.76044 7.90519 4.64739C8.48026 4.32081 9.10398 4.06959 9.75424 3.91048C9.97985 3.85186 10.1524 3.67601 10.1922 3.45828L10.5107 1.68717C10.5195 1.63274 10.5682 1.59506 10.6257 1.59506H12.488C12.5455 1.59506 12.5942 1.63274 12.603 1.68717L12.9127 3.43316C12.9525 3.65507 13.125 3.83511 13.355 3.88954C14.023 4.04865 14.66 4.29569 15.2527 4.62646C15.4562 4.73951 15.7084 4.73113 15.903 4.60134L17.4291 3.56296C17.4513 3.5504 17.4734 3.54202 17.4955 3.54202C17.5132 3.54202 17.5486 3.54621 17.5795 3.57552L18.8978 4.82325C18.9376 4.86093 18.942 4.91955 18.911 4.96561L17.8184 6.4185C17.6813 6.59855 17.6724 6.84139 17.7919 7.034C18.1369 7.58249 18.3935 8.17286 18.5616 8.78836C18.6191 9.00608 18.8093 9.16937 19.0393 9.20287L20.8972 9.50015C20.9547 9.50852 20.9945 9.55458 20.9945 9.60901V11.3717H20.9901Z" stroke="#B4B8D7" stroke-width="0.3" mask="url(#path-1-outside-1)"/>
<path d="M11.5901 6.08809C9.03114 6.08809 6.94551 8.05642 6.94551 10.4883C6.94551 12.9201 9.03114 14.8885 11.5901 14.8885C14.149 14.8885 16.2346 12.9201 16.2346 10.4883C16.2346 8.05642 14.149 6.08809 11.5901 6.08809ZM11.5901 13.608C9.76522 13.608 8.28987 12.2058 8.28987 10.4883C8.28987 8.77079 9.76522 7.36858 11.5901 7.36858C13.4149 7.36858 14.8902 8.77079 14.8902 10.4883C14.8902 12.2058 13.4149 13.608 11.5901 13.608Z" fill="#B4B8D7" stroke="#B4B8D7" stroke-width="0.15"/>
</svg>
