<svg width="27" height="22" viewBox="0 0 27 22" fill="none" xmlns="http://www.w3.org/2000/svg">
<path d="M13.385 0C7.72675 0 3.06902 4.27532 2.47824 9.7657L3.77647 9.98466C4.26088 5.1181 8.37574 1.31377 13.385 1.31377C18.3114 1.31377 22.3727 4.99316 22.9666 9.7438H24.2895C23.6887 4.26396 19.0358 0 13.385 0Z" fill="#B4B8D7"/>
<path fill-rule="evenodd" clip-rule="evenodd" d="M6.69274 7.47611L3.49411 10.2307C3.29783 10.3998 3.00317 10.3764 2.83598 10.1786L0.111461 6.95424C-0.0557293 6.75638 -0.0321442 6.45895 0.16414 6.28991C0.360424 6.12087 0.655078 6.14424 0.822268 6.3421L3.20778 9.13868L6.08729 6.75959C6.28358 6.59056 6.57823 6.61392 6.74542 6.81178C6.91261 7.00964 6.88903 7.30707 6.69274 7.47611Z" fill="#B4B8D7"/>
<path d="M13.2592 22C18.9174 22 23.5752 17.7247 24.166 12.2343L22.8677 12.0153C22.3833 16.8819 18.2685 20.6862 13.2592 20.6862C8.3328 20.6862 4.2715 17.0068 3.67762 12.2562H2.35473C2.95552 17.736 7.60839 22 13.2592 22Z" fill="#B4B8D7"/>
<path fill-rule="evenodd" clip-rule="evenodd" d="M19.9515 14.5239L23.1501 11.7693C23.3464 11.6002 23.641 11.6236 23.8082 11.8214L26.5327 15.0458C26.6999 15.2436 26.6763 15.5411 26.4801 15.7101C26.2838 15.8791 25.9891 15.8558 25.8219 15.6579L23.4364 12.8613L20.5569 15.2404C20.3606 15.4094 20.066 15.3861 19.8988 15.1882C19.7316 14.9904 19.7552 14.6929 19.9515 14.5239Z" fill="#B4B8D7"/>
<path fill-rule="evenodd" clip-rule="evenodd" d="M11.7389 6.79924C11.9744 7.09087 11.929 7.51824 11.6373 7.75379L9.71571 9.30588H18.8307C19.2056 9.30588 19.5095 9.60978 19.5095 9.98466C19.5095 10.3595 19.2056 10.6634 18.8307 10.6634H7.79503C7.50734 10.6634 7.2509 10.4821 7.15504 10.2108C7.05918 9.93959 7.14472 9.63737 7.36853 9.45661L10.7843 6.69769C11.076 6.46214 11.5033 6.5076 11.7389 6.79924ZM7.11625 12.2181C7.11625 11.8432 7.42015 11.5393 7.79503 11.5393H18.8307C19.1184 11.5393 19.3748 11.7206 19.4707 11.9919C19.5666 12.2631 19.481 12.5654 19.2572 12.7461L15.8414 15.505C15.5498 15.7406 15.1224 15.6951 14.8869 15.4035C14.6513 15.1119 14.6968 14.6845 14.9884 14.4489L16.91 12.8969H7.79503C7.42015 12.8969 7.11625 12.593 7.11625 12.2181Z" fill="#B4B8D7"/>
</svg>
