<svg width="22" height="22" viewBox="0 0 22 22" fill="none" xmlns="http://www.w3.org/2000/svg">
<path d="M21.25 10.7702C21.25 16.0679 16.7003 20.4319 11 20.4319C5.29971 20.4319 0.75 16.0679 0.75 10.7702C0.75 5.47242 5.29971 1.1084 11 1.1084C16.7003 1.1084 21.25 5.47242 21.25 10.7702Z" stroke="#B4B8D7" stroke-width="1.5"/>
<g clip-path="url(#clip0)">
<path d="M16.2543 15.1994L16.1856 15.272L16.2543 15.1994C15.4936 14.4795 14.5971 13.9353 13.6198 13.5874C14.6626 12.8367 15.3397 11.6483 15.3397 10.3107C15.3397 8.0377 13.3878 6.19785 11.0001 6.19785C8.6124 6.19785 6.6605 8.0377 6.6605 10.3107C6.6605 11.6483 7.33754 12.8367 8.38036 13.5874C7.40309 13.9353 6.50656 14.4795 5.7459 15.1994L5.81464 15.272L5.7459 15.1994C4.34151 16.5287 3.56675 18.2978 3.56675 20.1802V20.2802H3.66675H4.81258H4.91258V20.1802C4.91258 17.0112 7.63826 14.4236 11.0001 14.4236C14.3619 14.4236 17.0876 17.0112 17.0876 20.1802V20.2802H17.1876H18.3334H18.4334V20.1802C18.4334 18.2978 17.6587 16.5287 16.2543 15.1994ZM11.0001 13.139C9.34417 13.139 8.00633 11.8651 8.00633 10.3107C8.00633 8.75637 9.34417 7.48241 11.0001 7.48241C12.656 7.48241 13.9938 8.75637 13.9938 10.3107C13.9938 11.8651 12.656 13.139 11.0001 13.139Z" fill="#B4B8D7" stroke="#B4B8D7" stroke-width="0.2"/>
</g>
<defs>
<clipPath id="clip0">
<rect x="3.66675" y="3.83008" width="14.6667" height="13.8824" fill="white"/>
</clipPath>
</defs>
</svg>
