<svg width="19" height="19" viewBox="0 0 19 19" fill="none" xmlns="http://www.w3.org/2000/svg">
<g clip-path="url(#clip0)">
<path d="M15.0293 9.53692C13.8015 9.53692 12.8027 10.4823 12.8027 11.6444C12.8027 12.8065 13.8015 13.7519 15.0293 13.7519H18.1836C18.1961 13.7519 18.2084 13.7507 18.2209 13.7501C18.2332 13.7507 18.2453 13.7519 18.2578 13.7519C18.6677 13.7519 19 13.4374 19 13.0494V7.53477C19 6.59953 18.5143 5.77006 17.7696 5.25903L15.2447 1.33839C15.1417 1.1785 14.9756 1.06413 14.7832 1.02072C14.5907 0.977233 14.3879 1.00832 14.2198 1.10702L12.3578 2.19996L11.5181 0.854893C11.4171 0.693178 11.252 0.576493 11.0595 0.530831C10.867 0.485168 10.6632 0.514427 10.4936 0.611934L3.34388 4.72478H2.22656C1.82351 4.72478 1.49447 4.41912 1.48459 4.03984C1.49447 3.66056 1.82351 3.35491 2.22656 3.35491H3.5996C4.00951 3.35491 4.34179 3.0404 4.34179 2.65241C4.34179 2.26442 4.00951 1.94991 3.5996 1.94991H2.22656C1.17644 1.94991 0.293869 2.64166 0.0604882 3.56899C0.0216718 3.6542 0 3.74799 0 3.84665V4.02228V4.0574V15.6837C0 17.2332 1.33178 18.4937 2.96874 18.4937H16.0312C17.3111 18.4937 18.4431 17.722 18.8479 16.5734C18.9776 16.2054 18.7675 15.8075 18.3787 15.6847C17.9899 15.562 17.5695 15.7608 17.4398 16.1288C17.2374 16.703 16.6714 17.0887 16.0312 17.0887H2.96874C2.15026 17.0887 1.48437 16.4585 1.48437 15.6837V6.00926C1.71664 6.08723 1.96642 6.12977 2.22656 6.12977H16.0312C16.8497 6.12977 17.5156 6.76005 17.5156 7.53477V9.53692H15.0293ZM17.5156 12.3469H15.0293C14.62 12.3469 14.2871 12.0318 14.2871 11.6444C14.2871 11.257 14.62 10.9419 15.0293 10.9419H17.5156V12.3469ZM6.202 4.72481L10.6224 2.18202L11.4127 3.44795C11.4279 3.48255 11.4454 3.51666 11.4669 3.54953C11.483 3.57416 11.5009 3.59709 11.5196 3.61915L12.2098 4.72481H6.202ZM13.934 4.72478L13.1131 3.40984L14.3665 2.67415L15.6871 4.72478H13.934Z" fill="#B4B8D7"/>
</g>
<defs>
<clipPath id="clip0">
<rect width="19" height="17.984" transform="matrix(-1 0 0 1 19 0.509766)" fill="white"/>
</clipPath>
</defs>
</svg>
