<svg width="35" height="33" viewBox="0 0 35 33" fill="none" xmlns="http://www.w3.org/2000/svg">
<path d="M34.5031 11.1697C33.9146 9.84569 32.5984 8.99083 31.1494 8.99083C30.635 8.99083 30.1341 9.09751 29.6608 9.30805C28.05 10.0244 27.2099 11.7659 27.5639 13.4248L26.1453 14.0352C24.9718 11.9249 22.817 10.4321 20.3004 10.1827V7.26063C21.9656 6.91374 23.2204 5.43576 23.2204 3.66882C23.2204 1.64542 21.5743 0 19.5516 0C17.5289 0 15.8827 1.64542 15.8827 3.66882C15.8827 5.43576 17.1375 6.91374 18.8027 7.26063V10.1827C15.2384 10.5359 12.3969 13.3796 12.0479 16.9452L7.26281 16.9509C7.12222 16.2578 6.78522 15.6199 6.27655 15.1055C5.58701 14.4089 4.66786 14.0225 3.66818 14.0175C1.65608 14.0175 0.01066 15.6545 6.25964e-05 17.6666C-0.00558935 18.6465 0.371678 19.5699 1.06051 20.2665C1.75005 20.9631 2.66919 21.3495 3.6491 21.3545C3.65051 21.3545 3.66747 21.3545 3.66888 21.3545C5.42664 21.3545 6.90392 20.1054 7.25716 18.4479L12.0486 18.4423C12.4294 22.2461 15.6482 25.2267 19.5509 25.2267C19.9105 25.2267 20.2609 25.1928 20.6071 25.1441L20.6148 25.1745C19.0888 25.9537 18.2707 27.7284 18.7539 29.4382C19.1983 31.0115 20.6495 32.1101 22.2829 32.1101C22.6199 32.1101 22.9554 32.0635 23.2818 31.9709C24.225 31.7039 25.0078 31.0864 25.4861 30.2315C25.9644 29.376 26.081 28.3855 25.8146 27.443C25.3702 25.8704 23.9191 24.7711 22.2857 24.7711C22.2129 24.7711 22.1402 24.7817 22.0674 24.7859C24.9901 23.7466 27.092 20.9602 27.092 17.6856C27.092 16.8923 26.9669 16.1278 26.7387 15.4086L28.175 14.7904C28.8554 15.74 29.9547 16.3292 31.1515 16.3292C31.6665 16.3292 32.1674 16.2225 32.6408 16.012C34.4897 15.1903 35.3247 13.0178 34.5031 11.1697ZM3.66959 19.483V20.4184L3.6597 19.483C3.17928 19.4801 2.72925 19.2908 2.39154 18.9496C2.05384 18.6083 1.86944 18.1555 1.87156 17.6758C1.87651 16.6895 2.68332 15.8876 3.67877 15.8876C4.15919 15.8904 4.60923 16.0798 4.94693 16.421C5.28463 16.7623 5.46903 17.2151 5.46691 17.6948C5.46126 18.6811 4.65515 19.483 3.66959 19.483ZM24.4115 14.7805L20.3004 16.5489V12.0711C22.0469 12.3029 23.5418 13.3315 24.4115 14.7805ZM17.7535 3.66882C17.7535 2.67761 18.5596 1.8715 19.5509 1.8715C20.5421 1.8715 21.3482 2.67832 21.3482 3.66882C21.3482 4.65932 20.5421 5.46614 19.5509 5.46614C18.5604 5.46684 17.7535 4.66003 17.7535 3.66882ZM18.8027 12.0711V16.9375L13.9356 16.9431C14.2691 14.4132 16.2734 12.4067 18.8027 12.0711ZM19.5516 23.3552C16.6818 23.3552 14.3094 21.2103 13.9385 18.4402L18.9652 18.4345L20.162 23.3213C19.9606 23.3425 19.7579 23.3552 19.5516 23.3552ZM24.0145 27.951C24.1452 28.413 24.088 28.8984 23.8534 29.3173C23.6188 29.7363 23.2359 30.0394 22.7739 30.1694C22.6128 30.2153 22.4482 30.2379 22.2836 30.2379C21.4838 30.2379 20.7731 29.6996 20.5555 28.9288C20.2856 27.975 20.8423 26.9796 21.7961 26.7104C21.9565 26.6645 22.1218 26.6419 22.2864 26.6419C23.0854 26.6411 23.7962 27.1802 24.0145 27.951ZM25.2212 17.6856C25.2212 20.0835 23.7227 22.1344 21.6145 22.9617L20.4297 18.123L25.0057 16.1547C25.142 16.6422 25.2212 17.1544 25.2212 17.6856ZM31.8813 14.3022C31.6488 14.4054 31.4037 14.4577 31.1522 14.4577C30.4422 14.4577 29.7964 14.0387 29.5082 13.3895C29.1055 12.4837 29.5145 11.419 30.4203 11.0163C30.6527 10.9132 30.8978 10.8609 31.1486 10.8609C31.8594 10.8609 32.5044 11.2799 32.7934 11.9291C33.1961 12.8356 32.787 13.8995 31.8813 14.3022Z" fill="#B4B8D7"/>
</svg>
