<svg width="30" height="30" viewBox="0 0 30 30" fill="none" xmlns="http://www.w3.org/2000/svg">
<path d="M13.6416 12.4111C11.3052 12.4111 9.43604 10.5145 9.43604 8.20555C9.43604 5.86913 11.3327 4 13.6416 4C15.9505 4 17.8471 5.89662 17.8471 8.20555C17.8471 10.5145 15.978 12.4111 13.6416 12.4111ZM13.6416 5.072C11.9099 5.072 10.5355 6.47385 10.5355 8.17806C10.5355 9.88227 11.9099 11.3116 13.6416 11.3116C15.3733 11.3116 16.7476 9.90975 16.7476 8.20555C16.7476 6.50134 15.3733 5.072 13.6416 5.072Z" fill="#B4B8D7"/>
<path d="M21.2829 22.581H6V18.7328C6 15.5442 8.5838 12.9604 11.7723 12.9604H15.5106C18.6991 12.9604 21.2829 15.5442 21.2829 18.7328V22.581ZM7.09949 21.4815H20.2109V18.7328C20.2109 16.149 18.1219 14.0599 15.5381 14.0599H11.7723C9.18852 14.0599 7.09949 16.149 7.09949 18.7328V21.4815Z" fill="#B4B8D7"/>
<path d="M23.1766 15.7051L25.5192 18.083C25.6821 18.2483 25.6821 18.5165 25.5192 18.6818L18.8727 25.4286C18.8164 25.4857 18.748 25.5231 18.6759 25.5408L15.1723 26.5648C14.9509 26.6287 14.7204 26.4984 14.6574 26.2737C14.6302 26.1768 14.6386 26.0783 14.6747 25.9924L15.8424 22.6123C15.8637 22.5502 15.898 22.4963 15.941 22.4527L15.9401 22.4519L22.5867 15.7051C22.7495 15.5397 23.0137 15.5397 23.1766 15.7051Z" fill="#B4B8D7"/>
<path d="M20.7567 18.2535C20.6029 18.0997 20.6029 17.8502 20.7567 17.6964C20.9105 17.5426 21.16 17.5426 21.3138 17.6964L23.526 19.9086C23.6798 20.0624 23.6798 20.3119 23.526 20.4657C23.3722 20.6195 23.1227 20.6195 22.9689 20.4657L20.7567 18.2535Z" fill="#B4B8D7"/>
<path d="M18.5261 24.909C18.6798 25.0627 18.6798 25.312 18.5261 25.4658C18.3723 25.6195 18.123 25.6195 17.9693 25.4658L15.7567 23.2531C15.6029 23.0994 15.6029 22.8501 15.7567 22.6964C15.9104 22.5426 16.1597 22.5426 16.3134 22.6964L18.5261 24.909Z" fill="#B4B8D7"/>
<path fill-rule="evenodd" clip-rule="evenodd" d="M5.25625 0H24.7437C27.6347 0 30 2.3653 30 5.25625V24.7437C30 27.6347 27.6347 30 24.7437 30H5.25625C2.3653 30 0 27.6347 0 24.7437V5.25625C0 2.3653 2.3653 0 5.25625 0ZM5.25627 1.31403H24.7438C26.912 1.31403 28.686 3.08802 28.686 5.25625V24.7437C28.686 26.912 26.912 28.686 24.7438 28.686H5.25627C3.08805 28.686 1.31405 26.912 1.31405 24.7437V5.25625C1.31405 3.08803 3.08804 1.31403 5.25627 1.31403Z" fill="#B4B8D7"/>
</svg>
