<svg width="50" height="30" viewBox="0 0 50 30" fill="none" xmlns="http://www.w3.org/2000/svg">
<path d="M4.28571 0C1.92996 0 0 1.92997 0 4.28571V25.7143C0 28.07 1.92996 30 4.28571 30H45C47.3557 30 49.2857 28.07 49.2857 25.7143V4.28571C49.2857 1.92997 47.3557 0 45 0H4.28571ZM4.28571 2.14286H45C46.2057 2.14286 47.1428 3.08004 47.1428 4.28571V25.7143C47.1428 26.92 46.2057 27.8571 45 27.8571H4.28571C3.08004 27.8571 2.14286 26.92 2.14286 25.7143V4.28571C2.14286 3.08004 3.08004 2.14286 4.28571 2.14286ZM13.3929 6.96429C11.3345 6.96429 9.64286 8.65591 9.64286 10.7143C9.64286 12.7727 11.3345 14.4643 13.3929 14.4643C15.4512 14.4643 17.1429 12.7727 17.1429 10.7143C17.1429 8.65591 15.4512 6.96429 13.3929 6.96429ZM25.7143 8.03571C25.1225 8.03571 24.6429 8.51539 24.6429 9.10714C24.6429 9.69889 25.1225 10.1786 25.7143 10.1786H42.8571C43.4489 10.1786 43.9286 9.69889 43.9286 9.10714C43.9286 8.51539 43.4489 8.03571 42.8571 8.03571H25.7143ZM13.3929 9.10714C14.2931 9.10714 15 9.81402 15 10.7143C15 11.6146 14.2931 12.3214 13.3929 12.3214C12.4926 12.3214 11.7857 11.6146 11.7857 10.7143C11.7857 9.81402 12.4926 9.10714 13.3929 9.10714ZM25.7143 13.9286C25.1225 13.9286 24.6429 14.4082 24.6429 15C24.6429 15.5917 25.1225 16.0714 25.7143 16.0714H42.8571C43.4489 16.0714 43.9286 15.5917 43.9286 15C43.9286 14.4082 43.4489 13.9286 42.8571 13.9286H25.7143ZM13.3929 15.5357C11.2744 15.5357 9.35014 16.0784 7.88507 17.0256C6.41984 17.9729 5.35714 19.3924 5.35714 21.0603V21.9643C5.3572 22.5253 5.86757 23.0357 6.42857 23.0357H20.3571C20.9181 23.0357 21.4285 22.5253 21.4286 21.9643V21.0603C21.4286 19.3924 20.3659 17.9729 18.9006 17.0256C17.4356 16.0784 15.5113 15.5357 13.3929 15.5357ZM13.3929 17.6786C15.1326 17.6786 16.6931 18.1533 17.7455 18.8337C18.7215 19.4646 19.1687 20.1901 19.2355 20.8929H7.55025C7.617 20.1901 8.06421 19.4646 9.04018 18.8337C10.0926 18.1533 11.6531 17.6786 13.3929 17.6786ZM25.7143 19.8214C25.1225 19.8214 24.6429 20.3011 24.6429 20.8929C24.6429 21.4846 25.1225 21.9643 25.7143 21.9643H42.8571C43.4489 21.9643 43.9286 21.4846 43.9286 20.8929C43.9286 20.3011 43.4489 19.8214 42.8571 19.8214H25.7143Z" fill="#B4B8D7"/>
</svg>
