<svg width="30" height="30" viewBox="0 0 30 30" fill="none" xmlns="http://www.w3.org/2000/svg">
<path d="M15.0004 13.5474C11.9132 13.5474 9.44348 11.0413 9.44348 7.99049C9.44348 4.90333 11.9495 2.43359 15.0004 2.43359C18.0512 2.43359 20.5573 4.93965 20.5573 7.99049C20.5573 11.0413 18.0875 13.5474 15.0004 13.5474ZM15.0004 3.85006C12.7122 3.85006 10.8963 5.70236 10.8963 7.95417C10.8963 10.206 12.7122 12.0946 15.0004 12.0946C17.2885 12.0946 19.1045 10.2423 19.1045 7.99049C19.1045 5.73868 17.2885 3.85006 15.0004 3.85006Z" fill="#B4B8D7"/>
<path d="M25.0971 26.9853H4.90344V21.9006C4.90344 17.6875 8.31748 14.2734 12.5306 14.2734H17.47C21.6831 14.2734 25.0971 17.6875 25.0971 21.9006V26.9853ZM6.35623 25.5325H23.6807V21.9006C23.6807 18.4865 20.9204 15.7262 17.5063 15.7262H12.5306C9.11652 15.7262 6.35623 18.4865 6.35623 21.9006V25.5325Z" fill="#B4B8D7"/>
<path d="M25.9685 30H4.03148C1.81598 30 0 28.184 0 25.9685V4.03148C0 1.81598 1.81598 0 4.03148 0H25.9685C28.184 0 30 1.81598 30 4.03148V25.9685C30 28.184 28.184 30 25.9685 30ZM4.03148 1.4891C2.61501 1.4891 1.45278 2.65133 1.45278 4.0678V26.0048C1.45278 27.4213 2.61501 28.5835 4.03148 28.5835H25.9685C27.385 28.5835 28.5472 27.4213 28.5472 26.0048V4.03148C28.5472 2.61501 27.385 1.45278 25.9685 1.45278H4.03148V1.4891Z" fill="#B4B8D7"/>
</svg>
