<svg width="29" height="30" viewBox="0 0 29 30" fill="none" xmlns="http://www.w3.org/2000/svg">
<path d="M6.39278 10.7473C5.25891 10.7473 4.12554 10.3177 3.26226 9.45839C2.42549 8.62512 1.96484 7.51676 1.96484 6.33838C1.96484 5.16 2.42549 4.05164 3.26226 3.21837C4.98832 1.49932 7.79673 1.49882 9.52279 3.21887C10.3596 4.05164 10.8202 5.16 10.8202 6.33838C10.8202 7.51676 10.3596 8.62512 9.52279 9.45839C8.65951 10.3172 7.52614 10.7473 6.39278 10.7473ZM6.39278 2.92828C5.51499 2.92828 4.63671 3.26089 3.96849 3.9271C3.32178 4.57081 2.96517 5.42759 2.96517 6.33788C2.96517 7.24868 3.32128 8.10495 3.96799 8.74866C5.30492 10.0801 7.48013 10.0801 8.81706 8.74866C9.46377 8.10495 9.81989 7.24868 9.81989 6.33788C9.81989 5.42759 9.46377 4.57081 8.81706 3.9271C8.14834 3.26139 7.27056 2.92828 6.39278 2.92828Z" fill="#B4B8D7"/>
<path d="M26.5279 27.8654C26.1488 27.8654 25.7691 27.7213 25.4806 27.4337L9.73746 11.7572C7.22965 13.3007 3.9856 12.9435 1.87342 10.8409C0.631019 9.60346 -0.0336955 7.95843 0.00131578 6.20836C0.0368273 4.4588 0.769564 2.84077 2.06448 1.65189C4.50727 -0.59084 8.44055 -0.544325 10.8313 1.75742C12.982 3.82809 13.3801 7.15817 11.8326 9.66748L27.5737 25.3421C27.5737 25.3421 27.5737 25.3421 27.5737 25.3426C27.8543 25.6221 28.0084 25.9933 28.0084 26.3889C28.0084 26.784 27.8538 27.1551 27.5732 27.4342C27.2861 27.7213 26.907 27.8654 26.5279 27.8654ZM9.80149 10.6153C9.93003 10.6153 10.0581 10.6648 10.1546 10.7608L26.1863 26.725C26.3743 26.9126 26.6809 26.9126 26.869 26.725C26.9595 26.635 27.0096 26.5154 27.0096 26.3884C27.0096 26.2614 26.9595 26.1413 26.869 26.0513L10.8373 10.0871C10.6638 9.91406 10.6408 9.64047 10.7833 9.44141C12.3148 7.30021 12.0377 4.30625 10.1381 2.47815C8.12044 0.536526 4.80237 0.496513 2.7412 2.38812C1.64935 3.39095 1.03165 4.75439 1.00164 6.22887C0.97163 7.70335 1.53181 9.08929 2.57865 10.1316C4.44525 11.9907 7.3612 12.2328 9.51139 10.7073C9.59942 10.6458 9.70095 10.6153 9.80149 10.6153Z" fill="#B4B8D7"/>
<path d="M19.9319 29.9999C19.8043 29.9999 19.6768 29.9513 19.5787 29.8543L18.1903 28.4714C18.0963 28.3773 18.0432 28.2498 18.0432 28.1168C18.0432 27.9837 18.0963 27.8562 18.1903 27.7621L19.2231 26.7338L17.8487 25.3654L16.8129 26.3967C16.6178 26.5913 16.3022 26.5913 16.1071 26.3967L14.7187 25.0137C14.6246 24.9197 14.5716 24.7922 14.5716 24.6591C14.5716 24.5261 14.6246 24.3985 14.7187 24.3045L18.8845 20.1562C19.0796 19.9616 19.3952 19.9616 19.5902 20.1562L20.9787 21.5391C21.0727 21.6332 21.1257 21.7607 21.1257 21.8937C21.1257 22.0268 21.0727 22.1543 20.9787 22.2484L19.9464 23.2767L21.3203 24.6451L22.3561 23.6133C22.5517 23.4197 22.8668 23.4182 23.0624 23.6138L24.4508 24.9972C24.5449 25.0913 24.5979 25.2183 24.5979 25.3514C24.5979 25.4844 24.5449 25.6119 24.4508 25.706L20.2845 29.8543C20.1874 29.9513 20.0594 29.9999 19.9319 29.9999ZM19.2521 28.1168L19.9319 28.794L23.3895 25.3514L22.7098 24.6741L21.6739 25.706C21.4784 25.8995 21.1633 25.9005 20.9677 25.706L18.8845 23.6318C18.7905 23.5378 18.7375 23.4102 18.7375 23.2772C18.7375 23.1441 18.7905 23.0166 18.8845 22.9226L19.9174 21.8942L19.2376 21.217L15.7805 24.6596L16.4602 25.3369L17.4961 24.3055C17.6911 24.1105 18.0067 24.1105 18.2018 24.3055L20.285 26.3797C20.379 26.4737 20.432 26.6013 20.432 26.7343C20.432 26.8673 20.379 26.9949 20.285 27.0889L19.2521 28.1168Z" fill="#B4B8D7"/>
<path d="M21.6183 10.7474C20.4844 10.7474 19.3511 10.3177 18.4883 9.45845C17.6515 8.62518 17.1904 7.51683 17.1904 6.33844C17.1904 5.16006 17.651 4.0517 18.4883 3.21843C20.2138 1.49938 23.0223 1.49888 24.7488 3.21843C25.5856 4.0517 26.0462 5.16006 26.0462 6.33844C26.0462 7.51683 25.5856 8.62518 24.7483 9.45845C23.8855 10.3172 22.7517 10.7474 21.6183 10.7474ZM21.6183 2.92834C20.7405 2.92834 19.8622 3.26095 19.194 3.92666C18.5473 4.57087 18.1907 5.42765 18.1907 6.33794C18.1907 7.24874 18.5468 8.10502 19.194 8.74872C20.5309 10.0807 22.7057 10.0797 24.0426 8.74872C24.6893 8.10502 25.0459 7.24874 25.0459 6.33794C25.0459 5.42765 24.6898 4.57087 24.0426 3.92716C23.3744 3.26145 22.4961 2.92834 21.6183 2.92834Z" fill="#B4B8D7"/>
<path d="M8.07891 29.9999C7.95137 29.9999 7.82383 29.9513 7.7258 29.8543L3.55995 25.706C3.46592 25.6119 3.4129 25.4844 3.4129 25.3514C3.4129 25.2183 3.46592 25.0908 3.55995 24.9972L4.9484 23.6138C5.14346 23.4192 5.45906 23.4187 5.65463 23.6133L6.69046 24.6451L8.06491 23.2767L7.03207 22.2484C6.93804 22.1543 6.88503 22.0268 6.88503 21.8937C6.88503 21.7607 6.93804 21.6332 7.03207 21.5391L8.42052 20.1562C8.61559 19.9616 8.93119 19.9616 9.12625 20.1562L13.2921 24.3045C13.3861 24.3985 13.4391 24.5261 13.4391 24.6591C13.4391 24.7922 13.3861 24.9197 13.2921 25.0137L11.9036 26.3967C11.7086 26.5913 11.393 26.5913 11.1979 26.3967L10.1621 25.3654L8.78814 26.7338L9.82048 27.7621C9.91451 27.8562 9.96752 27.9837 9.96752 28.1168C9.96752 28.2498 9.91451 28.3773 9.82048 28.4714L8.43203 29.8543C8.33449 29.9513 8.20695 29.9999 8.07891 29.9999ZM4.62179 25.3514L8.07891 28.794L8.75863 28.1168L7.7258 27.0884C7.63177 26.9944 7.57875 26.8668 7.57875 26.7338C7.57875 26.6008 7.63177 26.4732 7.7258 26.3792L9.80897 24.305C10.004 24.1105 10.3196 24.1105 10.5147 24.305L11.5505 25.3364L12.2303 24.6591L8.77314 21.2165L8.09342 21.8937L9.12575 22.9221C9.21978 23.0161 9.2728 23.1436 9.2728 23.2767C9.2728 23.4097 9.21978 23.5373 9.12575 23.6313L7.04258 25.7055C6.84751 25.9 6.53191 25.9 6.33685 25.7055L5.30101 24.6736L4.62179 25.3514Z" fill="#B4B8D7"/>
<path d="M1.48329 27.8655C1.10417 27.8655 0.724546 27.7215 0.435953 27.4344C0.155862 27.1553 0.00131226 26.7842 0.00131226 26.389C0.00131226 25.9934 0.155362 25.6223 0.435953 25.3427L12.2643 13.5639C12.4593 13.3693 12.7749 13.3693 12.97 13.5639L14.3585 14.9468C14.4525 15.0409 14.5055 15.1684 14.5055 15.3015C14.5055 15.4345 14.4525 15.562 14.3585 15.6561L2.53013 27.4344C2.24154 27.7215 1.86241 27.8655 1.48329 27.8655ZM12.6169 14.6247L1.14168 26.0519C1.05115 26.142 1.00164 26.2615 1.00164 26.389C1.00164 26.5161 1.05165 26.6356 1.14168 26.7256C1.33024 26.9137 1.63634 26.9132 1.8244 26.7261L13.2966 15.302L12.6169 14.6247Z" fill="#B4B8D7"/>
<path d="M15.3943 14.419C15.2667 14.419 15.1387 14.3705 15.0412 14.2735L13.6527 12.8905C13.5587 12.7965 13.5057 12.6689 13.5057 12.5359C13.5057 12.4029 13.5587 12.2753 13.6527 12.1813L16.177 9.66798C14.63 7.15816 15.0277 3.82809 17.1784 1.75792C19.5701 -0.54333 23.5029 -0.590845 25.9457 1.65238C27.2406 2.84127 27.9734 4.45929 28.0089 6.20886C28.0444 7.95892 27.3797 9.60395 26.1373 10.8414C24.0256 12.943 20.7815 13.3007 18.2737 11.7577L15.7474 14.2735C15.6494 14.3705 15.5218 14.419 15.3943 14.419ZM14.7141 12.5359L15.3938 13.2131L17.8561 10.7613C18.0281 10.5898 18.2997 10.5668 18.4983 10.7083C20.649 12.2338 23.5649 11.9907 25.431 10.1326C26.4779 9.09029 27.0381 7.70434 27.008 6.22986C26.978 4.75589 26.3608 3.39194 25.2685 2.38912C23.2073 0.497007 19.8892 0.53702 17.8716 2.47915C15.9725 4.30724 15.6949 7.30121 17.2269 9.4424C17.3694 9.64147 17.3464 9.91506 17.1729 10.0881L14.7141 12.5359Z" fill="#B4B8D7"/>
</svg>
