<svg width="253" height="160" viewBox="0 0 253 160" fill="none" xmlns="http://www.w3.org/2000/svg">
<path d="M215.398 123.651C215.398 149.381 184.788 155.527 140.829 155.527C96.8692 155.527 60.395 149.381 60.395 123.651C60.395 97.9219 64.193 89.3237 108.153 89.3237C152.112 89.3237 215.398 97.9218 215.398 123.651Z" fill="#EEE6D1"/>
<path d="M133.351 61.7803C144.384 61.8413 155.452 62.0057 166.447 60.9496C174.134 60.2114 188.791 62.2127 191.265 53.0346C192.761 47.483 189.703 44.2335 186.517 42.1602C183.805 40.3967 176.449 37.1932 177.052 33.1761C177.505 30.1603 181.717 29.5969 184.864 29.8033" stroke="#FFB127" stroke-miterlimit="10" stroke-dasharray="3 3"/>
<path d="M101.838 59.5471C93.6572 63.3325 83.8829 63.4203 74.6571 62.5848C65.4314 61.7493 56.2155 60.0797 46.9663 60.6828C37.7171 61.286 28.0833 64.6396 23.3015 71.5203C21.6976 73.8273 20.7076 76.7032 21.8396 79.211C23.3043 82.4543 27.5737 83.8539 31.1725 85.4091C36.7435 87.8155 42.1171 92.4405 41.1924 97.7701C40.3003 102.911 34.2298 105.869 29.7205 109.307C25.8173 112.285 22.6472 116.417 22.7437 120.921C22.8814 127.315 29.4792 132.31 36.3837 134.583C50.3493 139.179 67.4262 135.426 77.1679 125.619" stroke="#FFB127" stroke-miterlimit="10" stroke-dasharray="3 3"/>
<path d="M204.296 76.3078C197.611 68.7727 197.293 59.6298 198.581 50.9712C199.868 42.3125 202.599 33.6369 201.398 25.0016C200.197 16.3663 194.234 7.45766 182.254 3.2C178.237 1.77191 173.247 0.936101 168.929 2.07416C163.346 3.54679 160.998 7.58564 158.37 11.0019C154.303 16.2902 146.397 21.4638 137.165 20.7663C128.26 20.0934 123.041 14.5065 117.019 10.3954C111.803 6.837 104.603 4.00085 96.8151 4.23293C85.7614 4.56297 77.2345 10.8937 73.423 17.4255C65.7125 30.6376 72.4937 46.498 89.6182 55.3044" stroke="#FFB127" stroke-miterlimit="10" stroke-dasharray="3 3"/>
<path d="M9.1414 79.0565C9.90974 79.1822 10.6538 79.4202 11.3478 79.7625C11.932 80.0509 12.4679 80.4226 12.9375 80.8653C13.3381 81.2416 13.668 81.6822 13.9125 82.1675C14.1188 82.5673 14.2491 82.9995 14.2972 83.4437C14.3089 83.5333 14.2975 83.6242 14.2641 83.7085C14.2307 83.7928 14.1762 83.8679 14.1056 83.9269C13.9688 84.0472 13.7902 84.1135 13.6053 84.1127H11.8091C11.5786 84.129 11.349 84.0725 11.1547 83.9516C10.9965 83.8311 10.8619 83.6841 10.7573 83.5178C10.4651 83.0717 10.0643 82.7016 9.58992 82.4396C8.87148 82.092 8.07062 81.934 7.26857 81.9818C6.84109 81.9803 6.41485 82.0263 5.99825 82.1189C5.62848 82.1973 5.27364 82.331 4.94651 82.515C4.66531 82.672 4.42422 82.8879 4.2411 83.147C4.06924 83.4136 3.98029 83.7224 3.98482 84.0365C3.98935 84.3505 4.08717 84.6568 4.26665 84.9187C4.51063 85.1963 4.82441 85.4088 5.17787 85.5356C5.70106 85.7414 6.24172 85.903 6.7938 86.0188C7.45237 86.1682 8.25194 86.3418 9.1925 86.5397C10.0824 86.7139 10.9539 86.9663 11.7963 87.2936C12.4357 87.5403 13.0259 87.8924 13.5407 88.334C13.9787 88.7173 14.3134 89.1979 14.5158 89.7343C14.7211 90.3163 14.8208 90.9282 14.8103 91.543C14.8152 92.1654 14.6841 92.7817 14.4256 93.3518C14.1626 93.9228 13.7832 94.4368 13.31 94.8631C12.7867 95.3313 12.1833 95.7083 11.5266 95.9775C10.7654 96.29 9.96245 96.4976 9.1414 96.5944V98.2791C9.13901 98.4558 9.06527 98.6246 8.93589 98.7495C8.80651 98.8745 8.63172 98.9457 8.44876 98.948H6.37083C6.18776 98.946 6.01276 98.8749 5.8833 98.7499C5.75384 98.6249 5.68022 98.4559 5.67819 98.2791V96.5944C4.93364 96.4862 4.20556 96.2905 3.51013 96.0118C2.87172 95.762 2.27412 95.4243 1.73594 95.0091C1.245 94.6276 0.832 94.1611 0.518139 93.6335C0.208299 93.1069 0.0322109 92.5168 0.00433535 91.9118C-0.00720452 91.8221 0.00437945 91.7311 0.0380562 91.6468C0.0717329 91.5625 0.126461 91.4875 0.197369 91.4286C0.333962 91.308 0.51264 91.2417 0.697686 91.2428H2.49317C2.72577 91.2288 2.95756 91.2805 3.16026 91.3916C3.32676 91.5051 3.45941 91.659 3.5449 91.8377C3.67184 92.0635 3.81782 92.2787 3.98136 92.4813C4.17169 92.7128 4.40667 92.9064 4.67329 93.0516C5.01514 93.2373 5.38232 93.3758 5.76406 93.4628C6.29927 93.5808 6.84745 93.6349 7.39631 93.6239C7.89534 93.6251 8.39369 93.5879 8.88663 93.5128C9.32242 93.4509 9.74595 93.3254 10.1428 93.1407C10.4764 92.9864 10.7736 92.7673 11.0157 92.4971C11.2422 92.2282 11.3606 91.8895 11.3492 91.543C11.355 91.3787 11.3261 91.2149 11.2643 91.0617C11.2024 90.9086 11.1089 90.7691 10.9894 90.652C10.6755 90.3793 10.3033 90.1764 9.89933 90.0578C9.30695 89.8651 8.70282 89.7078 8.09038 89.5869C7.37218 89.4384 6.54281 89.2483 5.60225 89.0167C4.83374 88.8464 4.08252 88.6101 3.35755 88.3107C2.76915 88.0715 2.23037 87.7316 1.76717 87.3073C1.35035 86.9144 1.03022 86.4361 0.830398 85.9077C0.612021 85.2904 0.508001 84.6408 0.52311 83.9886C0.516763 83.3748 0.647977 82.7669 0.907753 82.2066C1.16754 81.6572 1.52819 81.1577 1.97227 80.7323C2.44694 80.2806 2.99922 79.9118 3.60451 79.6426C4.2655 79.3449 4.96413 79.1324 5.68244 79.0106V77.3259C5.68447 77.1491 5.7581 76.9801 5.88756 76.8551C6.01702 76.73 6.19202 76.6589 6.37509 76.657H8.45302C8.63597 76.6593 8.81077 76.7305 8.94015 76.8555C9.06953 76.9804 9.14327 77.1492 9.14566 77.3259L9.1414 79.0565Z" fill="#FFB127"/>
<path d="M214.504 92.1613C215.068 92.2538 215.614 92.4285 216.124 92.6794C216.553 92.8913 216.946 93.1641 217.291 93.4889C217.585 93.765 217.827 94.088 218.007 94.4436C218.159 94.737 218.255 95.0544 218.291 95.3806C218.299 95.4464 218.291 95.5132 218.266 95.575C218.241 95.6368 218.201 95.6918 218.149 95.7349C218.048 95.8237 217.917 95.8726 217.781 95.872H216.462C216.293 95.8838 216.125 95.8422 215.983 95.7534C215.867 95.6649 215.768 95.5569 215.691 95.4347C215.476 95.1078 215.182 94.8363 214.834 94.6438C214.307 94.3886 213.719 94.2725 213.131 94.3072C212.817 94.3059 212.504 94.3395 212.198 94.4073C211.927 94.4651 211.666 94.5634 211.426 94.6986C211.22 94.8136 211.043 94.9719 210.909 95.1619C210.782 95.3577 210.716 95.5847 210.719 95.8157C210.722 96.0466 210.795 96.2718 210.927 96.4642C211.105 96.6689 211.336 96.8254 211.595 96.9186C211.98 97.0694 212.377 97.1882 212.782 97.2736C213.265 97.3824 213.852 97.5096 214.543 97.6554C215.196 97.784 215.836 97.9696 216.455 98.2099C216.924 98.3916 217.357 98.6502 217.736 98.9741C218.057 99.2556 218.302 99.6084 218.451 100.002C218.6 100.43 218.673 100.879 218.664 101.33C218.667 101.787 218.57 102.239 218.38 102.657C218.187 103.077 217.908 103.454 217.561 103.767C217.177 104.111 216.734 104.388 216.252 104.585C215.693 104.815 215.104 104.969 214.501 105.04V106.278C214.499 106.407 214.445 106.531 214.35 106.623C214.255 106.715 214.126 106.767 213.992 106.768H212.472C212.338 106.767 212.209 106.715 212.114 106.623C212.019 106.531 211.965 106.407 211.964 106.278V105.04C211.417 104.96 210.883 104.817 210.372 104.613C209.905 104.429 209.467 104.181 209.073 103.877C208.712 103.596 208.408 103.254 208.178 102.866C207.95 102.48 207.821 102.047 207.802 101.603C207.793 101.537 207.802 101.47 207.826 101.408C207.851 101.346 207.891 101.291 207.943 101.248C208.043 101.159 208.175 101.11 208.31 101.111H209.629C209.8 101.101 209.97 101.139 210.119 101.221C210.241 101.304 210.339 101.417 210.403 101.548C210.496 101.714 210.603 101.872 210.723 102.021C210.863 102.191 211.035 102.333 211.231 102.439C211.482 102.575 211.752 102.676 212.032 102.74C212.424 102.826 212.826 102.865 213.228 102.858C213.593 102.857 213.957 102.828 214.317 102.772C214.637 102.726 214.948 102.634 215.24 102.498C215.484 102.384 215.701 102.223 215.878 102.025C216.045 101.827 216.132 101.579 216.123 101.324C216.128 101.204 216.107 101.083 216.061 100.971C216.016 100.858 215.947 100.756 215.859 100.67C215.629 100.469 215.355 100.32 215.059 100.233C214.624 100.093 214.18 99.9781 213.731 99.8905C213.204 99.7808 212.595 99.6412 211.904 99.4717C211.34 99.3466 210.789 99.1732 210.256 98.9535C209.824 98.7779 209.429 98.5283 209.089 98.2167C208.783 97.9282 208.548 97.5768 208.401 97.1886C208.241 96.7354 208.164 96.2584 208.175 95.7795C208.171 95.3282 208.267 94.8814 208.459 94.4697C208.649 94.0664 208.914 93.6998 209.239 93.3874C209.587 93.0558 209.992 92.7849 210.435 92.5869C210.92 92.3684 211.433 92.2127 211.961 92.1236V90.8864C211.962 90.7566 212.016 90.6324 212.111 90.5406C212.206 90.4487 212.335 90.3964 212.469 90.395H213.995C214.129 90.3966 214.258 90.4489 214.353 90.5407C214.448 90.6325 214.502 90.7566 214.504 90.8864L214.504 92.1613Z" fill="#FFB127"/>
<path d="M99.0916 17.8812C99.5833 17.9623 100.059 18.1148 100.504 18.3336C100.878 18.5183 101.221 18.7563 101.521 19.0396C101.778 19.2803 101.989 19.562 102.146 19.8723C102.278 20.1284 102.361 20.405 102.392 20.6893C102.399 20.7466 102.392 20.8047 102.371 20.8586C102.349 20.9125 102.315 20.9605 102.269 20.9984C102.182 21.0757 102.067 21.1183 101.949 21.1177H100.799C100.652 21.128 100.505 21.0917 100.38 21.0142C100.279 20.938 100.193 20.8452 100.126 20.74C99.9388 20.4546 99.682 20.2176 99.3783 20.0498C98.9184 19.8271 98.4057 19.7259 97.8922 19.7565C97.6186 19.7554 97.3457 19.7846 97.0789 19.8435C96.8421 19.8941 96.6149 19.9799 96.4054 20.0978C96.2254 20.1981 96.0712 20.3363 95.9541 20.5022C95.8441 20.6618 95.7869 20.8499 95.7901 21.0416C95.7804 21.2537 95.8438 21.4629 95.9704 21.6365C96.1262 21.8149 96.3272 21.9514 96.5538 22.0327C96.8888 22.1642 97.235 22.2676 97.5885 22.3418C98.01 22.4377 98.5217 22.549 99.1235 22.6756C99.6934 22.7874 100.252 22.9492 100.791 23.1588C101.2 23.3171 101.578 23.5427 101.908 23.8257C102.188 24.0707 102.402 24.3782 102.532 24.7215C102.664 25.0942 102.727 25.4861 102.721 25.8798C102.724 26.2781 102.64 26.6725 102.475 27.0374C102.306 27.4029 102.063 27.732 101.76 28.0052C101.425 28.3048 101.038 28.5462 100.618 28.7187C100.131 28.9193 99.6171 29.0529 99.0916 29.1155V30.1936C99.0899 30.3068 99.0426 30.4148 98.9598 30.4948C98.877 30.5748 98.7651 30.6204 98.648 30.622H97.3174C97.2001 30.6208 97.0881 30.5752 97.0052 30.4952C96.9222 30.4151 96.8751 30.3069 96.8738 30.1936V29.1148C96.3972 29.0452 95.9311 28.92 95.4857 28.742C95.0773 28.5816 94.6949 28.3653 94.3502 28.0998C94.0358 27.8554 93.7711 27.5568 93.5696 27.219C93.3712 26.882 93.2586 26.5042 93.241 26.1169C93.2337 26.0596 93.2411 26.0014 93.2627 25.9474C93.2842 25.8935 93.3192 25.8456 93.3645 25.8078C93.4517 25.7304 93.5661 25.6878 93.6846 25.6886H94.8342C94.9827 25.6798 95.1306 25.7129 95.26 25.7838C95.3666 25.8563 95.4516 25.9546 95.5063 26.0689C95.5875 26.2133 95.6811 26.3508 95.7859 26.4802C95.9075 26.6284 96.058 26.7523 96.2287 26.8448C96.4478 26.963 96.6828 27.0512 96.9271 27.1066C97.2691 27.1821 97.6195 27.2166 97.9703 27.2094C98.2891 27.2113 98.6076 27.1883 98.9226 27.1409C99.2019 27.1017 99.4733 27.0215 99.7274 26.9031C99.9409 26.8045 100.131 26.6645 100.286 26.4918C100.431 26.3197 100.506 26.1028 100.499 25.8811C100.503 25.7758 100.484 25.6708 100.445 25.5725C100.405 25.4742 100.345 25.3848 100.269 25.3095C100.068 25.1351 99.8293 25.0053 99.5706 24.9291C99.1913 24.8058 98.8045 24.7051 98.4124 24.6276C97.9525 24.5325 97.4217 24.411 96.8199 24.2629C96.3278 24.1536 95.8466 24.0025 95.3821 23.8113C95.0056 23.6578 94.6608 23.44 94.3644 23.1684C94.0972 22.917 93.8922 22.6105 93.7647 22.2719C93.6247 21.8766 93.5579 21.4606 93.5674 21.043C93.5635 20.6494 93.6474 20.2597 93.8137 19.9004C93.9805 19.5488 94.2115 19.2291 94.4957 18.9566C94.799 18.6675 95.152 18.4314 95.5389 18.2589C95.962 18.0684 96.4091 17.9325 96.8689 17.8545V16.7709C96.8702 16.6577 96.9173 16.5494 97.0002 16.4694C97.0831 16.3893 97.1952 16.3438 97.3124 16.3425H98.643C98.7602 16.3441 98.872 16.3898 98.9549 16.4698C99.0377 16.5498 99.0849 16.6578 99.0866 16.7709L99.0916 17.8812Z" fill="#FFB127"/>
<path d="M197.082 80.7975L202.496 79.6886L197.181 78.5919L196.032 71.9902L194.897 78.4974L189.483 79.6063L194.799 80.703L195.947 87.3047L197.082 80.7975Z" fill="#FFB127"/>
<path d="M61.7083 33.1593L67.1224 32.0504L61.8062 30.9538L60.658 24.3521L59.5225 30.8592L54.1084 31.9681L59.4246 33.0648L60.5728 39.6665L61.7083 33.1593Z" fill="#FFB127"/>
<path d="M119.57 136.193C108.537 136.132 97.4686 135.967 86.4744 137.023C78.7864 137.761 64.1302 135.76 61.6563 144.938" stroke="#FFB127" stroke-miterlimit="10" stroke-dasharray="3 3"/>
<path d="M151.083 138.426C159.264 134.641 169.038 134.553 178.264 135.388C187.49 136.224 196.705 137.893 205.955 137.29C215.204 136.687 224.838 133.334 229.619 126.453C231.223 124.146 232.213 121.27 231.081 118.762C229.617 115.519 225.347 114.119 221.748 112.564C216.177 110.158 210.804 105.533 211.728 100.203C212.621 95.0626 218.691 92.1044 223.2 88.6665C227.104 85.6885 230.274 81.5562 230.177 77.0518C230.04 70.6585 223.442 65.6627 216.537 63.3906C202.572 58.7943 185.495 62.5475 175.753 72.3541" stroke="#FFB127" stroke-miterlimit="10" stroke-dasharray="3 3"/>
<path d="M243.779 118.916C243.011 118.79 242.267 118.552 241.573 118.21C240.989 117.922 240.453 117.55 239.983 117.107C239.583 116.731 239.253 116.29 239.008 115.805C238.802 115.405 238.672 114.973 238.624 114.529C238.612 114.439 238.623 114.348 238.657 114.264C238.69 114.18 238.745 114.105 238.815 114.046C238.952 113.925 239.131 113.859 239.316 113.86H241.112C241.342 113.844 241.572 113.9 241.766 114.021C241.924 114.142 242.059 114.289 242.164 114.455C242.456 114.901 242.857 115.271 243.331 115.533C244.049 115.881 244.85 116.039 245.652 115.991C246.08 115.992 246.506 115.946 246.923 115.854C247.292 115.775 247.647 115.642 247.974 115.458C248.256 115.301 248.497 115.085 248.68 114.826C248.852 114.559 248.941 114.25 248.936 113.936C248.932 113.622 248.834 113.316 248.654 113.054C248.41 112.776 248.096 112.564 247.743 112.437C247.22 112.231 246.679 112.07 246.127 111.954C245.469 111.804 244.669 111.631 243.728 111.433C242.839 111.259 241.967 111.006 241.125 110.679C240.485 110.432 239.895 110.08 239.38 109.639C238.942 109.255 238.608 108.775 238.405 108.238C238.2 107.656 238.1 107.044 238.111 106.43C238.106 105.807 238.237 105.191 238.495 104.621C238.758 104.05 239.138 103.536 239.611 103.11C240.134 102.641 240.738 102.264 241.394 101.995C242.156 101.683 242.958 101.475 243.779 101.378V99.6936C243.782 99.5169 243.856 99.3481 243.985 99.2231C244.114 99.0982 244.289 99.027 244.472 99.0246H246.55C246.733 99.0266 246.908 99.0977 247.038 99.2227C247.167 99.3478 247.241 99.5168 247.243 99.6936V101.378C247.987 101.486 248.715 101.682 249.411 101.961C250.049 102.211 250.647 102.548 251.185 102.964C251.676 103.345 252.089 103.812 252.403 104.339C252.713 104.866 252.889 105.456 252.917 106.061C252.928 106.151 252.917 106.242 252.883 106.326C252.849 106.41 252.794 106.485 252.724 106.544C252.587 106.665 252.408 106.731 252.223 106.73H250.428C250.195 106.744 249.963 106.692 249.761 106.581C249.594 106.468 249.461 106.314 249.376 106.135C249.249 105.909 249.103 105.694 248.94 105.491C248.749 105.26 248.514 105.066 248.248 104.921C247.906 104.735 247.539 104.597 247.157 104.51C246.622 104.392 246.073 104.338 245.525 104.349C245.026 104.348 244.527 104.385 244.034 104.46C243.598 104.522 243.175 104.647 242.778 104.832C242.444 104.986 242.147 105.205 241.905 105.476C241.679 105.744 241.56 106.083 241.572 106.43C241.566 106.594 241.595 106.758 241.657 106.911C241.718 107.064 241.812 107.204 241.932 107.321C242.245 107.593 242.618 107.796 243.022 107.915C243.614 108.108 244.218 108.265 244.831 108.386C245.549 108.534 246.378 108.724 247.319 108.956C248.087 109.126 248.838 109.363 249.563 109.662C250.152 109.901 250.691 110.241 251.154 110.665C251.571 111.058 251.891 111.537 252.091 112.065C252.309 112.682 252.413 113.332 252.398 113.984C252.404 114.598 252.273 115.206 252.013 115.766C251.753 116.316 251.393 116.815 250.949 117.24C250.474 117.692 249.922 118.061 249.316 118.33C248.655 118.628 247.957 118.84 247.238 118.962V120.647C247.236 120.824 247.163 120.993 247.033 121.118C246.904 121.243 246.729 121.314 246.546 121.316H244.468C244.285 121.313 244.11 121.242 243.981 121.117C243.851 120.992 243.778 120.823 243.775 120.647L243.779 118.916Z" fill="#FFB127"/>
<path d="M38.4167 105.812C37.8528 105.72 37.3068 105.545 36.7972 105.294C36.3683 105.082 35.9748 104.809 35.6298 104.485C35.3363 104.208 35.0943 103.885 34.9145 103.53C34.7626 103.236 34.6664 102.919 34.6306 102.593C34.6221 102.527 34.6306 102.46 34.6553 102.398C34.6801 102.337 34.7204 102.282 34.7725 102.238C34.8728 102.15 35.0041 102.101 35.1402 102.101H36.4587C36.6277 102.09 36.7961 102.131 36.9385 102.22C37.0546 102.309 37.1534 102.416 37.2301 102.539C37.4452 102.866 37.7395 103.137 38.0874 103.33C38.6145 103.585 39.2021 103.701 39.7906 103.666C40.1044 103.667 40.4173 103.634 40.7231 103.566C40.9946 103.508 41.2551 103.41 41.4953 103.275C41.7016 103.16 41.8784 103.001 42.0126 102.811C42.1395 102.616 42.2052 102.389 42.2019 102.158C42.1987 101.927 42.1265 101.702 41.9942 101.509C41.8157 101.305 41.5854 101.148 41.3257 101.055C40.9413 100.904 40.5444 100.785 40.1391 100.7C39.656 100.591 39.0691 100.464 38.3784 100.318C37.7251 100.189 37.0851 100.004 36.4665 99.7635C35.9972 99.5818 35.5639 99.3232 35.1856 98.9993C34.8642 98.7178 34.6187 98.3649 34.4702 97.9712C34.3207 97.5438 34.2486 97.0947 34.2573 96.6436C34.254 96.1867 34.3508 95.7343 34.5412 95.316C34.7343 94.8968 35.0129 94.5195 35.3601 94.2064C35.7441 93.8622 36.1872 93.5853 36.6695 93.388C37.2282 93.1579 37.8175 93.0047 38.4203 92.9329V91.6958C38.4221 91.566 38.4763 91.4421 38.5714 91.3505C38.6664 91.2588 38.7948 91.2066 38.9291 91.205H40.4492C40.5835 91.2064 40.7119 91.2586 40.8069 91.3503C40.9019 91.4421 40.9559 91.566 40.9574 91.6958V92.9329C41.5039 93.0129 42.0384 93.1565 42.5492 93.3606C43.0166 93.5445 43.4542 93.7924 43.8486 94.0967C44.2092 94.3769 44.5127 94.7195 44.7435 95.107C44.9708 95.4935 45.0997 95.9267 45.1196 96.3708C45.1281 96.4366 45.1196 96.5034 45.0948 96.5653C45.0701 96.6271 45.0298 96.6821 44.9777 96.7252C44.8777 96.814 44.7466 96.863 44.6108 96.8623H43.2922C43.1214 96.8723 42.9513 96.8342 42.8025 96.7526C42.6797 96.6694 42.5817 96.5564 42.5186 96.425C42.4253 96.2593 42.3183 96.1011 42.1986 95.9521C42.0584 95.7826 41.886 95.6406 41.6904 95.534C41.4392 95.3983 41.1695 95.2972 40.8892 95.2338C40.4971 95.1475 40.0955 95.1079 39.6934 95.1159C39.3285 95.1167 38.9643 95.1453 38.6041 95.2015C38.2839 95.2472 37.9728 95.3396 37.6815 95.4757C37.4372 95.5893 37.2198 95.7503 37.0428 95.9486C36.8763 96.1459 36.7893 96.3947 36.798 96.6491C36.7934 96.7698 36.8145 96.8902 36.8599 97.0027C36.9053 97.1153 36.974 97.2177 37.0619 97.3036C37.2924 97.5041 37.5657 97.6531 37.8625 97.7402C38.2973 97.8809 38.7408 97.9953 39.1903 98.0829C39.7173 98.1926 40.3262 98.3322 41.017 98.5017C41.5811 98.6267 42.1326 98.8001 42.6648 99.0199C43.0968 99.1955 43.4923 99.4451 43.8322 99.7567C44.1384 100.045 44.3734 100.397 44.5199 100.785C44.6806 101.238 44.7572 101.715 44.7463 102.194C44.7505 102.645 44.6537 103.092 44.4624 103.504C44.2719 103.907 44.0074 104.274 43.6818 104.586C43.3342 104.918 42.9296 105.188 42.486 105.386C42.0007 105.605 41.4876 105.761 40.9602 105.85V107.087C40.9589 107.217 40.905 107.341 40.81 107.433C40.715 107.525 40.5865 107.577 40.4521 107.578H38.9263C38.7918 107.577 38.6634 107.524 38.5683 107.433C38.4732 107.341 38.4191 107.217 38.4174 107.087L38.4167 105.812Z" fill="#FFB127"/>
<path d="M112.211 151.514C111.719 151.433 111.243 151.28 110.799 151.061C110.425 150.876 110.082 150.639 109.781 150.355C109.525 150.114 109.313 149.833 109.157 149.522C109.025 149.266 108.941 148.99 108.91 148.705C108.903 148.648 108.91 148.59 108.932 148.536C108.953 148.482 108.988 148.434 109.033 148.396C109.121 148.319 109.235 148.276 109.354 148.277H110.503C110.651 148.267 110.798 148.303 110.922 148.381C111.023 148.457 111.109 148.55 111.176 148.655C111.364 148.94 111.62 149.177 111.924 149.345C112.384 149.568 112.897 149.669 113.41 149.638C113.684 149.639 113.957 149.61 114.224 149.551C114.46 149.501 114.688 149.415 114.897 149.297C115.077 149.197 115.231 149.058 115.348 148.893C115.458 148.733 115.516 148.545 115.512 148.353C115.522 148.141 115.459 147.932 115.332 147.758C115.176 147.58 114.975 147.443 114.749 147.362C114.414 147.231 114.067 147.127 113.714 147.053C113.292 146.957 112.781 146.846 112.179 146.719C111.609 146.607 111.051 146.446 110.511 146.236C110.102 146.078 109.724 145.852 109.395 145.569C109.114 145.324 108.9 145.017 108.77 144.673C108.639 144.301 108.575 143.909 108.582 143.515C108.579 143.117 108.663 142.722 108.828 142.357C108.997 141.992 109.24 141.663 109.543 141.39C109.878 141.09 110.264 140.849 110.684 140.676C111.172 140.476 111.685 140.342 112.211 140.279V139.201C112.213 139.088 112.26 138.98 112.343 138.9C112.426 138.82 112.537 138.774 112.654 138.773H113.985C114.102 138.774 114.214 138.82 114.297 138.9C114.38 138.98 114.427 139.088 114.429 139.201V140.28C114.905 140.35 115.371 140.475 115.817 140.653C116.225 140.813 116.608 141.029 116.952 141.295C117.267 141.539 117.531 141.838 117.733 142.176C117.931 142.513 118.044 142.891 118.061 143.278C118.069 143.335 118.061 143.393 118.04 143.447C118.018 143.501 117.983 143.549 117.938 143.587C117.851 143.664 117.736 143.707 117.618 143.706H116.468C116.32 143.715 116.172 143.682 116.042 143.611C115.936 143.538 115.851 143.44 115.796 143.326C115.715 143.182 115.621 143.044 115.517 142.915C115.395 142.766 115.245 142.643 115.074 142.55C114.855 142.432 114.62 142.344 114.375 142.288C114.033 142.213 113.683 142.178 113.332 142.185C113.013 142.184 112.695 142.206 112.38 142.254C112.101 142.293 111.829 142.373 111.575 142.492C111.362 142.59 111.172 142.73 111.017 142.903C110.872 143.075 110.796 143.292 110.804 143.514C110.8 143.619 110.818 143.724 110.858 143.822C110.897 143.921 110.957 144.01 111.034 144.085C111.235 144.26 111.473 144.389 111.732 144.466C112.111 144.589 112.498 144.69 112.89 144.767C113.35 144.862 113.881 144.984 114.483 145.132C114.975 145.241 115.456 145.392 115.92 145.584C116.297 145.737 116.642 145.955 116.938 146.226C117.205 146.478 117.41 146.784 117.538 147.123C117.678 147.518 117.745 147.934 117.735 148.352C117.739 148.745 117.655 149.135 117.489 149.494C117.322 149.846 117.091 150.166 116.807 150.438C116.503 150.727 116.151 150.963 115.764 151.136C115.341 151.326 114.893 151.462 114.434 151.54V152.624C114.432 152.737 114.385 152.845 114.302 152.925C114.219 153.005 114.107 153.051 113.99 153.052H112.659C112.542 153.051 112.43 153.005 112.348 152.925C112.265 152.845 112.218 152.737 112.216 152.624L112.211 151.514Z" fill="#FFB127"/>
<path d="M55.8386 117.175L50.4245 118.284L55.7399 119.381L56.8882 125.983L58.0236 119.476L63.4377 118.367L58.1216 117.27L56.9733 110.668L55.8386 117.175Z" fill="#FFB127"/>
<path d="M164.745 151.001L159.331 152.11L164.647 153.207L165.796 159.808L166.931 153.301L172.345 152.192L167.029 151.096L165.881 144.494L164.745 151.001Z" fill="#FFB127"/>
<path d="M70.8132 67.8323V128.537C70.8132 130.342 71.5805 132.072 72.9463 133.348C74.3121 134.624 76.1646 135.34 78.0961 135.34H200.438C202.37 135.34 204.222 134.623 205.587 133.347C206.953 132.072 207.72 130.341 207.72 128.537V67.8323L139.54 103.367L70.8132 67.8323Z" fill="#FFA500"/>
<path d="M173.418 39.3574H111.277L70.9875 67.5266L135.34 103.121C136.585 103.991 138.081 104.46 139.617 104.46C141.152 104.46 142.649 103.991 143.893 103.121L208.246 67.5266L173.418 39.3574Z" fill="#BAA98F"/>
<path d="M127.464 52.9584C123.42 52.959 119.451 54.0197 115.978 56.0283C112.504 58.037 109.656 60.9187 107.734 64.3685C105.812 67.8182 104.888 71.7076 105.06 75.6248C105.232 79.5421 106.493 83.3413 108.71 86.6204L127.464 96.4374C130.409 96.4374 133.325 95.875 136.045 94.7825C138.766 93.69 141.238 92.0886 143.321 90.0699C145.403 88.0511 147.055 85.6546 148.182 83.0169C149.309 80.3793 149.889 77.5524 149.889 74.6974C149.889 71.8425 149.309 69.0155 148.182 66.3779C147.055 63.7403 145.403 61.3437 143.321 59.325C141.238 57.3063 138.766 55.7049 136.045 54.6124C133.325 53.5198 130.409 52.9575 127.464 52.9575V52.9584Z" fill="#EEE6D1"/>
<path fill-rule="evenodd" clip-rule="evenodd" d="M201.913 137.317C200.632 137.901 199.23 138.216 197.794 138.223H80.8313C78.1756 138.22 75.6295 137.177 73.7515 135.323C71.8735 133.469 70.817 130.955 70.8137 128.333V67.4909C70.8232 66.7562 71.123 66.0535 71.65 65.5332C71.8422 65.3434 72.059 65.1835 72.293 65.0564C72.5259 65.1835 72.7417 65.3435 72.9331 65.5333C73.466 66.0621 73.7654 66.7794 73.7654 67.5272V128.333V130.622C73.7666 131.749 74.2184 132.829 75.0216 133.626C75.8248 134.423 76.9138 134.871 78.0496 134.872H78.2309H197.754H200.937L200.968 134.872H201.137C202.279 134.871 203.373 134.423 204.18 133.626C204.987 132.829 205.441 131.748 205.442 130.621V128.375L205.442 128.333V67.4902C205.452 66.7557 205.752 66.0533 206.279 65.5332C206.375 65.4384 206.477 65.351 206.584 65.2715C206.691 65.3511 206.793 65.4385 206.888 65.5333C207.352 65.9936 207.639 66.5965 207.706 67.2381C207.715 67.3337 207.72 67.4301 207.72 67.5271V128.391C207.72 128.463 207.719 128.535 207.716 128.607C207.675 130.029 207.326 131.414 206.706 132.672L201.913 137.317Z" fill="#45140D"/>
<path fill-rule="evenodd" clip-rule="evenodd" d="M133.767 103.209C135.48 104.37 137.521 104.994 139.612 104.995C141.706 104.996 143.749 104.373 145.464 103.212L207.332 67.6829C207.755 67.4489 208.111 67.116 208.367 66.7144C208.623 66.3129 208.77 65.8557 208.796 65.3847C208.816 65.0228 208.764 64.6617 208.643 64.3208L175.132 40.8932C174.822 40.6763 174.471 40.5207 174.098 40.4352C173.726 40.3498 173.34 40.3361 172.962 40.3951C172.585 40.454 172.223 40.5844 171.897 40.7788C171.571 40.9732 171.288 41.2278 171.064 41.5281C170.946 41.687 170.845 41.857 170.763 42.0354C170.816 42.151 170.877 42.2633 170.946 42.3715C171.147 42.6868 171.41 42.9606 171.72 43.1775L200.517 64.9609L200.016 65.249L202.877 67.2492L142.451 100.672C142.362 100.722 142.275 100.776 142.191 100.835C141.443 101.359 140.542 101.642 139.618 101.642C138.694 101.642 137.794 101.359 137.045 100.835C136.961 100.777 136.874 100.722 136.785 100.672L76.357 67.2492L79.2174 65.2487L78.7174 64.9609L112.978 39.3483C113.399 39.0538 113.727 38.6585 113.934 38.2066C113.853 38.0292 113.752 37.8591 113.633 37.6994C113.181 37.0931 112.498 36.6857 111.735 36.5667C110.973 36.4477 110.192 36.6269 109.566 37.0649L70.5871 64.3179C70.4664 64.6588 70.4141 65.02 70.4341 65.3818C70.4601 65.8529 70.6077 66.3101 70.8635 66.7116C71.1194 67.1131 71.4751 67.4461 71.8983 67.6801L133.767 103.209Z" fill="#45140D"/>
<path fill-rule="evenodd" clip-rule="evenodd" d="M109.609 87.8829C109.185 88.0182 108.728 88.0464 108.282 87.9592C107.612 87.8278 107.022 87.4453 106.641 86.8948C103.69 82.5414 102.324 77.3596 102.759 72.17C103.194 66.9803 105.405 62.0795 109.042 58.2436C112.679 54.4077 117.535 51.856 122.839 50.9926C128.143 50.1292 133.593 51.0035 138.326 53.4769C143.059 55.9504 146.805 59.8817 148.969 64.6482C151.134 69.4147 151.594 74.744 150.276 79.7921C148.959 84.8402 145.939 89.3186 141.695 92.5179C137.452 95.7173 132.227 97.4548 126.848 97.4553V97.452C126.16 97.452 125.5 97.1872 125.013 96.716C124.86 96.5676 124.728 96.4025 124.618 96.2251C124.746 95.7369 125.008 95.2864 125.382 94.9242C125.929 94.3954 126.669 94.0983 127.442 94.0983C132.179 94.0961 136.78 92.5644 140.516 89.7456C144.253 86.9268 146.911 82.982 148.07 78.5359C149.229 74.0898 148.823 69.3964 146.916 65.1989C145.009 61.0013 141.71 57.5394 137.542 55.3614C133.373 53.1834 128.573 52.4137 123.902 53.1742C119.23 53.9346 114.955 56.1818 111.751 59.5599C108.548 62.938 106.6 67.254 106.216 71.8244C105.833 76.3949 107.035 80.9587 109.633 84.7932C110.049 85.4181 110.193 86.1769 110.034 86.9044C109.957 87.257 109.812 87.5884 109.609 87.8829Z" fill="#45140D"/>
<path d="M128.287 85.6594C124.024 85.6594 120.559 82.6984 120.559 79.0588C120.559 78.4928 120.792 77.9499 121.205 77.5497C121.619 77.1494 122.179 76.9246 122.764 76.9246C123.349 76.9246 123.91 77.1494 124.323 77.5497C124.737 77.9499 124.969 78.4928 124.969 79.0588C124.969 80.323 126.488 81.3909 128.287 81.3909C130.086 81.3909 131.605 80.3237 131.605 79.0588C131.605 78.1183 130.413 77.5648 127.562 76.6094C124.607 75.6134 120.558 74.2567 120.558 70.1269C120.558 66.4873 124.024 63.5271 128.286 63.5271C132.547 63.5271 136.013 66.4873 136.013 70.1269C136.013 70.693 135.78 71.2358 135.367 71.6361C134.953 72.0364 134.393 72.2612 133.808 72.2612C133.223 72.2612 132.662 72.0364 132.249 71.6361C131.835 71.2358 131.603 70.693 131.603 70.1269C131.603 68.8635 130.084 67.7956 128.286 67.7956C126.487 67.7956 124.967 68.8628 124.967 70.1269C124.967 71.0674 126.159 71.6209 129.009 72.5764C131.965 73.5724 136.014 74.9297 136.014 79.0588C136.014 82.6984 132.547 85.6594 128.287 85.6594Z" fill="#45140D"/>
<path d="M128.287 88.8427C127.703 88.8427 127.142 88.6179 126.728 88.2176C126.315 87.8174 126.083 87.2745 126.083 86.7085V83.5249C126.083 82.9588 126.315 82.416 126.728 82.0157C127.142 81.6155 127.703 81.3906 128.287 81.3906C128.872 81.3906 129.433 81.6155 129.846 82.0157C130.26 82.416 130.492 82.9588 130.492 83.5249V86.7085C130.492 87.2745 130.26 87.8174 129.846 88.2176C129.433 88.6179 128.872 88.8427 128.287 88.8427Z" fill="#45140D"/>
<path d="M128.287 67.7927C127.703 67.7927 127.142 67.5678 126.728 67.1676C126.315 66.7673 126.083 66.2245 126.083 65.6584V62.4748C126.083 61.9088 126.315 61.3659 126.728 60.9657C127.142 60.5654 127.703 60.3406 128.287 60.3406C128.872 60.3406 129.433 60.5654 129.846 60.9657C130.26 61.3659 130.492 61.9088 130.492 62.4748V65.6584C130.492 66.2245 130.26 66.7673 129.846 67.1676C129.433 67.5678 128.872 67.7927 128.287 67.7927Z" fill="#45140D"/>
<path d="M164.935 64.1836C175.307 60.086 180.284 48.6247 176.051 38.5842C171.817 28.5437 159.978 23.726 149.605 27.8237C139.233 31.9213 134.256 43.3826 138.489 53.4231C142.722 63.4637 154.562 68.2813 164.935 64.1836Z" fill="#BAA98F"/>
<path fill-rule="evenodd" clip-rule="evenodd" d="M147.349 31.6303C150.286 29.731 153.738 28.7173 157.27 28.7173C162.005 28.7225 166.544 30.5458 169.892 33.787C173.239 37.0282 175.122 41.4226 175.127 46.006C175.126 49.4247 174.078 52.7665 172.116 55.6088C170.153 58.4511 167.364 60.6662 164.101 61.9741C160.838 63.282 157.248 63.6239 153.784 62.9566C150.32 62.2893 147.139 60.6428 144.642 58.2252C142.145 55.8076 140.444 52.7276 139.756 49.3745C139.067 46.0214 139.421 42.546 140.772 39.3875C142.124 36.2291 144.413 33.5296 147.349 31.6303ZM146.055 62.2502C149.374 64.3974 153.277 65.5435 157.27 65.5435C162.621 65.5373 167.751 63.477 171.535 59.8144C175.319 56.1518 177.448 51.1859 177.455 46.0059C177.456 42.1412 176.272 38.3631 174.055 35.1494C171.837 31.9357 168.684 29.4308 164.996 27.9515C161.308 26.4722 157.249 26.0849 153.333 26.8385C149.417 27.5922 145.82 29.453 142.997 32.1857C140.174 34.9183 138.251 38.4 137.472 42.1904C136.693 45.9809 137.093 49.9099 138.62 53.4805C140.148 57.0511 142.735 60.103 146.055 62.2502Z" fill="#45140D"/>
<path d="M157.269 57.7259C152.735 57.7259 149.046 54.5697 149.046 50.6897C149.046 50.0665 149.302 49.4689 149.757 49.0282C150.213 48.5875 150.83 48.34 151.474 48.34C152.118 48.34 152.735 48.5875 153.19 49.0282C153.645 49.4689 153.901 50.0665 153.901 50.6897C153.901 51.9567 155.444 53.0264 157.269 53.0264C159.095 53.0264 160.637 51.9567 160.637 50.6897C160.637 49.7761 159.352 49.1859 156.473 48.2234C153.339 47.1707 149.046 45.7289 149.046 41.3169C149.046 37.437 152.736 34.2808 157.269 34.2808C161.803 34.2808 165.492 37.437 165.492 41.3169C165.492 41.9401 165.236 42.5378 164.781 42.9785C164.325 43.4192 163.708 43.6667 163.064 43.6667C162.42 43.6667 161.803 43.4192 161.348 42.9785C160.893 42.5378 160.637 41.9401 160.637 41.3169C160.637 40.0509 159.095 38.9803 157.269 38.9803C155.444 38.9803 153.901 40.0509 153.901 41.3169C153.901 42.2305 155.187 42.8208 158.065 43.7833C161.199 44.836 165.492 46.2778 165.492 50.6897C165.492 54.5697 161.802 57.7259 157.269 57.7259Z" fill="#45140D"/>
<path d="M157.269 61.0666C156.625 61.0666 156.008 60.8191 155.553 60.3784C155.098 59.9377 154.842 59.34 154.842 58.7168V55.3764C154.842 54.7532 155.098 54.1555 155.553 53.7149C156.008 53.2742 156.625 53.0266 157.269 53.0266C157.913 53.0266 158.53 53.2742 158.986 53.7149C159.441 54.1555 159.697 54.7532 159.697 55.3764V58.7168C159.697 59.34 159.441 59.9377 158.986 60.3784C158.53 60.8191 157.913 61.0666 157.269 61.0666Z" fill="#45140D"/>
<path d="M157.269 38.9804C156.625 38.9804 156.008 38.7329 155.553 38.2922C155.098 37.8515 154.842 37.2539 154.842 36.6307V33.2902C154.842 32.667 155.098 32.0693 155.553 31.6287C156.008 31.188 156.625 30.9404 157.269 30.9404C157.913 30.9404 158.53 31.188 158.986 31.6287C159.441 32.0693 159.697 32.667 159.697 33.2902V36.6307C159.697 37.2539 159.441 37.8515 158.986 38.2922C158.53 38.7329 157.913 38.9804 157.269 38.9804Z" fill="#45140D"/>
<path d="M63.8404 44.6905L60.4995 47.9246L62.5592 49.9184L65.9001 46.6844L63.8404 44.6905Z" fill="#45140D"/>
<path d="M55.8684 52.4076L52.5269 55.6423L54.5866 57.6362L57.9281 54.4015L55.8684 52.4076Z" fill="#45140D"/>
<path d="M62.5589 52.4081L60.4995 54.4016L63.8399 57.6352L65.8993 55.6416L62.5589 52.4081Z" fill="#45140D"/>
<path d="M54.5863 44.6915L52.5269 46.6851L55.8679 49.9193L57.9273 47.9257L54.5863 44.6915Z" fill="#45140D"/>
</svg>
