<svg width="15" height="9" viewBox="0 0 15 9" fill="none" xmlns="http://www.w3.org/2000/svg">
<path d="M14.5179 1.08C14.2179 0.420002 13.6179 0 12.8979 0H1.73787C1.01787 0 0.357865 0.420002 0.117865 1.08C-0.122135 1.74 -0.00213411 2.52 0.537866 3L6.17787 8.52C6.53787 8.82 6.95787 9 7.37787 9C7.79787 9 8.27787 8.82 8.63787 8.52L14.1579 3C14.6979 2.52 14.8179 1.74 14.5179 1.08ZM13.3179 2.16L7.79787 7.68C7.55787 7.92 7.25787 7.92 7.01787 7.68L1.37786 2.16C1.13786 1.92 1.19787 1.62 1.25787 1.56C1.31787 1.5 1.43787 1.2 1.79787 1.2H12.9579C13.3179 1.2 13.4379 1.44 13.4979 1.56C13.4979 1.62 13.5579 1.92 13.3179 2.16Z" fill="#B4B8D7"/>
</svg>
