<svg width="10" height="16" viewBox="0 0 10 16" fill="none" xmlns="http://www.w3.org/2000/svg">
<path d="M1.0831 8.42247L1.08317 8.42254L7.92614 14.9276L1.0831 8.42247ZM1.0831 8.42247C0.838965 8.18996 0.838965 7.81016 1.0831 7.57765L1.08317 7.57759M1.0831 8.42247L1.08317 7.57759M1.08317 7.57759L7.92614 1.07253L1.08317 7.57759ZM8.36261 0.900119C8.19873 0.900119 8.047 0.957464 7.92621 1.07247L8.36261 0.900119ZM8.36261 0.900119C8.52651 0.900119 8.67827 0.957485 8.79907 1.07253C9.0432 1.30504 9.0432 1.68484 8.79907 1.91735L2.41223 8.00006M8.36261 0.900119L2.41223 8.00006M2.41223 8.00006L8.79907 14.0828C9.04321 14.3153 9.04321 14.6951 8.79907 14.9276C8.55771 15.1574 8.16759 15.1575 7.92621 14.9277L2.41223 8.00006Z" fill="#B4B8D7" stroke="#B4B8D7" stroke-width="0.2"/>
</svg>
