<svg width="10" height="16" viewBox="0 0 10 16" fill="none" xmlns="http://www.w3.org/2000/svg">
<path d="M2.07386 1.07253C1.95306 0.957485 1.8013 0.900117 1.63739 0.900117C1.47349 0.900117 1.32173 0.957485 1.20093 1.07253C0.956796 1.30504 0.956796 1.68484 1.20093 1.91735L7.58777 8.00006L1.20093 14.0828C0.956795 14.3153 0.956795 14.6951 1.20093 14.9276C1.44229 15.1574 1.83241 15.1575 2.07379 14.9277L2.07386 14.9276L8.91683 8.42253L8.9169 8.42247C9.16103 8.18996 9.16103 7.81016 8.9169 7.57765L8.91683 7.57758L2.07386 1.07253ZM2.07386 1.07253L2.00489 1.14494L2.07379 1.07247L2.07386 1.07253Z" fill="#B4B8D7" stroke="#B4B8D7" stroke-width="0.2"/>
</svg>
