<svg width="108" height="108" viewBox="0 0 108 108" fill="none" xmlns="http://www.w3.org/2000/svg">
<g filter="url(#filter0_d)">
<circle cx="54" cy="47" r="31" fill="#D4D5DB"/>
<circle cx="54" cy="47" r="32.5" stroke="#E8E9EF" stroke-width="3"/>
</g>
<mask id="mask0" mask-type="alpha" maskUnits="userSpaceOnUse" x="23" y="16" width="62" height="62">
<circle cx="54" cy="47" r="31" fill="#FFFBFB"/>
</mask>
<g mask="url(#mask0)">
<path d="M65.4805 29.7162L65.1845 29.5858C63.9606 26.2509 60.537 24.0015 56.6817 23.9996H39.6658L41.7073 29.5858C39.3341 30.6677 38.1255 33.1247 38.8185 35.4607L40.6865 40.7584H42.728V36.1032C42.728 36.1032 48.8526 36.1032 51.9148 35.1721L61.1016 32.379L65.1846 38.8963V40.7584H67.2261L68.4306 35.2559C68.9246 33.0139 67.718 30.7478 65.4805 29.7162Z" fill="#A15D30"/>
<path d="M41.7076 29.586C39.3395 30.6707 38.1391 33.1295 38.8393 35.4609L40.6869 40.7585H42.7284V36.1033C42.7284 36.1033 45.1271 36.1033 47.6687 35.8798C45.0577 34.3501 42.9877 32.164 41.7076 29.586Z" fill="#8F4F24"/>
<path d="M70.074 62.4608L62.9798 61.5949L62.4899 62.6284C60.4636 66.927 55.0007 68.9139 50.2879 67.0657C48.1035 66.2092 46.3631 64.6209 45.423 62.6284L44.9331 61.5949L37.8389 62.4608C34.798 62.8295 32.5249 65.1935 32.5208 67.9912V77.9999H75.3923V67.9912C75.3881 65.1935 73.1148 62.8295 70.074 62.4608Z" fill="#FECB66"/>
<path d="M53.9564 67.7586C57.6699 67.7604 61.0271 65.742 62.4899 62.6285L62.9798 61.595L61.857 61.4553C60.8342 61.3333 60.0717 60.5345 60.0808 59.5932V55.6548H47.8319V59.649C47.8411 60.5902 47.0786 61.3891 46.0558 61.5111L44.9329 61.6508L45.4228 62.6843C46.9041 65.7764 50.2572 67.7698 53.9564 67.7586Z" fill="#FEDAC6"/>
<path d="M60.2031 60.2265C60.1215 60.0301 60.0796 59.8215 60.0806 59.6121V55.6552H47.8316V59.6493C47.8327 59.8589 47.7908 60.0673 47.7092 60.2638C51.6431 62.0672 56.2824 62.0532 60.2031 60.2265Z" fill="#F5C4B0"/>
<path d="M36.6038 62.7402C34.1632 63.5269 32.5279 65.6292 32.5208 67.9913V78H36.6038V62.7402Z" fill="#F5AD76"/>
<path d="M65.1846 39.8271H64.1638V45.4134H65.1846C66.8759 45.4134 68.2468 44.163 68.2468 42.6203C68.2468 41.0776 66.8759 39.8271 65.1846 39.8271Z" fill="#FEDAC6"/>
<path d="M39.666 42.6203C39.666 44.163 41.0369 45.4134 42.7283 45.4134H43.749V39.8271H42.7283C41.0369 39.8271 39.666 41.0776 39.666 42.6203Z" fill="#F5C4B0"/>
<path d="M65.1844 48.9425C65.1977 50.3111 64.6608 51.6359 63.6738 52.6666L59.2641 57.2194C58.4904 58.0229 57.3747 58.4847 56.2019 58.4856H51.731C50.5582 58.4847 49.4425 58.0229 48.6688 57.2194L44.2591 52.6201C43.272 51.5894 42.7352 50.2646 42.7485 48.8959V36.1034C42.7485 36.1034 48.873 36.1034 51.9352 35.1723L61.122 32.3792L65.205 38.8965L65.1844 48.9425Z" fill="#FEDAC6"/>
<path d="M46.8114 35.9445C44.6167 36.1028 42.7284 36.1028 42.7284 36.1028V48.9418C42.7151 50.3105 43.2521 51.6353 44.2391 52.666L46.8113 55.2916V35.9445H46.8114Z" fill="#F5C4B0"/>
<path d="M42.7285 38.8962H51.9152V41.6893C51.9152 43.232 50.5443 44.4825 48.853 44.4825H45.7907C44.0994 44.4825 42.7285 43.232 42.7285 41.6893V38.8962Z" fill="#EBEBEB"/>
<path d="M55.9979 38.8962H65.1846V41.6893C65.1846 43.232 63.8137 44.4825 62.1224 44.4825H59.0601C57.3688 44.4825 55.9979 43.232 55.9979 41.6893V38.8962Z" fill="#EBEBEB"/>
<path d="M33.5417 78.0002H31.5002V68.0287C31.4971 64.745 34.1898 61.9612 37.7635 61.5561L45.9193 60.5516C46.4338 60.4911 46.8155 60.0907 46.8115 59.6206V56.5862H48.853V59.6121C48.8662 61.0142 47.7209 62.2153 46.1878 62.3969L38.0259 63.4024C35.4618 63.6938 33.5387 65.6806 33.5407 68.0278V78.0002H33.5417Z" fill="black"/>
<path d="M76.4129 78.0002H74.3714V68.0287C74.3734 65.6816 72.4504 63.6938 69.8975 63.4033L61.7203 62.3969C60.1922 62.2153 59.0469 61.0142 59.0602 59.6037V56.5862H61.1017V59.6121C61.0966 60.0906 61.4783 60.49 61.9897 60.5515L70.1598 61.557C73.7232 61.962 76.4159 64.7449 76.4128 68.0296V78.0002H76.4129Z" fill="black"/>
<path d="M65.1846 46.3445H64.1638V44.4825H65.1846C66.3105 44.4825 67.2261 43.6473 67.2261 42.6204C67.2261 41.5934 66.3105 40.7583 65.1846 40.7583H64.1638V38.8962H65.1846C67.4364 38.8962 69.2676 40.5664 69.2676 42.6204C69.2676 44.6743 67.4363 46.3445 65.1846 46.3445Z" fill="black"/>
<path d="M43.7492 46.3445H42.7285C40.4766 46.3445 38.6454 44.6743 38.6454 42.6204C38.6454 40.5664 40.4766 38.8962 42.7285 38.8962H43.7492V40.7583H42.7285C41.6025 40.7583 40.687 41.5934 40.687 42.6204C40.687 43.6473 41.6025 44.4825 42.7285 44.4825H43.7492V46.3445Z" fill="black"/>
<path d="M53.9614 68.6899C53.9573 68.6899 53.9533 68.6899 53.9503 68.6899C49.8244 68.6899 46.1099 66.4554 44.4848 62.9957L43.8315 61.6094L45.7077 60.8748L46.361 62.2621C47.6645 65.0357 50.643 66.8279 53.9512 66.8279C53.9543 66.8279 53.9573 66.8279 53.9604 66.8279C57.2686 66.8279 60.2482 65.0357 61.5527 62.2621L62.206 60.8748L64.0822 61.6094L63.4289 62.9967C61.8029 66.4554 58.0863 68.6899 53.9614 68.6899Z" fill="black"/>
<path d="M54.9772 47.2754H50.8942C50.5798 47.2754 50.2828 47.1432 50.0888 46.917C49.8959 46.6907 49.8274 46.3956 49.904 46.1181L51.9455 38.707L53.9248 39.1604L52.2028 45.4132H54.9772V47.2754Z" fill="black"/>
<path d="M52.693 51H50.8944V49.1379H52.6909C54.0261 49.1351 55.3673 48.8465 56.5657 48.3037L57.4732 49.9721C55.9951 50.6406 54.3425 50.9962 52.693 51Z" fill="black"/>
<path d="M56.2044 59.4168H51.7314C50.2636 59.4149 48.8692 58.8376 47.9026 57.8339L43.492 53.2336C42.3396 52.0289 41.7139 50.4861 41.7292 48.8885V36.1035C41.7292 35.5896 42.1865 35.1725 42.7499 35.1725C42.8091 35.1725 48.7457 35.1613 51.614 34.2889L60.8008 31.4958C61.2632 31.3571 61.7685 31.5321 62.0103 31.9175L66.0934 38.4349C66.1822 38.5754 66.2282 38.7356 66.2282 38.8986L66.2057 48.9389C66.221 50.5347 65.5943 52.0756 64.4418 53.2785L60.0291 57.836C59.0645 58.8376 57.6691 59.4148 56.2044 59.4168ZM43.7696 37.0205V48.8959C43.7584 50.0457 44.2054 51.1481 45.0282 52.0083L49.4368 56.6058C50.0155 57.2073 50.8525 57.5536 51.7325 57.5546H56.2024C57.0791 57.5536 57.9172 57.2073 58.4981 56.604L62.9086 52.0493C63.7283 51.1927 64.1754 50.0904 64.1631 48.9498C64.1631 48.9461 64.1631 48.9433 64.1631 48.9397L64.1836 39.1423L60.6498 33.503L52.2581 36.055C49.8186 36.7971 45.6845 36.9767 43.7696 37.0205Z" fill="black"/>
<path d="M39.7138 41.0421L37.8561 35.7444C37.0956 33.2222 38.1919 30.5911 40.4773 29.1666L38.6961 24.2944C38.592 24.0104 38.6451 23.6986 38.8371 23.4555C39.03 23.2116 39.3383 23.0682 39.666 23.0682H56.692C60.8485 23.072 64.5405 25.4108 66.0104 28.9264C68.6031 30.1423 70.0148 32.8106 69.432 35.4399L68.2275 40.9405L66.2259 40.5755L67.4303 35.073C67.8366 33.2398 66.8403 31.3814 65.0061 30.55L64.7152 30.4122C64.4804 30.3005 64.3017 30.1105 64.2181 29.8806C63.1341 26.9227 60.1096 24.933 56.6912 24.9302H41.0817L42.6761 29.2915C42.8374 29.7319 42.6179 30.2123 42.1627 30.419C40.2294 31.2979 39.2413 33.3136 39.8139 35.2139L41.6595 40.4743L39.7138 41.0421Z" fill="black"/>
<path d="M48.8524 45.4136H45.7901C43.5383 45.4136 41.7071 43.7434 41.7071 41.6895V38.8963C41.7071 38.3824 42.1644 37.9653 42.7278 37.9653H51.9146C52.478 37.9653 52.9354 38.3824 52.9354 38.8963V41.6895C52.9354 43.7434 51.1042 45.4136 48.8524 45.4136ZM43.7486 39.8274V41.6895C43.7486 42.7164 44.6642 43.5515 45.7901 43.5515H48.8524C49.9783 43.5515 50.8939 42.7164 50.8939 41.6895V39.8274H43.7486Z" fill="black"/>
<path d="M62.1227 45.4136H59.0604C56.8086 45.4136 54.9774 43.7434 54.9774 41.6895V38.8963C54.9774 38.3824 55.4347 37.9653 55.9982 37.9653H65.1849C65.7494 37.9653 66.2057 38.3824 66.2057 38.8963V41.6895C66.2057 43.7434 64.3744 45.4136 62.1227 45.4136ZM57.0189 39.8274V41.6895C57.0189 42.7164 57.9345 43.5515 59.0604 43.5515H62.1227C63.2486 43.5515 64.1642 42.7164 64.1642 41.6895V39.8274H57.0189Z" fill="black"/>
<path d="M55.9979 37.9653H51.9149V39.8274H55.9979V37.9653Z" fill="black"/>
</g>
<defs>
<filter id="filter0_d" x="0" y="0" width="108" height="108" filterUnits="userSpaceOnUse" color-interpolation-filters="sRGB">
<feFlood flood-opacity="0" result="BackgroundImageFix"/>
<feColorMatrix in="SourceAlpha" type="matrix" values="0 0 0 0 0 0 0 0 0 0 0 0 0 0 0 0 0 0 127 0"/>
<feOffset dy="7"/>
<feGaussianBlur stdDeviation="10"/>
<feColorMatrix type="matrix" values="0 0 0 0 0.0666667 0 0 0 0 0.101961 0 0 0 0 0.207843 0 0 0 1 0"/>
<feBlend mode="normal" in2="BackgroundImageFix" result="effect1_dropShadow"/>
<feBlend mode="normal" in="SourceGraphic" in2="effect1_dropShadow" result="shape"/>
</filter>
</defs>
</svg>
