<svg width="469" height="470" viewBox="0 0 469 470" fill="none" xmlns="http://www.w3.org/2000/svg">
<path d="M376.701 323.517C315.629 414.163 226.187 433.764 135.542 372.692C44.8957 311.62 33.8863 231.077 94.9581 140.431C156.03 49.7849 204.202 -8.23361 392.648 139.892C449.238 184.374 437.773 232.871 376.701 323.517Z" fill="#1B2953"/>
<path d="M318.602 185.911H182.956C179.359 185.911 175.908 187.341 173.365 189.886C170.821 192.432 169.392 195.885 169.392 199.485C169.392 203.085 170.821 206.537 173.365 209.083C175.908 211.628 179.359 213.058 182.956 213.058H332.167V199.485C332.167 197.702 331.817 195.937 331.135 194.29C330.453 192.643 329.454 191.147 328.194 189.886C326.935 188.626 325.439 187.626 323.793 186.944C322.147 186.262 320.383 185.911 318.602 185.911Z" fill="#101D48"/>
<path d="M345.732 226.634C345.732 224.851 345.382 223.086 344.7 221.439C344.018 219.792 343.019 218.296 341.759 217.035C340.5 215.775 339.004 214.775 337.359 214.093C335.713 213.411 333.949 213.06 332.168 213.06H182.957C179.36 213.06 175.909 211.63 173.366 209.084C170.822 206.538 169.393 203.086 169.393 199.486V342.011C169.393 343.794 169.743 345.559 170.425 347.206C171.107 348.852 172.106 350.349 173.365 351.609C174.625 352.87 176.12 353.87 177.766 354.552C179.412 355.234 181.176 355.585 182.957 355.585H332.168C335.765 355.585 339.216 354.155 341.759 351.609C344.303 349.064 345.732 345.611 345.732 342.011V226.634Z" fill="#23346B"/>
<path d="M340.987 262.605H307.076C303.33 262.605 300.293 265.644 300.293 269.392V289.753C300.293 293.501 303.33 296.54 307.076 296.54H340.987C344.733 296.54 347.769 293.501 347.769 289.753V269.392C347.769 265.644 344.733 262.605 340.987 262.605Z" fill="#B4B8D7"/>
<path d="M340.987 298.519H307.074C304.751 298.516 302.525 297.592 300.883 295.948C299.241 294.305 298.317 292.077 298.314 289.753V269.392C298.317 267.068 299.24 264.84 300.883 263.197C302.525 261.554 304.751 260.629 307.074 260.627H340.987C343.309 260.63 345.536 261.554 347.178 263.197C348.82 264.84 349.744 267.068 349.746 269.392V289.753C349.744 292.077 348.82 294.305 347.178 295.948C345.536 297.592 343.309 298.516 340.987 298.519ZM307.074 264.582C305.8 264.584 304.578 265.091 303.678 265.992C302.777 266.894 302.27 268.116 302.269 269.391V289.752C302.27 291.026 302.777 292.249 303.678 293.15C304.578 294.051 305.8 294.559 307.074 294.56H340.987C342.261 294.559 343.482 294.051 344.383 293.15C345.284 292.249 345.79 291.026 345.792 289.752V269.391C345.79 268.116 345.284 266.894 344.383 265.992C343.482 265.091 342.261 264.584 340.987 264.582H307.074Z" fill="#1A1718"/>
<path d="M317.248 286.606C315.858 286.606 314.5 286.193 313.344 285.42C312.188 284.647 311.288 283.549 310.756 282.264C310.224 280.979 310.085 279.565 310.356 278.201C310.627 276.836 311.296 275.583 312.279 274.6C313.262 273.616 314.514 272.946 315.878 272.675C317.241 272.404 318.654 272.543 319.938 273.075C321.222 273.607 322.32 274.509 323.092 275.665C323.865 276.822 324.277 278.182 324.277 279.573C324.275 281.437 323.534 283.225 322.216 284.543C320.898 285.862 319.112 286.604 317.248 286.606ZM317.248 276.497C316.641 276.497 316.046 276.677 315.541 277.015C315.036 277.353 314.642 277.834 314.409 278.396C314.176 278.958 314.116 279.576 314.234 280.173C314.353 280.769 314.646 281.317 315.075 281.748C315.505 282.178 316.053 282.471 316.649 282.589C317.246 282.708 317.864 282.647 318.425 282.414C318.987 282.181 319.467 281.787 319.805 281.281C320.142 280.775 320.322 280.181 320.322 279.573C320.322 278.757 319.997 277.975 319.421 277.398C318.845 276.822 318.063 276.498 317.248 276.497Z" fill="#1A1718"/>
<path d="M327.422 251.009C327.357 251.009 327.292 251.006 327.228 251C327.164 250.994 327.099 250.984 327.036 250.971C326.909 250.946 326.786 250.908 326.666 250.859C326.547 250.809 326.433 250.748 326.324 250.677C326.271 250.641 326.218 250.601 326.168 250.561C326.117 250.522 326.07 250.476 326.024 250.43C325.978 250.384 325.935 250.336 325.894 250.286C325.853 250.236 325.814 250.184 325.779 250.129C325.707 250.022 325.646 249.907 325.597 249.787C325.548 249.668 325.51 249.545 325.485 249.419C325.472 249.355 325.461 249.292 325.453 249.226C325.445 249.159 325.443 249.096 325.443 249.031C325.443 248.966 325.447 248.901 325.453 248.836C325.46 248.772 325.47 248.709 325.485 248.646C325.535 248.392 325.635 248.15 325.779 247.934C325.814 247.88 325.853 247.828 325.894 247.779C325.935 247.728 325.978 247.679 326.024 247.633C326.07 247.589 326.119 247.545 326.168 247.503C326.217 247.462 326.271 247.424 326.324 247.388C326.432 247.316 326.547 247.255 326.666 247.206C326.786 247.156 326.909 247.119 327.036 247.093C327.099 247.081 327.164 247.071 327.228 247.065C327.357 247.051 327.487 247.051 327.617 247.065C327.68 247.071 327.745 247.081 327.807 247.093C327.933 247.119 328.057 247.156 328.177 247.206C328.296 247.255 328.411 247.316 328.518 247.388C328.572 247.424 328.624 247.462 328.675 247.503C328.726 247.545 328.773 247.589 328.819 247.633C328.865 247.679 328.909 247.728 328.95 247.779C328.991 247.828 329.029 247.88 329.064 247.934C329.136 248.042 329.196 248.156 329.246 248.276C329.296 248.395 329.334 248.519 329.36 248.646C329.373 248.71 329.382 248.774 329.388 248.836C329.395 248.898 329.398 248.966 329.398 249.031C329.398 249.096 329.395 249.161 329.388 249.226C329.382 249.29 329.373 249.355 329.36 249.419C329.334 249.545 329.296 249.669 329.246 249.787C329.197 249.907 329.136 250.022 329.064 250.129C329.028 250.184 328.99 250.236 328.949 250.286C328.908 250.337 328.865 250.385 328.819 250.43C328.773 250.476 328.724 250.52 328.675 250.561C328.626 250.603 328.572 250.641 328.518 250.677C328.41 250.748 328.296 250.809 328.177 250.859C328.057 250.908 327.933 250.946 327.807 250.971C327.743 250.984 327.678 250.994 327.617 251C327.555 251.006 327.487 251.009 327.422 251.009Z" fill="#1A1718"/>
<path d="M325.445 239.982C325.445 239.457 325.653 238.954 326.024 238.583C326.395 238.212 326.898 238.003 327.422 238.003C327.946 238.003 328.449 238.212 328.82 238.583C329.191 238.954 329.399 239.457 329.399 239.982C329.399 240.241 329.348 240.499 329.249 240.739C329.149 240.979 329.004 241.197 328.82 241.381C328.637 241.565 328.419 241.71 328.179 241.81C327.939 241.909 327.682 241.96 327.422 241.96C327.162 241.96 326.905 241.909 326.665 241.81C326.425 241.71 326.207 241.565 326.024 241.381C325.84 241.197 325.695 240.979 325.595 240.739C325.496 240.499 325.445 240.241 325.445 239.982ZM325.445 230.932C325.445 230.408 325.653 229.905 326.024 229.534C326.395 229.163 326.898 228.954 327.422 228.954C327.946 228.954 328.449 229.163 328.82 229.534C329.191 229.905 329.399 230.408 329.399 230.932C329.399 231.457 329.191 231.96 328.82 232.331C328.449 232.702 327.946 232.911 327.422 232.911C326.898 232.911 326.395 232.702 326.024 232.331C325.653 231.96 325.445 231.457 325.445 230.932Z" fill="#1A1718"/>
<path d="M327.422 223.862C327.357 223.862 327.292 223.859 327.228 223.852C327.164 223.846 327.099 223.837 327.036 223.824C326.909 223.799 326.785 223.761 326.666 223.71C326.546 223.661 326.432 223.6 326.324 223.528C326.271 223.493 326.218 223.454 326.168 223.414C326.117 223.374 326.07 223.329 326.024 223.283C325.978 223.237 325.935 223.188 325.894 223.139C325.853 223.088 325.814 223.035 325.779 222.98C325.707 222.873 325.646 222.758 325.597 222.638C325.547 222.519 325.51 222.395 325.485 222.268C325.471 222.205 325.46 222.142 325.453 222.078C325.447 222.013 325.443 221.948 325.443 221.883C325.443 221.818 325.447 221.754 325.453 221.689C325.46 221.625 325.47 221.561 325.485 221.499C325.51 221.372 325.547 221.248 325.597 221.128C325.646 221.009 325.707 220.894 325.779 220.787C325.814 220.733 325.853 220.681 325.894 220.631C325.935 220.581 325.978 220.532 326.024 220.486C326.07 220.44 326.119 220.397 326.168 220.356C326.218 220.315 326.27 220.276 326.324 220.24C326.432 220.169 326.547 220.108 326.666 220.058C326.786 220.009 326.91 219.971 327.036 219.944C327.099 219.932 327.164 219.922 327.228 219.916C327.357 219.903 327.487 219.903 327.617 219.916C327.68 219.922 327.745 219.932 327.807 219.944C327.933 219.971 328.057 220.009 328.177 220.058C328.296 220.108 328.411 220.169 328.518 220.24C328.573 220.276 328.625 220.315 328.675 220.356C328.724 220.397 328.773 220.44 328.819 220.486C328.865 220.532 328.909 220.581 328.95 220.631C328.991 220.681 329.029 220.733 329.064 220.787C329.135 220.894 329.196 221.009 329.246 221.128C329.296 221.248 329.335 221.372 329.36 221.499C329.373 221.562 329.382 221.627 329.388 221.689C329.395 221.75 329.398 221.819 329.398 221.883C329.398 221.948 329.395 222.013 329.388 222.078C329.382 222.142 329.373 222.205 329.36 222.268C329.335 222.395 329.296 222.519 329.246 222.638C329.197 222.758 329.136 222.873 329.064 222.98C329.029 223.035 328.99 223.088 328.949 223.139C328.908 223.189 328.865 223.237 328.819 223.283C328.773 223.329 328.724 223.373 328.675 223.414C328.626 223.455 328.572 223.493 328.518 223.528C328.411 223.6 328.297 223.661 328.177 223.71C328.058 223.761 327.933 223.799 327.807 223.824C327.743 223.837 327.678 223.846 327.617 223.852C327.555 223.859 327.487 223.862 327.422 223.862Z" fill="#1A1718"/>
<path d="M317.59 221.883C317.59 221.359 317.798 220.856 318.169 220.485C318.54 220.114 319.043 219.905 319.567 219.905C319.827 219.905 320.084 219.956 320.324 220.055C320.564 220.155 320.782 220.301 320.965 220.484C321.149 220.668 321.295 220.886 321.394 221.126C321.493 221.366 321.544 221.624 321.544 221.883C321.544 222.143 321.493 222.401 321.394 222.641C321.295 222.881 321.149 223.099 320.965 223.283C320.782 223.466 320.564 223.612 320.324 223.712C320.084 223.811 319.827 223.862 319.567 223.862C319.043 223.862 318.54 223.653 318.169 223.282C317.798 222.911 317.59 222.408 317.59 221.883ZM309.737 221.883C309.737 221.359 309.945 220.856 310.316 220.485C310.687 220.114 311.189 219.905 311.714 219.905C311.973 219.905 312.23 219.956 312.47 220.055C312.71 220.155 312.928 220.301 313.112 220.484C313.296 220.668 313.441 220.886 313.54 221.126C313.64 221.366 313.691 221.624 313.691 221.883C313.691 222.143 313.64 222.401 313.54 222.641C313.441 222.881 313.296 223.099 313.112 223.283C312.928 223.466 312.71 223.612 312.47 223.712C312.23 223.811 311.973 223.862 311.714 223.862C311.19 223.862 310.687 223.653 310.317 223.282C309.946 222.911 309.738 222.408 309.738 221.883H309.737ZM301.885 221.883C301.885 221.624 301.936 221.366 302.035 221.126C302.134 220.886 302.28 220.668 302.464 220.484C302.647 220.301 302.865 220.155 303.105 220.055C303.345 219.956 303.602 219.905 303.862 219.905C304.386 219.905 304.889 220.114 305.26 220.485C305.631 220.856 305.839 221.359 305.839 221.883C305.839 222.408 305.631 222.911 305.26 223.282C304.889 223.653 304.386 223.862 303.862 223.862C303.338 223.862 302.835 223.653 302.464 223.282C302.094 222.911 301.886 222.408 301.886 221.883H301.885ZM294.031 221.883C294.031 221.624 294.082 221.366 294.182 221.126C294.281 220.886 294.427 220.668 294.61 220.484C294.794 220.301 295.012 220.155 295.252 220.055C295.492 219.956 295.749 219.905 296.008 219.905C296.533 219.905 297.035 220.114 297.406 220.485C297.777 220.856 297.985 221.359 297.986 221.883C297.985 222.408 297.777 222.911 297.406 223.282C297.035 223.653 296.533 223.862 296.008 223.862C295.484 223.862 294.981 223.653 294.611 223.282C294.24 222.911 294.032 222.408 294.032 221.883H294.031ZM286.178 221.883C286.178 221.359 286.386 220.856 286.757 220.485C287.128 220.114 287.631 219.905 288.155 219.905C288.679 219.905 289.182 220.114 289.553 220.485C289.924 220.856 290.132 221.359 290.132 221.883C290.132 222.408 289.924 222.911 289.553 223.282C289.182 223.653 288.679 223.862 288.155 223.862C287.631 223.862 287.128 223.653 286.758 223.282C286.387 222.911 286.179 222.408 286.179 221.883H286.178ZM278.324 221.883C278.324 221.359 278.533 220.856 278.903 220.485C279.274 220.114 279.777 219.905 280.301 219.905C280.561 219.905 280.818 219.956 281.058 220.055C281.298 220.155 281.516 220.301 281.7 220.484C281.883 220.668 282.029 220.886 282.128 221.126C282.228 221.366 282.279 221.624 282.279 221.883C282.279 222.143 282.228 222.401 282.128 222.641C282.029 222.881 281.883 223.099 281.7 223.283C281.516 223.466 281.298 223.612 281.058 223.712C280.818 223.811 280.561 223.862 280.301 223.862C279.777 223.862 279.275 223.653 278.904 223.282C278.534 222.911 278.326 222.408 278.325 221.883H278.324ZM270.471 221.883C270.471 221.359 270.679 220.856 271.05 220.485C271.421 220.114 271.924 219.905 272.448 219.905C272.708 219.905 272.965 219.956 273.205 220.055C273.445 220.155 273.662 220.301 273.846 220.484C274.03 220.668 274.175 220.886 274.275 221.126C274.374 221.366 274.425 221.624 274.425 221.883C274.425 222.143 274.374 222.401 274.275 222.641C274.175 222.881 274.03 223.099 273.846 223.283C273.662 223.466 273.445 223.612 273.205 223.712C272.965 223.811 272.708 223.862 272.448 223.862C271.924 223.862 271.421 223.653 271.051 223.282C270.68 222.911 270.472 222.408 270.472 221.883H270.471ZM262.617 221.883C262.617 221.359 262.826 220.856 263.197 220.485C263.567 220.114 264.07 219.905 264.594 219.905C264.854 219.905 265.111 219.956 265.351 220.055C265.591 220.155 265.809 220.301 265.993 220.484C266.176 220.668 266.322 220.886 266.421 221.126C266.521 221.366 266.572 221.624 266.572 221.883C266.572 222.143 266.521 222.401 266.421 222.641C266.322 222.881 266.176 223.099 265.993 223.283C265.809 223.466 265.591 223.612 265.351 223.712C265.111 223.811 264.854 223.862 264.594 223.862C264.07 223.862 263.568 223.653 263.197 223.282C262.827 222.911 262.619 222.408 262.618 221.883H262.617ZM254.765 221.883C254.765 221.624 254.816 221.366 254.916 221.126C255.015 220.886 255.161 220.668 255.344 220.484C255.528 220.301 255.746 220.155 255.986 220.055C256.226 219.956 256.483 219.905 256.743 219.905C257.267 219.905 257.77 220.114 258.14 220.485C258.511 220.856 258.72 221.359 258.72 221.883C258.72 222.408 258.511 222.911 258.14 223.282C257.77 223.653 257.267 223.862 256.743 223.862C256.218 223.862 255.716 223.653 255.345 223.282C254.975 222.911 254.767 222.408 254.767 221.883H254.765ZM246.912 221.883C246.912 221.624 246.963 221.366 247.062 221.126C247.162 220.886 247.307 220.668 247.491 220.484C247.675 220.301 247.893 220.155 248.132 220.055C248.372 219.956 248.629 219.905 248.889 219.905C249.413 219.905 249.916 220.114 250.287 220.485C250.658 220.856 250.866 221.359 250.866 221.883C250.866 222.408 250.658 222.911 250.287 223.282C249.916 223.653 249.413 223.862 248.889 223.862C248.365 223.862 247.862 223.653 247.492 223.282C247.121 222.911 246.913 222.408 246.913 221.883H246.912ZM239.058 221.883C239.059 221.359 239.267 220.856 239.638 220.485C240.008 220.114 240.511 219.905 241.036 219.905C241.56 219.905 242.063 220.114 242.433 220.485C242.804 220.856 243.013 221.359 243.013 221.883C243.013 222.408 242.804 222.911 242.433 223.282C242.063 223.653 241.56 223.862 241.036 223.862C240.512 223.862 240.009 223.653 239.639 223.282C239.268 222.911 239.06 222.408 239.06 221.883H239.058ZM231.205 221.883C231.205 221.359 231.413 220.856 231.784 220.485C232.155 220.114 232.658 219.905 233.182 219.905C233.442 219.905 233.699 219.956 233.939 220.055C234.179 220.155 234.397 220.301 234.58 220.484C234.764 220.668 234.91 220.886 235.009 221.126C235.108 221.366 235.159 221.624 235.159 221.883C235.159 222.143 235.108 222.401 235.009 222.641C234.91 222.881 234.764 223.099 234.58 223.283C234.397 223.466 234.179 223.612 233.939 223.712C233.699 223.811 233.442 223.862 233.182 223.862C232.658 223.862 232.156 223.653 231.785 223.282C231.415 222.911 231.206 222.408 231.206 221.883H231.205ZM223.353 221.883C223.353 221.359 223.561 220.856 223.931 220.485C224.302 220.114 224.805 219.905 225.329 219.905C225.588 219.905 225.845 219.956 226.085 220.055C226.325 220.155 226.543 220.301 226.727 220.484C226.911 220.668 227.056 220.886 227.155 221.126C227.255 221.366 227.306 221.624 227.306 221.883C227.306 222.143 227.255 222.401 227.155 222.641C227.056 222.881 226.911 223.099 226.727 223.283C226.543 223.466 226.325 223.612 226.085 223.712C225.845 223.811 225.588 223.862 225.329 223.862C224.805 223.861 224.302 223.653 223.932 223.282C223.562 222.911 223.354 222.408 223.354 221.883H223.353ZM215.5 221.883C215.5 221.624 215.551 221.366 215.65 221.126C215.749 220.886 215.895 220.668 216.079 220.484C216.262 220.301 216.48 220.155 216.72 220.055C216.96 219.956 217.217 219.905 217.477 219.905C218.001 219.905 218.504 220.114 218.875 220.485C219.245 220.856 219.454 221.359 219.454 221.883C219.454 222.408 219.245 222.911 218.875 223.282C218.504 223.653 218.001 223.862 217.477 223.862C216.953 223.862 216.45 223.653 216.079 223.282C215.709 222.911 215.501 222.408 215.501 221.883H215.5ZM207.646 221.883C207.646 221.624 207.697 221.366 207.797 221.126C207.896 220.886 208.042 220.668 208.225 220.484C208.409 220.301 208.627 220.155 208.867 220.055C209.107 219.956 209.364 219.905 209.623 219.905C210.148 219.905 210.65 220.114 211.021 220.485C211.392 220.856 211.6 221.359 211.601 221.883C211.6 222.408 211.392 222.911 211.021 223.282C210.65 223.653 210.148 223.862 209.623 223.862C209.099 223.862 208.596 223.653 208.226 223.282C207.855 222.911 207.647 222.408 207.647 221.883H207.646ZM199.793 221.883C199.793 221.359 200.001 220.856 200.372 220.485C200.743 220.114 201.245 219.905 201.77 219.905C202.294 219.905 202.797 220.114 203.168 220.485C203.539 220.856 203.747 221.359 203.747 221.883C203.747 222.408 203.539 222.911 203.168 223.282C202.797 223.653 202.294 223.862 201.77 223.862C201.246 223.862 200.743 223.653 200.373 223.282C200.002 222.911 199.794 222.408 199.794 221.883H199.793ZM191.939 221.883C191.939 221.359 192.148 220.856 192.518 220.485C192.889 220.114 193.392 219.905 193.916 219.905C194.176 219.905 194.433 219.956 194.673 220.055C194.913 220.155 195.131 220.301 195.315 220.484C195.498 220.668 195.644 220.886 195.743 221.126C195.843 221.366 195.894 221.624 195.894 221.883C195.894 222.143 195.843 222.401 195.743 222.641C195.644 222.881 195.498 223.099 195.315 223.283C195.131 223.466 194.913 223.612 194.673 223.712C194.433 223.811 194.176 223.862 193.916 223.862C193.392 223.862 192.89 223.653 192.519 223.282C192.149 222.911 191.941 222.408 191.94 221.883H191.939ZM184.086 221.883C184.086 221.359 184.294 220.856 184.665 220.485C185.036 220.114 185.539 219.905 186.063 219.905C186.323 219.905 186.58 219.956 186.82 220.055C187.059 220.155 187.277 220.301 187.461 220.484C187.645 220.668 187.79 220.886 187.89 221.126C187.989 221.366 188.04 221.624 188.04 221.883C188.04 222.143 187.989 222.401 187.89 222.641C187.79 222.881 187.645 223.099 187.461 223.283C187.277 223.466 187.059 223.612 186.82 223.712C186.58 223.811 186.323 223.862 186.063 223.862C185.539 223.862 185.036 223.653 184.666 223.282C184.295 222.911 184.087 222.408 184.087 221.883H184.086Z" fill="#1A1718"/>
<path d="M178.212 223.862C178.147 223.862 178.081 223.859 178.018 223.852C177.953 223.846 177.889 223.837 177.825 223.824C177.571 223.772 177.33 223.671 177.115 223.528C177.006 223.457 176.905 223.375 176.814 223.282C176.768 223.237 176.724 223.187 176.683 223.138C176.642 223.089 176.604 223.036 176.567 222.98C176.496 222.872 176.435 222.758 176.385 222.638C176.336 222.519 176.298 222.395 176.273 222.268C176.26 222.205 176.251 222.142 176.245 222.078C176.238 222.013 176.235 221.948 176.235 221.883C176.235 221.818 176.238 221.753 176.245 221.688C176.251 221.625 176.26 221.56 176.273 221.499C176.298 221.372 176.336 221.248 176.385 221.128C176.436 221.009 176.496 220.895 176.567 220.786C176.603 220.733 176.642 220.681 176.683 220.631C176.724 220.58 176.768 220.532 176.814 220.486C176.86 220.44 176.908 220.396 176.958 220.356C177.008 220.314 177.061 220.275 177.116 220.24C177.223 220.168 177.337 220.107 177.456 220.058C177.576 220.009 177.7 219.972 177.826 219.946C177.89 219.933 177.954 219.922 178.019 219.916C178.149 219.903 178.279 219.903 178.408 219.916C178.472 219.922 178.537 219.933 178.598 219.946C178.725 219.971 178.849 220.009 178.968 220.058C179.087 220.107 179.201 220.168 179.308 220.24C179.364 220.275 179.416 220.314 179.467 220.356C179.517 220.396 179.565 220.439 179.611 220.486C179.657 220.532 179.701 220.58 179.742 220.631C179.783 220.681 179.822 220.733 179.857 220.786C179.928 220.895 179.989 221.009 180.039 221.128C180.089 221.248 180.126 221.372 180.152 221.499C180.164 221.562 180.174 221.627 180.18 221.688C180.186 221.75 180.19 221.818 180.19 221.883C180.19 221.948 180.186 222.013 180.18 222.078C180.174 222.142 180.164 222.205 180.152 222.268C180.126 222.395 180.089 222.519 180.039 222.638C179.989 222.758 179.928 222.872 179.857 222.98C179.821 223.034 179.783 223.086 179.742 223.138C179.701 223.191 179.656 223.237 179.611 223.282C179.565 223.329 179.517 223.373 179.467 223.414C179.416 223.454 179.363 223.493 179.308 223.528C179.039 223.709 178.729 223.821 178.405 223.852C178.342 223.859 178.276 223.862 178.212 223.862Z" fill="#1A1718"/>
<path d="M327.422 312.091C327.357 312.091 327.292 312.088 327.228 312.082C327.164 312.075 327.099 312.066 327.036 312.053C326.909 312.028 326.786 311.99 326.666 311.941C326.547 311.891 326.433 311.83 326.324 311.759C326.271 311.723 326.219 311.685 326.169 311.643C326.119 311.602 326.07 311.558 326.024 311.512C325.978 311.466 325.935 311.418 325.894 311.368C325.853 311.317 325.814 311.265 325.779 311.21C325.707 311.102 325.646 310.988 325.597 310.868C325.548 310.749 325.51 310.625 325.485 310.499C325.47 310.435 325.459 310.371 325.453 310.306C325.447 310.243 325.443 310.176 325.443 310.113C325.443 310.049 325.447 309.981 325.453 309.918C325.459 309.853 325.47 309.789 325.485 309.725C325.51 309.598 325.548 309.474 325.597 309.355C325.646 309.235 325.707 309.121 325.779 309.014C325.814 308.96 325.853 308.907 325.894 308.858C325.934 308.807 325.978 308.759 326.024 308.714C326.07 308.667 326.119 308.623 326.169 308.582C326.219 308.541 326.271 308.502 326.324 308.467C326.433 308.396 326.547 308.335 326.666 308.285C326.786 308.235 326.909 308.198 327.036 308.172C327.099 308.16 327.164 308.15 327.228 308.144C327.357 308.13 327.487 308.13 327.617 308.144C327.68 308.15 327.744 308.16 327.807 308.172C327.933 308.198 328.057 308.235 328.177 308.285C328.296 308.335 328.41 308.395 328.518 308.467C328.572 308.503 328.624 308.541 328.675 308.582C328.726 308.623 328.773 308.668 328.819 308.714C328.865 308.759 328.909 308.807 328.95 308.858C328.991 308.908 329.029 308.96 329.064 309.014C329.136 309.121 329.197 309.235 329.246 309.355C329.295 309.474 329.333 309.598 329.36 309.725C329.373 309.788 329.382 309.853 329.388 309.918C329.395 309.983 329.398 310.048 329.398 310.113C329.398 310.178 329.395 310.243 329.388 310.306C329.382 310.369 329.373 310.436 329.36 310.499C329.333 310.625 329.295 310.749 329.246 310.868C329.197 310.988 329.136 311.102 329.064 311.21C329.028 311.265 328.99 311.317 328.949 311.368C328.908 311.419 328.865 311.467 328.819 311.512C328.773 311.558 328.724 311.602 328.675 311.643C328.626 311.685 328.572 311.723 328.518 311.759C328.41 311.83 328.296 311.891 328.177 311.941C328.057 311.99 327.933 312.028 327.807 312.053C327.744 312.066 327.68 312.075 327.617 312.082C327.552 312.088 327.487 312.091 327.422 312.091Z" fill="#1A1718"/>
<path d="M325.445 328.213C325.445 327.953 325.496 327.696 325.595 327.455C325.695 327.215 325.84 326.997 326.024 326.814C326.208 326.63 326.426 326.484 326.666 326.385C326.905 326.285 327.163 326.234 327.422 326.234C327.682 326.234 327.939 326.285 328.179 326.384C328.419 326.484 328.637 326.63 328.821 326.813C329.004 326.997 329.15 327.215 329.249 327.455C329.349 327.696 329.4 327.953 329.399 328.213C329.4 328.473 329.348 328.73 329.249 328.97C329.15 329.21 329.004 329.428 328.82 329.612C328.637 329.796 328.419 329.941 328.179 330.041C327.939 330.14 327.682 330.191 327.422 330.191C326.898 330.191 326.395 329.983 326.024 329.612C325.654 329.241 325.445 328.737 325.445 328.213ZM325.445 319.164C325.445 318.904 325.496 318.646 325.595 318.406C325.695 318.166 325.84 317.948 326.024 317.764C326.208 317.581 326.426 317.435 326.666 317.336C326.905 317.236 327.163 317.185 327.422 317.185C327.682 317.185 327.939 317.236 328.179 317.335C328.419 317.435 328.637 317.58 328.821 317.764C329.004 317.948 329.15 318.166 329.249 318.406C329.349 318.646 329.4 318.904 329.399 319.164C329.4 319.423 329.348 319.681 329.249 319.921C329.15 320.161 329.004 320.379 328.82 320.563C328.637 320.746 328.419 320.892 328.179 320.992C327.939 321.091 327.682 321.142 327.422 321.142C326.898 321.142 326.395 320.933 326.024 320.562C325.654 320.191 325.445 319.688 325.445 319.164Z" fill="#1A1718"/>
<path d="M327.422 339.24C327.357 339.241 327.292 339.237 327.228 339.229C327.164 339.223 327.099 339.213 327.036 339.201C326.909 339.175 326.786 339.138 326.666 339.088C326.547 339.039 326.432 338.978 326.324 338.906C326.271 338.87 326.218 338.832 326.168 338.791C326.117 338.75 326.07 338.705 326.024 338.661C325.978 338.615 325.935 338.566 325.894 338.515C325.852 338.466 325.814 338.414 325.779 338.359C325.707 338.252 325.646 338.138 325.597 338.018C325.548 337.899 325.51 337.775 325.485 337.648C325.472 337.585 325.461 337.52 325.453 337.455C325.445 337.39 325.443 337.325 325.443 337.262C325.445 336.737 325.653 336.235 326.022 335.863C326.068 335.817 326.117 335.772 326.166 335.731C326.215 335.69 326.269 335.652 326.323 335.616C326.431 335.545 326.545 335.484 326.665 335.434C326.784 335.384 326.908 335.347 327.035 335.321C327.098 335.308 327.163 335.299 327.226 335.293C327.355 335.28 327.486 335.28 327.615 335.293C327.678 335.299 327.743 335.308 327.805 335.321C327.932 335.347 328.056 335.384 328.175 335.434C328.294 335.483 328.409 335.544 328.517 335.616C328.571 335.652 328.623 335.692 328.673 335.731C328.724 335.771 328.771 335.817 328.817 335.863C329.187 336.234 329.396 336.737 329.396 337.262C329.396 337.325 329.393 337.392 329.387 337.455C329.38 337.518 329.371 337.585 329.358 337.648C329.333 337.775 329.295 337.899 329.244 338.018C329.195 338.138 329.134 338.252 329.062 338.359C329.028 338.414 328.989 338.466 328.947 338.515C328.907 338.566 328.863 338.615 328.817 338.661C328.771 338.705 328.722 338.75 328.673 338.791C328.624 338.832 328.571 338.87 328.517 338.906C328.409 338.978 328.295 339.039 328.175 339.088C328.056 339.138 327.932 339.175 327.805 339.201C327.742 339.213 327.677 339.223 327.615 339.229C327.551 339.237 327.487 339.24 327.422 339.24Z" fill="#1A1718"/>
<path d="M317.59 337.262C317.59 337.002 317.641 336.745 317.74 336.505C317.84 336.265 317.985 336.046 318.169 335.863C318.353 335.679 318.571 335.533 318.811 335.434C319.05 335.334 319.308 335.283 319.567 335.283C319.827 335.283 320.084 335.334 320.324 335.433C320.564 335.533 320.782 335.679 320.966 335.862C321.149 336.046 321.295 336.264 321.394 336.504C321.494 336.745 321.545 337.002 321.544 337.262C321.544 337.522 321.493 337.779 321.394 338.019C321.295 338.259 321.149 338.477 320.965 338.661C320.782 338.845 320.564 338.99 320.324 339.09C320.084 339.189 319.827 339.24 319.567 339.24C319.043 339.24 318.54 339.032 318.169 338.661C317.798 338.29 317.59 337.786 317.59 337.262ZM309.737 337.262C309.736 337.002 309.788 336.745 309.887 336.505C309.986 336.265 310.132 336.046 310.316 335.863C310.499 335.679 310.717 335.533 310.957 335.434C311.197 335.334 311.454 335.283 311.714 335.283C311.973 335.283 312.231 335.334 312.471 335.433C312.71 335.533 312.929 335.679 313.112 335.862C313.296 336.046 313.441 336.264 313.541 336.504C313.64 336.745 313.691 337.002 313.691 337.262C313.691 337.522 313.64 337.779 313.54 338.019C313.441 338.259 313.296 338.477 313.112 338.661C312.928 338.845 312.71 338.99 312.47 339.09C312.23 339.189 311.973 339.24 311.714 339.24C311.19 339.24 310.687 339.031 310.317 338.66C309.946 338.289 309.738 337.786 309.738 337.262H309.737ZM301.885 337.262C301.884 337.002 301.935 336.745 302.035 336.504C302.134 336.264 302.28 336.046 302.463 335.862C302.647 335.679 302.865 335.533 303.105 335.433C303.345 335.334 303.602 335.283 303.862 335.283C304.121 335.283 304.379 335.334 304.618 335.434C304.858 335.533 305.076 335.679 305.26 335.863C305.444 336.046 305.589 336.265 305.689 336.505C305.788 336.745 305.839 337.002 305.839 337.262C305.839 337.786 305.631 338.29 305.26 338.661C304.889 339.032 304.386 339.24 303.862 339.24C303.338 339.24 302.835 339.031 302.464 338.66C302.094 338.289 301.886 337.786 301.886 337.262H301.885ZM294.031 337.262C294.031 337.002 294.082 336.745 294.181 336.504C294.281 336.264 294.426 336.046 294.61 335.862C294.793 335.679 295.012 335.533 295.252 335.433C295.491 335.334 295.749 335.283 296.008 335.283C296.268 335.283 296.525 335.334 296.765 335.434C297.005 335.533 297.223 335.679 297.407 335.863C297.59 336.046 297.736 336.265 297.835 336.505C297.934 336.745 297.986 337.002 297.986 337.262C297.985 337.786 297.777 338.29 297.406 338.661C297.035 339.032 296.533 339.24 296.008 339.24C295.484 339.24 294.981 339.031 294.611 338.66C294.24 338.289 294.032 337.786 294.032 337.262H294.031ZM286.178 337.262C286.178 337.002 286.229 336.745 286.328 336.504C286.427 336.264 286.573 336.046 286.756 335.862C286.94 335.679 287.158 335.533 287.398 335.433C287.638 335.334 287.895 335.283 288.155 335.283C288.415 335.283 288.672 335.334 288.912 335.434C289.151 335.533 289.369 335.679 289.553 335.863C289.737 336.046 289.882 336.265 289.982 336.505C290.081 336.745 290.132 337.002 290.132 337.262C290.132 337.786 289.924 338.29 289.553 338.661C289.182 339.032 288.679 339.24 288.155 339.24C287.631 339.24 287.128 339.031 286.757 338.66C286.387 338.289 286.179 337.786 286.179 337.262H286.178ZM278.324 337.262C278.324 337.002 278.375 336.745 278.475 336.505C278.574 336.265 278.72 336.046 278.903 335.863C279.087 335.679 279.305 335.533 279.545 335.434C279.785 335.334 280.042 335.283 280.301 335.283C280.561 335.283 280.818 335.334 281.058 335.434C281.298 335.533 281.516 335.679 281.7 335.863C281.883 336.046 282.029 336.265 282.128 336.505C282.228 336.745 282.279 337.002 282.279 337.262C282.278 337.786 282.07 338.29 281.699 338.661C281.329 339.032 280.826 339.24 280.301 339.24C279.777 339.24 279.275 339.031 278.904 338.66C278.534 338.289 278.326 337.786 278.325 337.262H278.324ZM270.471 337.262C270.471 337.002 270.522 336.745 270.621 336.505C270.72 336.265 270.866 336.046 271.05 335.863C271.233 335.679 271.451 335.533 271.691 335.434C271.931 335.334 272.188 335.283 272.448 335.283C272.708 335.283 272.965 335.334 273.205 335.433C273.445 335.533 273.663 335.679 273.846 335.862C274.03 336.046 274.176 336.264 274.275 336.504C274.374 336.745 274.425 337.002 274.425 337.262C274.425 337.522 274.374 337.779 274.275 338.019C274.175 338.259 274.03 338.477 273.846 338.661C273.662 338.845 273.445 338.99 273.205 339.09C272.965 339.189 272.708 339.24 272.448 339.24C271.924 339.24 271.421 339.031 271.051 338.66C270.68 338.289 270.472 337.786 270.472 337.262H270.471ZM262.617 337.262C262.617 337.002 262.668 336.745 262.768 336.505C262.867 336.265 263.013 336.046 263.196 335.863C263.38 335.679 263.598 335.533 263.838 335.434C264.078 335.334 264.335 335.283 264.594 335.283C264.854 335.283 265.111 335.334 265.351 335.433C265.591 335.533 265.809 335.679 265.993 335.862C266.177 336.046 266.322 336.264 266.422 336.504C266.521 336.745 266.572 337.002 266.572 337.262C266.572 337.522 266.521 337.779 266.421 338.019C266.322 338.259 266.176 338.477 265.993 338.661C265.809 338.845 265.591 338.99 265.351 339.09C265.111 339.189 264.854 339.24 264.594 339.24C264.07 339.24 263.568 339.031 263.197 338.66C262.827 338.289 262.619 337.786 262.618 337.262H262.617ZM254.765 337.262C254.765 337.002 254.816 336.745 254.916 336.504C255.015 336.264 255.16 336.046 255.344 335.862C255.528 335.679 255.746 335.533 255.986 335.433C256.226 335.334 256.483 335.283 256.743 335.283C257.002 335.283 257.259 335.334 257.499 335.434C257.739 335.533 257.957 335.679 258.141 335.863C258.324 336.046 258.47 336.265 258.569 336.505C258.669 336.745 258.72 337.002 258.72 337.262C258.72 337.786 258.511 338.29 258.14 338.661C257.77 339.032 257.267 339.24 256.743 339.24C256.218 339.24 255.716 339.031 255.345 338.66C254.975 338.289 254.767 337.786 254.767 337.262H254.765ZM246.912 337.262C246.912 337.002 246.963 336.745 247.062 336.504C247.161 336.264 247.307 336.046 247.491 335.862C247.674 335.679 247.892 335.533 248.132 335.433C248.372 335.334 248.629 335.283 248.889 335.283C249.149 335.283 249.406 335.334 249.646 335.434C249.886 335.533 250.104 335.679 250.287 335.863C250.471 336.046 250.617 336.265 250.716 336.505C250.815 336.745 250.866 337.002 250.866 337.262C250.866 337.786 250.658 338.29 250.287 338.661C249.916 339.032 249.413 339.24 248.889 339.24C248.365 339.24 247.862 339.031 247.492 338.66C247.121 338.289 246.913 337.786 246.913 337.262H246.912ZM239.058 337.262C239.058 337.002 239.11 336.745 239.209 336.505C239.308 336.265 239.454 336.046 239.637 335.863C239.821 335.679 240.039 335.533 240.279 335.434C240.519 335.334 240.776 335.283 241.036 335.283C241.295 335.283 241.552 335.334 241.792 335.434C242.032 335.533 242.25 335.679 242.434 335.863C242.617 336.046 242.763 336.265 242.862 336.505C242.962 336.745 243.013 337.002 243.013 337.262C243.013 337.786 242.804 338.29 242.433 338.661C242.063 339.032 241.56 339.24 241.036 339.24C240.512 339.24 240.009 339.031 239.639 338.66C239.268 338.289 239.06 337.786 239.06 337.262H239.058ZM231.205 337.262C231.205 337.002 231.256 336.745 231.355 336.505C231.455 336.265 231.6 336.046 231.784 335.863C231.968 335.679 232.186 335.533 232.425 335.434C232.665 335.334 232.923 335.283 233.182 335.283C233.442 335.283 233.699 335.334 233.939 335.433C234.179 335.533 234.397 335.679 234.581 335.862C234.764 336.046 234.91 336.264 235.009 336.504C235.108 336.745 235.16 337.002 235.159 337.262C235.159 337.522 235.108 337.779 235.009 338.019C234.91 338.259 234.764 338.477 234.58 338.661C234.397 338.845 234.179 338.99 233.939 339.09C233.699 339.189 233.442 339.24 233.182 339.24C232.658 339.24 232.156 339.031 231.785 338.66C231.415 338.289 231.206 337.786 231.206 337.262H231.205ZM223.352 337.262C223.352 337.002 223.403 336.744 223.502 336.504C223.602 336.264 223.747 336.046 223.931 335.862C224.115 335.678 224.333 335.533 224.573 335.433C224.813 335.334 225.07 335.283 225.33 335.283C225.59 335.283 225.847 335.334 226.087 335.434C226.326 335.533 226.544 335.679 226.728 335.863C226.911 336.047 227.057 336.265 227.156 336.505C227.255 336.745 227.306 337.002 227.306 337.262C227.306 337.786 227.098 338.289 226.728 338.66C226.357 339.031 225.854 339.24 225.33 339.24C224.806 339.24 224.303 339.032 223.932 338.661C223.561 338.29 223.353 337.786 223.353 337.262H223.352ZM215.5 337.262C215.499 337.002 215.55 336.745 215.65 336.504C215.749 336.264 215.895 336.046 216.078 335.862C216.262 335.679 216.48 335.533 216.72 335.433C216.96 335.334 217.217 335.283 217.477 335.283C217.736 335.283 217.994 335.334 218.233 335.434C218.473 335.533 218.691 335.679 218.875 335.863C219.059 336.046 219.204 336.265 219.304 336.505C219.403 336.745 219.454 337.002 219.454 337.262C219.454 337.786 219.245 338.29 218.875 338.661C218.504 339.032 218.001 339.24 217.477 339.24C216.953 339.24 216.45 339.031 216.079 338.66C215.709 338.289 215.501 337.786 215.501 337.262H215.5ZM207.646 337.262C207.646 337.002 207.697 336.745 207.796 336.504C207.896 336.264 208.041 336.046 208.225 335.862C208.408 335.679 208.626 335.533 208.866 335.433C209.106 335.334 209.364 335.283 209.623 335.283C209.883 335.283 210.14 335.334 210.38 335.434C210.62 335.533 210.838 335.679 211.022 335.863C211.205 336.046 211.351 336.265 211.45 336.505C211.549 336.745 211.601 337.002 211.601 337.262C211.6 337.786 211.392 338.29 211.021 338.661C210.65 339.032 210.148 339.24 209.623 339.24C209.099 339.24 208.596 339.031 208.226 338.66C207.855 338.289 207.647 337.786 207.647 337.262H207.646ZM199.793 337.262C199.793 337.002 199.844 336.745 199.943 336.505C200.042 336.265 200.188 336.046 200.372 335.863C200.555 335.679 200.773 335.533 201.013 335.434C201.253 335.334 201.51 335.283 201.77 335.283C202.029 335.283 202.287 335.334 202.527 335.434C202.766 335.533 202.984 335.679 203.168 335.863C203.352 336.046 203.497 336.265 203.597 336.505C203.696 336.745 203.747 337.002 203.747 337.262C203.747 337.786 203.539 338.29 203.168 338.661C202.797 339.032 202.294 339.24 201.77 339.24C201.246 339.24 200.743 339.031 200.373 338.66C200.002 338.289 199.794 337.786 199.794 337.262H199.793ZM191.939 337.262C191.939 337.002 191.99 336.745 192.09 336.505C192.189 336.265 192.335 336.046 192.518 335.863C192.702 335.679 192.92 335.533 193.16 335.434C193.4 335.334 193.657 335.283 193.916 335.283C194.176 335.283 194.433 335.334 194.673 335.434C194.913 335.533 195.131 335.679 195.315 335.863C195.498 336.046 195.644 336.265 195.743 336.505C195.843 336.745 195.894 337.002 195.894 337.262C195.893 337.786 195.685 338.29 195.314 338.661C194.944 339.032 194.441 339.24 193.916 339.24C193.392 339.24 192.89 339.031 192.519 338.66C192.149 338.289 191.941 337.786 191.94 337.262H191.939ZM184.086 337.262C184.086 337.002 184.137 336.745 184.236 336.505C184.335 336.265 184.481 336.046 184.665 335.863C184.848 335.679 185.066 335.533 185.306 335.434C185.546 335.334 185.803 335.283 186.063 335.283C186.323 335.283 186.58 335.334 186.82 335.433C187.06 335.533 187.278 335.679 187.461 335.862C187.645 336.046 187.791 336.264 187.89 336.504C187.989 336.745 188.04 337.002 188.04 337.262C188.04 337.522 187.989 337.779 187.89 338.019C187.79 338.259 187.645 338.477 187.461 338.661C187.277 338.845 187.059 338.99 186.82 339.09C186.58 339.189 186.323 339.24 186.063 339.24C185.539 339.24 185.036 339.031 184.666 338.66C184.295 338.289 184.087 337.786 184.087 337.262H184.086Z" fill="#1A1718"/>
<path d="M178.212 339.24C178.147 339.241 178.082 339.237 178.018 339.229C177.953 339.223 177.888 339.213 177.825 339.201C177.699 339.175 177.575 339.137 177.456 339.088C177.155 338.965 176.889 338.768 176.683 338.515C176.641 338.465 176.603 338.413 176.567 338.359C176.496 338.252 176.435 338.138 176.385 338.018C176.336 337.899 176.299 337.775 176.273 337.648C176.261 337.585 176.251 337.52 176.245 337.455C176.238 337.39 176.234 337.325 176.234 337.262C176.235 336.737 176.444 336.234 176.814 335.863C176.859 335.816 176.908 335.772 176.958 335.731C177.007 335.692 177.061 335.652 177.116 335.616C177.331 335.472 177.573 335.372 177.827 335.321C177.89 335.308 177.955 335.299 178.019 335.293C178.149 335.28 178.279 335.28 178.409 335.293C178.472 335.299 178.537 335.308 178.598 335.321C178.852 335.372 179.093 335.472 179.309 335.616C179.362 335.652 179.416 335.692 179.467 335.731C179.517 335.772 179.565 335.816 179.611 335.863C179.981 336.234 180.189 336.737 180.19 337.262C180.19 337.325 180.187 337.392 180.18 337.455C180.174 337.518 180.164 337.585 180.152 337.648C180.126 337.775 180.089 337.899 180.039 338.018C179.99 338.137 179.929 338.251 179.858 338.359C179.822 338.413 179.784 338.465 179.742 338.515C179.66 338.616 179.568 338.709 179.467 338.791C179.416 338.832 179.363 338.871 179.309 338.906C179.202 338.978 179.088 339.039 178.969 339.088C178.849 339.137 178.725 339.175 178.598 339.201C178.535 339.213 178.47 339.223 178.409 339.229C178.343 339.237 178.278 339.241 178.212 339.24Z" fill="#1A1718"/>
<path d="M311.749 208.31L280.134 154.015L185.289 208.31H311.749Z" fill="#B4B8D7"/>
<path d="M311.749 210.288H185.29C184.854 210.288 184.43 210.144 184.085 209.878C183.739 209.612 183.492 209.239 183.38 208.818C183.268 208.396 183.298 207.949 183.466 207.547C183.634 207.145 183.931 206.809 184.309 206.592L279.153 152.297C279.606 152.038 280.142 151.968 280.646 152.104C281.15 152.239 281.58 152.567 281.842 153.018L313.457 207.314C313.633 207.614 313.725 207.956 313.727 208.304C313.728 208.652 313.637 208.994 313.464 209.296C313.29 209.598 313.041 209.849 312.74 210.023C312.439 210.198 312.097 210.289 311.749 210.289V210.288ZM192.727 206.331H308.309L279.413 156.707L192.727 206.331Z" fill="#1A1718"/>
<path d="M296.141 210.289H212.325C211.889 210.288 211.465 210.144 211.12 209.878C210.775 209.612 210.527 209.239 210.415 208.818C210.303 208.396 210.333 207.95 210.502 207.547C210.67 207.145 210.966 206.809 211.344 206.593L262.498 177.308C262.951 177.049 263.488 176.979 263.991 177.115C264.495 177.25 264.925 177.578 265.187 178.029C266.739 180.662 269.265 182.577 272.217 183.36C275.17 184.143 278.311 183.731 280.963 182.214C281.415 181.955 281.952 181.886 282.455 182.021C282.959 182.156 283.389 182.484 283.652 182.935L297.847 207.314C298.022 207.614 298.115 207.956 298.116 208.304C298.117 208.652 298.026 208.994 297.853 209.296C297.68 209.598 297.43 209.849 297.129 210.023C296.828 210.198 296.486 210.289 296.138 210.289L296.141 210.289ZM219.763 206.331H292.701L281.163 186.516C278.003 187.824 274.501 188.057 271.195 187.178C267.89 186.3 264.964 184.36 262.868 181.655L219.763 206.331Z" fill="#1A1718"/>
<path d="M185.289 210.288H178.212C176.171 210.288 174.15 209.886 172.264 209.105C170.379 208.323 168.665 207.177 167.222 205.733C165.779 204.289 164.634 202.575 163.853 200.688C163.072 198.801 162.67 196.778 162.67 194.736C162.67 192.694 163.072 190.671 163.853 188.784C164.634 186.898 165.779 185.183 167.222 183.739C168.665 182.295 170.379 181.149 172.264 180.368C174.15 179.586 176.171 179.184 178.212 179.184H232.712C233.148 179.184 233.572 179.328 233.917 179.594C234.263 179.86 234.51 180.233 234.622 180.654C234.734 181.076 234.704 181.523 234.536 181.925C234.368 182.328 234.071 182.663 233.693 182.88L186.272 210.027C185.973 210.198 185.634 210.288 185.289 210.288ZM178.212 183.141C175.139 183.141 172.191 184.362 170.018 186.537C167.845 188.712 166.624 191.661 166.624 194.736C166.624 197.811 167.845 200.761 170.018 202.935C172.191 205.11 175.139 206.331 178.212 206.331H184.764L225.274 183.141H178.212Z" fill="#1A1718"/>
<path d="M327.422 210.288H311.749C311.403 210.289 311.063 210.198 310.764 210.026C310.464 209.854 310.215 209.606 310.04 209.307L294.233 182.159C294.058 181.859 293.965 181.517 293.963 181.169C293.962 180.821 294.053 180.479 294.226 180.177C294.399 179.875 294.649 179.624 294.95 179.45C295.251 179.275 295.593 179.184 295.941 179.184H313.857C317.977 179.188 321.928 180.828 324.842 183.744C327.755 186.66 329.394 190.613 329.399 194.736V208.31C329.399 208.835 329.19 209.338 328.82 209.709C328.449 210.08 327.946 210.288 327.422 210.288ZM312.885 206.331H325.444V194.736C325.441 191.662 324.219 188.715 322.047 186.541C319.874 184.367 316.929 183.144 313.857 183.141H299.381L312.885 206.331Z" fill="#1A1718"/>
<path d="M327.422 352.814H178.212C174.091 352.809 170.141 351.169 167.227 348.253C164.313 345.338 162.675 341.385 162.67 337.261V194.736C162.67 194.211 162.878 193.708 163.249 193.337C163.62 192.966 164.123 192.758 164.647 192.758C165.172 192.758 165.674 192.966 166.045 193.337C166.416 193.708 166.624 194.211 166.624 194.736C166.628 197.81 167.85 200.758 170.022 202.931C172.194 205.105 175.14 206.328 178.212 206.331H327.422C331.543 206.336 335.493 207.976 338.407 210.892C341.32 213.807 342.959 217.76 342.964 221.883V262.605C342.964 263.13 342.756 263.633 342.385 264.004C342.014 264.375 341.511 264.584 340.987 264.584H307.074C305.8 264.585 304.579 265.092 303.678 265.994C302.777 266.895 302.27 268.117 302.269 269.392V289.753C302.27 291.028 302.777 292.25 303.678 293.152C304.579 294.053 305.8 294.56 307.074 294.561H340.987C341.511 294.561 342.014 294.77 342.385 295.141C342.756 295.512 342.964 296.015 342.964 296.54V337.261C342.96 341.385 341.321 345.338 338.407 348.253C335.493 351.169 331.543 352.809 327.422 352.814ZM166.624 205.09V337.261C166.628 340.335 167.85 343.283 170.022 345.457C172.194 347.63 175.14 348.853 178.212 348.857H327.422C330.495 348.853 333.44 347.63 335.612 345.457C337.784 343.283 339.006 340.335 339.01 337.261V298.519H307.075C304.753 298.516 302.527 297.591 300.885 295.948C299.242 294.305 298.319 292.077 298.316 289.753V269.392C298.319 267.068 299.242 264.84 300.884 263.197C302.527 261.554 304.753 260.629 307.075 260.627H339.01V221.883C339.006 218.809 337.784 215.862 335.612 213.688C333.44 211.515 330.494 210.292 327.422 210.289H178.212C176.023 210.289 173.859 209.827 171.862 208.931C169.865 208.035 168.08 206.726 166.624 205.09Z" fill="#1A1718"/>
<path d="M428.216 119.916C429.172 111.402 426.984 102.833 422.065 95.8203C417.146 88.8081 409.835 83.837 401.509 81.8428C393.182 79.8486 384.415 80.9688 376.856 84.9926C369.298 89.0164 363.47 95.6663 360.469 103.69C357.713 101.497 354.393 100.127 350.893 99.737C347.393 99.347 343.854 99.9532 340.682 101.486C337.511 103.019 334.836 105.416 332.965 108.402C331.094 111.388 330.103 114.841 330.106 118.365C330.106 118.907 330.142 119.44 330.187 119.97C323.925 122.161 318.641 126.5 315.27 132.218C311.899 137.936 310.661 144.663 311.773 151.207C312.885 157.752 316.277 163.691 321.347 167.972C326.417 172.253 332.838 174.6 339.472 174.597H419.078C425.725 174.599 432.158 172.243 437.232 167.946C442.306 163.649 445.693 157.69 446.789 151.129C447.886 144.568 446.621 137.831 443.22 132.116C439.819 126.401 434.503 122.078 428.216 119.916Z" fill="#23346B"/>
<path d="M442.429 143.711C441.905 143.711 441.402 143.503 441.031 143.132C440.661 142.761 440.452 142.257 440.452 141.733C440.444 134.803 437.69 128.159 432.794 123.259C427.897 118.359 421.258 115.603 414.333 115.595C413.809 115.595 413.306 115.387 412.935 115.016C412.564 114.645 412.356 114.141 412.356 113.617C412.356 113.092 412.564 112.589 412.935 112.218C413.306 111.847 413.809 111.638 414.333 111.638C422.306 111.647 429.951 114.821 435.588 120.463C441.226 126.104 444.398 133.754 444.407 141.733C444.407 142.257 444.198 142.761 443.828 143.132C443.457 143.503 442.954 143.711 442.429 143.711Z" fill="#1A1718"/>
<path d="M306.63 143.711C306.105 143.711 305.602 143.503 305.232 143.132C304.861 142.761 304.653 142.257 304.653 141.733C304.662 133.754 307.833 126.104 313.471 120.463C319.109 114.821 326.753 111.647 334.726 111.638C335.251 111.638 335.754 111.847 336.124 112.218C336.495 112.589 336.704 113.092 336.704 113.617C336.704 114.141 336.495 114.645 336.124 115.016C335.754 115.387 335.251 115.595 334.726 115.595C327.802 115.603 321.163 118.359 316.266 123.259C311.369 128.159 308.615 134.803 308.607 141.733C308.607 142.257 308.399 142.761 308.028 143.132C307.657 143.503 307.154 143.711 306.63 143.711Z" fill="#1A1718"/>
<path d="M360.697 106.912C360.336 106.912 359.981 106.813 359.672 106.626C359.363 106.439 359.111 106.171 358.944 105.851C357.529 103.134 355.395 100.858 352.776 99.271C350.157 97.6841 347.153 96.8472 344.092 96.8515C343.567 96.8515 343.064 96.6431 342.694 96.272C342.323 95.901 342.115 95.3977 342.115 94.873C342.115 94.3482 342.323 93.845 342.694 93.4739C343.064 93.1029 343.567 92.8944 344.092 92.8944C347.875 92.8888 351.588 93.9228 354.825 95.8837C358.061 97.8446 360.698 100.657 362.447 104.015C362.604 104.316 362.682 104.653 362.671 104.993C362.661 105.333 362.563 105.665 362.387 105.956C362.211 106.247 361.963 106.488 361.667 106.656C361.371 106.823 361.037 106.911 360.697 106.912Z" fill="#1A1718"/>
<path d="M409.65 155.79H339.409V197.964H409.65V155.79Z" fill="#B4B8D7"/>
<path d="M409.649 199.942H339.409C338.885 199.942 338.382 199.734 338.011 199.363C337.64 198.992 337.432 198.488 337.432 197.964V155.79C337.432 155.266 337.64 154.762 338.011 154.391C338.382 154.02 338.885 153.812 339.409 153.812H409.649C410.174 153.812 410.677 154.02 411.047 154.391C411.418 154.762 411.626 155.266 411.626 155.79V197.964C411.626 198.488 411.418 198.992 411.047 199.363C410.677 199.734 410.174 199.942 409.649 199.942ZM341.385 195.985H407.672V157.769H341.387L341.385 195.985Z" fill="#1A1718"/>
<path d="M419.015 157.769H330.043C329.519 157.769 329.016 157.56 328.645 157.189C328.274 156.818 328.066 156.315 328.066 155.79C328.066 155.266 328.274 154.762 328.645 154.391C329.016 154.02 329.519 153.812 330.043 153.812H419.015C419.54 153.812 420.043 154.02 420.414 154.391C420.784 154.762 420.993 155.266 420.993 155.79C420.993 156.315 420.784 156.818 420.414 157.189C420.043 157.56 419.54 157.769 419.015 157.769Z" fill="#1A1718"/>
<path d="M395.603 185.884H353.458C352.934 185.884 352.431 185.676 352.06 185.305C351.69 184.934 351.481 184.431 351.481 183.906C351.481 183.381 351.69 182.878 352.06 182.507C352.431 182.136 352.934 181.927 353.458 181.927H395.603C396.127 181.927 396.63 182.136 397.001 182.507C397.372 182.878 397.58 183.381 397.58 183.906C397.58 184.431 397.372 184.934 397.001 185.305C396.63 185.676 396.127 185.884 395.603 185.884Z" fill="#1A1718"/>
<path d="M395.603 171.827H353.458C352.934 171.827 352.431 171.618 352.06 171.247C351.69 170.876 351.481 170.373 351.481 169.848C351.481 169.323 351.69 168.82 352.06 168.449C352.431 168.078 352.934 167.87 353.458 167.87H395.603C396.127 167.87 396.63 168.078 397.001 168.449C397.372 168.82 397.58 169.323 397.58 169.848C397.58 170.373 397.372 170.876 397.001 171.247C396.63 171.618 396.127 171.827 395.603 171.827Z" fill="#1A1718"/>
<path d="M414.333 171.827H409.649C409.125 171.827 408.622 171.618 408.251 171.247C407.88 170.876 407.672 170.373 407.672 169.848V157.769H341.387V169.848C341.387 170.373 341.178 170.876 340.808 171.247C340.437 171.618 339.934 171.827 339.409 171.827H334.727C327.755 171.83 320.999 169.408 315.615 164.976C310.231 160.543 306.554 154.376 305.214 147.529C303.874 140.682 304.954 133.582 308.27 127.445C311.585 121.307 316.929 116.514 323.387 113.886C323.385 113.796 323.385 113.707 323.385 113.617C323.391 108.123 325.574 102.856 329.457 98.9707C333.339 95.0858 338.602 92.9006 344.093 92.8944C347.886 92.8827 351.607 93.9274 354.841 95.9116C358.346 88.1946 364.387 81.9113 371.957 78.1073C379.528 74.3033 388.171 73.2079 396.45 75.0034C404.729 76.7989 412.144 81.3769 417.462 87.9758C422.779 94.5748 425.678 102.797 425.676 111.274C425.676 112.109 425.645 112.959 425.582 113.844C432.057 116.454 437.422 121.238 440.757 127.375C444.092 133.512 445.189 140.619 443.859 147.477C442.529 154.335 438.855 160.516 433.468 164.958C428.081 169.401 421.316 171.83 414.336 171.827H414.333ZM411.628 167.869H414.333C420.513 167.872 426.493 165.681 431.21 161.687C435.927 157.692 439.075 152.153 440.094 146.054C441.113 139.955 439.938 133.692 436.776 128.379C433.614 123.066 428.672 119.048 422.828 117.039C422.404 116.892 422.042 116.606 421.801 116.226C421.561 115.847 421.457 115.397 421.506 114.951C422.038 110.312 421.582 105.613 420.169 101.164C418.755 96.7138 416.416 92.614 413.306 89.1337C410.195 85.6534 406.384 82.8716 402.122 80.9712C397.86 79.0708 393.244 78.095 388.578 78.1078C381.835 78.112 375.254 80.1756 369.714 84.0228C364.174 87.8699 359.939 93.3175 357.576 99.6374C357.466 99.9294 357.289 100.191 357.059 100.402C356.829 100.612 356.553 100.766 356.252 100.849C355.952 100.932 355.636 100.943 355.331 100.881C355.025 100.819 354.739 100.686 354.495 100.492C351.544 98.1263 347.873 96.8416 344.092 96.8515C339.65 96.8566 335.392 98.6247 332.251 101.768C329.11 104.911 327.343 109.172 327.338 113.617C327.338 114.114 327.376 114.622 327.412 115.054C327.449 115.491 327.34 115.928 327.102 116.296C326.864 116.665 326.51 116.943 326.096 117.089C320.275 119.125 315.362 123.159 312.229 128.474C309.095 133.789 307.943 140.043 308.977 146.127C310.011 152.211 313.164 157.732 317.877 161.712C322.591 165.691 328.56 167.873 334.727 167.869H337.432V155.79C337.432 155.266 337.641 154.762 338.011 154.391C338.382 154.02 338.885 153.812 339.409 153.812H409.649C410.174 153.812 410.677 154.02 411.047 154.391C411.418 154.762 411.627 155.266 411.627 155.79L411.628 167.869Z" fill="#1A1718"/>
<path d="M151.211 110.656C148.505 110.653 145.911 109.576 143.997 107.661C142.084 105.746 141.008 103.15 141.005 100.442C141.005 99.9173 141.213 99.4141 141.584 99.043C141.954 98.672 142.457 98.4635 142.982 98.4635C143.506 98.4635 144.009 98.672 144.38 99.043C144.751 99.4141 144.959 99.9173 144.959 100.442C144.959 101.68 145.326 102.889 146.013 103.918C146.7 104.947 147.676 105.749 148.819 106.222C149.961 106.696 151.218 106.82 152.431 106.579C153.644 106.337 154.758 105.741 155.633 104.866C156.507 103.991 157.102 102.876 157.344 101.663C157.585 100.449 157.461 99.191 156.988 98.0478C156.515 96.9045 155.713 95.9273 154.685 95.2398C153.657 94.5524 152.448 94.1854 151.211 94.1854C149.193 94.1855 147.219 93.5865 145.54 92.4641C143.862 91.3418 142.554 89.7467 141.781 87.8803C141.008 86.0139 140.806 83.9602 141.2 81.9788C141.594 79.9974 142.566 78.1774 143.993 76.7489C145.421 75.3204 147.24 74.3476 149.22 73.9535C151.2 73.5594 153.252 73.7616 155.117 74.5346C156.982 75.3077 158.576 76.6169 159.698 78.2966C160.82 79.9763 161.418 81.9511 161.418 83.9713C161.418 84.496 161.21 84.9993 160.839 85.3703C160.468 85.7414 159.965 85.9498 159.441 85.9498C158.917 85.9498 158.414 85.7414 158.043 85.3703C157.672 84.9993 157.464 84.496 157.464 83.9713C157.464 82.7338 157.097 81.5242 156.41 80.4953C155.723 79.4665 154.746 78.6646 153.604 78.1911C152.461 77.7176 151.204 77.5937 149.991 77.8352C148.779 78.0766 147.665 78.6725 146.79 79.5476C145.916 80.4226 145.32 81.5375 145.079 82.7511C144.838 83.9648 144.962 85.2228 145.435 86.366C145.908 87.5093 146.71 88.4864 147.738 89.1739C148.766 89.8613 149.975 90.2283 151.211 90.2283C153.918 90.2283 156.515 91.3044 158.429 93.2199C160.343 95.1353 161.418 97.7332 161.418 100.442C161.418 103.151 160.343 105.749 158.429 107.664C156.515 109.58 153.918 110.656 151.211 110.656Z" fill="#1A1718"/>
<path d="M151.211 77.7147C150.687 77.7147 150.184 77.5062 149.813 77.1352C149.442 76.7641 149.234 76.2608 149.234 75.7361V69.7146C149.234 69.1899 149.442 68.6866 149.813 68.3156C150.184 67.9445 150.687 67.7361 151.211 67.7361C151.736 67.7361 152.239 67.9445 152.609 68.3156C152.98 68.6866 153.189 69.1899 153.189 69.7146V75.7361C153.189 76.2608 152.98 76.7641 152.609 77.1352C152.239 77.5062 151.736 77.7147 151.211 77.7147Z" fill="#1A1718"/>
<path d="M151.211 116.678C150.687 116.678 150.184 116.469 149.813 116.098C149.442 115.727 149.234 115.224 149.234 114.699V108.677C149.234 108.152 149.442 107.649 149.813 107.278C150.184 106.907 150.687 106.699 151.211 106.699C151.736 106.699 152.239 106.907 152.609 107.278C152.98 107.649 153.189 108.152 153.189 108.677V114.699C153.189 115.224 152.98 115.727 152.609 116.098C152.239 116.469 151.736 116.678 151.211 116.678Z" fill="#1A1718"/>
<path d="M180.01 110.656C177.304 110.653 174.71 109.576 172.796 107.661C170.883 105.746 169.807 103.15 169.804 100.442C169.804 99.9172 170.012 99.414 170.383 99.0429C170.753 98.6719 171.256 98.4634 171.781 98.4634C172.305 98.4634 172.808 98.6719 173.179 99.0429C173.55 99.414 173.758 99.9172 173.758 100.442C173.758 101.68 174.125 102.889 174.812 103.918C175.499 104.947 176.475 105.749 177.618 106.223C178.76 106.697 180.017 106.82 181.23 106.579C182.443 106.338 183.558 105.742 184.432 104.867C185.307 103.992 185.902 102.877 186.143 101.663C186.385 100.449 186.261 99.191 185.787 98.0477C185.314 96.9044 184.513 95.9272 183.484 95.2397C182.456 94.5522 181.247 94.1853 180.01 94.1853C177.992 94.1853 176.018 93.5862 174.34 92.4639C172.661 91.3416 171.353 89.7464 170.58 87.88C169.808 86.0136 169.606 83.9599 169.999 81.9786C170.393 79.9972 171.365 78.1772 172.793 76.7487C174.22 75.3203 176.039 74.3474 178.019 73.9533C179.999 73.5592 182.051 73.7615 183.917 74.5346C185.782 75.3077 187.376 76.6169 188.497 78.2966C189.619 79.9763 190.218 81.951 190.218 83.9712C190.218 84.4959 190.009 84.9992 189.638 85.3702C189.268 85.7413 188.765 85.9497 188.24 85.9497C187.716 85.9497 187.213 85.7413 186.842 85.3702C186.471 84.9992 186.263 84.4959 186.263 83.9712C186.263 82.7337 185.896 81.524 185.209 80.495C184.522 79.4661 183.546 78.664 182.403 78.1905C181.261 77.7169 180.003 77.593 178.791 77.8344C177.578 78.0758 176.464 78.6718 175.589 79.5469C174.715 80.4219 174.119 81.5368 173.878 82.7505C173.637 83.9642 173.76 85.2223 174.234 86.3656C174.707 87.5089 175.508 88.4862 176.537 89.1737C177.565 89.8612 178.774 90.2282 180.01 90.2282C182.717 90.2282 185.314 91.3043 187.228 93.2198C189.142 95.1352 190.217 97.7331 190.217 100.442C190.217 103.151 189.142 105.749 187.228 107.664C185.314 109.58 182.717 110.656 180.01 110.656Z" fill="#1A1718"/>
<path d="M180.01 77.7145C179.486 77.7145 178.983 77.5061 178.612 77.135C178.242 76.764 178.033 76.2607 178.033 75.736V69.7145C178.033 69.1898 178.242 68.6865 178.612 68.3155C178.983 67.9444 179.486 67.736 180.01 67.736C180.535 67.736 181.038 67.9444 181.409 68.3155C181.779 68.6865 181.988 69.1898 181.988 69.7145V75.736C181.988 76.2607 181.779 76.764 181.409 77.135C181.038 77.5061 180.535 77.7145 180.01 77.7145Z" fill="#1A1718"/>
<path d="M180.01 116.678C179.486 116.678 178.983 116.469 178.612 116.098C178.242 115.727 178.033 115.224 178.033 114.699V108.677C178.033 108.152 178.242 107.649 178.612 107.278C178.983 106.907 179.486 106.699 180.01 106.699C180.535 106.699 181.038 106.907 181.409 107.278C181.779 107.649 181.988 108.152 181.988 108.677V114.699C181.988 115.224 181.779 115.727 181.409 116.098C181.038 116.469 180.535 116.678 180.01 116.678Z" fill="#1A1718"/>
<path d="M208.81 110.656C206.103 110.653 203.509 109.576 201.595 107.661C199.682 105.746 198.605 103.15 198.602 100.442C198.602 99.9173 198.811 99.4141 199.181 99.043C199.552 98.672 200.055 98.4635 200.58 98.4635C201.104 98.4635 201.607 98.672 201.978 99.043C202.348 99.4141 202.557 99.9173 202.557 100.442C202.557 101.68 202.923 102.889 203.61 103.918C204.297 104.947 205.274 105.749 206.417 106.223C207.559 106.697 208.816 106.821 210.029 106.579C211.242 106.338 212.356 105.742 213.231 104.867C214.105 103.992 214.701 102.877 214.942 101.663C215.183 100.449 215.06 99.1913 214.586 98.048C214.113 96.9047 213.312 95.9275 212.283 95.2399C211.255 94.5524 210.046 94.1854 208.81 94.1854C206.791 94.1855 204.817 93.5865 203.139 92.4641C201.46 91.3418 200.152 89.7467 199.379 87.8803C198.607 86.0139 198.404 83.9602 198.798 81.9788C199.192 79.9974 200.164 78.1774 201.592 76.7489C203.019 75.3204 204.838 74.3476 206.818 73.9535C208.798 73.5594 210.85 73.7616 212.715 74.5346C214.58 75.3077 216.175 76.6169 217.296 78.2966C218.418 79.9763 219.016 81.9511 219.016 83.9713C219.016 84.496 218.808 84.9993 218.437 85.3703C218.066 85.7414 217.564 85.9498 217.039 85.9498C216.515 85.9498 216.012 85.7414 215.641 85.3703C215.27 84.9993 215.062 84.496 215.062 83.9713C215.062 82.7337 214.695 81.524 214.008 80.495C213.321 79.4661 212.345 78.6641 211.202 78.1906C210.059 77.717 208.802 77.5931 207.589 77.8346C206.376 78.076 205.262 78.6719 204.388 79.547C203.513 80.4221 202.918 81.5371 202.677 82.7508C202.435 83.9646 202.559 85.2226 203.033 86.3659C203.506 87.5093 204.307 88.4865 205.336 89.1739C206.364 89.8614 207.573 90.2284 208.81 90.2283C211.517 90.2283 214.113 91.3044 216.027 93.2199C217.941 95.1353 219.016 97.7332 219.016 100.442C219.016 103.151 217.941 105.749 216.027 107.664C214.113 109.58 211.517 110.656 208.81 110.656Z" fill="#1A1718"/>
<path d="M208.809 77.7147C208.285 77.7147 207.782 77.5062 207.411 77.1352C207.041 76.7641 206.832 76.2608 206.832 75.7361V69.7146C206.832 69.1899 207.041 68.6866 207.411 68.3156C207.782 67.9445 208.285 67.7361 208.809 67.7361C209.334 67.7361 209.837 67.9445 210.208 68.3156C210.578 68.6866 210.787 69.1899 210.787 69.7146V75.7361C210.787 76.2608 210.578 76.764 210.207 77.1351C209.837 77.5061 209.334 77.7146 208.809 77.7147Z" fill="#1A1718"/>
<path d="M208.809 116.678C208.285 116.678 207.782 116.469 207.411 116.098C207.041 115.727 206.832 115.224 206.832 114.699V108.677C206.832 108.152 207.041 107.649 207.411 107.278C207.782 106.907 208.285 106.699 208.809 106.699C209.334 106.699 209.837 106.907 210.208 107.278C210.578 107.649 210.787 108.152 210.787 108.677V114.699C210.787 115.224 210.578 115.727 210.208 116.098C209.837 116.469 209.334 116.678 208.809 116.678Z" fill="#1A1718"/>
<path d="M424.546 254.591C424.436 254.591 424.33 254.605 424.22 254.607C424.243 254.319 424.264 254.031 424.264 253.737C424.264 251.477 423.541 249.276 422.2 247.458C420.858 245.64 418.97 244.299 416.812 243.633C414.654 242.967 412.34 243.011 410.208 243.758C408.077 244.504 406.24 245.915 404.969 247.782C403.683 247.393 402.307 247.421 401.038 247.861C399.769 248.301 398.671 249.132 397.902 250.234C397.133 251.336 396.732 252.653 396.756 253.997C396.78 255.341 397.228 256.643 398.036 257.717C395.086 258.109 392.395 259.608 390.509 261.911C388.623 264.215 387.683 267.149 387.879 270.121C388.075 273.092 389.393 275.877 391.565 277.912C393.738 279.947 396.602 281.08 399.578 281.08H424.477C424.501 281.08 424.523 281.083 424.546 281.083C424.569 281.083 424.592 281.08 424.615 281.08H425.514V281.034C428.93 280.784 432.116 279.217 434.402 276.664C436.687 274.111 437.894 270.77 437.769 267.345C437.643 263.92 436.195 260.677 433.729 258.298C431.263 255.919 427.971 254.59 424.546 254.59V254.591Z" fill="#23346B"/>
<path d="M421.383 279.897C421.34 279.897 421.298 279.897 421.256 279.893H396.414C393.168 279.895 390.027 278.743 387.55 276.643C385.074 274.543 383.423 271.631 382.891 268.427C382.36 265.222 382.983 261.933 384.649 259.145C386.315 256.358 388.916 254.252 391.989 253.204C391.574 251.87 391.501 250.454 391.775 249.084C392.049 247.715 392.661 246.435 393.556 245.364C394.452 244.292 395.601 243.462 396.9 242.95C398.198 242.437 399.604 242.258 400.99 242.43C402.597 240.543 404.726 239.175 407.109 238.497C409.492 237.82 412.023 237.864 414.381 238.624C416.739 239.384 418.819 240.826 420.36 242.768C421.9 244.71 422.831 247.065 423.035 249.536C426.769 249.944 430.219 251.72 432.723 254.522C435.226 257.324 436.604 260.954 436.593 264.712C436.581 268.471 435.18 272.092 432.659 274.878C430.138 277.665 426.676 279.419 422.94 279.804C422.749 279.863 422.55 279.893 422.35 279.893H421.507C421.466 279.896 421.425 279.897 421.383 279.897ZM399.969 246.324C398.802 246.325 397.684 246.79 396.859 247.615C396.034 248.44 395.57 249.559 395.569 250.727C395.568 251.679 395.88 252.605 396.455 253.363C396.662 253.639 396.793 253.965 396.836 254.308C396.878 254.651 396.83 254.999 396.696 255.318C396.563 255.636 396.348 255.914 396.073 256.124C395.799 256.334 395.474 256.468 395.132 256.513C392.678 256.837 390.439 258.083 388.87 259.999C387.301 261.914 386.519 264.355 386.682 266.826C386.845 269.298 387.942 271.614 389.75 273.306C391.557 274.998 393.941 275.938 396.416 275.936H421.315C421.339 275.936 421.361 275.936 421.383 275.936H421.44H421.93C422.022 275.916 422.115 275.903 422.209 275.896C425.114 275.683 427.823 274.351 429.767 272.181C431.711 270.01 432.739 267.17 432.633 264.257C432.528 261.344 431.298 258.586 429.202 256.562C427.106 254.538 424.307 253.405 421.394 253.404C421.377 253.404 421.359 253.406 421.342 253.407C421.263 253.413 421.184 253.417 421.105 253.419C420.828 253.427 420.552 253.376 420.296 253.27C420.04 253.163 419.809 253.003 419.62 252.8C419.43 252.598 419.284 252.359 419.192 252.097C419.1 251.835 419.064 251.557 419.087 251.28C419.11 250.995 419.124 250.779 419.124 250.571C419.124 248.734 418.536 246.945 417.446 245.467C416.356 243.989 414.821 242.899 413.066 242.358C411.312 241.817 409.43 241.852 407.698 242.46C405.965 243.067 404.473 244.214 403.439 245.732C403.202 246.079 402.861 246.342 402.465 246.482C402.069 246.622 401.639 246.632 401.237 246.511C400.826 246.387 400.398 246.324 399.969 246.324Z" fill="#1A1718"/>
<path d="M161.642 188.367L58.5357 249.242C50.4176 254.035 47.7195 264.506 52.5092 272.63L91.7764 339.228C96.5661 347.352 107.03 350.052 115.148 345.259L218.254 284.384C226.372 279.591 229.07 269.12 224.28 260.996L185.013 194.398C180.223 186.274 169.76 183.574 161.642 188.367Z" fill="#B4B8D7"/>
<path d="M103.467 352.81C101.635 352.813 99.8341 352.337 98.2425 351.429C96.6509 350.521 95.3238 349.213 94.3926 347.634L46.4683 266.284C45.0555 263.88 44.6535 261.013 45.3505 258.312C46.0474 255.612 47.7863 253.298 50.1857 251.879L168.053 182.347C170.456 180.934 173.32 180.532 176.019 181.229C178.717 181.927 181.029 183.667 182.447 186.067L230.371 267.418C231.787 269.821 232.19 272.689 231.493 275.39C230.796 278.091 229.055 280.405 226.654 281.822L108.787 351.353C107.176 352.307 105.339 352.81 103.467 352.81ZM173.381 184.848C172.213 184.848 171.066 185.161 170.061 185.756L52.1939 255.287C50.6969 256.173 49.6121 257.616 49.1773 259.301C48.7425 260.986 48.9934 262.775 49.8748 264.275L97.7991 345.625C98.684 347.123 100.126 348.209 101.81 348.644C103.494 349.079 105.281 348.828 106.78 347.946L224.647 278.414C226.145 277.53 227.232 276.087 227.667 274.402C228.102 272.716 227.85 270.927 226.967 269.427L179.042 188.075C178.461 187.091 177.633 186.275 176.64 185.709C175.647 185.143 174.524 184.846 173.381 184.848Z" fill="white"/>
<path d="M171.132 191.533L68.0264 252.408C59.9084 257.201 57.2102 267.672 62 275.796L101.267 342.394C106.057 350.518 116.521 353.218 124.639 348.425L227.745 287.55C235.863 282.757 238.561 272.286 233.771 264.162L194.504 197.563C189.714 189.44 179.25 186.74 171.132 191.533Z" fill="#23346B"/>
<path d="M83.1553 295.268C82.7214 295.269 82.2995 295.126 81.9546 294.863C81.6096 294.599 81.3609 294.23 81.2465 293.811C81.1321 293.392 81.1585 292.948 81.3216 292.545C81.4848 292.143 81.7756 291.806 82.1493 291.585L102.721 279.45C103.173 279.186 103.71 279.112 104.216 279.244C104.722 279.376 105.155 279.703 105.421 280.154C105.686 280.604 105.763 281.142 105.633 281.649C105.503 282.156 105.179 282.591 104.729 282.858L84.1575 294.994C83.854 295.174 83.5078 295.268 83.1553 295.268Z" fill="#1A1718"/>
<path d="M112.87 277.739C112.436 277.739 112.014 277.597 111.669 277.334C111.324 277.07 111.075 276.701 110.961 276.282C110.847 275.863 110.873 275.418 111.036 275.016C111.199 274.614 111.49 274.276 111.864 274.056L132.436 261.92C132.887 261.654 133.426 261.578 133.934 261.709C134.442 261.84 134.877 262.168 135.143 262.62C135.409 263.072 135.485 263.611 135.354 264.12C135.223 264.628 134.896 265.063 134.444 265.329L113.872 277.465C113.569 277.645 113.222 277.739 112.87 277.739Z" fill="#1A1718"/>
<path d="M89.8928 306.705C89.459 306.705 89.0371 306.563 88.6922 306.299C88.3473 306.036 88.0984 305.666 87.984 305.248C87.8697 304.829 87.896 304.384 88.0592 303.982C88.2223 303.58 88.5132 303.242 88.8868 303.022L91.1728 301.673C91.3966 301.538 91.6449 301.449 91.9034 301.411C92.1619 301.372 92.4254 301.385 92.6787 301.449C92.9321 301.514 93.1702 301.627 93.3793 301.784C93.5885 301.941 93.7645 302.138 93.8972 302.363C94.0299 302.588 94.1167 302.838 94.1525 303.097C94.1882 303.356 94.1724 303.619 94.1057 303.872C94.0391 304.125 93.9231 304.362 93.7643 304.57C93.6055 304.777 93.4071 304.952 93.1807 305.082L90.895 306.431C90.5915 306.61 90.2454 306.705 89.8928 306.705Z" fill="#1A1718"/>
<path d="M101.322 299.963C100.888 299.963 100.466 299.821 100.121 299.557C99.776 299.294 99.5271 298.924 99.4127 298.506C99.2983 298.087 99.3248 297.642 99.4879 297.24C99.6511 296.838 99.9418 296.5 100.316 296.28L104.887 293.583C105.111 293.451 105.358 293.364 105.615 293.328C105.873 293.292 106.134 293.307 106.386 293.372C106.637 293.437 106.873 293.551 107.081 293.707C107.288 293.863 107.463 294.059 107.594 294.283C107.726 294.507 107.813 294.754 107.849 295.011C107.885 295.269 107.87 295.531 107.805 295.782C107.741 296.034 107.627 296.27 107.47 296.478C107.314 296.685 107.119 296.86 106.895 296.992L102.324 299.688C102.02 299.868 101.674 299.963 101.322 299.963Z" fill="#1A1718"/>
<path d="M115.036 291.873C114.602 291.873 114.18 291.73 113.836 291.467C113.491 291.204 113.242 290.834 113.127 290.416C113.013 289.997 113.039 289.552 113.202 289.15C113.366 288.747 113.656 288.41 114.03 288.189L116.316 286.841C116.767 286.577 117.305 286.503 117.811 286.635C118.317 286.767 118.75 287.094 119.016 287.545C119.281 287.996 119.357 288.533 119.228 289.04C119.098 289.547 118.773 289.982 118.324 290.25L116.038 291.598C115.735 291.778 115.389 291.873 115.036 291.873Z" fill="#1A1718"/>
<path d="M126.465 285.13C126.031 285.131 125.609 284.988 125.264 284.725C124.919 284.462 124.67 284.092 124.556 283.673C124.442 283.254 124.468 282.81 124.631 282.407C124.794 282.005 125.085 281.668 125.459 281.447L130.03 278.751C130.482 278.487 131.02 278.413 131.526 278.545C132.032 278.677 132.465 279.004 132.73 279.455C132.996 279.905 133.072 280.443 132.942 280.95C132.813 281.457 132.488 281.892 132.039 282.159L127.467 284.856C127.164 285.036 126.817 285.13 126.465 285.13Z" fill="#1A1718"/>
<path d="M140.177 277.041C140.113 277.041 140.048 277.036 139.983 277.03C139.918 277.023 139.855 277.014 139.793 277.001C139.666 276.976 139.542 276.938 139.423 276.889C139.304 276.839 139.189 276.778 139.081 276.707C139.027 276.67 138.975 276.632 138.923 276.591C138.871 276.55 138.825 276.506 138.779 276.46C138.733 276.414 138.69 276.366 138.649 276.316C138.608 276.266 138.569 276.214 138.534 276.159C138.462 276.052 138.401 275.938 138.352 275.819C138.303 275.699 138.265 275.575 138.238 275.448C138.225 275.385 138.216 275.32 138.21 275.255C138.203 275.192 138.2 275.125 138.2 275.061C138.2 274.996 138.203 274.931 138.21 274.866C138.216 274.801 138.225 274.738 138.238 274.676C138.265 274.549 138.303 274.425 138.352 274.306C138.401 274.186 138.462 274.072 138.534 273.965C138.569 273.91 138.607 273.857 138.649 273.807C138.69 273.756 138.733 273.708 138.779 273.663C138.825 273.617 138.874 273.573 138.923 273.532C138.972 273.49 139.026 273.452 139.081 273.416C139.189 273.344 139.303 273.283 139.423 273.234C139.542 273.185 139.666 273.147 139.793 273.122C139.856 273.109 139.92 273.099 139.983 273.093C140.112 273.079 140.243 273.079 140.372 273.093C140.435 273.099 140.5 273.109 140.562 273.122C140.688 273.147 140.812 273.185 140.932 273.234C141.052 273.283 141.166 273.344 141.274 273.416C141.327 273.452 141.38 273.49 141.43 273.532C141.481 273.573 141.528 273.617 141.574 273.663C141.667 273.754 141.749 273.855 141.819 273.964C141.891 274.071 141.952 274.185 142.001 274.304C142.05 274.424 142.088 274.548 142.113 274.674C142.127 274.737 142.137 274.8 142.143 274.864C142.15 274.929 142.153 274.996 142.153 275.059C142.153 275.122 142.15 275.19 142.143 275.254C142.137 275.319 142.127 275.383 142.113 275.447C142.088 275.574 142.05 275.697 142.001 275.817C141.952 275.936 141.891 276.05 141.819 276.157C141.784 276.212 141.745 276.264 141.704 276.314C141.663 276.364 141.62 276.412 141.574 276.458C141.203 276.829 140.701 277.038 140.177 277.041Z" fill="#1A1718"/>
<path d="M183.078 191.125L50.574 269.358L61.3573 287.646L193.861 209.414L183.078 191.125Z" fill="#B4B8D7"/>
<path d="M61.3562 289.635C61.0118 289.635 60.6733 289.546 60.3742 289.375C60.0751 289.204 59.8258 288.958 59.651 288.661L48.871 270.363C48.6048 269.911 48.5289 269.372 48.66 268.864C48.7911 268.355 49.1184 267.92 49.5701 267.654L182.144 189.447C182.368 189.315 182.615 189.228 182.872 189.192C183.129 189.156 183.391 189.171 183.643 189.235C183.894 189.3 184.13 189.414 184.337 189.571C184.545 189.727 184.719 189.923 184.851 190.146L195.631 208.444C195.763 208.668 195.85 208.916 195.886 209.173C195.922 209.43 195.907 209.692 195.842 209.944C195.778 210.195 195.664 210.432 195.507 210.639C195.351 210.847 195.156 211.021 194.932 211.153L62.3584 289.361C62.055 289.54 61.7088 289.635 61.3562 289.635ZM53.2816 270.057L62.0534 284.947L191.22 208.749L182.449 193.859L53.2816 270.057Z" fill="#1A1718"/>
<path d="M177.039 290.823C185.831 290.823 192.959 283.69 192.959 274.892C192.959 266.093 185.831 258.961 177.039 258.961C168.246 258.961 161.118 266.093 161.118 274.892C161.118 283.69 168.246 290.823 177.039 290.823Z" fill="#B4B8D7"/>
<path d="M177.069 292.796C173.933 292.801 170.851 291.982 168.131 290.42C165.412 288.858 163.15 286.608 161.573 283.896C159.996 281.184 159.158 278.105 159.144 274.967C159.131 271.829 159.941 268.743 161.495 266.017C163.048 263.292 165.29 261.022 167.996 259.436C170.701 257.85 173.776 257.004 176.912 256.981C180.047 256.959 183.134 257.761 185.862 259.308C188.59 260.855 190.864 263.092 192.456 265.796C194.059 268.513 194.915 271.606 194.938 274.761C194.961 277.916 194.151 281.021 192.589 283.762C191.027 286.503 188.769 288.782 186.043 290.369C183.318 291.955 180.222 292.793 177.069 292.796ZM177.015 260.932C173.939 260.936 170.951 261.956 168.514 263.835C166.078 265.714 164.331 268.346 163.544 271.321C162.757 274.297 162.975 277.449 164.163 280.288C165.352 283.127 167.444 285.493 170.116 287.018C172.787 288.544 175.888 289.143 178.935 288.723C181.982 288.303 184.804 286.887 186.964 284.696C189.124 282.504 190.499 279.66 190.876 276.605C191.254 273.55 190.612 270.457 189.05 267.805C188.124 266.223 186.894 264.841 185.43 263.739C183.967 262.636 182.3 261.835 180.525 261.381C179.378 261.084 178.199 260.934 177.015 260.933V260.932Z" fill="#1A1718"/>
<path d="M193.039 281.384C201.832 281.384 208.959 274.251 208.959 265.453C208.959 256.654 201.832 249.522 193.039 249.522C184.247 249.522 177.119 256.654 177.119 265.453C177.119 274.251 184.247 281.384 193.039 281.384Z" fill="#B4B8D7"/>
<path d="M193.069 283.359C189.933 283.364 186.851 282.544 184.132 280.982C181.412 279.42 179.151 277.17 177.573 274.458C175.996 271.746 175.159 268.667 175.145 265.53C175.131 262.392 175.942 259.305 177.495 256.58C179.048 253.854 181.29 251.584 183.996 249.999C186.702 248.413 189.776 247.566 192.912 247.544C196.048 247.521 199.134 248.324 201.862 249.87C204.591 251.417 206.865 253.655 208.457 256.358C210.059 259.075 210.915 262.168 210.938 265.323C210.962 268.478 210.151 271.584 208.589 274.324C207.027 277.065 204.769 279.344 202.044 280.931C199.318 282.517 196.222 283.355 193.069 283.359ZM193.015 251.495C189.94 251.498 186.951 252.519 184.515 254.397C182.079 256.276 180.331 258.908 179.544 261.884C178.757 264.859 178.975 268.011 180.164 270.85C181.352 273.689 183.445 276.055 186.116 277.581C188.788 279.106 191.888 279.705 194.935 279.285C197.982 278.865 200.805 277.449 202.965 275.258C205.124 273.066 206.5 270.222 206.877 267.167C207.254 264.113 206.612 261.019 205.05 258.367C204.124 256.786 202.894 255.404 201.431 254.301C199.968 253.198 198.3 252.397 196.526 251.943C195.379 251.646 194.2 251.495 193.015 251.495Z" fill="#1A1718"/>
<path d="M103.467 352.81C101.635 352.813 99.8341 352.337 98.2425 351.429C96.6509 350.521 95.3238 349.213 94.3926 347.634L46.4683 266.284C45.0555 263.88 44.6535 261.013 45.3505 258.312C46.0474 255.612 47.7863 253.298 50.1857 251.879L168.053 182.347C170.456 180.934 173.32 180.532 176.019 181.229C178.717 181.927 181.029 183.667 182.447 186.067L230.371 267.418C231.787 269.821 232.19 272.689 231.493 275.39C230.796 278.091 229.055 280.405 226.654 281.822L108.787 351.353C107.176 352.307 105.339 352.81 103.467 352.81ZM173.381 184.848C172.213 184.848 171.066 185.161 170.061 185.756L52.1939 255.287C50.6969 256.173 49.6121 257.616 49.1773 259.301C48.7425 260.986 48.9934 262.775 49.8748 264.275L97.7991 345.625C98.684 347.123 100.126 348.209 101.81 348.644C103.494 349.079 105.281 348.828 106.78 347.946L224.647 278.414C226.145 277.53 227.232 276.087 227.667 274.402C228.102 272.716 227.85 270.927 226.967 269.427L179.042 188.075C178.461 187.091 177.633 186.275 176.64 185.709C175.647 185.143 174.524 184.846 173.381 184.848Z" fill="#1A1718"/>
<path d="M136.774 232.084C136.383 232.085 136 231.969 135.675 231.751C135.349 231.534 135.096 231.225 134.946 230.864C134.796 230.502 134.756 230.104 134.832 229.72C134.908 229.336 135.097 228.983 135.373 228.706C135.649 228.429 136.001 228.241 136.385 228.164C136.769 228.087 137.166 228.126 137.528 228.275C137.889 228.425 138.199 228.678 138.416 229.003C138.634 229.328 138.751 229.711 138.751 230.102V230.106C138.751 230.631 138.543 231.134 138.172 231.505C137.801 231.876 137.298 232.084 136.774 232.084ZM136.774 224.167C136.249 224.167 135.747 223.958 135.376 223.587C135.005 223.216 134.797 222.713 134.797 222.188V182.617C134.797 182.092 135.005 181.589 135.376 181.218C135.747 180.847 136.249 180.638 136.774 180.638C137.298 180.638 137.801 180.847 138.172 181.218C138.543 181.589 138.751 182.092 138.751 182.617V222.188C138.751 222.713 138.543 223.216 138.172 223.587C137.801 223.958 137.298 224.167 136.774 224.167ZM136.774 176.681C136.249 176.681 135.747 176.473 135.376 176.102C135.005 175.731 134.797 175.228 134.797 174.703V158.874C134.797 158.35 135.005 157.846 135.376 157.475C135.747 157.104 136.249 156.896 136.774 156.896C137.298 156.896 137.801 157.104 138.172 157.475C138.543 157.846 138.751 158.35 138.751 158.874V174.703C138.751 175.228 138.543 175.731 138.172 176.102C137.801 176.473 137.298 176.681 136.774 176.681ZM136.774 152.939C136.249 152.939 135.747 152.73 135.376 152.359C135.005 151.988 134.797 151.485 134.797 150.96V130.927C134.797 130.403 135.005 129.899 135.376 129.528C135.747 129.157 136.249 128.949 136.774 128.949H156.299C156.824 128.949 157.326 129.157 157.697 129.528C158.068 129.899 158.276 130.403 158.276 130.927C158.276 131.452 158.068 131.955 157.697 132.326C157.326 132.697 156.824 132.906 156.299 132.906H138.751V150.96C138.751 151.485 138.543 151.988 138.172 152.359C137.801 152.73 137.298 152.939 136.774 152.939ZM322.385 132.906H306.567C306.043 132.906 305.54 132.697 305.169 132.326C304.798 131.955 304.59 131.452 304.59 130.927C304.59 130.403 304.798 129.899 305.169 129.528C305.54 129.157 306.043 128.949 306.567 128.949H322.385C322.909 128.949 323.412 129.157 323.783 129.528C324.154 129.899 324.362 130.403 324.362 130.927C324.362 131.452 324.154 131.955 323.783 132.326C323.412 132.697 322.909 132.906 322.385 132.906ZM298.658 132.906H259.114C258.59 132.906 258.087 132.697 257.716 132.326C257.345 131.955 257.137 131.452 257.137 130.927C257.137 130.403 257.345 129.899 257.716 129.528C258.087 129.157 258.59 128.949 259.114 128.949H298.658C299.183 128.949 299.685 129.157 300.056 129.528C300.427 129.899 300.635 130.403 300.635 130.927C300.635 131.452 300.427 131.955 300.056 132.326C299.685 132.697 299.183 132.906 298.658 132.906ZM251.205 132.906H235.387C234.863 132.906 234.36 132.697 233.989 132.326C233.619 131.955 233.41 131.452 233.41 130.927C233.41 130.403 233.619 129.899 233.989 129.528C234.36 129.157 234.863 128.949 235.387 128.949H251.205C251.73 128.949 252.232 129.157 252.603 129.528C252.974 129.899 253.182 130.403 253.182 130.927C253.182 131.452 252.974 131.955 252.603 132.326C252.232 132.697 251.73 132.906 251.205 132.906ZM227.479 132.906H187.934C187.41 132.906 186.907 132.697 186.536 132.326C186.166 131.955 185.957 131.452 185.957 130.927C185.957 130.403 186.166 129.899 186.536 129.528C186.907 129.157 187.41 128.949 187.934 128.949H227.479C228.003 128.949 228.506 129.157 228.877 129.528C229.248 129.899 229.456 130.403 229.456 130.927C229.456 131.452 229.248 131.955 228.877 132.326C228.506 132.697 228.003 132.906 227.479 132.906ZM180.026 132.906H164.208C163.684 132.906 163.181 132.697 162.81 132.326C162.439 131.955 162.231 131.452 162.231 130.927C162.231 130.403 162.439 129.899 162.81 129.528C163.181 129.157 163.684 128.949 164.208 128.949H180.026C180.55 128.949 181.053 129.157 181.424 129.528C181.795 129.899 182.003 130.403 182.003 130.927C182.003 131.452 181.795 131.955 181.424 132.326C181.053 132.697 180.55 132.906 180.026 132.906Z" fill="#1A1718"/>
</svg>
