<svg width="18" height="11" viewBox="0 0 18 11" fill="none" xmlns="http://www.w3.org/2000/svg">
<path d="M17.7441 1.32C17.3774 0.513336 16.6441 0 15.7641 0H2.12406C1.24406 0 0.437391 0.513336 0.144058 1.32C-0.149276 2.12667 -0.00260836 3.08 0.657392 3.66667L7.55072 10.4133C7.99072 10.78 8.50406 11 9.01739 11C9.53072 11 10.1174 10.78 10.5574 10.4133L17.3041 3.66667C17.9641 3.08 18.1107 2.12667 17.7441 1.32ZM16.2774 2.64L9.53072 9.38667C9.23739 9.68 8.87073 9.68 8.57739 9.38667L1.68406 2.64C1.39072 2.34667 1.46406 1.98 1.53739 1.90667C1.61073 1.83334 1.75739 1.46667 2.19739 1.46667H15.8374C16.2774 1.46667 16.4241 1.76 16.4974 1.90667C16.4974 1.98 16.5707 2.34667 16.2774 2.64Z" fill="#B4B8D7"/>
</svg>
