<svg width="18" height="18" viewBox="0 0 18 18" fill="none" xmlns="http://www.w3.org/2000/svg">
<g clip-path="url(#clip0)">
<path d="M14.9232 5.88164C14.6841 5.88164 14.4902 6.07555 14.4902 6.31464V17.1337H0.865992V3.50955H11.4594C11.6985 3.50955 11.8924 3.31564 11.8924 3.07655C11.8924 2.83746 11.6985 2.64355 11.4594 2.64355H0.432996C0.19391 2.64355 0 2.83746 0 3.07655V17.5667C0 17.8058 0.19391 17.9997 0.432996 17.9997H14.9232C15.1623 17.9997 15.3562 17.8058 15.3562 17.5667V6.31464C15.3562 6.07555 15.1623 5.88164 14.9232 5.88164Z" fill="#4EB200"/>
<path d="M17.873 0.126868C17.7039 -0.0422171 17.4297 -0.0423614 17.2607 0.126868L5.80317 11.5843L2.96033 8.74146C2.79125 8.57231 2.51702 8.57231 2.348 8.74146C2.17892 8.91055 2.17892 9.18471 2.348 9.35372L5.49704 12.5028C5.58154 12.5873 5.69239 12.6296 5.80324 12.6296C5.91408 12.6296 6.02486 12.5873 6.10944 12.5028L17.873 0.739196C18.0421 0.570111 18.0421 0.295953 17.873 0.126868Z" fill="#4EB200"/>
</g>
<defs>
<clipPath id="clip0">
<rect width="18" height="18" fill="white"/>
</clipPath>
</defs>
</svg>
