<svg width="20" height="20" viewBox="0 0 20 20" fill="none" xmlns="http://www.w3.org/2000/svg">
<path d="M11.4018 9.99988L18.8524 2.54934C19.209 2.19268 19.209 1.61445 18.8524 1.25779L18.742 1.14736C18.3853 0.790723 17.8071 0.790723 17.4504 1.14736L9.99988 8.59792L2.54934 1.14738C2.1927 0.790743 1.61445 0.790743 1.25781 1.14738L1.14738 1.25781C0.790739 1.61447 0.790739 2.1927 1.14738 2.54936L8.59792 9.99988L1.14738 17.4504C0.790739 17.8071 0.790739 18.3853 1.14738 18.742L1.25779 18.8524C1.61443 19.209 2.19268 19.209 2.54934 18.8524L9.99988 11.4018L17.4504 18.8524C17.8071 19.209 18.3853 19.209 18.742 18.8524L18.8524 18.742C19.209 18.3854 19.209 17.8071 18.8524 17.4504L11.4018 9.99988Z" fill="#2A3865"/>
</svg>
