<svg width="39" height="39" viewBox="0 0 39 39" fill="none" xmlns="http://www.w3.org/2000/svg">
<path fill-rule="evenodd" clip-rule="evenodd" d="M19.5 37.9167C29.6712 37.9167 37.9167 29.6712 37.9167 19.5C37.9167 9.32876 29.6712 1.08333 19.5 1.08333C9.32876 1.08333 1.08333 9.32876 1.08333 19.5C1.08333 29.6712 9.32876 37.9167 19.5 37.9167ZM19.5 39C30.2696 39 39 30.2696 39 19.5C39 8.73045 30.2696 0 19.5 0C8.73045 0 0 8.73045 0 19.5C0 30.2696 8.73045 39 19.5 39Z" fill="#455482"/>
<path d="M10.1912 9.38965C8.95618 9.38965 7.94434 10.4015 7.94434 11.6366V27.6458C7.94434 28.7253 8.83091 29.6119 9.91039 29.6119H29.0092C30.0886 29.6119 30.9752 28.7253 30.9752 27.6458V14.7261C30.9752 13.6466 30.0886 12.76 29.0092 12.76H27.6048V9.95138C27.6048 9.65726 27.3372 9.38968 27.0431 9.38965H10.1912ZM10.1912 10.5131H26.4814V12.76H10.1912C9.55914 12.76 9.06779 12.2687 9.06779 11.6366C9.06779 11.0044 9.55914 10.5131 10.1912 10.5131ZM9.06779 13.5763C9.3989 13.7691 9.78276 13.8835 10.1912 13.8835C16.5175 13.8779 23.5718 13.8835 29.0092 13.8835C29.4857 13.8835 29.8517 14.2496 29.8517 14.7261V18.0964H21.7067C20.9384 18.0964 20.3024 18.7325 20.3024 19.5008V22.8711C20.3024 23.6394 20.9384 24.2755 21.7067 24.2755H29.8517V27.6458C29.8517 28.1223 29.4857 28.4884 29.0092 28.4884H9.91039C9.43387 28.4884 9.06779 28.1223 9.06779 27.6458V13.5763ZM21.7067 19.2199H29.8517V23.152H21.7067C21.5414 23.152 21.4258 23.0364 21.4258 22.8711V19.5008C21.4258 19.3354 21.5414 19.2196 21.7067 19.2199ZM24.5153 20.0625C23.8949 20.0625 23.3919 20.5655 23.3919 21.1859C23.3919 21.8064 23.8949 22.3094 24.5153 22.3094C25.1358 22.3094 25.6388 21.8064 25.6388 21.1859C25.6388 20.5655 25.1358 20.0625 24.5153 20.0625Z" fill="#455482"/>
</svg>
