<svg width="18" height="19" viewBox="0 0 18 19" fill="none" xmlns="http://www.w3.org/2000/svg">
<path d="M15.537 5.77932C15.537 5.6154 15.6789 5.48242 15.8538 5.48242C16.0286 5.48242 16.1706 5.616 16.1706 5.77932V17.1686C16.1706 17.6715 15.9501 18.1292 15.5964 18.4613C15.2427 18.7928 14.7536 18.9994 14.2171 18.9994H4.39727C3.86074 18.9994 3.37107 18.7928 3.01799 18.4613C2.66426 18.1298 2.44385 17.6721 2.44385 17.1686V5.77932C2.44385 5.6154 2.58574 5.48242 2.7606 5.48242C2.93549 5.48242 3.07738 5.616 3.07738 5.77932V17.1686C3.07738 17.5076 3.22654 17.8175 3.46543 18.0413C3.70432 18.2652 4.03496 18.4056 4.3966 18.4056H14.2165C14.5782 18.4056 14.9081 18.2652 15.147 18.0413C15.3866 17.8168 15.5357 17.5076 15.5357 17.1692V5.77932H15.537Z" fill="#FF2828"/>
<path d="M6.94508 16.4041C6.94508 16.568 6.80319 16.7009 6.6283 16.7009C6.45341 16.7009 6.31152 16.568 6.31152 16.4041V5.85842C6.31152 5.69451 6.45341 5.56152 6.6283 5.56152C6.80319 5.56152 6.94508 5.69451 6.94508 5.85842V16.4041Z" fill="#FF2828"/>
<path d="M9.62426 16.4041C9.62426 16.568 9.48239 16.7009 9.3075 16.7009C9.13261 16.7009 8.99072 16.568 8.99072 16.4041V5.85842C8.99072 5.69451 9.13261 5.56152 9.3075 5.56152C9.48239 5.56152 9.62426 5.69451 9.62426 5.85842V16.4041Z" fill="#FF2828"/>
<path d="M12.3039 16.4041C12.3039 16.568 12.1621 16.7009 11.9872 16.7009C11.8123 16.7009 11.6704 16.568 11.6704 16.4041V5.85842C11.6704 5.69451 11.8123 5.56152 11.9872 5.56152C12.1621 5.56152 12.3039 5.69451 12.3039 5.85842V16.4041Z" fill="#FF2828"/>
<path d="M6.75951 1.8308C6.75951 1.99471 6.61762 2.12769 6.44273 2.12769C6.26787 2.12769 6.12598 1.99471 6.12598 1.8308C6.12598 1.3267 6.34573 0.86902 6.69948 0.537501C7.0532 0.205956 7.54156 0 8.0794 0H10.5344C11.0716 0 11.5599 0.206581 11.9136 0.5381C12.2673 0.869619 12.4878 1.32855 12.4878 1.8308C12.4878 1.99471 12.3459 2.12769 12.171 2.12769C11.9961 2.12769 11.8543 1.99471 11.8543 1.8308C11.8543 1.49186 11.7051 1.18198 11.4662 0.958083C11.2273 0.734163 10.8967 0.593761 10.535 0.593761H8.08009C7.71779 0.593761 7.38781 0.733539 7.14826 0.957458C6.90865 1.18198 6.75951 1.49124 6.75951 1.8308Z" fill="#FF2828"/>
<path d="M1.9427 2.68555H16.6725C16.9833 2.68555 17.2671 2.80491 17.473 2.9979L17.4743 2.99915C17.6803 3.19212 17.8076 3.45809 17.8076 3.74941V4.51637C17.8076 4.68026 17.6657 4.81324 17.4908 4.81324H17.4823H1.1244C0.949506 4.81324 0.807617 4.68026 0.807617 4.51637V4.50895V3.74941C0.807617 3.45871 0.934979 3.19212 1.1409 2.99915L1.14223 2.9979C1.34812 2.80494 1.63254 2.68555 1.9427 2.68555ZM16.6726 3.27933H1.9427C1.80479 3.27933 1.67873 3.33192 1.58898 3.41664L1.58765 3.41789C1.49723 3.50198 1.44115 3.61952 1.44115 3.74941V4.21948H17.1734V3.74941C17.1734 3.62015 17.1173 3.502 17.0269 3.41789L17.0256 3.41664C16.9359 3.33192 16.8105 3.27933 16.6726 3.27933Z" fill="#FF2828"/>
</svg>
