<svg width="27" height="27" viewBox="0 0 27 27" fill="none" xmlns="http://www.w3.org/2000/svg">
<path d="M9.9062 12.662C13.0266 12.662 15.5564 10.1323 15.5564 7.01151C15.5564 3.89108 13.0266 1.36133 9.9062 1.36133C6.78561 1.36133 4.25586 3.89108 4.25586 7.01151C4.25887 10.1309 6.78678 12.6588 9.9062 12.662ZM9.9062 2.43046C12.4361 2.43046 14.4874 4.48159 14.4874 7.01151C14.4874 9.54176 12.4361 11.5929 9.9062 11.5929C7.37612 11.5929 5.32499 9.54176 5.32499 7.01151C5.328 4.48276 7.37729 2.4333 9.9062 2.43046Z" fill="#C243FE"/>
<path d="M23.4306 13.7569C23.3306 13.6568 23.1951 13.6006 23.0538 13.6006C22.9123 13.6006 22.7767 13.6568 22.6769 13.7569L21.2816 15.152L17.8391 18.5947C16.2315 15.7196 13.195 13.9387 9.90099 13.9387C4.89215 13.9387 0.813477 18.0174 0.813477 23.0261C0.814313 23.3209 1.05312 23.5599 1.34796 23.5607H14.6105L14.172 24.8703C14.1066 25.0616 14.1563 25.2735 14.3004 25.4155C14.4014 25.5153 14.5377 25.571 14.6797 25.5707C14.7379 25.5697 14.7954 25.5607 14.851 25.5439L18.6515 24.277C18.657 24.277 18.657 24.277 18.6622 24.2716C18.6793 24.2669 18.6955 24.2596 18.7104 24.2502C18.7144 24.2497 18.7182 24.2479 18.7211 24.2449C18.7371 24.2343 18.7586 24.2235 18.7746 24.2128C18.7907 24.2022 18.8067 24.186 18.8226 24.1755C18.828 24.17 18.8335 24.17 18.8335 24.1648C18.8387 24.1594 18.8494 24.1541 18.8547 24.1432L24.5745 18.4397L25.9699 17.0446C26.0699 16.9444 26.1261 16.809 26.1261 16.6677C26.1261 16.5262 26.0699 16.3906 25.9699 16.2907L23.4306 13.7569ZM18.4911 23.01L16.7111 21.23L21.6557 16.2854L23.4359 18.0654L18.4911 23.01ZM1.90384 22.4861C2.18195 18.3114 5.66193 15.0023 9.90634 15.0023C12.9209 15.0067 15.6799 16.6969 17.0533 19.3805L15.5779 20.8557L15.5565 20.8773C15.5512 20.8825 15.5512 20.888 15.546 20.888C15.5196 20.9216 15.4965 20.9572 15.4764 20.9948C15.4757 20.9989 15.4739 21.0025 15.4709 21.0054C15.4657 21.0216 15.4548 21.0377 15.4497 21.0537C15.4497 21.0589 15.4497 21.0589 15.4443 21.0644L14.9685 22.4916H1.90384V22.4861ZM16.1927 22.2188L17.5023 23.5284L15.5351 24.186L16.1927 22.2188ZM24.1948 17.3063L22.415 15.5263L23.051 14.8903L24.8312 16.6703L24.1948 17.3063Z" fill="#C243FE"/>
</svg>
