<svg width="17" height="17" viewBox="0 0 17 17" fill="none" xmlns="http://www.w3.org/2000/svg">
<path d="M16.7527 1.0546L15.9454 0.246792C15.6157 -0.0821694 15.0795 -0.0824528 14.7498 0.247075L13.8644 1.1328H0V17H15.8622V3.1417L15.9486 3.05529L16.7527 2.25087C17.0824 1.92106 17.0824 1.38441 16.7527 1.0546ZM5.67837 10.4128L6.59045 11.3252L5.3362 11.6675L5.67837 10.4128ZM14.7467 3.45593L13.5452 2.25399L13.9457 1.85335L15.1475 3.05529L14.7467 3.45593ZM14.3462 3.85658L7.13571 11.0694L5.93415 9.86741L13.1446 2.65464L14.3462 3.85658ZM15.2957 3.70839V16.4333H0.566506V1.69949H13.2979L5.33337 9.66709L5.28012 9.72036L4.67934 11.9245L4.33207 12.2719C4.22132 12.3826 4.22132 12.5617 4.33207 12.6725C4.38731 12.7278 4.45982 12.7555 4.53233 12.7555C4.60484 12.7555 4.67736 12.7278 4.73259 12.6725L5.07986 12.3251L7.28328 11.7236L14.7473 4.25751L14.8739 4.13085L15.2957 3.70839ZM16.3522 1.85023L15.548 2.65464L14.3462 1.45242L15.1504 0.648005C15.2591 0.539201 15.4362 0.539485 15.5449 0.648005L16.3522 1.45553C16.461 1.56405 16.461 1.74142 16.3522 1.85023Z" fill="#4EB200"/>
</svg>
