<svg width="79" height="56" viewBox="0 0 79 56" fill="none" xmlns="http://www.w3.org/2000/svg">
<path d="M78.5109 35.226C78.5095 36.8807 78.1471 38.5151 77.4492 40.0153C76.7512 41.5155 75.7344 42.8455 74.4697 43.9124C73.4768 45.888 71.9557 47.5497 70.0753 48.7129C68.1948 49.876 66.0288 50.4951 63.8177 50.5012H55.5486V49.5019C55.5486 49.5019 55.5486 49.5019 55.5486 49.425H63.8177C66.6966 49.425 69.4577 48.2814 71.4934 46.2456C73.5292 44.2099 74.6728 41.4488 74.6728 38.5699C74.6728 35.6909 73.5292 32.9298 71.4934 30.8941C69.4577 28.8584 66.6966 27.7147 63.8177 27.7147H61.0394C60.9512 27.7146 60.8644 27.6934 60.7862 27.6527C60.708 27.612 60.6407 27.5531 60.5901 27.4809C60.5395 27.4088 60.507 27.3255 60.4953 27.2381C60.4837 27.1507 60.4933 27.0618 60.5232 26.9789C61.3517 24.8872 61.7601 22.6527 61.725 20.4031C61.69 18.1535 61.2122 15.9328 60.3189 13.8679C59.4256 11.8029 58.1343 9.93416 56.5189 8.36825C54.9034 6.80233 52.9952 5.56995 50.9035 4.74146C48.8117 3.91297 46.5772 3.5046 44.3276 3.53966C42.078 3.57472 39.8574 4.05253 37.7924 4.94581C35.7275 5.83909 33.8587 7.13034 32.2928 8.74584C30.7269 10.3613 29.4945 12.2694 28.666 14.3612C28.6122 14.4915 28.5103 14.596 28.3816 14.6533C28.2528 14.7105 28.1069 14.716 27.9742 14.6687C26.3083 14.0823 24.526 13.9039 22.7769 14.1484C21.0278 14.393 19.3628 15.0533 17.9216 16.074C16.4803 17.0947 15.3047 18.4461 14.4935 20.0149C13.6822 21.5836 13.2589 23.324 13.259 25.0901C13.2583 25.7343 13.3134 26.3773 13.4237 27.0119C13.4382 27.0909 13.4352 27.1721 13.4148 27.2498C13.3945 27.3275 13.3573 27.3997 13.306 27.4615C13.2547 27.5233 13.1905 27.5731 13.1179 27.6073C13.0452 27.6416 12.966 27.6595 12.8857 27.6598H11.9632C9.08424 27.6598 6.32318 28.8034 4.28744 30.8392C2.2517 32.8749 1.10804 35.636 1.10804 38.515C1.10804 41.3939 2.2517 44.155 4.28744 46.1907C6.32318 48.2265 9.08424 49.3701 11.9632 49.3701H22.725V50.4683H11.9632C9.27245 50.4742 6.65862 49.5709 4.54571 47.9048C2.43281 46.2387 0.944792 43.9076 0.323046 41.2897C-0.2987 38.6717 -0.0176993 35.9205 1.12046 33.4823C2.25862 31.0441 4.18718 29.062 6.59328 27.8574C8.06571 26.12 10.0236 24.8619 12.2158 24.2445C12.3649 22.1593 13.0498 20.1479 14.2041 18.4049C15.3584 16.662 16.943 15.2464 18.8047 14.2953C19.8854 13.0175 21.2306 11.9895 22.7473 11.2823C24.2641 10.5751 25.9163 10.2056 27.5898 10.1992C28.2719 10.2072 28.9519 10.2771 29.6214 10.4079C31.0824 8.36226 32.952 6.64215 35.1121 5.35642C37.9393 2.44664 41.6817 0.598415 45.7107 0.122184C49.7397 -0.354047 53.8098 0.570733 57.2375 2.74119C60.6651 4.91164 63.2414 8.19554 64.5337 12.0413C65.8259 15.887 65.7553 20.0603 64.3338 23.8602H67.1121C70.1269 23.8688 73.0162 25.068 75.1511 27.1967C77.2859 29.3254 78.4935 32.2113 78.5109 35.226ZM39.0655 47.064C39.6945 47.064 40.2979 46.8141 40.7427 46.3693C41.1875 45.9245 41.4375 45.3211 41.4375 44.692V32.2171L44.3475 35.0942C44.5586 35.3532 44.822 35.5646 45.1205 35.7147C45.4189 35.8648 45.7457 35.9502 46.0794 35.9652C46.4132 35.9802 46.7463 35.9246 47.0571 35.8019C47.3678 35.6793 47.6491 35.4923 47.8826 35.2534C48.1161 35.0145 48.2965 34.7289 48.412 34.4154C48.5274 34.1019 48.5754 33.7676 48.5526 33.4343C48.5299 33.101 48.4371 32.7762 48.2801 32.4813C48.1232 32.1864 47.9057 31.928 47.642 31.7229L40.8335 25.0023C40.6056 24.777 40.3343 24.6004 40.036 24.4834C39.7377 24.3663 39.4187 24.3112 39.0984 24.3214H38.9776H38.6482L38.4395 24.3763L38.2089 24.4532L37.9893 24.563L37.8026 24.6618C37.7099 24.725 37.6218 24.7947 37.539 24.8705L37.4402 24.9474L30.6317 31.668C30.2635 32.1197 30.0745 32.6912 30.1007 33.2733C30.1269 33.8555 30.3665 34.4077 30.7738 34.8245C31.1811 35.2413 31.7276 35.4935 32.309 35.5332C32.8904 35.5728 33.4661 35.397 33.9261 35.0393L36.6935 32.3049V44.692C36.6935 45.0035 36.7548 45.312 36.874 45.5998C36.9932 45.8875 37.1679 46.149 37.3882 46.3693C37.6085 46.5896 37.8699 46.7643 38.1577 46.8835C38.4455 47.0027 38.754 47.064 39.0655 47.064ZM48.784 46.0208C48.4726 46.0222 48.1644 46.085 47.8772 46.2055C47.5899 46.3261 47.3292 46.502 47.11 46.7233C46.8908 46.9446 46.7173 47.2069 46.5994 47.4952C46.4815 47.7835 46.4216 48.0923 46.423 48.4038V51.248H31.8616V48.3269C31.8207 47.7271 31.5536 47.1652 31.1143 46.7549C30.675 46.3445 30.0963 46.1162 29.4951 46.1162C28.8939 46.1162 28.3152 46.3445 27.8759 46.7549C27.4366 47.1652 27.1695 47.7271 27.1286 48.3269V53.598C27.1286 54.2271 27.3785 54.8304 27.8233 55.2753C28.2682 55.7201 28.8715 55.97 29.5006 55.97H48.795C49.4241 55.97 50.0275 55.7201 50.4723 55.2753C50.9171 54.8304 51.167 54.2271 51.167 53.598V48.4038C51.1685 48.0914 51.1082 47.7817 50.9896 47.4927C50.8711 47.2036 50.6966 46.9408 50.4762 46.7194C50.2558 46.498 49.9938 46.3223 49.7053 46.2024C49.4168 46.0825 49.1074 46.0208 48.795 46.0208H48.784Z" fill="#2B3C70"/>
</svg>
