<svg width="163" height="34" viewBox="0 0 163 34" fill="none" xmlns="http://www.w3.org/2000/svg">
<path d="M129.561 18.0476C129.561 16.6026 129.795 15.3356 130.261 14.2466C130.75 13.1577 131.391 12.2571 132.184 11.5451C132.977 10.8121 133.886 10.2676 134.911 9.91163C135.937 9.53467 136.986 9.34619 138.058 9.34619C140.576 9.34619 142.534 10.0478 143.933 11.4509C145.355 12.854 146.066 14.9482 146.066 17.7335C146.066 17.9429 146.054 18.1838 146.031 18.456C146.031 18.7073 146.019 18.9377 145.996 19.1471H133.932H129.561V18.0476Z" fill="#F7941E"/>
<path d="M32.4591 18.3781C32.4591 17.061 32.6771 15.8347 33.113 14.6993C33.549 13.5411 34.1666 12.5419 34.9659 11.7017C35.7893 10.8615 36.7823 10.2029 37.9449 9.72602C39.1074 9.24913 40.4153 9.01068 41.8685 9.01068C43.6607 9.01068 45.3561 9.31726 46.9546 9.9304L46.0101 13.3027C45.5014 13.0983 44.9202 12.928 44.2662 12.7917C43.6365 12.6555 42.9584 12.5873 42.2318 12.5873C40.5122 12.5873 39.2043 13.0983 38.3082 14.1202C37.412 15.1194 36.964 16.5387 36.964 18.3781C36.964 20.1494 37.3878 21.5574 38.2355 22.602C39.0832 23.6239 40.5122 24.1349 42.5224 24.1349C43.2732 24.1349 44.0119 24.0667 44.7385 23.9305C45.4651 23.7942 46.0948 23.6239 46.6277 23.4195L47.2453 26.8259C46.7609 27.053 46.0222 27.2574 45.0292 27.439C44.0604 27.6207 43.0553 27.7115 42.0138 27.7115C40.3911 27.7115 38.9742 27.4844 37.7632 27.0303C36.5765 26.5534 35.5835 25.9062 34.7842 25.0886C34.0092 24.2484 33.4279 23.2606 33.0404 22.1251C32.6529 20.967 32.4591 19.718 32.4591 18.3781Z" fill="white"/>
<path d="M63.255 18.4463C63.255 16.6068 62.8069 15.1762 61.9108 14.1543C61.0389 13.1324 59.622 12.6214 57.6602 12.6214C57.2485 12.6214 56.8126 12.6441 56.3524 12.6895C55.9164 12.7122 55.4805 12.7804 55.0445 12.8939V23.0789C55.432 23.3287 55.9406 23.5671 56.5704 23.7942C57.2243 23.9986 57.9146 24.1008 58.6411 24.1008C60.2396 24.1008 61.4022 23.5899 62.1288 22.5679C62.8796 21.546 63.255 20.1722 63.255 18.4463ZM67.7599 18.3781C67.7599 19.7407 67.5661 20.9897 67.1786 22.1251C66.8153 23.2606 66.2825 24.2371 65.5801 25.0546C64.8777 25.8721 63.9937 26.508 62.928 26.9621C61.8866 27.4163 60.6998 27.6434 59.3677 27.6434C58.4716 27.6434 57.6481 27.5412 56.8973 27.3368C56.1465 27.1325 55.5289 26.9054 55.0445 26.6556V33.5705H50.6486V10.0326C51.5448 9.8055 52.6468 9.58976 53.9546 9.38538C55.2625 9.181 56.643 9.07881 58.0962 9.07881C59.5978 9.07881 60.942 9.29455 62.1288 9.72602C63.3156 10.1575 64.3207 10.782 65.1441 11.5995C65.9918 12.3943 66.6337 13.3708 67.0696 14.529C67.5298 15.6644 67.7599 16.9475 67.7599 18.3781Z" fill="white"/>
<path d="M89.4742 18.3441C89.4742 19.752 89.2562 21.0351 88.8203 22.1932C88.3843 23.3514 87.7667 24.3392 86.9675 25.1568C86.1682 25.9743 85.1994 26.6101 84.0611 27.0643C82.947 27.5185 81.7118 27.7456 80.3555 27.7456C78.9992 27.7456 77.764 27.5185 76.6499 27.0643C75.5357 26.6101 74.5791 25.9743 73.7798 25.1568C72.9806 24.3392 72.3509 23.3514 71.8907 22.1932C71.4547 21.0351 71.2367 19.752 71.2367 18.3441C71.2367 16.9361 71.4547 15.6644 71.8907 14.529C72.3509 13.3708 72.9806 12.383 73.7798 11.5654C74.6033 10.7479 75.5721 10.1234 76.6862 9.69195C77.8003 9.23777 79.0234 9.01068 80.3555 9.01068C81.6876 9.01068 82.9107 9.23777 84.0248 9.69195C85.1631 10.1234 86.1319 10.7479 86.9312 11.5654C87.7304 12.383 88.348 13.3708 88.784 14.529C89.2441 15.6644 89.4742 16.9361 89.4742 18.3441ZM84.9694 18.3441C84.9694 16.5728 84.5576 15.1762 83.7341 14.1543C82.9349 13.1097 81.8087 12.5873 80.3555 12.5873C78.9023 12.5873 77.764 13.1097 76.9405 14.1543C76.1412 15.1762 75.7416 16.5728 75.7416 18.3441C75.7416 20.1381 76.1412 21.5574 76.9405 22.602C77.764 23.6466 78.9023 24.1689 80.3555 24.1689C81.8087 24.1689 82.9349 23.6466 83.7341 22.602C84.5576 21.5574 84.9694 20.1381 84.9694 18.3441Z" fill="white"/>
<path d="M92.9494 18.3781C92.9494 17.061 93.1674 15.8347 93.6033 14.6993C94.0393 13.5411 94.6569 12.5419 95.4561 11.7017C96.2796 10.8615 97.2726 10.2029 98.4352 9.72602C99.5977 9.24913 100.906 9.01068 102.359 9.01068C104.151 9.01068 105.846 9.31726 107.445 9.9304L106.5 13.3027C105.992 13.0983 105.41 12.928 104.757 12.7917C104.127 12.6555 103.449 12.5873 102.722 12.5873C101.002 12.5873 99.6946 13.0983 98.7985 14.1202C97.9023 15.1194 97.4543 16.5387 97.4543 18.3781C97.4543 20.1494 97.8781 21.5574 98.7258 22.602C99.5735 23.6239 101.002 24.1349 103.013 24.1349C103.764 24.1349 104.502 24.0667 105.229 23.9305C105.955 23.7942 106.585 23.6239 107.118 23.4195L107.736 26.8259C107.251 27.053 106.512 27.2574 105.519 27.439C104.551 27.6207 103.546 27.7115 102.504 27.7115C100.881 27.7115 99.4645 27.4844 98.2535 27.0303C97.0667 26.5534 96.0737 25.9062 95.2745 25.0886C94.4995 24.2484 93.9182 23.2606 93.5307 22.1251C93.1431 20.967 92.9494 19.718 92.9494 18.3781Z" fill="white"/>
<path d="M115.535 16.4025C116.092 15.8574 116.685 15.2784 117.315 14.6652C117.945 14.0294 118.562 13.4049 119.168 12.7917C119.773 12.1559 120.342 11.5541 120.875 10.9864C121.432 10.3959 121.905 9.88498 122.292 9.45351H127.487C126.276 10.7252 124.993 12.0423 123.636 13.4049C122.304 14.7674 120.96 16.0959 119.604 17.3903C120.33 17.958 121.093 18.6506 121.892 19.4682C122.692 20.263 123.467 21.1146 124.218 22.0229C124.968 22.9313 125.671 23.8397 126.325 24.748C126.979 25.6564 127.524 26.4966 127.96 27.2687H122.873C122.437 26.5647 121.929 25.8267 121.348 25.0546C120.79 24.2825 120.185 23.5331 119.531 22.8064C118.877 22.0797 118.211 21.3984 117.533 20.7626C116.855 20.104 116.189 19.5477 115.535 19.0935V27.2687H111.139V1.51672L115.535 0.835449V16.4025Z" fill="white"/>
<path d="M129.244 18.4463C129.244 16.8794 129.486 15.5055 129.97 14.3246C130.479 13.1437 131.145 12.1672 131.968 11.3951C132.792 10.6003 133.736 10.0099 134.802 9.62383C135.868 9.21507 136.958 9.01068 138.072 9.01068C140.687 9.01068 142.722 9.77144 144.175 11.2929C145.652 12.8144 146.391 15.0853 146.391 18.1056C146.391 18.3327 146.379 18.5939 146.355 18.8891C146.355 19.1616 146.343 19.4114 146.318 19.6385H133.785C133.906 21.0692 134.439 22.1819 135.383 22.9767C136.352 23.7488 137.745 24.1349 139.561 24.1349C140.627 24.1349 141.596 24.044 142.468 23.8624C143.364 23.6807 144.066 23.4877 144.575 23.2833L145.156 26.6556C144.914 26.7691 144.575 26.894 144.139 27.0303C143.727 27.1438 143.243 27.246 142.686 27.3368C142.153 27.4504 141.571 27.5412 140.942 27.6093C140.312 27.6775 139.67 27.7115 139.016 27.7115C137.345 27.7115 135.892 27.4844 134.657 27.0303C133.421 26.5534 132.404 25.9062 131.605 25.0886C130.806 24.2484 130.212 23.2719 129.825 22.1592C129.437 21.0237 129.244 19.7861 129.244 18.4463ZM141.995 16.6068C141.995 16.0391 141.91 15.5055 141.741 15.0059C141.571 14.4835 141.317 14.0407 140.978 13.6774C140.663 13.2913 140.264 12.9961 139.779 12.7917C139.319 12.5646 138.762 12.4511 138.108 12.4511C137.43 12.4511 136.836 12.576 136.328 12.8258C135.819 13.0529 135.383 13.3595 135.02 13.7455C134.681 14.1316 134.414 14.5744 134.221 15.074C134.027 15.5736 133.894 16.0845 133.821 16.6068H141.995Z" fill="white"/>
<path d="M150.834 4.75275L155.23 4.07148V9.45351H161.987V12.8939H155.23V20.1494C155.23 21.5801 155.472 22.602 155.956 23.2152C156.441 23.8283 157.264 24.1349 158.427 24.1349C159.226 24.1349 159.928 24.0554 160.534 23.8964C161.164 23.7375 161.66 23.5899 162.023 23.4536L162.75 26.7237C162.241 26.9281 161.575 27.1325 160.752 27.3368C159.928 27.5639 158.96 27.6775 157.845 27.6775C156.489 27.6775 155.351 27.5072 154.431 27.1665C153.534 26.8259 152.82 26.3376 152.287 25.7018C151.754 25.0432 151.379 24.2598 151.161 23.3514C150.943 22.4203 150.834 21.3644 150.834 20.1835V4.75275Z" fill="white"/>
<path d="M32.4591 18.3772C32.4591 17.0601 32.6771 15.8338 33.113 14.6984C33.549 13.5402 34.1666 12.541 34.9659 11.7008C35.7893 10.8605 36.7823 10.202 37.9449 9.7251C39.1074 9.24821 40.4153 9.00977 41.8685 9.00977C43.6608 9.00977 45.3561 9.31634 46.9546 9.92948L46.0101 13.3018C45.5015 13.0974 44.9202 12.9271 44.2662 12.7908C43.6365 12.6546 42.9584 12.5864 42.2318 12.5864C40.5122 12.5864 39.2043 13.0974 38.3082 14.1193C37.412 15.1185 36.964 16.5378 36.964 18.3772C36.964 20.1485 37.3878 21.5565 38.2355 22.6011C39.0832 23.623 40.5122 24.1339 42.5224 24.1339C43.2732 24.1339 44.0119 24.0658 44.7385 23.9296C45.4651 23.7933 46.0948 23.623 46.6277 23.4186L47.2453 26.825C46.7609 27.0521 46.0222 27.2564 45.0292 27.4381C44.0604 27.6198 43.0553 27.7106 42.0138 27.7106C40.3911 27.7106 38.9742 27.4835 37.7632 27.0293C36.5765 26.5525 35.5835 25.9052 34.7842 25.0877C34.0092 24.2475 33.4279 23.2597 33.0404 22.1242C32.6529 20.966 32.4591 19.7171 32.4591 18.3772Z" fill="#F7941E"/>
<path fill-rule="evenodd" clip-rule="evenodd" d="M30.2585 18.3478C30.2585 16.792 30.516 15.3436 31.0309 14.0024C31.5458 12.6344 32.2753 11.4542 33.2194 10.4617C34.1921 9.46921 35.365 8.69133 36.7382 8.12804C37.3527 7.87596 38.0016 7.68029 38.6848 7.54102L30.2588 8.05685V8.09008L25.6023 8.07893C25.091 8.07881 24.6005 8.23944 24.2378 8.52574C23.8752 8.81204 23.6699 9.20074 23.6669 9.6069V9.62874C23.6668 10.035 23.869 10.4247 24.2295 10.7128C24.5899 11.0009 25.0792 11.1641 25.5905 11.1665L27.5218 11.1711C28.033 11.1735 28.5223 11.3365 28.8827 11.6246C29.2432 11.9127 29.4454 12.3023 29.4454 12.1927V12.2145C29.4422 12.6207 29.2369 13.0094 28.8743 13.2958C28.5117 13.5821 28.0212 13.7429 27.5099 13.7429L20.8138 13.7268C20.3025 13.7267 19.812 13.8874 19.4493 14.1737C19.0867 14.46 18.8814 14.8488 18.8784 15.2549V15.2781C18.8784 15.6843 19.0808 16.0739 19.4412 16.362C19.8017 16.65 20.291 16.813 20.8022 16.8155L23.2342 16.8211C23.7455 16.8236 24.2349 16.9867 24.5954 17.2748C24.9558 17.5629 25.1581 17.9527 25.158 18.3589V18.3808C25.1552 18.787 24.9501 19.1758 24.5874 19.4621C24.2248 19.7485 23.7342 19.9092 23.2229 19.909L15.9122 19.8915C15.401 19.8915 14.9105 20.0522 14.5479 20.3385C14.1854 20.6249 13.9801 21.0136 13.9771 21.4197V21.4415C13.977 21.8478 14.1793 22.2375 14.5398 22.5256C14.9003 22.8137 15.3896 22.9768 15.901 22.9791L17.7657 22.9837C18.2769 22.9861 18.7662 23.1492 19.1267 23.4372C19.4871 23.7253 19.6895 24.1149 19.6896 24.5211V24.5314C19.6866 24.9376 19.4813 25.3263 19.1187 25.6126C18.756 25.899 18.2654 26.0597 17.7541 26.0595L9.87683 26.0405C9.36554 26.0406 8.87503 26.2013 8.51242 26.4877C8.1498 26.774 7.94452 27.1627 7.9414 27.5689V27.5919C7.94132 27.9981 8.14358 28.3878 8.50401 28.6759C8.86443 28.964 9.35373 29.127 9.865 29.1295L30.2588 29.1784V29.2062H39.0825C38.1571 29.0732 37.3042 28.8603 36.5236 28.5676C35.1218 28.0043 33.9489 27.2398 33.0048 26.2741C32.0894 25.2817 31.4028 24.1149 30.9451 22.7737C30.4873 21.4057 30.2585 19.9304 30.2585 18.3478ZM14.4722 9.60777C14.4721 10.014 14.6743 10.4038 15.0347 10.6919C15.3952 10.98 15.8845 11.1431 16.3958 11.1456L19.576 11.153C20.0872 11.1531 20.5777 10.9924 20.9403 10.706C21.3029 10.4197 21.5081 10.031 21.5111 9.62482V9.60187C21.5113 9.19566 21.309 8.80592 20.9486 8.51782C20.5881 8.22971 20.0988 8.06665 19.5875 8.06428L16.4074 8.05685C15.8961 8.05679 15.4056 8.21748 15.043 8.50382C14.6804 8.79017 14.4752 9.17888 14.4722 9.58504V9.60777ZM5.08456 16.3292C4.7241 16.0411 4.52174 15.6515 4.52167 15.2453V15.2222C4.52473 14.816 4.72999 14.4273 5.09263 14.1409C5.45527 13.8546 5.94582 13.6939 6.4571 13.694L14.8843 13.7143C15.3955 13.7167 15.8848 13.8798 16.2453 14.1678C16.6057 14.4558 16.8081 14.8455 16.8082 15.2517V15.2748C16.805 15.681 16.5997 16.0697 16.2371 16.356C15.8745 16.6423 15.384 16.803 14.8727 16.803L6.44555 16.7827C5.93429 16.7803 5.44501 16.6172 5.08456 16.3292ZM8.07388 22.5138C7.7134 22.2257 7.5111 21.836 7.51119 21.4297L7.51091 21.4068C7.51396 21.0006 7.71924 20.6119 8.08188 20.3256C8.44453 20.0393 8.93508 19.8787 9.44634 19.8788L10.0586 19.8802C10.5699 19.8826 11.0591 20.0457 11.4195 20.3337C11.7799 20.6218 11.9822 21.0114 11.9822 21.4175V21.4405C11.9793 21.8467 11.774 22.2354 11.4114 22.5218C11.0487 22.8082 10.5582 22.9689 10.0468 22.9689L9.43505 22.9673C8.92373 22.965 8.43437 22.8019 8.07388 22.5138ZM2.61189e-10 27.577C-8.39383e-06 27.9832 0.20231 28.3729 0.562775 28.661C0.923247 28.9491 1.41257 29.1122 1.92387 29.1146L4.77419 29.1214C5.28572 29.1214 5.77648 28.9607 6.13924 28.6741C6.50199 28.3876 6.70726 27.9987 6.71016 27.5923V27.5705C6.71046 27.1642 6.50825 26.7743 6.14773 26.4861C5.7872 26.198 5.29771 26.0349 4.7863 26.0327L1.9357 26.0257C1.42439 26.0257 0.93385 26.1864 0.57122 26.4728C0.208581 26.7591 0.00332427 27.1479 0.000277025 27.5541L2.61189e-10 27.577Z" fill="#F7941E"/>
</svg>
