<svg width="48" height="23" viewBox="0 0 48 23" fill="none" xmlns="http://www.w3.org/2000/svg">
<path d="M32.4591 11.3772C32.4591 10.0601 32.6771 8.83381 33.113 7.69837C33.549 6.54021 34.1666 5.54101 34.9659 4.70078C35.7893 3.86055 36.7823 3.20199 37.9449 2.7251C39.1074 2.24821 40.4153 2.00977 41.8685 2.00977C43.6608 2.00977 45.3561 2.31634 46.9546 2.92948L46.0101 6.30176C45.5015 6.09738 44.9202 5.92706 44.2662 5.79081C43.6365 5.65456 42.9584 5.58643 42.2318 5.58643C40.5122 5.58643 39.2043 6.09738 38.3082 7.11929C37.412 8.11848 36.964 9.53779 36.964 11.3772C36.964 13.1485 37.3878 14.5565 38.2355 15.6011C39.0832 16.623 40.5122 17.1339 42.5224 17.1339C43.2732 17.1339 44.0119 17.0658 44.7385 16.9296C45.4651 16.7933 46.0948 16.623 46.6277 16.4186L47.2453 19.825C46.7609 20.0521 46.0222 20.2564 45.0292 20.4381C44.0604 20.6198 43.0553 20.7106 42.0138 20.7106C40.3911 20.7106 38.9742 20.4835 37.7632 20.0293C36.5765 19.5525 35.5835 18.9052 34.7842 18.0877C34.0092 17.2475 33.4279 16.2597 33.0404 15.1242C32.6529 13.966 32.4591 12.7171 32.4591 11.3772Z" fill="#F7941E"/>
<path fill-rule="evenodd" clip-rule="evenodd" d="M30.2585 11.3478C30.2585 9.79204 30.516 8.34356 31.0309 7.00239C31.5458 5.63439 32.2753 4.45415 33.2194 3.46168C34.1921 2.46921 35.365 1.69133 36.7382 1.12804C37.3527 0.87596 38.0016 0.680287 38.6848 0.541016L30.2588 1.05685V1.09008L25.6023 1.07893C25.091 1.07881 24.6005 1.23944 24.2378 1.52574C23.8752 1.81204 23.6699 2.20074 23.6669 2.6069V2.62874C23.6668 3.03495 23.869 3.42469 24.2295 3.71281C24.5899 4.00094 25.0792 4.16407 25.5905 4.16655L27.5218 4.17114C28.033 4.1735 28.5223 4.33653 28.8827 4.62459C29.2432 4.91265 29.4454 5.30234 29.4454 5.19267V5.21452C29.4422 5.6207 29.2369 6.00941 28.8743 6.29576C28.5117 6.58212 28.0212 6.74287 27.5099 6.74292L20.8138 6.72676C20.3025 6.72669 19.812 6.88737 19.4493 7.17371C19.0867 7.46004 18.8814 7.84875 18.8784 8.25494V8.27811C18.8784 8.68426 19.0808 9.07392 19.4412 9.36196C19.8017 9.65001 20.291 9.81304 20.8022 9.81546L23.2342 9.82115C23.7455 9.82357 24.2349 9.98667 24.5954 10.2748C24.9558 10.5629 25.1581 10.9527 25.158 11.3589V11.3808C25.1552 11.787 24.9501 12.1758 24.5874 12.4621C24.2248 12.7485 23.7342 12.9092 23.2229 12.909L15.9122 12.8915C15.401 12.8915 14.9105 13.0522 14.5479 13.3385C14.1854 13.6249 13.9801 14.0136 13.9771 14.4197V14.4415C13.977 14.8478 14.1793 15.2375 14.5398 15.5256C14.9003 15.8137 15.3896 15.9768 15.901 15.9791L17.7657 15.9837C18.2769 15.9861 18.7662 16.1492 19.1267 16.4372C19.4871 16.7253 19.6895 17.1149 19.6896 17.5211V17.5314C19.6866 17.9376 19.4813 18.3263 19.1187 18.6126C18.756 18.899 18.2654 19.0597 17.7541 19.0595L9.87683 19.0405C9.36554 19.0406 8.87503 19.2013 8.51242 19.4877C8.1498 19.774 7.94452 20.1627 7.9414 20.5689V20.5919C7.94132 20.9981 8.14358 21.3878 8.50401 21.6759C8.86443 21.964 9.35373 22.127 9.865 22.1295L30.2588 22.1784V22.2062H39.0825C38.1571 22.0732 37.3042 21.8603 36.5236 21.5676C35.1218 21.0043 33.9489 20.2398 33.0048 19.2741C32.0894 18.2817 31.4028 17.1149 30.9451 15.7737C30.4873 14.4057 30.2585 12.9304 30.2585 11.3478ZM14.4722 2.60777C14.4721 3.01399 14.6743 3.40376 15.0347 3.6919C15.3952 3.98004 15.8845 4.14314 16.3958 4.14557L19.576 4.153C20.0872 4.15306 20.5777 3.99237 20.9403 3.70603C21.3029 3.41968 21.5081 3.03097 21.5111 2.62482V2.60187C21.5113 2.19566 21.309 1.80592 20.9486 1.51782C20.5881 1.22971 20.0988 1.06665 19.5875 1.06428L16.4074 1.05685C15.8961 1.05679 15.4056 1.21748 15.043 1.50382C14.6804 1.79017 14.4752 2.17888 14.4722 2.58504V2.60777ZM5.08456 9.32919C4.7241 9.04114 4.52174 8.65149 4.52167 8.24532V8.22217C4.52473 7.81598 4.72999 7.42727 5.09263 7.14093C5.45527 6.85459 5.94582 6.6939 6.4571 6.69397L14.8843 6.7143C15.3955 6.71671 15.8848 6.87976 16.2453 7.16779C16.6057 7.45584 16.8081 7.84549 16.8082 8.25166V8.27483C16.805 8.68098 16.5997 9.06967 16.2371 9.35598C15.8745 9.64231 15.384 9.80302 14.8727 9.80301L6.44555 9.78269C5.93429 9.78026 5.44501 9.61723 5.08456 9.32919ZM8.07388 15.5138C7.7134 15.2257 7.5111 14.836 7.51119 14.4297L7.51091 14.4068C7.51396 14.0006 7.71924 13.6119 8.08188 13.3256C8.44453 13.0393 8.93508 12.8787 9.44634 12.8788L10.0586 12.8802C10.5699 12.8826 11.0591 13.0457 11.4195 13.3337C11.7799 13.6218 11.9822 14.0114 11.9822 14.4175V14.4405C11.9793 14.8467 11.774 15.2354 11.4114 15.5218C11.0487 15.8082 10.5582 15.9689 10.0468 15.9689L9.43505 15.9673C8.92373 15.965 8.43437 15.8019 8.07388 15.5138ZM2.61189e-10 20.577C-8.39383e-06 20.9832 0.20231 21.3729 0.562775 21.661C0.923247 21.9491 1.41257 22.1122 1.92387 22.1146L4.77419 22.1214C5.28572 22.1214 5.77648 21.9607 6.13924 21.6741C6.50199 21.3876 6.70726 20.9987 6.71016 20.5923V20.5705C6.71046 20.1642 6.50825 19.7743 6.14773 19.4861C5.7872 19.198 5.29771 19.0349 4.7863 19.0327L1.9357 19.0257C1.42439 19.0257 0.93385 19.1864 0.57122 19.4728C0.208581 19.7591 0.00332427 20.1479 0.000277025 20.5541L2.61189e-10 20.577Z" fill="#F7941E"/>
</svg>
