<svg width="190" height="190" viewBox="0 0 190 190" fill="none" xmlns="http://www.w3.org/2000/svg">
<rect x="0.5" y="0.5" width="189" height="189" stroke="white"/>
<path d="M7.60018 0.00012207H0.000488281V7.6H7.60018V0.00012207Z" fill="white"/>
<path d="M15.1996 0H7.59912V7.59988H15.1996V0Z" fill="white"/>
<path d="M22.7999 0H15.2002V7.59988H22.7999V0Z" fill="white"/>
<path d="M30.399 0H22.7993V7.59988H30.399V0Z" fill="white"/>
<path d="M37.9996 0H30.3999V7.59988H37.9996V0Z" fill="white"/>
<path d="M45.5997 0H38V7.59988H45.5997V0Z" fill="white"/>
<path d="M53.1998 0H45.6001V7.59988H53.1998V0Z" fill="white"/>
<path d="M68.4007 0H60.8003V7.59988H68.4007V0Z" fill="white"/>
<path d="M76.0001 0H68.4004V7.59988H76.0001V0Z" fill="white"/>
<path d="M83.5997 0H76V7.59988H83.5997V0Z" fill="white"/>
<path d="M91.2008 0H83.6011V7.59988H91.2008V0Z" fill="white"/>
<path d="M144.4 0H136.8V7.59988H144.4V0Z" fill="white"/>
<path d="M152 0H144.4V7.59988H152V0Z" fill="white"/>
<path d="M159.6 0H152V7.59988H159.6V0Z" fill="white"/>
<path d="M167.2 0H159.601V7.59988H167.2V0Z" fill="white"/>
<path d="M174.799 0H167.2V7.59988H174.799V0Z" fill="white"/>
<path d="M182.401 0H174.8V7.59988H182.401V0Z" fill="white"/>
<path d="M190 0H182.4V7.59988H190V0Z" fill="white"/>
<path d="M7.59969 7.59985H0V15.1997H7.59969V7.59985Z" fill="white"/>
<path d="M53.1993 7.59985H45.5996V15.1997H53.1993V7.59985Z" fill="white"/>
<path d="M91.2003 7.59985H83.6006V15.1997H91.2003V7.59985Z" fill="white"/>
<path d="M98.8006 7.59985H91.2002V15.1997H98.8006V7.59985Z" fill="white"/>
<path d="M106.399 7.59985H98.7998V15.1997H106.399V7.59985Z" fill="white"/>
<path d="M114 7.59985H106.4V15.1997H114V7.59985Z" fill="white"/>
<path d="M129.2 7.59985H121.6V15.1997H129.2V7.59985Z" fill="white"/>
<path d="M144.399 7.59985H136.8V15.1997H144.399V7.59985Z" fill="white"/>
<path d="M190 7.59985H182.4V15.1997H190V7.59985Z" fill="white"/>
<path d="M7.59969 15.1998H0V22.7997H7.59969V15.1998Z" fill="white"/>
<path d="M22.7999 15.1998H15.2002V22.7997H22.7999V15.1998Z" fill="white"/>
<path d="M30.3995 15.1998H22.7998V22.7997H30.3995V15.1998Z" fill="white"/>
<path d="M37.9991 15.1998H30.3994V22.7997H37.9991V15.1998Z" fill="white"/>
<path d="M53.1993 15.1998H45.5996V22.7997H53.1993V15.1998Z" fill="white"/>
<path d="M76.0001 15.1998H68.4004V22.7997H76.0001V15.1998Z" fill="white"/>
<path d="M91.2003 15.1998H83.6006V22.7997H91.2003V15.1998Z" fill="white"/>
<path d="M106.399 15.1998H98.7998V22.7997H106.399V15.1998Z" fill="white"/>
<path d="M121.6 15.1998H114V22.7997H121.6V15.1998Z" fill="white"/>
<path d="M129.2 15.1998H121.6V22.7997H129.2V15.1998Z" fill="white"/>
<path d="M144.399 15.1998H136.8V22.7997H144.399V15.1998Z" fill="white"/>
<path d="M159.6 15.1998H152V22.7997H159.6V15.1998Z" fill="white"/>
<path d="M167.2 15.1998H159.601V22.7997H167.2V15.1998Z" fill="white"/>
<path d="M174.8 15.1998H167.2V22.7997H174.8V15.1998Z" fill="white"/>
<path d="M190 15.1998H182.4V22.7997H190V15.1998Z" fill="white"/>
<path d="M7.59969 22.7997H0V30.3996H7.59969V22.7997Z" fill="white"/>
<path d="M22.7999 22.7997H15.2002V30.3996H22.7999V22.7997Z" fill="white"/>
<path d="M30.3995 22.7997H22.7998V30.3996H30.3995V22.7997Z" fill="white"/>
<path d="M37.9991 22.7997H30.3994V30.3996H37.9991V22.7997Z" fill="white"/>
<path d="M53.1993 22.7997H45.5996V30.3996H53.1993V22.7997Z" fill="white"/>
<path d="M83.5997 22.7997H76V30.3996H83.5997V22.7997Z" fill="white"/>
<path d="M91.2003 22.7997H83.6006V30.3996H91.2003V22.7997Z" fill="white"/>
<path d="M106.399 22.7997H98.7998V30.3996H106.399V22.7997Z" fill="white"/>
<path d="M121.6 22.7997H114V30.3996H121.6V22.7997Z" fill="white"/>
<path d="M129.2 22.7997H121.6V30.3996H129.2V22.7997Z" fill="white"/>
<path d="M144.399 22.7997H136.8V30.3996H144.399V22.7997Z" fill="white"/>
<path d="M159.6 22.7997H152V30.3996H159.6V22.7997Z" fill="white"/>
<path d="M167.2 22.7997H159.601V30.3996H167.2V22.7997Z" fill="white"/>
<path d="M174.8 22.7997H167.2V30.3996H174.8V22.7997Z" fill="white"/>
<path d="M190 22.7997H182.4V30.3996H190V22.7997Z" fill="white"/>
<path d="M7.59969 30.4003H0V38.0001H7.59969V30.4003Z" fill="white"/>
<path d="M22.7999 30.4003H15.2002V38.0001H22.7999V30.4003Z" fill="white"/>
<path d="M30.3995 30.4003H22.7998V38.0001H30.3995V30.4003Z" fill="white"/>
<path d="M37.9991 30.4003H30.3994V38.0001H37.9991V30.4003Z" fill="white"/>
<path d="M53.1993 30.4003H45.5996V38.0001H53.1993V30.4003Z" fill="white"/>
<path d="M83.5997 30.4003H76V38.0001H83.5997V30.4003Z" fill="white"/>
<path d="M91.2003 30.4003H83.6006V38.0001H91.2003V30.4003Z" fill="white"/>
<path d="M98.8006 30.4003H91.2002V38.0001H98.8006V30.4003Z" fill="white"/>
<path d="M114 30.4003H106.4V38.0001H114V30.4003Z" fill="white"/>
<path d="M129.2 30.4003H121.6V38.0001H129.2V30.4003Z" fill="white"/>
<path d="M144.399 30.4003H136.8V38.0001H144.399V30.4003Z" fill="white"/>
<path d="M159.6 30.4003H152V38.0001H159.6V30.4003Z" fill="white"/>
<path d="M167.2 30.4003H159.601V38.0001H167.2V30.4003Z" fill="white"/>
<path d="M174.8 30.4003H167.2V38.0001H174.8V30.4003Z" fill="white"/>
<path d="M190 30.4003H182.4V38.0001H190V30.4003Z" fill="white"/>
<path d="M7.59969 38.0002H0V45.6001H7.59969V38.0002Z" fill="white"/>
<path d="M53.1993 38.0002H45.5996V45.6001H53.1993V38.0002Z" fill="white"/>
<path d="M76.0001 38.0002H68.4004V45.6001H76.0001V38.0002Z" fill="white"/>
<path d="M91.2003 38.0002H83.6006V45.6001H91.2003V38.0002Z" fill="white"/>
<path d="M114 38.0002H106.4V45.6001H114V38.0002Z" fill="white"/>
<path d="M129.2 38.0002H121.6V45.6001H129.2V38.0002Z" fill="white"/>
<path d="M144.399 38.0002H136.8V45.6001H144.399V38.0002Z" fill="white"/>
<path d="M190 38.0002H182.4V45.6001H190V38.0002Z" fill="white"/>
<path d="M7.59969 45.6H0V53.1999H7.59969V45.6Z" fill="white"/>
<path d="M15.2001 45.6H7.59961V53.1999H15.2001V45.6Z" fill="white"/>
<path d="M22.7999 45.6H15.2002V53.1999H22.7999V45.6Z" fill="white"/>
<path d="M30.3995 45.6H22.7998V53.1999H30.3995V45.6Z" fill="white"/>
<path d="M37.9991 45.6H30.3994V53.1999H37.9991V45.6Z" fill="white"/>
<path d="M45.5997 45.6H38V53.1999H45.5997V45.6Z" fill="white"/>
<path d="M53.1993 45.6H45.5996V53.1999H53.1993V45.6Z" fill="white"/>
<path d="M68.4012 45.6H60.8008V53.1999H68.4012V45.6Z" fill="white"/>
<path d="M83.5997 45.6H76V53.1999H83.5997V45.6Z" fill="white"/>
<path d="M98.8006 45.6H91.2002V53.1999H98.8006V45.6Z" fill="white"/>
<path d="M114 45.6H106.4V53.1999H114V45.6Z" fill="white"/>
<path d="M129.2 45.6H121.6V53.1999H129.2V45.6Z" fill="white"/>
<path d="M144.399 45.6H136.8V53.1999H144.399V45.6Z" fill="white"/>
<path d="M152 45.6H144.4V53.1999H152V45.6Z" fill="white"/>
<path d="M159.6 45.6H152V53.1999H159.6V45.6Z" fill="white"/>
<path d="M167.2 45.6H159.601V53.1999H167.2V45.6Z" fill="white"/>
<path d="M174.8 45.6H167.2V53.1999H174.8V45.6Z" fill="white"/>
<path d="M182.4 45.6H174.8V53.1999H182.4V45.6Z" fill="white"/>
<path d="M190 45.6H182.4V53.1999H190V45.6Z" fill="white"/>
<path d="M68.4012 53.2H60.8008V60.7998H68.4012V53.2Z" fill="white"/>
<path d="M76.0001 53.2H68.4004V60.7998H76.0001V53.2Z" fill="white"/>
<path d="M98.8006 53.2H91.2002V60.7998H98.8006V53.2Z" fill="white"/>
<path d="M106.399 53.2H98.7998V60.7998H106.399V53.2Z" fill="white"/>
<path d="M7.59969 60.7998H0V68.3997H7.59969V60.7998Z" fill="white"/>
<path d="M15.2001 60.7998H7.59961V68.3997H15.2001V60.7998Z" fill="white"/>
<path d="M30.3995 60.7998H22.7998V68.3997H30.3995V60.7998Z" fill="white"/>
<path d="M37.9991 60.7998H30.3994V68.3997H37.9991V60.7998Z" fill="white"/>
<path d="M53.1993 60.7998H45.5996V68.3997H53.1993V60.7998Z" fill="white"/>
<path d="M76.0001 60.7998H68.4004V68.3997H76.0001V60.7998Z" fill="white"/>
<path d="M98.8006 60.7998H91.2002V68.3997H98.8006V60.7998Z" fill="white"/>
<path d="M114 60.7998H106.4V68.3997H114V60.7998Z" fill="white"/>
<path d="M121.6 60.7998H114V68.3997H121.6V60.7998Z" fill="white"/>
<path d="M144.399 60.7998H136.8V68.3997H144.399V60.7998Z" fill="white"/>
<path d="M190 60.7998H182.4V68.3997H190V60.7998Z" fill="white"/>
<path d="M7.59969 68.3997H0V75.9995H7.59969V68.3997Z" fill="white"/>
<path d="M15.2001 68.3997H7.59961V75.9995H15.2001V68.3997Z" fill="white"/>
<path d="M22.7999 68.3997H15.2002V75.9995H22.7999V68.3997Z" fill="white"/>
<path d="M37.9991 68.3997H30.3994V75.9995H37.9991V68.3997Z" fill="white"/>
<path d="M45.5997 68.3997H38V75.9995H45.5997V68.3997Z" fill="white"/>
<path d="M60.7999 68.3997H53.2002V75.9995H60.7999V68.3997Z" fill="white"/>
<path d="M83.5997 68.3997H76V75.9995H83.5997V68.3997Z" fill="white"/>
<path d="M106.399 68.3997H98.7998V75.9995H106.399V68.3997Z" fill="white"/>
<path d="M114 68.3997H106.4V75.9995H114V68.3997Z" fill="white"/>
<path d="M121.6 68.3997H114V75.9995H121.6V68.3997Z" fill="white"/>
<path d="M136.8 68.3997H129.2V75.9995H136.8V68.3997Z" fill="white"/>
<path d="M152 68.3997H144.4V75.9995H152V68.3997Z" fill="white"/>
<path d="M159.6 68.3997H152V75.9995H159.6V68.3997Z" fill="white"/>
<path d="M167.2 68.3997H159.601V75.9995H167.2V68.3997Z" fill="white"/>
<path d="M174.8 68.3997H167.2V75.9995H174.8V68.3997Z" fill="white"/>
<path d="M182.4 68.3997H174.8V75.9995H182.4V68.3997Z" fill="white"/>
<path d="M7.59969 76.0004H0V83.6002H7.59969V76.0004Z" fill="white"/>
<path d="M22.7999 76.0004H15.2002V83.6002H22.7999V76.0004Z" fill="white"/>
<path d="M37.9991 76.0004H30.3994V83.6002H37.9991V76.0004Z" fill="white"/>
<path d="M53.1993 76.0004H45.5996V83.6002H53.1993V76.0004Z" fill="white"/>
<path d="M60.7999 76.0004H53.2002V83.6002H60.7999V76.0004Z" fill="white"/>
<path d="M68.4012 76.0004H60.8008V83.6002H68.4012V76.0004Z" fill="white"/>
<path d="M76.0001 76.0004H68.4004V83.6002H76.0001V76.0004Z" fill="white"/>
<path d="M98.8006 76.0004H91.2002V83.6002H98.8006V76.0004Z" fill="white"/>
<path d="M121.6 76.0004H114V83.6002H121.6V76.0004Z" fill="white"/>
<path d="M129.2 76.0004H121.6V83.6002H129.2V76.0004Z" fill="white"/>
<path d="M144.399 76.0004H136.8V83.6002H144.399V76.0004Z" fill="white"/>
<path d="M152 76.0004H144.4V83.6002H152V76.0004Z" fill="white"/>
<path d="M167.2 76.0004H159.601V83.6002H167.2V76.0004Z" fill="white"/>
<path d="M190 76.0004H182.4V83.6002H190V76.0004Z" fill="white"/>
<path d="M7.59969 83.6002H0V91.2001H7.59969V83.6002Z" fill="white"/>
<path d="M15.2001 83.6002H7.59961V91.2001H15.2001V83.6002Z" fill="white"/>
<path d="M60.7999 83.6002H53.2002V91.2001H60.7999V83.6002Z" fill="white"/>
<path d="M68.4012 83.6002H60.8008V91.2001H68.4012V83.6002Z" fill="white"/>
<path d="M121.6 83.6002H114V91.2001H121.6V83.6002Z" fill="white"/>
<path d="M152 83.6002H144.4V91.2001H152V83.6002Z" fill="white"/>
<path d="M167.2 83.6002H159.601V91.2001H167.2V83.6002Z" fill="white"/>
<path d="M174.8 83.6002H167.2V91.2001H174.8V83.6002Z" fill="white"/>
<path d="M182.4 83.6002H174.8V91.2001H182.4V83.6002Z" fill="white"/>
<path d="M190 83.6002H182.4V91.2001H190V83.6002Z" fill="white"/>
<path d="M22.7999 91.2001H15.2002V98.8H22.7999V91.2001Z" fill="white"/>
<path d="M30.3995 91.2001H22.7998V98.8H30.3995V91.2001Z" fill="white"/>
<path d="M53.1993 91.2001H45.5996V98.8H53.1993V91.2001Z" fill="white"/>
<path d="M68.4012 91.2001H60.8008V98.8H68.4012V91.2001Z" fill="white"/>
<path d="M76.0001 91.2001H68.4004V98.8H76.0001V91.2001Z" fill="white"/>
<path d="M83.5997 91.2001H76V98.8H83.5997V91.2001Z" fill="white"/>
<path d="M114 91.2001H106.4V98.8H114V91.2001Z" fill="white"/>
<path d="M121.6 91.2001H114V98.8H121.6V91.2001Z" fill="white"/>
<path d="M144.399 91.2001H136.8V98.8H144.399V91.2001Z" fill="white"/>
<path d="M190 91.2001H182.4V98.8H190V91.2001Z" fill="white"/>
<path d="M7.59969 98.7999H0V106.4H7.59969V98.7999Z" fill="white"/>
<path d="M22.7999 98.7999H15.2002V106.4H22.7999V98.7999Z" fill="white"/>
<path d="M30.3995 98.7999H22.7998V106.4H30.3995V98.7999Z" fill="white"/>
<path d="M45.5997 98.7999H38V106.4H45.5997V98.7999Z" fill="white"/>
<path d="M60.7999 98.7999H53.2002V106.4H60.7999V98.7999Z" fill="white"/>
<path d="M83.5997 98.7999H76V106.4H83.5997V98.7999Z" fill="white"/>
<path d="M98.8006 98.7999H91.2002V106.4H98.8006V98.7999Z" fill="white"/>
<path d="M114 98.7999H106.4V106.4H114V98.7999Z" fill="white"/>
<path d="M121.6 98.7999H114V106.4H121.6V98.7999Z" fill="white"/>
<path d="M129.2 98.7999H121.6V106.4H129.2V98.7999Z" fill="white"/>
<path d="M136.8 98.7999H129.2V106.4H136.8V98.7999Z" fill="white"/>
<path d="M159.6 98.7999H152V106.4H159.6V98.7999Z" fill="white"/>
<path d="M182.4 98.7999H174.8V106.4H182.4V98.7999Z" fill="white"/>
<path d="M7.59969 106.4H0V114H7.59969V106.4Z" fill="white"/>
<path d="M15.2001 106.4H7.59961V114H15.2001V106.4Z" fill="white"/>
<path d="M30.3995 106.4H22.7998V114H30.3995V106.4Z" fill="white"/>
<path d="M37.9991 106.4H30.3994V114H37.9991V106.4Z" fill="white"/>
<path d="M45.5997 106.4H38V114H45.5997V106.4Z" fill="white"/>
<path d="M53.1993 106.4H45.5996V114H53.1993V106.4Z" fill="white"/>
<path d="M60.7999 106.4H53.2002V114H60.7999V106.4Z" fill="white"/>
<path d="M76.0001 106.4H68.4004V114H76.0001V106.4Z" fill="white"/>
<path d="M114 106.4H106.4V114H114V106.4Z" fill="white"/>
<path d="M121.6 106.4H114V114H121.6V106.4Z" fill="white"/>
<path d="M136.8 106.4H129.2V114H136.8V106.4Z" fill="white"/>
<path d="M144.399 106.4H136.8V114H144.399V106.4Z" fill="white"/>
<path d="M159.6 106.4H152V114H159.6V106.4Z" fill="white"/>
<path d="M167.2 106.4H159.601V114H167.2V106.4Z" fill="white"/>
<path d="M174.8 106.4H167.2V114H174.8V106.4Z" fill="white"/>
<path d="M182.4 106.4H174.8V114H182.4V106.4Z" fill="white"/>
<path d="M190 106.4H182.4V114H190V106.4Z" fill="white"/>
<path d="M7.59969 114H0V121.6H7.59969V114Z" fill="white"/>
<path d="M45.5997 114H38V121.6H45.5997V114Z" fill="white"/>
<path d="M60.7999 114H53.2002V121.6H60.7999V114Z" fill="white"/>
<path d="M76.0001 114H68.4004V121.6H76.0001V114Z" fill="white"/>
<path d="M98.8006 114H91.2002V121.6H98.8006V114Z" fill="white"/>
<path d="M114 114H106.4V121.6H114V114Z" fill="white"/>
<path d="M129.2 114H121.6V121.6H129.2V114Z" fill="white"/>
<path d="M136.8 114H129.2V121.6H136.8V114Z" fill="white"/>
<path d="M152 114H144.4V121.6H152V114Z" fill="white"/>
<path d="M167.2 114H159.601V121.6H167.2V114Z" fill="white"/>
<path d="M174.8 114H167.2V121.6H174.8V114Z" fill="white"/>
<path d="M190 114H182.4V121.6H190V114Z" fill="white"/>
<path d="M7.59969 121.6H0V129.2H7.59969V121.6Z" fill="white"/>
<path d="M22.7999 121.6H15.2002V129.2H22.7999V121.6Z" fill="white"/>
<path d="M30.3995 121.6H22.7998V129.2H30.3995V121.6Z" fill="white"/>
<path d="M37.9991 121.6H30.3994V129.2H37.9991V121.6Z" fill="white"/>
<path d="M53.1993 121.6H45.5996V129.2H53.1993V121.6Z" fill="white"/>
<path d="M60.7999 121.6H53.2002V129.2H60.7999V121.6Z" fill="white"/>
<path d="M83.5997 121.6H76V129.2H83.5997V121.6Z" fill="white"/>
<path d="M91.2003 121.6H83.6006V129.2H91.2003V121.6Z" fill="white"/>
<path d="M98.8006 121.6H91.2002V129.2H98.8006V121.6Z" fill="white"/>
<path d="M106.399 121.6H98.7998V129.2H106.399V121.6Z" fill="white"/>
<path d="M121.6 121.6H114V129.2H121.6V121.6Z" fill="white"/>
<path d="M129.2 121.6H121.6V129.2H129.2V121.6Z" fill="white"/>
<path d="M136.8 121.6H129.2V129.2H136.8V121.6Z" fill="white"/>
<path d="M144.399 121.6H136.8V129.2H144.399V121.6Z" fill="white"/>
<path d="M152 121.6H144.4V129.2H152V121.6Z" fill="white"/>
<path d="M159.6 121.6H152V129.2H159.6V121.6Z" fill="white"/>
<path d="M174.8 121.6H167.2V129.2H174.8V121.6Z" fill="white"/>
<path d="M182.4 121.6H174.8V129.2H182.4V121.6Z" fill="white"/>
<path d="M68.4012 129.2H60.8008V136.8H68.4012V129.2Z" fill="white"/>
<path d="M76.0001 129.2H68.4004V136.8H76.0001V129.2Z" fill="white"/>
<path d="M91.2003 129.2H83.6006V136.8H91.2003V129.2Z" fill="white"/>
<path d="M129.2 129.2H121.6V136.8H129.2V129.2Z" fill="white"/>
<path d="M159.6 129.2H152V136.8H159.6V129.2Z" fill="white"/>
<path d="M174.8 129.2H167.2V136.8H174.8V129.2Z" fill="white"/>
<path d="M182.4 129.2H174.8V136.8H182.4V129.2Z" fill="white"/>
<path d="M7.59969 136.8H0V144.4H7.59969V136.8Z" fill="white"/>
<path d="M15.2001 136.8H7.59961V144.4H15.2001V136.8Z" fill="white"/>
<path d="M22.7999 136.8H15.2002V144.4H22.7999V136.8Z" fill="white"/>
<path d="M30.3995 136.8H22.7998V144.4H30.3995V136.8Z" fill="white"/>
<path d="M37.9991 136.8H30.3994V144.4H37.9991V136.8Z" fill="white"/>
<path d="M45.5997 136.8H38V144.4H45.5997V136.8Z" fill="white"/>
<path d="M53.1993 136.8H45.5996V144.4H53.1993V136.8Z" fill="white"/>
<path d="M83.5997 136.8H76V144.4H83.5997V136.8Z" fill="white"/>
<path d="M98.8006 136.8H91.2002V144.4H98.8006V136.8Z" fill="white"/>
<path d="M114 136.8H106.4V144.4H114V136.8Z" fill="white"/>
<path d="M129.2 136.8H121.6V144.4H129.2V136.8Z" fill="white"/>
<path d="M144.399 136.8H136.8V144.4H144.399V136.8Z" fill="white"/>
<path d="M159.6 136.8H152V144.4H159.6V136.8Z" fill="white"/>
<path d="M190 136.8H182.4V144.4H190V136.8Z" fill="white"/>
<path d="M7.59969 144.4H0V152H7.59969V144.4Z" fill="white"/>
<path d="M53.1993 144.4H45.5996V152H53.1993V144.4Z" fill="white"/>
<path d="M91.2003 144.4H83.6006V152H91.2003V144.4Z" fill="white"/>
<path d="M106.399 144.4H98.7998V152H106.399V144.4Z" fill="white"/>
<path d="M121.6 144.4H114V152H121.6V144.4Z" fill="white"/>
<path d="M129.2 144.4H121.6V152H129.2V144.4Z" fill="white"/>
<path d="M159.6 144.4H152V152H159.6V144.4Z" fill="white"/>
<path d="M190 144.4H182.4V152H190V144.4Z" fill="white"/>
<path d="M7.59969 152H0V159.6H7.59969V152Z" fill="white"/>
<path d="M22.7999 152H15.2002V159.6H22.7999V152Z" fill="white"/>
<path d="M30.3995 152H22.7998V159.6H30.3995V152Z" fill="white"/>
<path d="M37.9991 152H30.3994V159.6H37.9991V152Z" fill="white"/>
<path d="M53.1993 152H45.5996V159.6H53.1993V152Z" fill="white"/>
<path d="M68.4012 152H60.8008V159.6H68.4012V152Z" fill="white"/>
<path d="M83.5997 152H76V159.6H83.5997V152Z" fill="white"/>
<path d="M91.2003 152H83.6006V159.6H91.2003V152Z" fill="white"/>
<path d="M98.8006 152H91.2002V159.6H98.8006V152Z" fill="white"/>
<path d="M114 152H106.4V159.6H114V152Z" fill="white"/>
<path d="M121.6 152H114V159.6H121.6V152Z" fill="white"/>
<path d="M129.2 152H121.6V159.6H129.2V152Z" fill="white"/>
<path d="M136.8 152H129.2V159.6H136.8V152Z" fill="white"/>
<path d="M144.399 152H136.8V159.6H144.399V152Z" fill="white"/>
<path d="M152 152H144.4V159.6H152V152Z" fill="white"/>
<path d="M159.6 152H152V159.6H159.6V152Z" fill="white"/>
<path d="M7.59969 159.6H0V167.2H7.59969V159.6Z" fill="white"/>
<path d="M22.7999 159.6H15.2002V167.2H22.7999V159.6Z" fill="white"/>
<path d="M30.3995 159.6H22.7998V167.2H30.3995V159.6Z" fill="white"/>
<path d="M37.9991 159.6H30.3994V167.2H37.9991V159.6Z" fill="white"/>
<path d="M53.1993 159.6H45.5996V167.2H53.1993V159.6Z" fill="white"/>
<path d="M68.4012 159.6H60.8008V167.2H68.4012V159.6Z" fill="white"/>
<path d="M76.0001 159.6H68.4004V167.2H76.0001V159.6Z" fill="white"/>
<path d="M98.8006 159.6H91.2002V167.2H98.8006V159.6Z" fill="white"/>
<path d="M106.399 159.6H98.7998V167.2H106.399V159.6Z" fill="white"/>
<path d="M114 159.6H106.4V167.2H114V159.6Z" fill="white"/>
<path d="M144.399 159.6H136.8V167.2H144.399V159.6Z" fill="white"/>
<path d="M182.4 159.6H174.8V167.2H182.4V159.6Z" fill="white"/>
<path d="M190 159.6H182.4V167.2H190V159.6Z" fill="white"/>
<path d="M7.59969 167.2H0V174.8H7.59969V167.2Z" fill="white"/>
<path d="M22.7999 167.2H15.2002V174.8H22.7999V167.2Z" fill="white"/>
<path d="M30.3995 167.2H22.7998V174.8H30.3995V167.2Z" fill="white"/>
<path d="M37.9991 167.2H30.3994V174.8H37.9991V167.2Z" fill="white"/>
<path d="M53.1993 167.2H45.5996V174.8H53.1993V167.2Z" fill="white"/>
<path d="M76.0001 167.2H68.4004V174.8H76.0001V167.2Z" fill="white"/>
<path d="M91.2003 167.2H83.6006V174.8H91.2003V167.2Z" fill="white"/>
<path d="M106.399 167.2H98.7998V174.8H106.399V167.2Z" fill="white"/>
<path d="M121.6 167.2H114V174.8H121.6V167.2Z" fill="white"/>
<path d="M136.8 167.2H129.2V174.8H136.8V167.2Z" fill="white"/>
<path d="M159.6 167.2H152V174.8H159.6V167.2Z" fill="white"/>
<path d="M167.2 167.2H159.601V174.8H167.2V167.2Z" fill="white"/>
<path d="M174.8 167.2H167.2V174.8H174.8V167.2Z" fill="white"/>
<path d="M182.4 167.2H174.8V174.8H182.4V167.2Z" fill="white"/>
<path d="M190 167.2H182.4V174.8H190V167.2Z" fill="white"/>
<path d="M7.59969 174.8H0V182.4H7.59969V174.8Z" fill="white"/>
<path d="M53.1993 174.8H45.5996V182.4H53.1993V174.8Z" fill="white"/>
<path d="M68.4012 174.8H60.8008V182.4H68.4012V174.8Z" fill="white"/>
<path d="M83.5997 174.8H76V182.4H83.5997V174.8Z" fill="white"/>
<path d="M91.2003 174.8H83.6006V182.4H91.2003V174.8Z" fill="white"/>
<path d="M114 174.8H106.4V182.4H114V174.8Z" fill="white"/>
<path d="M121.6 174.8H114V182.4H121.6V174.8Z" fill="white"/>
<path d="M152 174.8H144.4V182.4H152V174.8Z" fill="white"/>
<path d="M159.6 174.8H152V182.4H159.6V174.8Z" fill="white"/>
<path d="M174.8 174.8H167.2V182.4H174.8V174.8Z" fill="white"/>
<path d="M182.4 174.8H174.8V182.4H182.4V174.8Z" fill="white"/>
<path d="M190 174.8H182.4V182.4H190V174.8Z" fill="white"/>
<path d="M7.59969 182.4H0V190H7.59969V182.4Z" fill="white"/>
<path d="M15.2001 182.4H7.59961V190H15.2001V182.4Z" fill="white"/>
<path d="M22.7999 182.4H15.2002V190H22.7999V182.4Z" fill="white"/>
<path d="M30.3995 182.4H22.7998V190H30.3995V182.4Z" fill="white"/>
<path d="M37.9991 182.4H30.3994V190H37.9991V182.4Z" fill="white"/>
<path d="M45.5997 182.4H38V190H45.5997V182.4Z" fill="white"/>
<path d="M53.1993 182.4H45.5996V190H53.1993V182.4Z" fill="white"/>
<path d="M68.4012 182.4H60.8008V190H68.4012V182.4Z" fill="white"/>
<path d="M76.0001 182.4H68.4004V190H76.0001V182.4Z" fill="white"/>
<path d="M83.5997 182.4H76V190H83.5997V182.4Z" fill="white"/>
<path d="M98.8006 182.4H91.2002V190H98.8006V182.4Z" fill="white"/>
<path d="M129.2 182.4H121.6V190H129.2V182.4Z" fill="white"/>
<path d="M136.8 182.4H129.2V190H136.8V182.4Z" fill="white"/>
<path d="M167.2 182.4H159.601V190H167.2V182.4Z" fill="white"/>
<path d="M190 182.4H182.4V190H190V182.4Z" fill="white"/>
</svg>
