<svg width="22" height="24" viewBox="0 0 22 24" fill="none" xmlns="http://www.w3.org/2000/svg">
<path d="M13.4445 5.60019C13.4445 4.27659 12.3481 3.2002 11 3.2002C9.65193 3.2002 8.55559 4.27659 8.55559 5.60019V6.00019C8.55559 6.22139 8.73811 6.40019 8.963 6.40019C9.18789 6.40019 9.37041 6.22139 9.37041 6.00019V5.60019C9.37041 4.71779 10.1013 4.0002 11 4.0002C11.8988 4.0002 12.6297 4.71779 12.6297 5.60019V8.40019H6.51855V16.0002H15.4815V8.40019H13.4445V5.60019ZM14.6667 15.2002H7.33337V9.20019H14.6667V15.2002Z" fill="#5E55E6"/>
<path d="M10.9997 10C10.101 10 9.37012 10.7176 9.37012 11.6C9.37012 12.3436 9.8916 12.9644 10.5923 13.1432V14C10.5923 14.2212 10.7749 14.4 10.9997 14.4C11.2246 14.4 11.4072 14.2212 11.4072 14V13.1432C12.1079 12.9644 12.6294 12.3436 12.6294 11.6C12.6294 10.7176 11.8985 10 10.9997 10ZM10.9997 12.4C10.5504 12.4 10.1849 12.0412 10.1849 11.6C10.1849 11.1588 10.5504 10.8 10.9997 10.8C11.4491 10.8 11.8146 11.1588 11.8146 11.6C11.8146 12.0412 11.4491 12.4 10.9997 12.4Z" fill="#5E55E6"/>
<path d="M11 0C4.93452 0 0 4.8448 0 10.8C0 16.4436 4.433 21.0876 10.0593 21.558L8.26752 23.3172C8.10822 23.4736 8.10822 23.7264 8.26752 23.8828C8.34696 23.9608 8.45126 24 8.55556 24C8.65985 24 8.76415 23.9608 8.84359 23.8828L11.2876 21.4832C11.3255 21.4464 11.3553 21.402 11.376 21.3528C11.4172 21.2552 11.4172 21.1448 11.376 21.0472C11.3553 20.998 11.3255 20.954 11.2876 20.9168L8.84359 18.5172C8.6843 18.3608 8.42681 18.3608 8.26752 18.5172C8.10822 18.6736 8.10822 18.9264 8.26752 19.0828L9.96396 20.7484C4.83267 20.2372 0.814815 15.9708 0.814815 10.8C0.814815 5.286 5.38389 0.8 11 0.8C16.6161 0.8 21.1852 5.286 21.1852 10.8C21.1852 13.4532 20.1381 15.9524 18.2364 17.8372C18.0779 17.9944 18.0791 18.2476 18.2392 18.4032C18.3989 18.558 18.6568 18.5572 18.8153 18.4004C20.869 16.3644 22 13.6652 22 10.8C22 4.8448 17.0655 0 11 0Z" fill="#5E55E6"/>
</svg>
