<svg width="19" height="19" viewBox="0 0 19 19" fill="none" xmlns="http://www.w3.org/2000/svg">
<path d="M18.5473 18.3927L13.2171 12.8494C14.5767 11.4859 15.4189 9.60618 15.4189 7.53313C15.4189 3.37915 12.0398 0 7.8858 0C3.73181 0 0.352661 3.37915 0.352661 7.53313C0.352661 11.6871 3.73181 15.0663 7.8858 15.0663C9.70917 15.0663 11.3826 14.4145 12.6869 13.3329L18.0301 18.8899C18.1004 18.9634 18.1944 19 18.2887 19C18.3784 19 18.4677 18.9666 18.5373 18.8999C18.6801 18.7625 18.6844 18.5355 18.5473 18.3927ZM7.8858 14.3488C4.12748 14.3488 1.0701 11.2915 1.0701 7.53313C1.0701 3.77482 4.12748 0.717441 7.8858 0.717441C11.6441 0.717441 14.7015 3.77482 14.7015 7.53313C14.7015 11.2915 11.6438 14.3488 7.8858 14.3488Z" fill="#B4B8D7"/>
</svg>
