<svg width="36" height="36" viewBox="0 0 36 36" fill="none" xmlns="http://www.w3.org/2000/svg">
<path d="M27.7814 13.2488C27.4443 8.13918 23.1798 4.08496 17.9863 4.08496C12.7915 4.08496 8.52625 8.14089 8.19092 13.2524C3.54644 13.8366 0 17.7934 0 22.5412C0 27.71 4.20512 31.9152 9.37401 31.9152H23.6297C24.0351 31.9152 24.364 31.5864 24.364 31.1809C24.364 30.7754 24.0351 30.4466 23.6297 30.4466H9.37401C5.01493 30.4465 1.46861 26.9002 1.46861 22.5412C1.46861 18.3465 4.75254 14.8839 8.94468 14.6583C9.33435 14.6374 9.63958 14.3153 9.63958 13.9251C9.63958 13.9106 9.63921 13.8962 9.63836 13.8817C9.64937 9.28787 13.3899 5.55357 17.9863 5.55357C22.5834 5.55357 26.3246 9.28849 26.3342 13.8834C26.3336 13.8976 26.3331 13.9125 26.3331 13.9237C26.3331 14.3148 26.6397 14.6373 27.0302 14.657C31.2366 14.8701 34.5314 18.3332 34.5314 22.5411C34.5314 24.9308 33.4669 27.1673 31.6108 28.6772C31.2962 28.9331 31.2487 29.3956 31.5046 29.7101C31.7605 30.0247 32.223 30.0722 32.5375 29.8163C34.738 28.0263 36 25.3746 36 22.541C36 17.7786 32.4416 13.8204 27.7814 13.2488Z" fill="#9D9A9A"/>
<path d="M17.252 17.2656V26.6293C17.252 27.0347 17.5808 27.3636 17.9863 27.3636C18.3917 27.3636 18.7206 27.0347 18.7206 26.6293V17.2656C18.7206 16.8601 18.3917 16.5312 17.9863 16.5312C17.5808 16.5312 17.252 16.8601 17.252 17.2656Z" fill="#9D9A9A"/>
<path d="M22.1862 18.6274C22.3741 18.6274 22.562 18.5556 22.7054 18.4123C22.9922 18.1256 22.9922 17.6606 22.7054 17.3739L18.5056 13.174C18.2188 12.8873 17.7538 12.8873 17.4672 13.174L13.2673 17.3739C12.9806 17.6606 12.9806 18.1256 13.2673 18.4123C13.5541 18.6991 14.0191 18.6991 14.3057 18.4123L17.9863 14.7317L21.6669 18.4123C21.8103 18.5556 21.9983 18.6274 22.1862 18.6274Z" fill="#9D9A9A"/>
</svg>
