<svg width="27" height="27" viewBox="0 0 27 27" fill="none" xmlns="http://www.w3.org/2000/svg">
<path d="M20.1443 13.9582C18.4951 13.9524 16.9175 14.6316 15.7885 15.8337C14.1646 14.5382 12.147 13.836 10.0696 13.8438H10.0533C7.55651 13.8491 5.23961 14.8196 3.52243 16.5859C1.77781 18.3687 0.823839 20.8054 0.829123 23.4495C0.830146 23.5942 0.886914 23.7326 0.987323 23.8364C1.08978 23.9391 1.22922 23.9962 1.3743 23.9946L15.6848 23.9674C15.7176 24.0056 15.7501 24.0383 15.783 24.0765C17.6618 26.0649 20.6483 26.5299 23.043 25.2072C25.4376 23.8843 26.634 21.109 25.9513 18.4599C25.2685 15.8107 22.88 13.9591 20.1443 13.9582ZM1.93584 22.8988C2.05039 20.7563 2.87907 18.7993 4.30184 17.3438C5.81206 15.7901 7.85637 14.9342 10.0533 14.9342H10.0696C11.9032 14.927 13.6843 15.5462 15.1179 16.6895C13.9101 18.555 13.8304 20.935 14.9107 22.8772L1.93584 22.8988ZM20.1443 24.8615C17.4344 24.8615 15.2379 22.6648 15.2379 19.9549C15.2379 17.2454 17.4344 15.0485 20.1443 15.0485C22.8541 15.0485 25.0507 17.2454 25.0507 19.9549C25.0507 22.6648 22.8541 24.8615 20.1443 24.8615Z" fill="#0DE06D"/>
<path d="M10.0587 12.5463C13.2411 12.5463 15.8211 9.96639 15.8211 6.78399C15.8211 3.60143 13.2411 1.02148 10.0587 1.02148C6.87633 1.02148 4.29639 3.60143 4.29639 6.78399C4.29946 9.96502 6.87752 12.5433 10.0587 12.5463ZM10.0587 2.11183C12.6392 2.11183 14.7307 4.20371 14.7307 6.78399C14.7307 9.36411 12.6392 11.456 10.0587 11.456C7.47844 11.456 5.38673 9.36411 5.38673 6.78399C5.3898 4.2049 7.47964 2.11507 10.0587 2.11183Z" fill="#0DE06D"/>
<path d="M22.3523 19.4099H20.6895V17.7473C20.6895 17.4461 20.4454 17.2021 20.1444 17.2021C19.8433 17.2021 19.5992 17.4461 19.5992 17.7473V19.4099H17.9364C17.6354 19.4099 17.3912 19.6541 17.3912 19.9551C17.3912 20.2563 17.6354 20.5003 17.9364 20.5003H19.5992V22.1631C19.5992 22.4641 19.8433 22.7083 20.1444 22.7083C20.4454 22.7083 20.6895 22.4641 20.6895 22.1631V20.5003H22.3523C22.6534 20.5003 22.8973 20.2563 22.8973 19.9551C22.8973 19.6541 22.6534 19.4099 22.3523 19.4099Z" fill="#0DE06D"/>
</svg>
