<svg width="27" height="27" viewBox="0 0 27 27" fill="none" xmlns="http://www.w3.org/2000/svg">
<path d="M20.1444 13.9582C18.4952 13.9524 16.9177 14.6316 15.7886 15.8337C14.1647 14.5382 12.1471 13.836 10.0698 13.8438H10.0534C7.55663 13.8491 5.23973 14.8196 3.52255 16.5859C1.77793 18.3687 0.823961 20.8054 0.829245 23.4495C0.830268 23.5942 0.887036 23.7326 0.987445 23.8364C1.0899 23.9391 1.22935 23.9962 1.37442 23.9946L15.685 23.9674C15.7177 24.0055 15.7503 24.0383 15.7832 24.0765C17.662 26.0649 20.6485 26.5299 23.0431 25.2072C25.4377 23.8843 26.6341 21.109 25.9514 18.4599C25.2686 15.8107 22.8801 13.9591 20.1444 13.9582ZM1.93596 22.8988C2.05052 20.7563 2.87919 18.7993 4.30196 17.3438C5.81218 15.7901 7.8565 14.9342 10.0534 14.9342H10.0698C11.9034 14.927 13.6845 15.5462 15.118 16.6895C13.9102 18.555 13.8306 20.935 14.9109 22.8772L1.93596 22.8988ZM20.1444 24.8615C17.4345 24.8615 15.238 22.6648 15.238 19.9549C15.238 17.2454 17.4345 15.0485 20.1444 15.0485C22.8542 15.0485 25.0508 17.2454 25.0508 19.9549C25.0508 22.6648 22.8542 24.8615 20.1444 24.8615Z" fill="#F7941E"/>
<path d="M10.0587 12.5463C13.2411 12.5463 15.8211 9.96639 15.8211 6.78399C15.8211 3.60143 13.2411 1.02148 10.0587 1.02148C6.87633 1.02148 4.29639 3.60143 4.29639 6.78399C4.29946 9.96502 6.87752 12.5433 10.0587 12.5463ZM10.0587 2.11183C12.6392 2.11183 14.7307 4.20371 14.7307 6.78399C14.7307 9.36411 12.6392 11.456 10.0587 11.456C7.47844 11.456 5.38673 9.36411 5.38673 6.78399C5.3898 4.2049 7.47963 2.11507 10.0587 2.11183Z" fill="#F7941E"/>
<path d="M22.3522 19.4102H17.9363C17.6352 19.4102 17.3911 19.6543 17.3911 19.9553C17.3911 20.2566 17.6352 20.5005 17.9363 20.5005H22.3522C22.6533 20.5005 22.8972 20.2566 22.8972 19.9553C22.8972 19.6543 22.6533 19.4102 22.3522 19.4102Z" fill="#F7941E"/>
</svg>
