<svg width="27" height="27" viewBox="0 0 27 27" fill="none" xmlns="http://www.w3.org/2000/svg">
<path d="M10.2817 12.5932C13.5256 12.5932 16.1554 9.96359 16.1554 6.71956C16.1554 3.47553 13.5256 0.845703 10.2817 0.845703C7.03766 0.845703 4.40784 3.47553 4.40784 6.71956C4.41079 9.96238 7.0387 12.5903 10.2817 12.5932ZM10.2817 1.95712C12.9119 1.95712 15.044 4.08939 15.044 6.71956C15.044 9.34973 12.9119 11.4818 10.2817 11.4818C7.65135 11.4818 5.51926 9.34973 5.51926 6.71956C5.52221 4.09043 7.65257 1.96008 10.2817 1.95712Z" fill="#FF5556"/>
<path d="M20.5623 20.5947C20.2558 20.5956 20.0073 20.8439 20.0065 21.1504V23.6567C20.0065 23.9636 20.2552 24.2124 20.5623 24.2124C20.8691 24.2124 21.1179 23.9636 21.1179 23.6567V21.1504C21.117 20.8439 20.8688 20.5956 20.5623 20.5947Z" fill="#FF5556"/>
<path d="M22.4627 20.5947C22.1562 20.5956 21.908 20.8439 21.9071 21.1504V23.6567C21.9071 23.9636 22.1559 24.2124 22.4627 24.2124C22.7697 24.2124 23.0185 23.9636 23.0185 23.6567V21.1504C23.0176 20.8439 22.7692 20.5956 22.4627 20.5947Z" fill="#FF5556"/>
<path d="M18.6672 20.5947C18.3607 20.5956 18.1124 20.8439 18.1116 21.1504V23.6567C18.1116 23.9636 18.3604 24.2124 18.6672 24.2124C18.9742 24.2124 19.223 23.9636 19.223 23.6567V21.1504C19.2221 20.8439 18.9737 20.5956 18.6672 20.5947Z" fill="#FF5556"/>
<path d="M24.5245 14.5435H23.085V13.3822C23.0848 12.8789 22.677 12.4712 22.1737 12.4707H18.9562C18.4529 12.4712 18.0453 12.8789 18.0447 13.3822V14.5435H16.6056C16.0462 14.5442 15.5276 14.8371 15.2385 15.3159C13.7541 14.394 12.0401 13.9086 10.2926 13.9156H10.2759C7.73093 13.9213 5.36919 14.9105 3.61869 16.7109C1.84039 18.528 0.868046 21.0119 0.873435 23.7071C0.874305 24.0138 1.12256 24.2619 1.42906 24.2628L15.8942 24.2351V24.4185C15.8958 25.3785 16.6736 26.1563 17.6336 26.1579H23.4907C24.4509 26.1563 25.2285 25.3785 25.2301 24.4185V17.5721C25.8947 17.2436 26.2457 16.5005 26.0776 15.778C25.9092 15.0558 25.2659 14.5447 24.5245 14.5435ZM19.1508 13.5821H21.9736V14.5435H19.1508V13.5821ZM16.6056 15.6549H24.5245C24.7366 15.6553 24.9238 15.7935 24.9864 15.9964C25.049 16.1993 24.9719 16.4192 24.7967 16.5384C24.7569 16.5277 24.7157 16.5219 24.6745 16.5219C24.5596 16.5235 24.4476 16.5583 24.352 16.6219H16.7723C16.6774 16.5567 16.5649 16.5217 16.45 16.5219C16.4085 16.5216 16.3674 16.5271 16.3278 16.5384C16.1515 16.4185 16.0748 16.197 16.1388 15.9936C16.2026 15.7902 16.3925 15.6528 16.6056 15.6549ZM2.00155 23.1459C2.11837 20.962 2.96832 18.9671 4.41319 17.4831C5.95263 15.8994 8.03656 15.027 10.2759 15.027H10.2926C11.9981 15.0173 13.6634 15.5421 15.055 16.5275C15.1713 16.979 15.4775 17.358 15.8942 17.5666V23.1181L2.00155 23.1459ZM23.4907 25.0465H17.6391C17.4726 25.0466 17.3128 24.9804 17.195 24.8629C17.0771 24.745 17.011 24.5852 17.0114 24.4185V17.7389H24.1244V24.4185C24.118 24.765 23.8372 25.0435 23.4907 25.0465Z" fill="#FF5556"/>
</svg>
