<svg width="21" height="21" viewBox="0 0 21 21" fill="none" xmlns="http://www.w3.org/2000/svg">
<path d="M19.95 2.4502H1.05C0.470121 2.4502 0 2.92028 0 3.5002V17.5002C0 18.0801 0.47008 18.5502 1.05 18.5502H19.95C20.5299 18.5502 21 18.0801 21 17.5002V3.5002C21 2.92032 20.5299 2.4502 19.95 2.4502ZM20.3 17.5002C20.3 17.6935 20.1433 17.8502 19.95 17.8502H1.05C0.856693 17.8502 0.700014 17.6935 0.700014 17.5002V3.5002C0.700014 3.30689 0.856693 3.15021 1.05 3.15021H19.95C20.1433 3.15021 20.3 3.30689 20.3 3.5002V17.5002Z" fill="#5347FF"/>
<path d="M19.2805 3.85096C19.188 3.84288 19.0961 3.87188 19.025 3.9316L10.9505 10.7146C10.6901 10.9335 10.31 10.9335 10.0496 10.7146L1.97511 3.93156C1.87934 3.85117 1.74792 3.82795 1.63041 3.87069C1.5129 3.91343 1.4271 4.01564 1.40536 4.13881C1.38362 4.26198 1.42923 4.38736 1.525 4.46775L9.5995 11.2504C10.1199 11.6885 10.8802 11.6885 11.4006 11.2504L19.4751 4.46779C19.5462 4.40812 19.5907 4.32264 19.5987 4.23015C19.6068 4.13766 19.5778 4.04574 19.5181 3.97466C19.4585 3.9035 19.373 3.85904 19.2805 3.85096Z" fill="#5347FF"/>
<path d="M6.73165 11.2027C6.60774 11.1751 6.47862 11.2167 6.39413 11.3114L1.49411 16.5614C1.40544 16.6523 1.37287 16.784 1.40905 16.9056C1.44522 17.0273 1.54444 17.1199 1.66831 17.1475C1.79222 17.1752 1.92133 17.1336 2.00583 17.0388L6.90584 11.7888C6.99451 11.698 7.02708 11.5663 6.99091 11.4446C6.95473 11.323 6.85555 11.2304 6.73165 11.2027Z" fill="#5347FF"/>
<path d="M14.6059 11.3114C14.5215 11.2167 14.3923 11.1751 14.2684 11.2027C14.1445 11.2304 14.0453 11.323 14.0091 11.4446C13.973 11.5663 14.0055 11.698 14.0942 11.7888L18.9942 17.0388C19.1271 17.1749 19.3443 17.18 19.4834 17.0502C19.6225 16.9204 19.6325 16.7034 19.5059 16.5614L14.6059 11.3114Z" fill="#5347FF"/>
</svg>
