<svg width="22" height="22" viewBox="0 0 22 22" fill="none" xmlns="http://www.w3.org/2000/svg">
<g clip-path="url(#clip0)">
<path d="M14.8121 12.908L14.7559 12.8826C14.6216 12.8215 14.4863 12.7638 14.3484 12.7099C14.198 12.6496 14.0454 12.5938 13.8905 12.5416C13.7682 12.5015 13.645 12.464 13.5205 12.4274C13.3309 12.3725 13.1394 12.323 12.9422 12.2792C12.8752 12.2654 12.807 12.252 12.7391 12.2399L12.6928 12.2309C12.5763 12.2082 12.4594 12.1881 12.3411 12.1707L12.3072 12.1653C12.3059 12.1653 12.305 12.1644 12.3037 12.1644L12.2698 12.16C12.1716 12.1453 12.0739 12.1314 11.9721 12.1198L11.6258 12.0913C11.2001 12.0632 10.7614 12.0641 10.3406 12.0948L10.2179 12.1051L10.1607 12.1096L10.0175 12.1225C9.88581 12.1363 9.75506 12.1546 9.62431 12.1756L9.5859 12.1809C9.49668 12.1957 9.40738 12.2122 9.31947 12.2287C9.22177 12.2462 9.12532 12.2653 9.02893 12.2863C8.84242 12.3282 8.65716 12.376 8.47779 12.4282C8.33496 12.4693 8.194 12.5143 8.06144 12.5599L7.9695 12.5929C7.68834 12.6924 7.40899 12.8067 7.13852 12.9321L7.06624 12.9664L7.06492 12.9682C3.90217 14.482 1.86267 17.7073 1.86267 21.2069C1.86267 21.2873 1.86802 21.3662 1.87295 21.4457L1.89663 22.0008H20.1027L20.1272 21.4519C20.1325 21.3707 20.1375 21.2899 20.1375 21.2069C20.1375 17.6514 18.0485 14.3977 14.8121 12.908ZM2.75552 21.1083C2.79392 17.9661 4.65177 15.0836 7.48336 13.7559L7.57439 13.7202L7.58508 13.7099C7.80687 13.6086 8.03581 13.5163 8.26788 13.4346L8.34149 13.4083C8.4678 13.3645 8.59362 13.3244 8.72437 13.2873C8.88728 13.2395 9.05331 13.1967 9.21975 13.1593C9.30586 13.141 9.39203 13.1236 9.48084 13.1071C9.55132 13.0941 9.62139 13.0807 9.69236 13.0696L9.72714 13.0633C9.85477 13.0432 9.98289 13.0249 10.1105 13.0111L10.4024 12.9857C10.7844 12.9576 11.1499 12.9535 11.5926 12.9857L11.8764 13.0094C11.9464 13.0174 12.0165 13.0268 12.1018 13.0388L12.204 13.0535C12.3106 13.0691 12.4173 13.0874 12.5244 13.1075L12.5744 13.1169C12.6346 13.1281 12.6944 13.1397 12.7511 13.1517C12.9269 13.1901 13.0996 13.2356 13.271 13.2852C13.3843 13.3182 13.4968 13.3521 13.6066 13.3887C13.7458 13.4351 13.8833 13.4856 14.0194 13.5395C14.1501 13.5908 14.2791 13.6458 14.4067 13.7042L14.429 13.7145C17.3249 15.0431 19.2055 17.935 19.2439 21.1075H2.75552V21.1083ZM8.79409 10.9444C8.86103 10.9725 8.93019 10.997 8.99935 11.0216L9.14441 11.0742C9.20017 11.0956 9.25642 11.1167 9.31356 11.1345C9.84554 11.3018 10.402 11.388 10.9679 11.3925L11.0129 11.3934C11.2071 11.3934 11.4017 11.3831 11.5882 11.3639C11.6524 11.3577 11.7149 11.3474 11.7778 11.3367L11.9175 11.3157C11.9961 11.3055 12.0746 11.2939 12.1568 11.2778C12.213 11.2662 12.2674 11.2515 12.3219 11.2368L12.4745 11.198C12.5499 11.1797 12.6253 11.1614 12.6999 11.1382C12.7463 11.1235 12.7918 11.1065 12.8369 11.0895L12.9596 11.0453C13.0471 11.015 13.1354 10.9837 13.2238 10.9467C13.2582 10.932 13.2917 10.916 13.3246 10.8999L13.3644 10.8802C13.4853 10.8262 13.6058 10.7708 13.7254 10.7066L13.803 10.6602C13.9369 10.5843 14.0704 10.5058 14.2056 10.4134C14.2756 10.3662 14.3426 10.313 14.4086 10.2604L14.6371 10.0828C15.951 8.99522 16.7061 7.3993 16.7061 5.74408L16.7088 5.69679C16.7088 2.55592 14.1534 0.000976562 11.0125 0.000976562C8.0145 0.000976562 5.52024 2.34524 5.33414 5.338L5.32921 5.41209C5.32206 5.50625 5.3163 5.60041 5.3163 5.69679C5.3154 7.99092 6.68057 10.0505 8.79409 10.9444ZM6.21908 5.47396L6.22442 5.39362C6.38149 2.86992 8.48432 0.893408 11.012 0.893408C13.6612 0.893408 15.8157 3.04804 15.818 5.65603L15.8153 5.7029C15.8135 7.13189 15.1762 8.47741 14.0628 9.40165L13.8508 9.56323C13.8035 9.60163 13.7557 9.63996 13.6964 9.68107C13.5893 9.75384 13.4759 9.81939 13.3608 9.8846L13.2969 9.92341C13.2006 9.97521 13.0992 10.0211 12.9939 10.068L12.8757 10.1251C12.8078 10.1533 12.7364 10.1778 12.6659 10.2023L12.5186 10.2555C12.4901 10.2662 12.461 10.2778 12.4329 10.2862C12.3781 10.3032 12.3218 10.3162 12.266 10.33L12.0879 10.3755C12.0495 10.3858 12.0116 10.3965 11.9777 10.4037C11.9184 10.4152 11.8577 10.4233 11.7975 10.4318L11.6279 10.4572C11.5869 10.4643 11.5458 10.4715 11.4998 10.4759C11.3512 10.4916 11.2017 10.5 11.05 10.5014L11.008 10.5009H11.0071C10.5185 10.5005 10.0387 10.4277 9.57993 10.2841C9.54021 10.2716 9.5014 10.256 9.46258 10.2412L9.29482 10.1801C9.2426 10.1618 9.19087 10.144 9.14087 10.123C7.35934 9.3695 6.2079 7.63164 6.2079 5.69707C6.2079 5.62166 6.21373 5.54757 6.21908 5.47396Z" fill="#2CA4FA"/>
</g>
<defs>
<clipPath id="clip0">
<rect width="22" height="22" fill="white"/>
</clipPath>
</defs>
</svg>
