<svg width="13" height="14" viewBox="0 0 13 14" fill="none" xmlns="http://www.w3.org/2000/svg">
<path d="M12.1461 3.91334C12.1461 3.91334 12.1461 3.91334 12.1461 3.86L12.1061 3.76C12.0922 3.73878 12.0766 3.71872 12.0594 3.7C12.0416 3.67178 12.0215 3.64503 11.9994 3.62L11.9394 3.57334L11.8328 3.52L6.83278 0.433336C6.72682 0.367114 6.60439 0.332001 6.47945 0.332001C6.3545 0.332001 6.23207 0.367114 6.12611 0.433336L1.16611 3.52L1.10611 3.57334L1.04611 3.62C1.02401 3.64503 1.00395 3.67178 0.986112 3.7C0.968973 3.71872 0.953368 3.73878 0.939446 3.76L0.899446 3.86C0.899446 3.86 0.899446 3.86 0.899446 3.91334C0.892893 3.97093 0.892893 4.02908 0.899446 4.08667V9.91334C0.899219 10.0266 0.92787 10.1381 0.982693 10.2373C1.03752 10.3364 1.1167 10.42 1.21278 10.48L6.21278 13.5667C6.24355 13.5857 6.27739 13.5992 6.31278 13.6067C6.31278 13.6067 6.34611 13.6067 6.36611 13.6067C6.4789 13.6424 6.59999 13.6424 6.71278 13.6067C6.71278 13.6067 6.74611 13.6067 6.76611 13.6067C6.8015 13.5992 6.83534 13.5857 6.86611 13.5667V13.5667L11.8328 10.48C11.9289 10.42 12.008 10.3364 12.0629 10.2373C12.1177 10.1381 12.1463 10.0266 12.1461 9.91334V4.08667C12.1527 4.02908 12.1527 3.97093 12.1461 3.91334V3.91334ZM5.83278 11.8067L2.16611 9.54V5.28667L5.83278 7.54667V11.8067ZM6.49945 6.39334L2.76611 4.08667L6.49945 1.78667L10.2328 4.08667L6.49945 6.39334ZM10.8328 9.54L7.16611 11.8067V7.54667L10.8328 5.28667V9.54Z" fill="#69B756"/>
</svg>
