<svg width="14" height="14" viewBox="0 0 14 14" fill="none" xmlns="http://www.w3.org/2000/svg">
<path d="M13.6673 4.21333C13.6705 4.17117 13.6705 4.12883 13.6673 4.08666V4.08666L12.334 0.753331C12.2819 0.621569 12.1892 0.509822 12.0693 0.434302C11.9495 0.358781 11.8086 0.323414 11.6673 0.333331H2.33398C2.20047 0.333202 2.06998 0.373168 1.95944 0.448052C1.8489 0.522936 1.76339 0.629288 1.71398 0.753331L0.380651 4.08666C0.377437 4.12883 0.377437 4.17117 0.380651 4.21333C0.358498 4.25044 0.342724 4.291 0.333984 4.33333V4.33333C0.341405 4.79416 0.468135 5.2452 0.701814 5.64245C0.935493 6.0397 1.26814 6.36961 1.66732 6.6V13C1.66732 13.1768 1.73756 13.3464 1.86258 13.4714C1.9876 13.5964 2.15717 13.6667 2.33398 13.6667H11.6673C11.8441 13.6667 12.0137 13.5964 12.1387 13.4714C12.2637 13.3464 12.334 13.1768 12.334 13V6.62666C12.737 6.39398 13.0721 6.05988 13.3061 5.65756C13.54 5.25523 13.6645 4.7987 13.6673 4.33333V4.33333C13.6736 4.29357 13.6736 4.25309 13.6673 4.21333V4.21333ZM7.66732 12.3333H6.33398V9.66666H7.66732V12.3333ZM11.0007 12.3333H9.00065V9C9.00065 8.82319 8.93041 8.65362 8.80539 8.52859C8.68036 8.40357 8.5108 8.33333 8.33398 8.33333H5.66732C5.49051 8.33333 5.32094 8.40357 5.19591 8.52859C5.07089 8.65362 5.00065 8.82319 5.00065 9V12.3333H3.00065V7C3.3803 6.99786 3.75511 6.91467 4.10002 6.75601C4.44493 6.59736 4.75199 6.36688 5.00065 6.08C5.2509 6.36375 5.55866 6.591 5.90348 6.74666C6.24831 6.90233 6.62232 6.98283 7.00065 6.98283C7.37899 6.98283 7.75299 6.90233 8.09782 6.74666C8.44265 6.591 8.75041 6.36375 9.00065 6.08C9.24932 6.36688 9.55637 6.59736 9.90128 6.75601C10.2462 6.91467 10.621 6.99786 11.0007 7V12.3333ZM11.0007 5.66666C10.647 5.66666 10.3079 5.52619 10.0578 5.27614C9.80779 5.02609 9.66732 4.68695 9.66732 4.33333C9.66732 4.15652 9.59708 3.98695 9.47206 3.86193C9.34703 3.7369 9.17746 3.66666 9.00065 3.66666C8.82384 3.66666 8.65427 3.7369 8.52925 3.86193C8.40422 3.98695 8.33398 4.15652 8.33398 4.33333C8.33398 4.68695 8.19351 5.02609 7.94346 5.27614C7.69341 5.52619 7.35427 5.66666 7.00065 5.66666C6.64703 5.66666 6.30789 5.52619 6.05784 5.27614C5.80779 5.02609 5.66732 4.68695 5.66732 4.33333C5.66732 4.15652 5.59708 3.98695 5.47206 3.86193C5.34703 3.7369 5.17746 3.66666 5.00065 3.66666C4.82384 3.66666 4.65427 3.7369 4.52925 3.86193C4.40422 3.98695 4.33398 4.15652 4.33398 4.33333C4.34055 4.50843 4.31256 4.6831 4.25162 4.84738C4.19068 5.01166 4.09798 5.16233 3.97882 5.29078C3.85965 5.41924 3.71634 5.52296 3.55709 5.59604C3.39783 5.66911 3.22575 5.7101 3.05065 5.71666C2.69703 5.72993 2.35262 5.60217 2.0932 5.3615C1.96474 5.24233 1.86102 5.09902 1.78795 4.93977C1.71487 4.78051 1.67388 4.60843 1.66732 4.43333L2.78732 1.66666H11.214L12.334 4.43333C12.3087 4.76934 12.1572 5.08332 11.9098 5.31214C11.6624 5.54095 11.3376 5.66761 11.0007 5.66666V5.66666Z" fill="#69B756"/>
</svg>
