<svg width="162" height="102" viewBox="0 0 162 102" fill="none" xmlns="http://www.w3.org/2000/svg">
<path d="M156.944 0H4.70273C2.10548 0 0 2.10076 0 4.69217V97.0878C0 99.6792 2.10548 101.78 4.70273 101.78H156.944C159.541 101.78 161.647 99.6792 161.647 97.0878V4.69217C161.647 2.10076 159.541 0 156.944 0Z" fill="white"/>
<path d="M157.341 7.98599e-10H4.3059C3.1639 7.9859e-10 2.06868 0.452641 1.26117 1.25834C0.453654 2.06404 0 3.15681 0 4.29624V21.278H161.647V4.29624C161.647 3.73205 161.535 3.17338 161.319 2.65213C161.102 2.13088 160.785 1.65726 160.385 1.25832C159.986 0.859372 159.511 0.542912 158.988 0.32701C158.466 0.111107 157.906 -1.08772e-05 157.341 7.98599e-10Z" fill="#4D4D4D"/>
<path d="M150.255 31.7197H73.416V37.59H150.255V31.7197Z" fill="#CCCCCC"/>
<path d="M150.255 41.8945H73.416V47.7648H150.255V41.8945Z" fill="#CCCCCC"/>
<path d="M127.298 51.8843H73.416V57.7546H127.298V51.8843Z" fill="#CCCCCC"/>
<path d="M150.255 61.8154H73.416V67.6857H150.255V61.8154Z" fill="#CCCCCC"/>
<path d="M150.255 72.6094H73.416V78.4797H150.255V72.6094Z" fill="#CCCCCC"/>
<path d="M120.072 83.4033H73.416V89.2736H120.072V83.4033Z" fill="#CCCCCC"/>
<path d="M64.6345 31.7197H10.2852V89.2608H64.6345V31.7197Z" fill="#CCCCCC"/>
<path d="M57.8642 75.6451C56.1304 73.7056 51.6396 72.0111 48.3198 71.2392C46.2935 70.7706 44.233 70.4631 42.1579 70.3198L40.2962 70.189C38.519 70.5986 36.6185 70.7688 34.6306 70.189L34.5597 70.1939C31.1001 70.4333 27.6865 71.1204 24.4046 72.2381C22.8615 72.7558 21.348 73.3573 19.8708 74.04C18.6824 74.5979 17.6356 75.4162 16.8084 76.434C15.9812 77.4518 15.3949 78.6428 15.0932 79.9181C14.3321 83.1785 14.0918 87.2565 14.0918 89.2592H60.7184C60.7184 86.8528 60.2763 78.3438 57.8642 75.6451Z" fill="#263742"/>
<path d="M42.9511 64.2031C36.8718 64.8814 37.291 64.7304 31.6866 64.214C31.7939 65.47 31.8304 69.1214 31.504 69.9986C31.4458 70.154 30.5376 70.6554 29.125 71.2551C31.5971 72.8727 34.4096 74.0421 37.4755 74.0421C40.5447 74.0421 43.6181 72.6943 45.9307 71.1882C44.5976 70.6191 43.7456 70.2752 43.69 70.1256C43.343 69.1937 43.4145 66.4838 43.5505 65.1597C43.79 63.551 42.9762 64.2004 42.9511 64.2031Z" fill="#E5BC7F"/>
<path d="M45.3932 70.5894L37.4666 71.4742L29.54 70.698L36.4957 89.2594H38.3968L45.3932 70.5894Z" fill="#F2F2F2"/>
<path d="M37.4456 71.1812L35.501 72.6029L37.4499 74.4997L39.3988 72.6132L37.4456 71.1812Z" fill="#C34431"/>
<path d="M31.6707 70.0645L25.0459 72.0416L29.5397 77.857L26.6112 78.8523L35.3231 89.262H36.7719L31.6707 70.0645Z" fill="#1C2B33"/>
<path d="M45.393 78.074L50.1768 71.7529L43.2212 70.064L39.3993 84.4475L38.1201 89.2614H39.5689L48.2804 78.8518L45.393 78.074Z" fill="#1C2B33"/>
<path d="M39.3988 84.4462L38.1402 73.062H36.6575L35.501 84.4785L36.7716 89.2601H38.1197L39.3988 84.4462Z" fill="#C34431"/>
<path d="M38.1201 89.2603L39.3993 84.4463L38.1201 89.2603Z" fill="#C34431"/>
<path d="M29.1084 70.828L31.112 68.6797L37.4455 71.182L32.5245 76.092L29.1084 70.828Z" fill="white"/>
<path d="M45.6687 70.657L44.1487 68.29L37.4463 71.1814L42.3673 76.0914L45.6687 70.657Z" fill="white"/>
<path d="M48.2558 52.9867C48.1836 52.9665 48.109 52.9557 48.034 52.9546L48.0376 52.9403C47.7148 52.9294 47.3919 52.9609 47.0772 53.0338C47.1581 46.9239 45.4417 40.6654 38.3205 40.5454H36.6536C29.4082 40.6674 27.9046 47.047 28.0592 53.2556C27.7269 53.1727 27.3846 53.1367 27.0423 53.1487C26.909 53.1369 26.7746 53.1503 26.6464 53.1885C25.312 53.5841 25.8552 58.4731 28.7497 59.2559C28.936 60.5582 29.6124 62.2264 29.8011 62.7367C30.1364 63.6442 33.0987 66.786 34.3006 67.465C35.7628 68.2911 37.5341 67.9831 37.5351 67.9831C37.5361 67.9831 39.3664 68.2911 40.8371 67.4324C42.029 66.7366 44.8491 63.4813 45.1839 62.5737C45.372 62.0646 46.1323 60.5681 46.3185 59.2683L46.3232 59.2732C49.2729 58.5456 49.424 53.3279 48.2558 52.9867Z" fill="#FFDA9E"/>
<path d="M46.0553 44.1821C46.0553 44.1821 46.4911 39.03 38.4186 38.6386C31.6785 38.3118 28.2217 40.9864 27.4047 46.2038C26.5877 51.4212 27.6544 53.1782 27.6544 53.1782C27.6544 53.1782 28.3849 53.3127 28.4181 54.4865C28.4513 55.6604 28.3854 56.5408 28.3854 56.5408H29.1249C29.1249 56.5408 29.4966 54.1603 29.6599 52.6943C29.6988 52.3449 29.7413 52.3061 29.8888 52.0731C30.5083 51.0957 30.2382 49.8869 30.0631 48.9401C29.8919 48.0117 29.9628 47.0205 31.0324 46.9861C33.0586 46.9209 37.8629 49.1383 42.0462 47.2143C42.0462 47.2143 44.2572 48.1857 44.4696 48.9442C44.5196 49.2344 44.529 49.5302 44.4974 49.823C44.4547 50.494 44.3291 50.9669 44.3994 51.3886C44.5446 52.2583 44.9918 52.6939 44.9919 52.6939L45.1184 56.1494L45.8856 56.1335C45.8856 56.1335 45.8025 53.3646 47.4043 52.9733C48.0299 50.5942 48.8408 46.2555 46.0553 44.1821Z" fill="#333333"/>
<path d="M30.0059 7.30762H33.1356C36.3821 7.30762 38.0054 8.89235 38.0054 11.3159V11.3393C38.0054 13.7628 36.3471 15.4643 33.0422 15.4643H30.0059V7.30762ZM32.7386 9.68489V13.0873H33.194C34.4552 13.0873 35.2494 12.5746 35.2494 11.3975V11.3742C35.2494 10.1974 34.4552 9.6844 33.194 9.6844L32.7386 9.68489Z" fill="white"/>
<path d="M38.7529 7.30762H42.7468C44.2066 7.30762 45.1176 7.66885 45.6897 8.23981C46.1919 8.74086 46.4369 9.33509 46.4369 10.174V10.1974C46.4369 11.3975 45.818 12.2131 44.8254 12.6906L46.7289 15.4637H43.6108L42.0693 13.1334H41.4854V15.4637H38.7529V7.30762ZM42.6651 11.1878C43.3191 11.1878 43.7162 10.8965 43.7162 10.3954V10.3721C43.7162 9.84782 43.3191 9.59146 42.6768 9.59146H41.4856V11.1874L42.6651 11.1878Z" fill="white"/>
<path d="M47.125 7.30762H49.8577V15.464H47.125V7.30762Z" fill="white"/>
<path d="M50.2197 7.30762H53.2795L54.8678 11.8869L56.4559 7.30762H59.4688L56.1521 15.5223H53.5362L50.2197 7.30762Z" fill="white"/>
<path d="M59.8076 7.30762H66.7795V9.54482H62.4936V10.3721H66.4876V12.3413H62.4936V13.2269H66.8378V15.464H59.8076V7.30762Z" fill="white"/>
<path d="M67.5725 7.30762H71.5664C73.0262 7.30762 73.9371 7.66885 74.5093 8.23981C75.0115 8.74086 75.2565 9.33509 75.2565 10.174V10.1974C75.2565 11.3975 74.6375 12.2131 73.6449 12.6906L75.5485 15.4637H72.4303L70.8888 13.1334H70.305V15.4637H67.5723L67.5725 7.30762ZM71.4847 11.1878C72.1387 11.1878 72.5357 10.8965 72.5357 10.3954V10.3721C72.5357 9.84782 72.1387 9.59146 71.4964 9.59146H70.3052V11.1874L71.4847 11.1878Z" fill="white"/>
<path d="M79.426 7.30762H82.1587V13.1339H86.0008V15.4642H79.4258L79.426 7.30762Z" fill="white"/>
<path d="M86.6191 7.30762H89.3519V15.464H86.6191V7.30762Z" fill="white"/>
<path d="M90.1221 11.4076V11.3843C90.1221 8.94909 92.0257 7.13135 94.4664 7.13135C96.2762 7.13135 97.4793 8.00522 98.1683 9.25184L95.9144 10.5689C95.599 9.97463 95.1787 9.57844 94.4313 9.57844C93.5088 9.57844 92.9015 10.3824 92.9015 11.3612V11.3845C92.9015 12.4448 93.5324 13.1902 94.4313 13.1902C95.2138 13.1902 95.6342 12.7707 95.9729 12.1649L98.2267 13.4349C97.5377 14.6468 96.3816 15.6372 94.3613 15.6372C92.0957 15.6373 90.1221 13.9359 90.1221 11.4076Z" fill="white"/>
<path d="M98.752 7.30762H105.724V9.54482H101.438V10.3721H105.432V12.3413H101.438V13.2269H105.782V15.464H98.752V7.30762Z" fill="white"/>
<path d="M106.518 7.30762H109.075L111.983 10.9082V7.30762H114.692V15.464H112.263L109.227 11.7004V15.464H106.518L106.518 7.30762Z" fill="white"/>
<path d="M114.949 14.2373L116.409 12.5012C117.228 13.1324 118.236 13.4691 119.27 13.4567C119.772 13.4567 119.971 13.3285 119.971 13.1071V13.0838C119.971 12.8508 119.714 12.7226 118.838 12.5479C117.005 12.1752 115.393 11.6506 115.393 9.92612V9.90284C115.393 8.35314 116.619 7.15283 118.861 7.15283C120.449 7.15283 121.606 7.52558 122.552 8.27106L121.22 10.1122C120.504 9.60064 119.648 9.32005 118.768 9.30811C118.359 9.30811 118.172 9.44802 118.172 9.64607V9.66934C118.172 9.89075 118.383 10.0421 119.258 10.1938C121.349 10.5665 122.75 11.196 122.75 12.8271V12.8504C122.75 14.5632 121.337 15.6119 119.142 15.6119C117.472 15.6124 115.989 15.1579 114.949 14.2373Z" fill="white"/>
<path d="M123.38 7.30762H130.352V9.54482H126.066V10.3721H130.06V12.3413H126.066V13.2269H130.41V15.464H123.38L123.38 7.30762Z" fill="white"/>
</svg>
