<svg width="151" height="139" viewBox="0 0 151 139" fill="none" xmlns="http://www.w3.org/2000/svg">
<path fill-rule="evenodd" clip-rule="evenodd" d="M2.94081 46.8131L57.3656 1.85554C58.1842 1.17752 59.1283 0.66789 60.1437 0.355827C61.1591 0.0437647 62.2259 -0.0646028 63.2832 0.0369145C64.3404 0.138432 65.3673 0.447825 66.3051 0.947432C67.2429 1.44704 68.0731 2.12704 68.7483 2.9485L132.063 79.824C133.429 81.4911 134.081 83.6322 133.876 85.7794C133.671 87.9266 132.627 89.9053 130.97 91.2831L76.4937 136.241C75.6746 136.918 74.7304 137.427 73.715 137.738C72.6997 138.05 71.633 138.158 70.5759 138.056C69.5189 137.954 68.4922 137.645 67.5545 137.146C66.6168 136.646 65.7865 135.967 65.111 135.146L1.84801 58.2183C0.483513 56.5603 -0.167901 54.4272 0.0370308 52.288C0.241962 50.1488 1.28646 48.1788 2.94081 46.8111V46.8131Z" fill="#64160E"/>
<path fill-rule="evenodd" clip-rule="evenodd" d="M83.0921 103.116L97.2308 91.3966C97.632 91.0679 98.1465 90.911 98.6625 90.96C99.1784 91.009 99.6543 91.2599 99.9867 91.6584L101.909 94.0021L96.814 98.1682C95.9559 97.639 94.955 97.3897 93.9495 97.4548C92.9439 97.52 91.9834 97.8963 91.2004 98.5319C90.42 99.1785 89.8645 100.057 89.6136 101.04C89.3628 102.023 89.4296 103.06 89.8045 104.003L84.7114 108.169L82.8389 105.877C82.6711 105.68 82.5445 105.452 82.4666 105.205C82.3887 104.958 82.3612 104.698 82.3856 104.441C82.4099 104.183 82.4857 103.933 82.6085 103.705C82.7313 103.478 82.8984 103.277 83.1001 103.116H83.0921ZM103.78 96.294L105.704 98.6357C106.032 99.0377 106.188 99.5529 106.14 100.07C106.091 100.587 105.842 101.063 105.445 101.397L91.3041 113.064C90.8975 113.402 90.3737 113.565 89.8476 113.516C89.3216 113.467 88.8363 113.211 88.4983 112.804L86.6258 110.513L91.6691 106.293C92.5168 106.844 93.5175 107.111 94.5266 107.055C95.5357 106.999 96.5009 106.623 97.2827 105.981C98.0675 105.338 98.6304 104.463 98.8916 103.482C99.1529 102.5 99.0993 101.461 98.7384 100.512L103.78 96.294Z" fill="#AC271B"/>
<path fill-rule="evenodd" clip-rule="evenodd" d="M92.3498 99.9491C92.8074 99.5735 93.3658 99.3423 93.9545 99.2847C94.5432 99.2271 95.1357 99.3457 95.6572 99.6254C96.1786 99.9052 96.6056 100.334 96.8841 100.856C97.1626 101.379 97.2802 101.973 97.222 102.563C97.1637 103.153 96.9323 103.712 96.5569 104.17C96.1815 104.628 95.679 104.964 95.1129 105.136C94.5469 105.308 93.9426 105.308 93.3766 105.136C92.8106 104.964 92.3082 104.627 91.933 104.169C91.438 103.551 91.2044 102.763 91.2823 101.974C91.3602 101.185 91.7434 100.458 92.3498 99.9491Z" fill="#AC271B"/>
<path d="M55.6505 92.8041L53.415 94.6264L61.3678 104.217L62.8754 103.018L59.8602 99.3739L60.5881 98.8004C60.9286 98.5754 61.2131 98.2751 61.4196 97.9225C61.6261 97.57 61.7491 97.1747 61.7791 96.7671C61.8092 96.3594 61.7455 95.9503 61.5929 95.5712C61.4404 95.1921 61.203 94.8532 60.8991 94.5804L59.8602 93.3316C59.6545 92.975 59.369 92.671 59.0263 92.4436C58.6836 92.2162 58.2928 92.0716 57.8849 92.0211C57.4769 91.9705 57.0628 92.0155 56.6751 92.1524C56.2874 92.2893 55.9367 92.5144 55.6505 92.8101V92.8041ZM56.7932 94.1588C57.2598 93.7412 57.7284 93.7952 58.2489 94.4705L59.4454 95.8692C60.0177 96.5985 59.9659 97.0161 59.4454 97.4317L58.7714 98.0052L56.0673 94.7243L56.7932 94.1588ZM61.7786 87.7529L59.5431 89.5752L65.9384 100.461L67.2885 99.314L66.1458 97.3358L67.9645 95.8252L69.6795 97.3358L71.189 96.085L61.7786 87.7529ZM61.978 90.4084L66.7082 94.6803L65.2524 95.8792L61.978 90.4084ZM65.6672 88.3763C67.9545 91.0857 71.1791 89.0536 72.8462 91.0338C73.4185 91.7111 73.3148 92.1787 72.8462 92.5963C72.3277 93.0119 71.8491 93.0119 71.2888 92.3365L70.7164 91.6072L69.2607 92.8061L69.7812 93.3796C70.0127 93.7052 70.3087 93.9795 70.6506 94.1854C70.9926 94.3914 71.3733 94.5246 71.7689 94.5767C72.1645 94.6288 72.5665 94.5987 72.95 94.4883C73.3335 94.3778 73.6902 94.1894 73.9978 93.9349C74.3054 93.6803 74.5574 93.3649 74.7381 93.0084C74.9187 92.652 75.0242 92.2621 75.0479 91.863C75.0715 91.4639 75.0129 91.0642 74.8757 90.6888C74.7384 90.3134 74.5255 89.9704 74.2501 89.6811C72.0166 86.9217 68.7402 89.0037 67.1289 87.0256C66.5586 86.3482 66.6104 85.8267 67.0771 85.463C67.5976 85.0454 68.0742 85.0974 68.6365 85.7747L68.9496 86.1923L70.4033 84.9935L70.1441 84.6818C69.9126 84.3563 69.6167 84.0822 69.2749 83.8763C68.9331 83.6704 68.5526 83.5373 68.1571 83.4851C67.7617 83.433 67.3598 83.463 66.9765 83.5732C66.5931 83.6835 66.2365 83.8716 65.9289 84.126C65.6212 84.3803 65.3692 84.6954 65.1883 85.0516C65.0075 85.4078 64.9018 85.7975 64.8778 86.1964C64.8539 86.5953 64.9121 86.9949 65.0489 87.3703C65.1858 87.7456 65.3982 88.0888 65.6732 88.3783L65.6672 88.3763ZM70.8141 84.1063C73.1015 86.8677 76.324 84.7837 77.9353 86.7618C78.5076 87.4911 78.404 87.9607 77.9353 88.3763C77.4667 88.7419 76.9382 88.7419 76.3759 88.0646L75.8036 87.3872L74.4076 88.5861L74.8743 89.1595C75.1047 89.4911 75.401 89.7714 75.7446 89.9829C76.0882 90.1944 76.4717 90.3324 76.871 90.3884C77.2704 90.4444 77.6769 90.4171 78.0653 90.3083C78.4536 90.1995 78.8153 90.0114 79.1277 89.756C79.4401 89.5005 79.6965 89.1831 79.8807 88.8237C80.065 88.4643 80.1731 88.0707 80.1984 87.6674C80.2237 87.2642 80.1656 86.8601 80.0277 86.4804C79.8898 86.1007 79.6751 85.7537 79.3971 85.461C77.1097 82.6996 73.8872 84.7837 72.2759 82.8035C71.7036 82.0742 71.7554 81.6047 72.224 81.1891C72.6907 80.8254 73.2211 80.8774 73.7835 81.5547L74.0945 81.9184L75.4905 80.7735L75.2312 80.4597C75.0059 80.1301 74.7146 79.8511 74.3758 79.6405C74.037 79.4298 73.6581 79.2921 73.2633 79.2361C72.8685 79.1801 72.4664 79.2071 72.0826 79.3152C71.6987 79.4234 71.3415 79.6104 71.0337 79.8644C70.7259 80.1184 70.4743 80.4338 70.2947 80.7905C70.1152 81.1472 70.0117 81.5375 69.9909 81.9365C69.97 82.3354 70.0323 82.7344 70.1737 83.108C70.3151 83.4815 70.5325 83.8215 70.8122 84.1063H70.8141ZM76.4796 75.6163L74.2441 77.4386L82.147 87.0296L83.6526 85.7787L80.6913 82.1821L81.3673 81.6107C81.7072 81.3851 81.991 81.0846 82.1971 80.7321C82.4031 80.3796 82.5258 79.9845 82.5558 79.5771C82.5859 79.1697 82.5224 78.7609 82.3703 78.3819C82.2182 78.0029 81.9815 77.6638 81.6784 77.3906L80.6374 76.1418C80.4379 75.7857 80.1577 75.4814 79.8195 75.2535C79.4812 75.0257 79.0943 74.8805 78.6898 74.8298C78.2854 74.7791 77.8747 74.8242 77.4908 74.9615C77.1069 75.0988 76.7605 75.3244 76.4796 75.6203V75.6163ZM77.5724 76.9711C78.039 76.5535 78.5076 76.5534 79.08 77.2827L80.2765 78.6814C80.8488 79.3588 80.7451 79.8264 80.2765 80.192L79.5486 80.8174L76.9103 77.5445L77.5724 76.9711ZM82.6136 74.2097C82.0413 73.5323 82.147 73.0108 82.6136 72.6471C83.0823 72.2315 83.6107 72.2315 84.1731 72.9608L88.4366 78.116C89.0069 78.7933 88.9032 79.3148 88.4366 79.7304C87.968 80.0961 87.4395 80.0961 86.8772 79.4187L82.6136 74.2097ZM85.2659 80.5636C85.5038 80.8964 85.8075 81.1766 86.1582 81.3867C86.5088 81.5968 86.8989 81.7324 87.304 81.7849C87.7092 81.8375 88.1209 81.8059 88.5133 81.6922C88.9058 81.5784 89.2707 81.385 89.5854 81.1239C89.9 80.8628 90.1576 80.5396 90.3423 80.1744C90.5269 79.8092 90.6345 79.4098 90.6584 79.0012C90.6824 78.5925 90.6221 78.1833 90.4814 77.799C90.3407 77.4146 90.1225 77.0634 89.8405 76.7672L85.7325 71.772C85.5131 71.4239 85.2191 71.1291 84.8719 70.9088C84.5247 70.6886 84.1331 70.5484 83.7252 70.4985C83.3173 70.4486 82.9035 70.4902 82.5136 70.6202C82.1237 70.7503 81.7676 70.9655 81.471 71.2504C81.1343 71.4906 80.8547 71.8024 80.6522 72.1633C80.4496 72.5243 80.3291 72.9256 80.2992 73.3386C80.2693 73.7516 80.3307 74.1662 80.4792 74.5527C80.6276 74.9391 80.8594 75.288 81.1579 75.5744L85.2659 80.5636ZM97.4303 74.4175C96.977 74.1597 96.5867 73.8041 96.2877 73.3764L95.0911 71.9178C94.2596 70.8768 93.428 70.3553 92.3891 70.669C92.5822 70.2005 92.6259 69.6835 92.5141 69.1891C92.4024 68.6947 92.1406 68.247 91.7649 67.9076L91.1407 67.1783C90.942 66.831 90.6625 66.5368 90.3261 66.3209C89.9897 66.1049 89.6062 65.9735 89.2082 65.9378C88.8103 65.9021 88.4096 65.9632 88.0402 66.1159C87.6708 66.2685 87.3437 66.5082 87.0866 66.8146L84.8511 68.6889L92.752 78.2798L94.2596 77.029L91.037 73.1227L91.5575 72.7051C92.2335 72.1316 92.8038 72.2375 93.5317 73.1227L94.7801 74.6332C95.0607 75.0582 95.4336 75.4141 95.8709 75.6743L97.4303 74.4175ZM88.1774 68.2233C88.7497 67.7537 89.2183 67.8577 89.7887 68.587L90.5684 69.5241C90.7032 69.6331 90.8102 69.7728 90.8803 69.9316C90.9504 70.0904 90.9817 70.2636 90.9716 70.437C90.9615 70.6103 90.9102 70.7787 90.822 70.9282C90.7338 71.0777 90.6113 71.2039 90.4647 71.2964L89.8943 71.764L87.4495 68.7948L88.1774 68.2233ZM91.037 65.8795L92.5964 64.5767L99.4065 72.805L100.914 71.5562L94.104 63.3259L95.6635 62.0251L94.5727 60.6265L89.8943 64.4808L91.037 65.8795Z" fill="#AC271B"/>
<path d="M40.2174 36.5524C42.3256 34.8119 44.7565 33.5063 47.3702 32.7107C49.9838 31.9151 52.7287 31.6453 55.4469 31.9168C58.164 32.176 60.8035 32.9691 63.2146 34.2508C65.6258 35.5324 67.7612 37.2775 69.4991 39.3864C71.2369 41.4952 72.543 43.9265 73.3427 46.5412C74.1425 49.156 74.4203 51.903 74.1602 54.6254C73.6174 60.1341 70.9281 65.206 66.6761 68.7401C62.4148 72.2459 56.939 73.9135 51.4515 73.3766C45.964 72.8398 40.9136 70.1423 37.4097 65.8768C35.6588 63.7812 34.3431 61.3564 33.5397 58.7446C32.7364 56.1329 32.4615 53.3867 32.7313 50.6671C33.2632 45.1547 35.9554 40.0786 40.2174 36.5524Z" fill="#AC271B"/>
<path d="M46.5529 40.0932C43.8488 38.0632 41.8746 37.0741 41.1467 37.6955C40.4188 38.269 40.9911 40.4569 42.4469 43.4781C43.4311 45.3969 44.5244 47.2575 45.7213 49.0508C46.7893 48.4523 47.7988 47.7546 48.7365 46.9668C49.6815 46.1829 50.5673 45.33 51.3867 44.4152C49.8733 42.8677 48.2584 41.4232 46.5529 40.0913V40.0932ZM46.6566 50.4075C47.5918 51.7622 48.6826 53.1669 49.8273 54.5736L56.0092 49.4704C54.8646 48.0717 53.6701 46.761 52.5254 45.5621C51.6848 46.5068 50.7633 47.376 49.7715 48.1596C48.7876 48.9814 47.7452 49.73 46.6526 50.3995L46.6566 50.4075ZM50.8663 55.8244C52.0109 57.2231 53.2054 58.5319 54.3501 59.7307C55.203 58.7797 56.1234 57.8915 57.104 57.0732C58.0756 56.2517 59.1195 55.5201 60.2229 54.8873C59.2876 53.5326 58.1968 52.1259 57.0522 50.7192L50.8663 55.8244ZM55.4927 60.8756C57.0068 62.4232 58.6224 63.8677 60.3286 65.1996C62.9788 67.2296 65.0049 68.1688 65.7328 67.5973C66.4606 67.0258 65.8903 64.8359 64.4346 61.8148C63.449 59.8791 62.3544 58.0012 61.1562 56.1901C60.0983 56.8241 59.0903 57.5382 58.141 58.326C57.1825 59.0954 56.2949 59.9494 55.4887 60.8777L55.4927 60.8756ZM56.1169 68.3766C58.4944 69.3556 61.1321 69.502 63.603 68.7922C62.1091 68.175 60.7089 67.351 59.4432 66.3445C57.7195 65.0155 56.0873 63.5716 54.5575 62.0226C53.492 63.3429 52.6012 64.7955 51.9072 66.3445C53.2242 67.1882 54.6376 67.8704 56.1169 68.3766ZM53.4148 60.8756C52.1665 59.6248 50.9699 58.2201 49.7236 56.7615L45.149 60.512C46.7678 62.3515 48.5804 64.0103 50.5552 65.4593C51.3273 63.8253 52.287 62.287 53.4148 60.8756ZM48.6826 55.5107C47.4861 54.0001 46.3953 52.5435 45.3564 51.0849C43.7833 51.9372 42.1079 52.5845 40.371 53.0111C41.3588 55.2499 42.6324 57.3508 44.1599 59.2612L48.6826 55.5107ZM44.473 49.7821C43.2521 47.9761 42.1413 46.0977 41.1467 44.1574C40.4138 42.7059 39.8721 41.1651 39.5354 39.5737C38.3941 41.8781 38.0289 44.4909 38.4944 47.0207C38.754 48.5703 39.1723 50.0889 39.7428 51.5524C41.378 51.133 42.9637 50.5395 44.473 49.7821ZM50.7626 36.9163C48.3855 35.9382 45.7488 35.7917 43.2784 36.5006C44.7815 37.0979 46.1839 37.9235 47.4363 38.9483C49.1604 40.2775 50.7927 41.7221 52.322 43.2723C53.3884 41.9515 54.2798 40.4981 54.9742 38.9483C53.6565 38.1046 52.2425 37.4223 50.7626 36.9163ZM53.4667 44.4172C54.713 45.668 55.9095 47.0747 57.1559 48.5313L61.7305 44.7828C60.1259 42.9287 58.3117 41.2678 56.3243 39.8335C55.54 41.4605 54.5819 42.9973 53.4667 44.4172ZM58.1968 49.7821C59.3933 51.2407 60.4841 52.7513 61.5231 54.158C63.1161 53.3492 64.7863 52.7033 66.5085 52.2298C65.5195 50.0089 64.2458 47.9266 62.7196 46.0356L58.1968 49.7821ZM62.4065 55.5107C63.6273 57.3167 64.7381 59.1951 65.7328 61.1354C66.4744 62.5832 67.0164 64.1252 67.3441 65.7191C68.4948 63.4173 68.8457 60.7964 68.3411 58.2721C68.1259 56.7188 67.7242 55.1972 67.1446 53.7404C65.5097 54.1607 63.9241 54.7542 62.4145 55.5107H62.4065ZM51.5941 71.9172C54.6103 72.2211 57.6555 71.8104 60.4841 70.7183C58.8189 70.6441 57.1732 70.3285 55.5984 69.7812C54.1093 69.2358 52.6805 68.5374 51.3349 67.6972C50.8266 69.008 50.4609 70.37 50.2441 71.7594L51.5941 71.9152V71.9172ZM49.9828 66.814C47.7891 65.2836 45.7977 63.481 44.0562 61.4491L39.0209 65.5632C41.5888 68.4435 44.9543 70.4927 48.6886 71.4497C48.9457 69.8602 49.3819 68.305 49.9888 66.814H49.9828ZM43.0092 60.1983C41.3557 58.1085 39.9758 55.8154 38.9032 53.3747C37.3234 53.6506 35.7206 53.773 34.1172 53.7404C34.3328 57.5915 35.6902 61.2906 38.0158 64.3644L43.0092 60.1983ZM38.2791 51.8661C37.7229 50.3661 37.3219 48.8127 37.0826 47.2305C36.8209 45.5912 36.8209 43.9205 37.0826 42.2812C35.464 44.8447 34.4669 47.7523 34.1711 50.7712C34.1192 51.2407 34.1192 51.7103 34.0674 52.1259C35.4756 52.1689 36.8848 52.0819 38.2771 51.8661H38.2791ZM55.2774 33.3236C52.258 33.0645 49.2192 33.4914 46.3874 34.5725C48.0534 34.6462 49.6999 34.9626 51.2751 35.5116C52.7637 36.0559 54.1918 36.7537 55.5366 37.5936C56.0451 36.2827 56.4115 34.9208 56.6294 33.5314C56.1828 33.4395 55.7314 33.3728 55.2774 33.3316V33.3236ZM56.8886 38.4788C59.0943 39.994 61.0876 41.7984 62.8153 43.8437L67.8566 39.6777C65.285 36.8125 61.9189 34.7811 58.1888 33.8432C57.9318 35.4327 57.4956 36.9878 56.8886 38.4788ZM63.8543 45.0945C65.5074 47.1846 66.8872 49.4776 67.9603 51.9181C69.5368 51.6165 71.1423 51.4939 72.7463 51.5524C72.5308 47.701 71.1741 44.0015 68.8497 40.9265L63.8543 45.0945ZM68.5844 53.4287C69.1462 54.927 69.5473 56.4809 69.7809 58.0643C70.0405 59.7032 70.0405 61.3728 69.7809 63.0116C71.3983 60.4477 72.3947 57.5403 72.6904 54.5217C72.7423 54.0521 72.7423 53.5845 72.7941 53.1229C71.3842 53.0972 69.975 53.2022 68.5844 53.4367V53.4287Z" fill="#49140E"/>
<path fill-rule="evenodd" clip-rule="evenodd" d="M49.6717 23.2214L118.391 7.0747C120.479 6.59495 122.671 6.96058 124.492 8.09208C126.312 9.22358 127.614 11.0294 128.112 13.117L150.776 110.201C151.018 111.238 151.055 112.312 150.883 113.362C150.711 114.413 150.335 115.419 149.775 116.323C149.215 117.228 148.482 118.013 147.619 118.634C146.756 119.255 145.78 119.699 144.746 119.942L76.0266 136.037C74.9923 136.28 73.9204 136.316 72.872 136.144C71.8237 135.972 70.8194 135.595 69.9167 135.034C69.0139 134.472 68.2303 133.739 67.6106 132.874C66.9909 132.01 66.5473 131.031 66.305 129.995L43.6413 32.9583C43.3975 31.922 43.3601 30.8477 43.5314 29.7969C43.7026 28.7462 44.0792 27.7396 44.6394 26.8349C45.1996 25.9302 45.9324 25.1451 46.796 24.5247C47.6595 23.9043 48.6367 23.4608 49.6717 23.2195V23.2214Z" fill="#7EADB5"/>
<path fill-rule="evenodd" clip-rule="evenodd" d="M96.6107 109.263L114.441 105.045C114.958 104.931 115.498 105.025 115.946 105.308C116.394 105.591 116.713 106.039 116.834 106.555L117.51 109.47L111.116 110.929C110.582 110.075 109.795 109.41 108.864 109.026C107.934 108.643 106.908 108.56 105.928 108.79C104.949 109.019 104.066 109.55 103.402 110.307C102.738 111.064 102.327 112.01 102.226 113.013L95.833 114.524L95.157 111.606C95.0965 111.357 95.0863 111.097 95.127 110.843C95.1677 110.59 95.2585 110.347 95.394 110.128C95.5295 109.91 95.7071 109.721 95.9164 109.573C96.1256 109.424 96.3623 109.319 96.6127 109.263H96.6107ZM118.184 112.388L118.86 115.305C118.975 115.809 118.887 116.338 118.614 116.778C118.341 117.217 117.906 117.53 117.404 117.649L99.574 121.867C99.0573 121.981 98.5164 121.887 98.0685 121.604C97.6206 121.322 97.3018 120.874 97.181 120.358L96.505 117.441L102.898 115.93C103.411 116.81 104.195 117.499 105.133 117.894C106.071 118.289 107.111 118.367 108.097 118.118C109.087 117.895 109.98 117.36 110.644 116.591C111.309 115.822 111.709 114.86 111.788 113.846L118.184 112.388Z" fill="#9ED6DD"/>
<path fill-rule="evenodd" clip-rule="evenodd" d="M106.332 110.513C107.105 110.334 107.917 110.469 108.59 110.889C109.263 111.309 109.742 111.979 109.922 112.753C110.096 113.533 109.96 114.349 109.542 115.03C109.125 115.71 108.459 116.201 107.686 116.398C106.914 116.577 106.102 116.442 105.429 116.022C104.756 115.602 104.277 114.932 104.097 114.158C103.923 113.378 104.06 112.562 104.477 111.881C104.895 111.201 105.56 110.71 106.332 110.513Z" fill="#9ED6DD"/>
<path d="M76.5998 87.8047L73.792 88.482L76.6516 100.617L78.5222 100.149L77.4812 95.6173L78.3666 95.4075C78.7762 95.3564 79.1685 95.2109 79.5125 94.9823C79.8565 94.7537 80.143 94.4483 80.3493 94.0901C80.5557 93.732 80.6764 93.3307 80.7019 92.9179C80.7274 92.5051 80.6571 92.092 80.4964 91.711L80.1334 90.1485C80.0982 89.7418 79.9718 89.3483 79.7636 88.9974C79.5555 88.6465 79.2709 88.3473 78.9312 88.122C78.5915 87.8966 78.2054 87.7511 77.8017 87.6961C77.398 87.6412 76.9872 87.6783 76.5998 87.8047ZM77.0146 89.575C77.5869 89.4191 78.0017 89.6269 78.2111 90.4602L78.6279 92.2824C78.8273 93.1696 78.576 93.5332 77.9518 93.6371L77.0684 93.8989L76.0713 89.7828L77.0146 89.575ZM84.2913 86.0343L81.5373 86.6577L82.4208 99.2618L84.1876 98.8462L83.9882 96.5544L86.3273 96.0329L87.1589 98.1169L89.0813 97.6993L84.2913 86.0343ZM83.3042 88.534L85.6972 94.4184L83.8267 94.836L83.3042 88.534ZM87.5677 88.3342C88.3454 91.7729 92.1942 91.4073 92.7645 93.9089C92.9639 94.7421 92.6608 95.1577 92.0885 95.3076C91.4643 95.4115 90.9977 95.2037 90.7903 94.3185L90.6327 93.4853L88.8141 93.9029L88.9696 94.6302C89.0107 95.0415 89.1423 95.4385 89.3548 95.7928C89.5674 96.147 89.8557 96.4497 90.1989 96.679C90.5421 96.9082 90.9318 97.0584 91.3399 97.1188C91.748 97.1791 92.1644 97.1481 92.5591 97.028C92.9616 96.9643 93.3446 96.8102 93.6793 96.5772C94.014 96.3443 94.2918 96.0385 94.4918 95.6827C94.6919 95.327 94.809 94.9305 94.8345 94.523C94.86 94.1155 94.7932 93.7074 94.639 93.3295C93.8573 89.8387 90.0126 90.2564 89.4402 87.7567C89.2408 86.8715 89.4921 86.4539 90.1163 86.358C90.7384 86.2022 91.1552 86.4619 91.3626 87.2951L91.4663 87.8167L93.2351 87.399L93.1833 87.0354C92.7147 85.0552 91.5202 84.1701 89.6476 84.6376C89.2426 84.6958 88.8563 84.8465 88.5185 85.0781C88.1808 85.3096 87.9008 85.6158 87.6999 85.9731C87.4991 86.3303 87.3829 86.729 87.3604 87.1384C87.3378 87.5478 87.4094 87.9569 87.5697 88.3342H87.5677ZM94.0129 86.8236C94.8444 90.2624 98.6912 89.8967 99.2615 92.3464C99.4709 93.2315 99.1578 93.6471 98.5356 93.745C97.9115 93.9029 97.4947 93.6931 97.2873 92.8079L97.0879 91.9747L95.2672 92.3923L95.4766 93.1216C95.5385 93.5173 95.6811 93.8961 95.8955 94.2342C96.1098 94.5723 96.3912 94.8626 96.7223 95.087C97.0534 95.3115 97.4271 95.4652 97.8201 95.5388C98.213 95.6123 98.6169 95.604 99.0065 95.5144C99.3962 95.4248 99.7632 95.2558 100.085 95.018C100.407 94.7801 100.676 94.4785 100.876 94.1319C101.076 93.7852 101.203 93.401 101.249 93.0031C101.295 92.6052 101.258 92.2021 101.142 91.8189C100.31 88.3282 96.5155 88.7458 95.8914 86.2461C95.6919 85.361 95.9951 84.9434 96.5674 84.8475C97.1916 84.6916 97.6064 84.9514 97.8157 85.7846L97.9194 86.3061L99.7381 85.8885L99.6344 85.4729C99.6041 85.0639 99.4808 84.6673 99.2738 84.3136C99.0668 83.9598 98.7818 83.6582 98.4404 83.4319C98.0991 83.2056 97.7106 83.0607 97.3047 83.0082C96.8988 82.9557 96.4862 82.9971 96.0988 83.1291C94.2801 83.5447 93.6041 84.8475 94.0208 86.8256L94.0129 86.8236ZM102.849 81.6685L100.043 82.3458L102.901 94.4284L104.773 94.0128L103.732 89.4291L104.616 89.2293C105.023 89.1844 105.414 89.0446 105.758 88.8212C106.102 88.5978 106.389 88.297 106.596 87.9427C106.803 87.5884 106.925 87.1905 106.951 86.7807C106.977 86.371 106.908 85.9607 106.748 85.5828L106.385 84.0202C105.916 82.0921 104.773 81.2069 102.849 81.6765V81.6685ZM103.266 83.3868C103.888 83.2829 104.253 83.4388 104.462 84.3239L104.879 86.1482C105.078 87.0334 104.827 87.3471 104.203 87.5009L103.32 87.7008L102.384 83.5866L103.266 83.3868ZM108.983 83.187C108.784 82.3019 109.087 81.8843 109.659 81.7883C110.283 81.6325 110.75 81.8403 110.959 82.7255L112.465 89.2893C112.664 90.1225 112.361 90.5381 111.791 90.6879C111.167 90.8438 110.698 90.584 110.491 89.7508L108.983 83.187ZM108.566 90.0605C108.638 90.4573 108.789 90.8353 109.011 91.1717C109.233 91.508 109.521 91.7956 109.857 92.0169C110.194 92.2382 110.572 92.3887 110.968 92.4592C111.364 92.5296 111.77 92.5186 112.162 92.4268C112.554 92.3349 112.923 92.1642 113.247 91.9249C113.571 91.6857 113.843 91.3829 114.046 91.0351C114.25 90.6872 114.381 90.3015 114.431 89.9014C114.481 89.5013 114.449 89.0952 114.337 88.7078L112.882 82.4058C112.812 82.0075 112.661 81.6278 112.44 81.2898C112.218 80.9518 111.93 80.6626 111.593 80.44C111.256 80.2173 110.878 80.0659 110.48 79.9949C110.083 79.924 109.675 79.935 109.282 80.0272C108.889 80.1195 108.519 80.2911 108.195 80.5316C107.87 80.772 107.598 81.0763 107.395 81.4257C107.192 81.7752 107.062 82.1625 107.014 82.5639C106.965 82.9654 106.999 83.3725 107.113 83.7605L108.566 90.0605ZM122.186 89.9566C121.895 89.5173 121.7 89.0207 121.614 88.5L121.199 86.6238C120.886 85.375 120.368 84.5397 119.327 84.3319C119.696 83.9993 119.957 83.564 120.077 83.0817C120.198 82.5993 120.172 82.092 120.003 81.6245L119.744 80.6254C119.327 78.7512 118.288 78.0738 116.312 78.4914L113.402 79.1688L116.26 91.3034L118.184 90.8878L116.988 85.9384L117.664 85.7826C118.547 85.5828 119.016 85.8865 119.275 87.0334L119.692 88.9596C119.792 89.4497 119.967 89.9214 120.21 90.3583L122.186 89.9566ZM116.625 80.2698C117.301 80.1139 117.716 80.4256 117.925 81.3108L118.184 82.5097C118.384 83.4468 118.029 83.8644 117.353 84.0202L116.625 84.22L115.741 80.4696L116.625 80.2698ZM120.214 79.4366L122.242 78.967L124.635 89.3332L126.56 88.9156L124.115 78.4995L126.091 78.0299L125.728 76.3115L119.801 77.7102L120.214 79.4366Z" fill="#9ED6DD"/>
<path d="M87.6193 30.5621C90.2778 29.939 93.0329 29.8477 95.7267 30.2935C98.4205 30.7392 101 31.7132 103.317 33.1596C105.647 34.5852 107.67 36.4619 109.268 38.6799C110.865 40.8979 112.006 43.4128 112.622 46.0775C113.56 50.0886 113.292 54.2882 111.85 58.1463C110.408 62.0045 107.858 65.3482 104.521 67.7554C101.184 70.1627 97.2106 71.5255 93.1016 71.6719C88.9926 71.8184 84.9324 70.7418 81.4334 68.5782C77.9295 66.4113 75.1465 63.2509 73.4369 59.4977C71.7273 55.7444 71.1681 51.5671 71.8302 47.4951C72.4922 43.4231 74.3457 39.6396 77.1559 36.6241C79.966 33.6086 83.6062 31.4967 87.6153 30.5561L87.6193 30.5621Z" fill="#9ED6DD"/>
<path d="M91.7765 36.5525C90.2689 33.5314 88.865 31.757 87.9876 31.9688C87.0523 32.1687 86.5917 34.4165 86.5917 37.8013C86.6138 39.9623 86.7703 42.1198 87.0603 44.2612C88.2836 44.1473 89.4985 43.9558 90.6977 43.6878C91.9024 43.3927 93.0841 43.01 94.2333 42.5429C93.5521 40.4928 92.7361 38.4903 91.7905 36.5485L91.7765 36.5525ZM87.3056 45.8238C87.5668 47.4902 87.8779 49.2086 88.3027 50.9789L96.0999 49.1566C95.6851 47.3863 95.2164 45.6679 94.7039 44.1054C93.5218 44.5797 92.3051 44.9625 91.0646 45.2503C89.8297 45.5174 88.5797 45.7089 87.3215 45.8238H87.3056ZM88.6576 52.5434C89.0724 54.3137 89.5411 56.0321 90.0536 57.5947C91.2349 57.1197 92.451 56.7362 93.6909 56.4477C94.9259 56.1813 96.1759 55.9904 97.434 55.8763C97.1747 54.2098 96.8616 52.4895 96.4468 50.7192L88.6576 52.5434ZM90.5282 59.1572C91.2097 61.2071 92.0258 63.2095 92.971 65.1515C94.4786 68.1727 95.8825 69.947 96.7599 69.7352C97.6972 69.5254 98.1558 67.3375 98.1558 63.9527C98.137 61.7923 97.9811 59.6353 97.6892 57.4947C96.4636 57.5653 95.2461 57.7397 94.0499 58.0163C92.8449 58.3107 91.6632 58.6934 90.5142 59.1612L90.5282 59.1572ZM87.7742 66.1366C89.4785 68.0741 91.7863 69.3775 94.3231 69.8351C93.2515 68.6134 92.3591 67.2449 91.6728 65.7709C90.7189 63.8171 89.9026 61.7987 89.23 59.7306C87.7007 60.4789 86.2542 61.3864 84.9146 62.4381C85.7446 63.7618 86.7024 65.0006 87.7742 66.1366ZM88.7095 58.2201C88.189 56.5516 87.6705 54.7294 87.2019 52.9071L81.4846 54.2098C82.0827 56.5849 82.9729 58.8763 84.1349 61.0314C85.5424 59.9149 87.0782 58.9711 88.7095 58.2201ZM86.8389 51.3445C86.4222 49.4703 86.1111 47.646 85.798 45.8757C84.001 45.9291 82.204 45.7715 80.4437 45.4061C80.3941 47.8377 80.6209 50.2671 81.1197 52.6473L86.8389 51.3445ZM85.5906 44.3132C85.2977 42.1372 85.1412 39.945 85.122 37.7494C85.0907 36.1321 85.2833 34.5182 85.6943 32.9539C83.6273 34.5016 82.1437 36.7043 81.4846 39.204C80.9931 40.6896 80.6785 42.2281 80.5473 43.7877C82.2041 44.1471 83.8955 44.322 85.5906 44.3092V44.3132ZM96.9753 35.5634C95.256 33.6436 92.954 32.344 90.4245 31.8649C91.4968 33.0858 92.3898 34.4536 93.0767 35.9271C94.0215 37.8857 94.8376 39.9041 95.5196 41.9694C97.049 41.2217 98.4949 40.3134 99.833 39.26C99.0031 37.9373 98.046 36.6992 96.9753 35.5634ZM96.0381 43.48C96.5585 45.1464 97.079 46.9687 97.5456 48.8449L103.265 47.4902C102.667 45.1142 101.776 42.8221 100.613 40.6666C99.206 41.7849 97.6701 42.7295 96.0381 43.48ZM97.9106 50.4074C98.3254 52.2297 98.6384 54.052 98.9495 55.8243C100.746 55.7712 102.543 55.9281 104.304 56.2919C104.354 53.861 104.127 51.4322 103.628 49.0527L97.9106 50.4074ZM99.1569 57.3868C99.4507 59.5621 99.6072 61.7537 99.6256 63.9486C99.6581 65.566 99.4655 67.1801 99.0532 68.7441C101.109 67.2096 102.592 65.0286 103.265 62.55C103.751 61.0452 104.064 59.49 104.2 57.9144C102.539 57.5819 100.851 57.408 99.1569 57.3948V57.3868ZM82.1606 67.3355C84.7449 68.9238 87.6632 69.8864 90.6837 70.1468C89.2192 69.3715 87.886 68.3695 86.7333 67.1776C85.6414 66.0275 84.6668 64.7711 83.8238 63.4272C82.7958 64.3667 81.8719 65.4144 81.0678 66.5522L82.1606 67.3355ZM82.9922 62.0225C81.72 59.6687 80.7422 57.1669 80.0807 54.5735L73.7393 56.0321C74.7429 59.7458 76.8444 63.0684 79.7676 65.5631C80.7302 64.285 81.8097 63.0996 82.9922 62.0225ZM79.7158 53.011C79.1413 50.3962 78.9147 47.7168 79.0418 45.0425C77.4997 44.593 76.003 44.0003 74.5708 43.2722C73.0778 46.8017 72.6615 50.6953 73.3743 54.4616L79.7158 53.011ZM79.1455 43.42C79.3056 41.831 79.6188 40.2611 80.0807 38.7325C80.5923 37.1493 81.3465 35.6555 82.3162 34.3046C79.721 35.876 77.5282 38.0334 75.9129 40.6047C75.7135 41.0223 75.4443 41.386 75.2369 41.8036C76.4797 42.47 77.7857 43.0108 79.1355 43.418L79.1455 43.42ZM102.589 34.3566C100.003 32.7693 97.0819 31.8093 94.0598 31.5532C95.5246 32.3273 96.858 33.3287 98.0103 34.5204C99.1023 35.6709 100.078 36.9272 100.922 38.2709C101.961 37.3433 102.886 36.2942 103.676 35.1458L102.585 34.3646L102.589 34.3566ZM101.757 39.6696C103.028 42.0238 104.005 44.5255 104.667 47.1185L111.01 45.6599C110.006 41.9459 107.904 38.6233 104.98 36.1289C104.045 37.4289 102.963 38.6169 101.757 39.6696ZM105.032 48.6791C105.607 51.2944 105.834 53.9745 105.708 56.6495C107.25 57.0985 108.747 57.6912 110.179 58.4199C111.671 54.8901 112.087 50.9968 111.375 47.2304L105.032 48.6791ZM105.604 58.316C105.443 59.8881 105.129 61.4407 104.667 62.9516C104.167 64.539 103.414 66.0344 102.435 67.3794C105.033 65.821 107.221 63.6622 108.817 61.0834C109.016 60.6678 109.283 60.3021 109.493 59.8845C108.248 59.2345 106.942 58.7111 105.594 58.322L105.604 58.316Z" fill="#6B97A0"/>
</svg>
