<svg width="30" height="31" viewBox="0 0 30 31" fill="none" xmlns="http://www.w3.org/2000/svg">
<path fill-rule="evenodd" clip-rule="evenodd" d="M12.4095 2.3635C9.64091 -0.404789 5.13162 -0.404593 2.36335 2.36399C-0.404716 5.13233 -0.404716 9.64123 2.36336 12.4096C4.42938 14.4742 7.53439 15.0293 10.1865 13.8875L17.5328 21.2339L16.3703 22.3964C16.2444 22.5222 16.1737 22.6928 16.1736 22.8708C16.1735 23.0488 16.2441 23.2195 16.3698 23.3455L18.4913 25.467C18.5536 25.5294 18.6277 25.5788 18.7091 25.6126C18.7906 25.6464 18.8779 25.6637 18.9661 25.6637C19.0543 25.6637 19.1416 25.6464 19.2231 25.6126C19.3046 25.5788 19.3786 25.5294 19.4409 25.467L20.6034 24.3044L20.9635 24.6645L18.7773 26.8507C18.6514 26.9765 18.5806 27.1471 18.5805 27.3251C18.5804 27.5031 18.651 27.6739 18.7768 27.7998L20.8129 29.8359C20.8752 29.8983 20.9492 29.9478 21.0307 29.9816C21.1122 30.0153 21.1995 30.0327 21.2877 30.0327C21.3759 30.0327 21.4632 30.0153 21.5447 29.9816C21.6261 29.9478 21.7002 29.8983 21.7625 29.8359L23.9487 27.6497L24.5618 28.2628C25.5785 29.2795 27.2453 29.2788 28.2617 28.2624C29.2782 27.2459 29.2789 25.5791 28.2622 24.5625L13.883 10.1832C15.0243 7.53305 14.4708 4.42996 12.4095 2.3635C12.4096 2.36366 12.4093 2.36333 12.4095 2.3635ZM11.4593 3.31259C13.2317 5.09062 13.6507 7.80374 12.4953 10.0326C12.4297 10.1591 12.4061 10.3032 12.4279 10.4441C12.4497 10.5849 12.5157 10.7151 12.6165 10.8159L27.3126 25.5121C27.8196 26.0191 27.8198 26.806 27.3126 27.3133C26.8054 27.8205 26.0185 27.8203 25.5115 27.3133L24.4235 26.2253C24.2976 26.0995 24.1268 26.0289 23.9488 26.029C23.7709 26.0291 23.6002 26.0999 23.4744 26.2258L21.2882 28.412L20.2012 27.325L22.3874 25.1388C22.4498 25.0765 22.4993 25.0025 22.533 24.921C22.5668 24.8395 22.5842 24.7522 22.5842 24.664C22.5842 24.5758 22.5668 24.4885 22.533 24.407C22.4993 24.3255 22.4498 24.2515 22.3874 24.1892L21.0782 22.88C20.9523 22.7542 20.7816 22.6836 20.6036 22.6837C20.4256 22.6838 20.2549 22.7546 20.1291 22.8805L18.9666 24.043L17.7943 22.8707L18.9568 21.7082C19.0192 21.6458 19.0687 21.5718 19.1024 21.4904C19.1362 21.4089 19.1536 21.3216 19.1536 21.2334C19.1536 21.1452 19.1362 21.0578 19.1024 20.9764C19.0686 20.8949 19.0192 20.8209 18.9568 20.7585L10.8192 12.621C10.7184 12.5203 10.5882 12.4542 10.4474 12.4324C10.3065 12.4107 10.1624 12.4342 10.0359 12.4998C7.80519 13.6558 5.09015 13.2359 3.31297 11.4599C1.05782 9.20455 1.05782 5.5689 3.31297 3.31353C5.56812 1.05812 9.20376 1.05777 11.4593 3.31259ZM10.2449 4.53009C8.67201 2.95722 6.10038 2.95722 4.52751 4.53009C2.95463 6.10296 2.95659 8.67263 4.52947 10.2455C6.10234 11.8184 8.67005 11.8184 10.2429 10.2455C11.8158 8.67262 11.8177 6.10296 10.2449 4.53009ZM9.29574 5.47922C10.3556 6.53911 10.3537 8.23647 9.29378 9.29636C8.23389 10.3562 6.53849 10.3562 5.4786 9.29636C4.41871 8.23647 4.41675 6.53911 5.47664 5.47922C6.53652 4.41933 8.23585 4.41933 9.29574 5.47922Z" fill="#B4B8D7"/>
<path fill-rule="evenodd" clip-rule="evenodd" d="M2.36336 12.4096C-0.404716 9.64123 -0.404716 5.13233 2.36335 2.36399C5.00085 -0.273804 9.21879 -0.398639 12.0059 1.98966C12.144 2.10807 12.2787 2.23274 12.4095 2.3635C12.5615 2.51587 12.7058 2.67428 12.8413 2.83733C14.5437 4.88546 14.9402 7.72846 13.883 10.1832L28.2622 24.5625C29.2789 25.5791 29.2782 27.2459 28.2617 28.2624C27.2453 29.2788 25.5785 29.2795 24.5618 28.2628L23.9487 27.6497L21.7625 29.8359C21.7002 29.8983 21.6261 29.9478 21.5447 29.9816C21.4632 30.0153 21.3759 30.0327 21.2877 30.0327C21.1995 30.0327 21.1122 30.0153 21.0307 29.9816C20.9492 29.9478 20.8752 29.8983 20.8129 29.8359L18.7768 27.7998C18.651 27.6739 18.5804 27.5031 18.5805 27.3251C18.5806 27.1471 18.6514 26.9765 18.7773 26.8507L20.9635 24.6645L20.6034 24.3044L19.4409 25.467C19.3786 25.5294 19.3046 25.5788 19.2231 25.6126C19.1416 25.6464 19.0543 25.6637 18.9661 25.6637C18.8779 25.6637 18.7906 25.6464 18.7091 25.6126C18.6277 25.5788 18.5536 25.5294 18.4913 25.467L16.3698 23.3455C16.2441 23.2195 16.1735 23.0488 16.1736 22.8708C16.1737 22.6928 16.2444 22.5222 16.3703 22.3964L17.5328 21.2339L10.1865 13.8875C7.53439 15.0293 4.42938 14.4742 2.36336 12.4096ZM10.1192 14.2265C7.40195 15.3129 4.26435 14.7155 2.16025 12.6128C-0.72003 9.73223 -0.72011 5.04131 2.16017 2.16075M10.1192 14.2265L17.1265 21.2338L16.1672 22.193C16.1673 22.193 16.1672 22.1931 16.1672 22.193C15.9875 22.3727 15.8864 22.6165 15.8862 22.8706C15.8861 23.1248 15.9869 23.3686 16.1665 23.5485L18.2881 25.6701C18.288 25.67 18.2881 25.6701 18.2881 25.6701C18.3771 25.7591 18.4828 25.8298 18.5991 25.878C18.7155 25.9263 18.8402 25.9511 18.9661 25.9511C19.0921 25.9511 19.2168 25.9263 19.3331 25.878C19.3392 25.8755 19.3452 25.873 19.3511 25.8704L18.5742 26.6473C18.5742 26.6473 18.5741 26.6474 18.5742 26.6473C18.3944 26.827 18.2933 27.0708 18.2931 27.3249C18.293 27.5791 18.3938 27.823 18.5735 28.0028L20.6096 30.039C20.6096 30.039 20.6097 30.039 20.6096 30.039C20.6986 30.1281 20.8044 30.1988 20.9207 30.247C21.0371 30.2952 21.1618 30.32 21.2877 30.32C21.4136 30.32 21.5383 30.2952 21.6547 30.247C21.771 30.1988 21.8767 30.1281 21.9657 30.0391C21.9657 30.0391 21.9658 30.039 21.9657 30.0391L23.9487 28.0561L24.3587 28.466C25.4876 29.5949 27.3364 29.5941 28.465 28.4655C29.5936 27.337 29.5944 25.4881 28.4655 24.3592L14.2221 10.1158C15.308 7.40064 14.7127 4.26546 12.6135 2.16095L12.6122 2.15972L12.6103 2.15787L12.6094 2.15691C12.5909 2.13843 12.5723 2.12007 12.5536 2.10183L11.8387 1.39527L11.8713 1.51109C8.97641 -0.700952 4.80499 -0.484373 2.16017 2.16075M11.2507 3.51021C9.10692 1.37312 5.65731 1.37533 3.51622 3.51667C1.3733 5.65979 1.37327 9.11345 3.51613 11.2566C5.20475 12.9441 7.78415 13.343 9.9037 12.2446C10.0844 12.151 10.2902 12.1173 10.4913 12.1484C10.6924 12.1795 10.8785 12.2738 11.0224 12.4177L19.1599 20.5552C19.16 20.5552 19.1599 20.5552 19.1599 20.5552C19.249 20.6442 19.3197 20.75 19.3679 20.8663C19.4161 20.9827 19.441 21.1074 19.441 21.2333C19.441 21.3593 19.4161 21.484 19.3679 21.6003C19.3197 21.7167 19.2491 21.8223 19.16 21.9113C19.16 21.9113 19.16 21.9113 19.16 21.9113L18.2007 22.8706L18.9666 23.6366L19.9259 22.6773C19.9259 22.6773 19.9258 22.6773 19.9259 22.6773C20.1055 22.4975 20.3493 22.3964 20.6035 22.3963C20.8576 22.3962 21.1015 22.497 21.2813 22.6766L22.5906 23.9858C22.5906 23.9859 22.5905 23.9858 22.5906 23.9858C22.6796 24.0748 22.7503 24.1806 22.7985 24.2969C22.8468 24.4133 22.8716 24.538 22.8716 24.6639C22.8716 24.7899 22.8468 24.9146 22.7985 25.031C22.7503 25.1473 22.6796 25.253 22.5906 25.342L20.6076 27.325L21.2882 28.0055L23.2711 26.0226C23.2712 26.0226 23.2711 26.0226 23.2711 26.0226C23.4508 25.8429 23.6945 25.7417 23.9487 25.7416C24.2029 25.7414 24.4468 25.8423 24.6266 26.0219L25.7147 27.11C26.1095 27.5048 26.7145 27.505 27.1094 27.11C27.5044 26.715 27.5043 26.1101 27.1094 25.7152L12.4133 11.0191C12.2694 10.8751 12.1751 10.689 12.1439 10.4879C12.1128 10.2868 12.1466 10.081 12.2402 9.90031C13.338 7.78257 12.9404 5.20546 11.2563 3.51595L11.2507 3.51021ZM21.2882 28.412L20.2012 27.325L22.3874 25.1388C22.4498 25.0765 22.4993 25.0025 22.533 24.921C22.5668 24.8395 22.5842 24.7522 22.5842 24.664C22.5842 24.5758 22.5668 24.4885 22.533 24.407C22.4993 24.3255 22.4498 24.2515 22.3874 24.1892L21.0782 22.88C20.9523 22.7542 20.7816 22.6836 20.6036 22.6837C20.4256 22.6838 20.2549 22.7546 20.1291 22.8805L18.9666 24.043L17.7943 22.8707L18.9568 21.7082C19.0192 21.6458 19.0687 21.5718 19.1024 21.4904C19.1362 21.4089 19.1536 21.3216 19.1536 21.2334C19.1536 21.1452 19.1362 21.0578 19.1024 20.9764C19.0686 20.8949 19.0192 20.8209 18.9568 20.7585L10.8192 12.621C10.7184 12.5203 10.5882 12.4542 10.4474 12.4324C10.3065 12.4107 10.1624 12.4342 10.0359 12.4998C7.80519 13.6558 5.09015 13.2359 3.31297 11.4599C1.05782 9.20455 1.05782 5.5689 3.31297 3.31353C5.56812 1.05812 9.20376 1.05777 11.4593 3.31259C13.2317 5.09062 13.6507 7.80374 12.4953 10.0326C12.4297 10.1591 12.4061 10.3032 12.4279 10.4441C12.4497 10.5849 12.5157 10.7151 12.6165 10.8159L27.3126 25.5121C27.8196 26.0191 27.8198 26.806 27.3126 27.3133C26.8054 27.8205 26.0185 27.8203 25.5115 27.3133L24.4235 26.2253C24.2976 26.0995 24.1268 26.0289 23.9488 26.029C23.7709 26.0291 23.6002 26.0999 23.4744 26.2258L21.2882 28.412ZM10.4481 4.32684C12.1334 6.01212 12.1311 8.76373 10.4462 10.4486C8.76106 12.1337 6.01139 12.1337 4.32629 10.4486C2.64137 8.76374 2.63906 6.01212 4.32433 4.32684C5.98089 2.67028 8.67004 2.64222 10.3616 4.24267H10.3639L10.4481 4.32684ZM9.29574 5.47922C8.23585 4.41933 6.53652 4.41933 5.47664 5.47922C4.41675 6.53911 4.41871 8.23647 5.4786 9.29636C6.53849 10.3562 8.23389 10.3562 9.29378 9.29636C10.3537 8.23647 10.3556 6.53911 9.29574 5.47922ZM9.09542 5.68523C9.09447 5.68428 9.09351 5.68333 9.09257 5.68238C8.1449 4.73471 6.62753 4.73471 5.67987 5.68238C4.73248 6.62977 4.73389 8.14517 5.68183 9.09311C6.62949 10.0408 8.14295 10.0408 9.09061 9.09311C10.0376 8.14612 10.04 6.6328 9.09542 5.68523ZM4.52751 4.53009C6.10038 2.95722 8.67201 2.95722 10.2449 4.53009C11.8177 6.10296 11.8158 8.67262 10.2429 10.2455C8.67005 11.8184 6.10234 11.8184 4.52947 10.2455C2.95659 8.67263 2.95463 6.10296 4.52751 4.53009Z" fill="#B4B8D7"/>
</svg>
