<svg width="27" height="27" viewBox="0 0 27 27" fill="none" xmlns="http://www.w3.org/2000/svg">
<path d="M16.062 26.1247C15.9123 26.1242 15.7656 26.0823 15.6383 26.0036C15.5109 25.9249 15.4078 25.8124 15.3405 25.6787L10.5975 16.1928L1.10344 11.4417C0.964444 11.3712 0.848711 11.2622 0.770092 11.1276C0.691473 10.9931 0.6533 10.8387 0.660144 10.683C0.666987 10.5273 0.718557 10.3769 0.808679 10.2498C0.898801 10.1226 1.02366 10.0241 1.1683 9.96612L25.4912 0.236953C25.6386 0.177977 25.8 0.16354 25.9554 0.195431C26.1109 0.227322 26.2536 0.30414 26.3658 0.41636C26.478 0.52858 26.5548 0.671268 26.5867 0.826734C26.6186 0.982201 26.6042 1.14361 26.5452 1.29095L16.816 25.6139C16.756 25.7647 16.652 25.8941 16.5175 25.9851C16.3831 26.0762 16.2244 26.1248 16.062 26.1247ZM3.44654 10.8012L11.5542 14.855C11.7123 14.9337 11.8404 15.0618 11.919 15.2199L15.9728 23.3275L24.3399 2.44223L3.44654 10.8012Z" fill="#B4B8D7"/>
<path fill-rule="evenodd" clip-rule="evenodd" d="M16.0615 26.3036C15.8788 26.3031 15.6997 26.2519 15.5443 26.1558C15.3888 26.0598 15.2629 25.9225 15.1807 25.7593L10.4641 16.3262L1.02255 11.6013C0.852883 11.5153 0.711608 11.3822 0.615637 11.2179C0.519667 11.0537 0.47307 10.8652 0.481424 10.6752C0.489778 10.4851 0.552729 10.3015 0.662741 10.1463C0.772753 9.99111 0.925164 9.87091 1.10173 9.80009L25.4248 0.0708702C25.4248 0.070865 25.4248 0.0708755 25.4248 0.0708702C25.6046 -0.00110875 25.8017 -0.0187427 25.9914 0.0201843C26.1812 0.0591139 26.3554 0.152885 26.4924 0.289873C26.6294 0.42686 26.7231 0.60104 26.7621 0.790817C26.801 0.980594 26.7834 1.17762 26.7114 1.35748L16.9823 25.6801M25.4912 0.236953L1.1683 9.96612C1.02366 10.0241 0.898801 10.1226 0.808679 10.2498C0.718557 10.3769 0.666987 10.5273 0.660144 10.683C0.6533 10.8387 0.691473 10.9931 0.770092 11.1276C0.848711 11.2622 0.964444 11.3712 1.10344 11.4417L10.5975 16.1928L15.3405 25.6787C15.4078 25.8124 15.5109 25.9249 15.6383 26.0036C15.7656 26.0823 15.9123 26.1242 16.062 26.1247C16.2244 26.1248 16.3831 26.0762 16.5175 25.9851C16.652 25.8941 16.756 25.7647 16.816 25.6139L26.5452 1.29095C26.6042 1.14361 26.6186 0.982201 26.5867 0.826734C26.5548 0.671268 26.478 0.52858 26.3658 0.41636C26.2536 0.30414 26.1109 0.227322 25.9554 0.195431C25.8 0.16354 25.6386 0.177977 25.4912 0.236953ZM16.9823 25.6801C16.909 25.8642 16.782 26.0222 16.6179 26.1333C16.4538 26.2445 16.2598 26.3038 16.0615 26.3036M11.6343 14.695C11.8271 14.791 11.9833 14.9473 12.0793 15.1402L15.9549 22.8914L24.0185 2.76362L3.88298 10.8194L11.6343 14.695ZM11.5542 14.855C11.7123 14.9337 11.8404 15.0618 11.919 15.2199L15.9728 23.3275L24.3399 2.44223L3.44654 10.8012L11.5542 14.855Z" fill="#B4B8D7"/>
<path d="M11.1977 16.3955C11.0367 16.3965 10.879 16.3494 10.7448 16.2604C10.6106 16.1714 10.506 16.0444 10.4442 15.8957C10.3825 15.747 10.3664 15.5832 10.3981 15.4253C10.4298 15.2674 10.5077 15.1225 10.6221 15.0091L20.3513 5.27996C20.5064 5.14713 20.7059 5.07773 20.9099 5.08561C21.114 5.09349 21.3075 5.17808 21.4519 5.32247C21.5963 5.46687 21.6809 5.66043 21.6888 5.86448C21.6967 6.06853 21.6273 6.26804 21.4944 6.42314L11.7653 16.1523C11.6156 16.3051 11.4116 16.3925 11.1977 16.3955Z" fill="#B4B8D7"/>
<path fill-rule="evenodd" clip-rule="evenodd" d="M11.1977 16.3955C11.0367 16.3965 10.879 16.3494 10.7448 16.2604C10.6106 16.1714 10.506 16.0444 10.4442 15.8957C10.3825 15.747 10.3664 15.5832 10.3981 15.4253C10.4298 15.2674 10.5077 15.1225 10.6221 15.0091L20.3513 5.27996C20.5064 5.14713 20.7059 5.07773 20.9099 5.08561C21.114 5.09349 21.3075 5.17808 21.4519 5.32247C21.5963 5.46687 21.6809 5.66043 21.6888 5.86448C21.6967 6.06853 21.6273 6.26804 21.4944 6.42314L11.7653 16.1523C11.6156 16.3051 11.4116 16.3925 11.1977 16.3955ZM11.8925 16.278C11.7098 16.4641 11.4611 16.5706 11.2003 16.5743L11.1977 16.3955L11.1988 16.5743C11.0022 16.5754 10.8098 16.518 10.646 16.4093C10.4821 16.3007 10.3544 16.1457 10.279 15.9641C10.2036 15.7826 10.184 15.5827 10.2227 15.3899C10.2613 15.1973 10.3564 15.0206 10.4958 14.8822C10.4959 14.8821 10.4957 14.8823 10.4958 14.8822L20.2297 5.14837L20.2349 5.14387C20.4242 4.98174 20.6678 4.89701 20.9169 4.90663C21.166 4.91625 21.4022 5.01951 21.5785 5.19577C21.7548 5.37203 21.858 5.60831 21.8676 5.8574C21.8773 6.10648 21.7925 6.35002 21.6304 6.53935L21.6259 6.5446L11.8931 16.2774C11.8929 16.2776 11.8927 16.2778 11.8925 16.278Z" fill="#B4B8D7"/>
</svg>
