<svg width="36" height="33" viewBox="0 0 36 33" fill="none" xmlns="http://www.w3.org/2000/svg">
<path d="M34.9835 11.1697C34.395 9.84569 33.0788 8.99083 31.6298 8.99083C31.1155 8.99083 30.6146 9.09751 30.1412 9.30805C28.5304 10.0244 27.6904 11.7659 28.0444 13.4248L26.6257 14.0352C25.4522 11.9249 23.2974 10.4321 20.7809 10.1827V7.26063C22.4461 6.91374 23.7008 5.43576 23.7008 3.66882C23.7008 1.64542 22.0547 0 20.032 0C18.0093 0 16.3632 1.64542 16.3632 3.66882C16.3632 5.43576 17.6179 6.91374 19.2831 7.26063V10.1827C15.7189 10.5359 12.8774 13.3796 12.5284 16.9452L7.74328 16.9509C7.60269 16.2578 7.26569 15.6199 6.75702 15.1055C6.06748 14.4089 5.14833 14.0225 4.14864 14.0175C2.13655 14.0175 0.491129 15.6545 0.480531 17.6666C0.474879 18.6465 0.852147 19.5699 1.54098 20.2665C2.23052 20.9631 3.14966 21.3495 4.12957 21.3545C4.13098 21.3545 4.14794 21.3545 4.14935 21.3545C5.90711 21.3545 7.38438 20.1054 7.73763 18.4479L12.5291 18.4423C12.9099 22.2461 16.1287 25.2267 20.0313 25.2267C20.3909 25.2267 20.7414 25.1928 21.0875 25.1441L21.0953 25.1745C19.5693 25.9537 18.7512 27.7284 19.2344 29.4382C19.6788 31.0115 21.1299 32.1101 22.7633 32.1101C23.1003 32.1101 23.4359 32.0635 23.7623 31.9709C24.7055 31.7039 25.4883 31.0864 25.9666 30.2315C26.4449 29.376 26.5614 28.3855 26.2951 27.443C25.8507 25.8704 24.3996 24.7711 22.7662 24.7711C22.6934 24.7711 22.6206 24.7817 22.5479 24.7859C25.4706 23.7466 27.5724 20.9602 27.5724 17.6856C27.5724 16.8923 27.4474 16.1278 27.2192 15.4086L28.6555 14.7904C29.3358 15.74 30.4351 16.3292 31.6319 16.3292C32.147 16.3292 32.6479 16.2225 33.1212 16.012C34.9701 15.1903 35.8052 13.0178 34.9835 11.1697ZM4.15006 19.483V20.4184L4.14017 19.483C3.65975 19.4801 3.20972 19.2908 2.87201 18.9496C2.53431 18.6083 2.34991 18.1555 2.35203 17.6758C2.35698 16.6895 3.16379 15.8876 4.15924 15.8876C4.63966 15.8904 5.08969 16.0798 5.4274 16.421C5.7651 16.7623 5.9495 17.2151 5.94738 17.6948C5.94173 18.6811 5.13562 19.483 4.15006 19.483ZM24.892 14.7805L20.7809 16.5489V12.0711C22.5274 12.3029 24.0223 13.3315 24.892 14.7805ZM18.234 3.66882C18.234 2.67761 19.0401 1.8715 20.0313 1.8715C21.0225 1.8715 21.8286 2.67832 21.8286 3.66882C21.8286 4.65932 21.0225 5.46614 20.0313 5.46614C19.0408 5.46684 18.234 4.66003 18.234 3.66882ZM19.2831 12.0711V16.9375L14.4161 16.9431C14.7496 14.4132 16.7539 12.4067 19.2831 12.0711ZM20.032 23.3552C17.1623 23.3552 14.7898 21.2103 14.4189 18.4402L19.4456 18.4345L20.6424 23.3213C20.4411 23.3425 20.2383 23.3552 20.032 23.3552ZM24.4949 27.951C24.6256 28.413 24.5684 28.8984 24.3339 29.3173C24.0993 29.7363 23.7164 30.0394 23.2543 30.1694C23.0933 30.2153 22.9287 30.2379 22.764 30.2379C21.9643 30.2379 21.2536 29.6996 21.036 28.9288C20.7661 27.975 21.3228 26.9796 22.2766 26.7104C22.4369 26.6645 22.6023 26.6419 22.7669 26.6419C23.5659 26.6411 24.2766 27.1802 24.4949 27.951ZM25.7016 17.6856C25.7016 20.0835 24.2032 22.1344 22.095 22.9617L20.9102 18.123L25.4862 16.1547C25.6225 16.6422 25.7016 17.1544 25.7016 17.6856ZM32.3618 14.3022C32.1293 14.4054 31.8842 14.4577 31.6327 14.4577C30.9226 14.4577 30.2769 14.0387 29.9886 13.3895C29.5859 12.4837 29.995 11.419 30.9007 11.0163C31.1332 10.9132 31.3783 10.8609 31.6291 10.8609C32.3398 10.8609 32.9849 11.2799 33.2738 11.9291C33.6765 12.8356 33.2675 13.8995 32.3618 14.3022Z" fill="#B4B8D7"/>
</svg>
