<svg width="28" height="24" viewBox="0 0 28 24" fill="none" xmlns="http://www.w3.org/2000/svg">
<path fill-rule="evenodd" clip-rule="evenodd" d="M22.3704 5.30334H24.4548C24.9759 5.30334 25.3233 5.73804 25.3233 6.25968V11.2153H26.4524C26.8867 11.2153 27.3209 11.65 27.3209 12.1716V17.0402C27.3209 17.4749 26.8867 17.9096 26.4524 17.9096H25.4102V23.126C25.4102 23.5607 24.9759 23.9954 24.4548 23.9954H3.52371C1.87354 23.9954 0.483918 22.6044 0.483918 20.9525V3.73842C0.397067 1.7388 1.96039 0 4.04481 0H21.415C21.9361 0 22.3704 0.4347 22.3704 0.869399V5.30334ZM23.5863 17.9096H19.678C19.2438 17.9096 18.8095 17.4749 18.8095 17.0402V12.1716C18.8095 11.65 19.2438 11.2153 19.678 11.2153H23.5863V7.12908H4.04481C3.35 7.12908 2.8289 6.9552 2.22094 6.60744V20.9525C2.22094 21.648 2.8289 22.1697 3.52371 22.1697H23.5863V17.9096ZM20.5465 5.30334V1.7388H4.04481C3.0026 1.7388 2.22094 2.52126 2.22094 3.56454C2.22094 4.52088 3.0026 5.30334 4.04481 5.30334H20.5465ZM25.497 16.0839V13.041H20.5465V16.0839H25.497Z" fill="#B4B8D7"/>
</svg>
