<svg width="30" height="25" viewBox="0 0 30 25" fill="none" xmlns="http://www.w3.org/2000/svg">
<path d="M8.85313 14.8437H16.0156C16.6584 14.8437 17.1875 15.3728 17.1875 16.0156C17.1875 16.6584 16.6584 17.1874 16.0156 17.1874H11.875C11.5322 17.1874 11.25 17.4696 11.25 17.8124C11.25 18.1553 11.5322 18.4374 11.875 18.4374H16.0156C17.3444 18.4374 18.4375 17.3443 18.4375 16.0156C18.4375 14.6868 17.3444 13.5937 16.0156 13.5937H8.59375C8.42844 13.5943 8.26969 13.6609 8.15313 13.7781L5.46563 16.4624C5.34781 16.3284 5.17844 16.2512 5 16.2499H0.625C0.282188 16.2499 0 16.5321 0 16.8749V24.3749C0 24.7178 0.282188 24.9999 0.625 24.9999H5C5.34281 24.9999 5.625 24.7178 5.625 24.3749V18.0718L8.85313 14.8437ZM4.375 23.7499H1.25V17.4999H4.375V23.7499Z" fill="#F7941E"/>
<path d="M28.4906 13.8562L28.3312 13.6968C27.8624 13.2274 27.2256 12.9637 26.5624 12.9637C25.8993 12.9637 25.2624 13.2274 24.7937 13.6968L20.0531 18.4374H18.1249C17.7821 18.4374 17.4999 18.7196 17.4999 19.0624C17.4999 19.4052 17.7821 19.6874 18.1249 19.6874H20.3124C20.4778 19.6868 20.6365 19.6202 20.7531 19.5031L25.6781 14.5812C25.9124 14.3465 26.2309 14.2146 26.5624 14.2146C26.894 14.2146 27.2124 14.3465 27.4468 14.5812L27.6062 14.7406C27.8409 14.9749 27.9728 15.2934 27.9728 15.6249C27.9728 15.9565 27.8409 16.2749 27.6062 16.5093L21.5406 22.5749C21.1909 22.9287 20.7131 23.1268 20.2156 23.1249H7.18744C6.84463 23.1249 6.56244 23.4071 6.56244 23.7499C6.56244 24.0927 6.84463 24.3749 7.18744 24.3749H20.2156C21.0443 24.3771 21.8406 24.0471 22.4249 23.4593L28.4906 17.3937C28.9599 16.9249 29.2237 16.2881 29.2237 15.6249C29.2237 14.9618 28.9599 14.3249 28.4906 13.8562Z" fill="#F7941E"/>
<path d="M2.81238 20.3125C2.46957 20.3125 2.18738 20.5947 2.18738 20.9375V21.5625C2.18738 21.9053 2.46957 22.1875 2.81238 22.1875C3.15519 22.1875 3.43738 21.9053 3.43738 21.5625V20.9375C3.43738 20.5947 3.15519 20.3125 2.81238 20.3125Z" fill="#F7941E"/>
<path d="M19.6876 11.875C22.9447 11.875 25.6251 9.19469 25.6251 5.9375C25.6251 2.68031 22.9447 0 19.6876 0C16.4304 0 13.7501 2.68031 13.7501 5.9375C13.7501 9.19469 16.4304 11.875 19.6876 11.875ZM19.6876 1.25C22.2591 1.25 24.3751 3.36594 24.3751 5.9375C24.3751 8.50906 22.2591 10.625 19.6876 10.625C17.116 10.625 15.0001 8.50906 15.0001 5.9375C15.0001 3.36594 17.116 1.25 19.6876 1.25Z" fill="#F7941E"/>
<path d="M19.3749 6.56262H19.9999C20.1714 6.56262 20.3124 6.70356 20.3124 6.87512C20.3124 7.04668 20.1714 7.18762 19.9999 7.18762H18.7499C18.407 7.18762 18.1249 7.46981 18.1249 7.81262C18.1249 8.15543 18.407 8.43762 18.7499 8.43762H19.0624V8.75012C19.0624 9.09293 19.3445 9.37512 19.6874 9.37512C20.0302 9.37512 20.3124 9.09293 20.3124 8.75012V8.40637C21.038 8.25918 21.5639 7.61543 21.5639 6.87512C21.5639 6.01793 20.8586 5.31262 20.0014 5.31262C20.0008 5.31262 20.0005 5.31262 19.9999 5.31262H19.3749C19.2033 5.31262 19.0624 5.17168 19.0624 5.00012C19.0624 4.82856 19.2033 4.68762 19.3749 4.68762H20.6249C20.9677 4.68762 21.2499 4.40543 21.2499 4.06262C21.2499 3.71981 20.9677 3.43762 20.6249 3.43762H20.3124V3.12512C20.3124 2.78231 20.0302 2.50012 19.6874 2.50012C19.3445 2.50012 19.0624 2.78231 19.0624 3.12512V3.46887C18.3367 3.61606 17.8108 4.25981 17.8108 5.00012C17.8108 5.85731 18.5161 6.56262 19.3733 6.56262C19.3739 6.56262 19.3742 6.56262 19.3749 6.56262Z" fill="#F7941E"/>
</svg>
