<svg width="22" height="21" viewBox="0 0 22 21" fill="none" xmlns="http://www.w3.org/2000/svg">
<path fill-rule="evenodd" clip-rule="evenodd" d="M3.84118 0H17.1684C18.2248 0 19.1861 0.431846 19.8818 1.12716C20.5775 1.82247 21.0115 2.78323 21.0115 3.84105V5.54268C21.0115 6.59853 20.5775 7.55929 19.8818 8.2546H19.8798C19.1821 8.95189 18.2228 9.38374 17.1684 9.38374H3.84118C2.78475 9.38374 1.82347 8.95189 1.12778 8.2546C0.432083 7.55929 0 6.60051 0 5.54268V3.84105C0 2.78521 0.432083 1.82643 1.12778 1.13112V1.12716C1.82347 0.431846 2.78475 0 3.84118 0ZM17.1684 1.63824H3.84118C3.23666 1.63824 2.68763 1.88784 2.28726 2.28601L2.28528 2.28403C1.88689 2.68418 1.63914 3.23488 1.63914 3.84105V5.54268C1.63914 6.14687 1.88888 6.69758 2.28726 7.09575C2.68763 7.4959 3.23666 7.74352 3.84118 7.74352H17.1684C17.7749 7.74352 18.3259 7.4959 18.7243 7.09773L18.7223 7.09575C19.1226 6.69758 19.3704 6.14687 19.3704 5.54268V3.84105C19.3704 3.23686 19.1226 2.68616 18.7223 2.28601C18.3239 1.88784 17.7729 1.63824 17.1684 1.63824ZM15.4638 10.6476H17.1684C18.2208 10.6476 19.1801 11.0794 19.8778 11.7767H19.8798L19.8818 11.7787C20.5794 12.476 21.0115 13.4368 21.0115 14.4886V17.1589C21.0115 18.2148 20.5775 19.1756 19.8818 19.8709H19.8778C19.1821 20.5662 18.2208 21 17.1684 21H15.4638C14.4094 21 13.4461 20.5662 12.7504 19.8709V19.8669C12.0547 19.1716 11.6226 18.2128 11.6226 17.1589V14.4886C11.6226 13.4328 12.0547 12.474 12.7504 11.7787V11.7747C13.4461 11.0794 14.4074 10.6476 15.4638 10.6476ZM17.1684 12.2878H15.4638C14.8593 12.2878 14.3083 12.5354 13.9099 12.9336H13.9079C13.5095 13.3318 13.2618 13.8825 13.2618 14.4886V17.1589C13.2618 17.7651 13.5095 18.3138 13.9079 18.714L13.9099 18.712C14.3103 19.1122 14.8613 19.3598 15.4638 19.3598H17.1684C17.7729 19.3598 18.3239 19.1122 18.7243 18.714L18.7223 18.712C19.1226 18.3119 19.3704 17.7612 19.3704 17.1589V14.4886C19.3704 13.8825 19.1226 13.3318 18.7262 12.9356L18.7223 12.9316C18.3239 12.5334 17.7749 12.2878 17.1684 12.2878ZM3.84118 10.6476H6.51494C7.57136 10.6476 8.53265 11.0794 9.22834 11.7747C9.92403 12.472 10.3561 13.4328 10.3561 14.4886V17.1589C10.3561 18.2128 9.92403 19.1716 9.22834 19.8669L9.22437 19.8709C8.52868 20.5662 7.5674 21 6.51494 21H3.84118C2.78872 21 1.82743 20.5662 1.13174 19.8709H1.12778C0.432083 19.1756 0 18.2148 0 17.1589V14.4886C0 13.4328 0.432083 12.474 1.12778 11.7787V11.7747C1.82347 11.0794 2.78475 10.6476 3.84118 10.6476ZM6.51494 12.2878H3.84118C3.23666 12.2878 2.68763 12.5354 2.28726 12.9336H2.28528C1.88689 13.3318 1.63914 13.8825 1.63914 14.4886V17.1589C1.63914 17.7631 1.88888 18.3138 2.28726 18.712V18.714C2.68565 19.1122 3.23666 19.3598 3.84118 19.3598H6.51494C7.11946 19.3598 7.67046 19.1122 8.06885 18.714C8.46922 18.3138 8.71698 17.7631 8.71698 17.1589V14.4886C8.71698 13.8844 8.46922 13.3337 8.06885 12.9356C7.66848 12.5354 7.11946 12.2878 6.51494 12.2878Z" fill="#F7941E"/>
</svg>
