<svg width="26" height="25" viewBox="0 0 26 25" fill="none" xmlns="http://www.w3.org/2000/svg">
<path d="M12.489 25C12.0078 24.9994 11.5271 24.9719 11.0489 24.9175C10.7071 24.8773 10.3934 24.7083 10.1719 24.4449C9.95028 24.1815 9.83745 23.8436 9.85634 23.4999C9.87906 23.1031 9.77859 22.709 9.56868 22.3716C9.35877 22.0341 9.04969 21.7698 8.68376 21.6147C8.31365 21.4791 7.91207 21.4542 7.52803 21.543C7.144 21.6318 6.79412 21.8305 6.52109 22.1148C6.28957 22.3688 5.97021 22.5253 5.62764 22.5527C5.28507 22.5801 4.94489 22.4763 4.67596 22.2623C3.94399 21.6717 3.28062 21.0007 2.69831 20.2621C2.48905 19.9951 2.38804 19.659 2.41537 19.3207C2.44271 18.9825 2.59638 18.667 2.84582 18.437C3.13792 18.1725 3.34231 17.8252 3.43167 17.4414C3.52102 17.0576 3.49109 16.6557 3.34586 16.2893C3.20457 15.9354 2.95984 15.6322 2.64361 15.4195C2.32738 15.2067 1.95435 15.0942 1.57322 15.0968H1.54072C0.900674 15.0968 0.158118 14.6367 0.0806126 13.8992C-0.0268709 12.9546 -0.0268709 12.001 0.0806126 11.0565C0.115905 10.7199 0.277904 10.4094 0.533741 10.1879C0.789578 9.96645 1.12009 9.8506 1.45822 9.86387C1.85858 9.87788 2.25427 9.77429 2.5964 9.5659C2.93854 9.35751 3.21213 9.05345 3.38336 8.69128C3.53418 8.32339 3.56708 7.91776 3.47751 7.53037C3.38794 7.14299 3.18032 6.79297 2.88332 6.52862C2.62839 6.29423 2.47286 5.97113 2.44869 5.62567C2.42451 5.28021 2.53351 4.93859 2.75331 4.67098C3.34741 3.92783 4.02622 3.25657 4.77596 2.67083C5.04468 2.46241 5.38184 2.36244 5.72073 2.39068C6.05963 2.41892 6.37558 2.57332 6.6061 2.82334C6.8782 3.10422 7.22546 3.30076 7.60634 3.38944C7.98722 3.47812 8.38558 3.45518 8.75376 3.32338C9.11687 3.1716 9.42507 2.91272 9.63726 2.58127C9.84944 2.24981 9.95552 1.86154 9.94135 1.46824C9.92912 1.12761 10.0459 0.794927 10.2684 0.536726C10.491 0.278526 10.8027 0.11385 11.1414 0.0756373C12.0763 -0.0284532 13.02 -0.0250977 13.9541 0.0856381C14.2956 0.124652 14.6092 0.292622 14.8309 0.555198C15.0525 0.817774 15.1655 1.15512 15.1467 1.49824C15.1248 1.89488 15.2255 2.28866 15.4353 2.62598C15.6452 2.9633 15.9538 3.22777 16.3193 3.38338C16.6894 3.5193 17.0911 3.54439 17.4752 3.45558C17.8593 3.36677 18.2091 3.16792 18.482 2.88335C18.7145 2.63015 19.0349 2.47521 19.3778 2.45012C19.7207 2.42503 20.0602 2.53169 20.3271 2.74834C21.0618 3.33764 21.727 4.00867 22.3098 4.74849C22.5188 5.01661 22.6196 5.3534 22.5923 5.69227C22.565 6.03115 22.4115 6.34744 22.1623 6.57862C21.8732 6.84007 21.6708 7.18351 21.582 7.56305C21.4933 7.94259 21.5225 8.34016 21.6657 8.70268C21.8089 9.06519 22.0593 9.37537 22.3835 9.5918C22.7077 9.80822 23.0901 9.92058 23.4799 9.91387C24.1099 9.91387 24.8425 10.3739 24.925 11.1115C25.0325 12.056 25.0325 13.0097 24.925 13.9542C24.8842 14.2964 24.7148 14.6104 24.451 14.8323C24.1873 15.0542 23.8491 15.1676 23.5049 15.1493H23.3824C22.9947 15.1491 22.6162 15.2666 22.2968 15.4862C21.9773 15.7058 21.732 16.0171 21.5933 16.3791C21.4546 16.741 21.429 17.1365 21.5199 17.5134C21.6107 17.8902 21.8138 18.2306 22.1023 18.4895C22.3556 18.7201 22.5121 19.0382 22.5404 19.3796C22.5687 19.721 22.4667 20.0605 22.2548 20.3297C21.6594 21.0717 20.9808 21.7428 20.2321 22.3298C19.965 22.5388 19.6289 22.6393 19.2909 22.611C18.9529 22.5827 18.6381 22.4278 18.4095 22.1773C18.1364 21.8962 17.7883 21.6997 17.4066 21.611C17.0249 21.5224 16.6258 21.5453 16.2568 21.6772C15.8941 21.8281 15.5861 22.0861 15.3739 22.4167C15.1617 22.7473 15.0554 23.1348 15.0692 23.5274C15.0808 23.8673 14.9636 24.1991 14.7411 24.4563C14.5186 24.7136 14.2072 24.8774 13.8691 24.915C13.4109 24.9678 12.9503 24.9962 12.489 25ZM11.2389 23.5449C12.049 23.6352 12.8666 23.6352 13.6766 23.5449C13.6586 22.8745 13.8444 22.2144 14.2096 21.6519C14.5748 21.0894 15.1021 20.651 15.7218 20.3947C16.3483 20.1544 17.0317 20.1041 17.6867 20.25C18.3417 20.3958 18.9391 20.7314 19.4046 21.2147C20.0504 20.7038 20.6373 20.1227 21.1547 19.4821C20.6564 19.0229 20.3114 18.4216 20.1665 17.7596C20.0216 17.0977 20.0838 16.4072 20.3446 15.7818C20.6 15.1823 21.025 14.6706 21.5673 14.3094C22.1097 13.9483 22.7458 13.7536 23.3974 13.7492H23.4174H23.5549C23.6428 12.9406 23.6428 12.125 23.5549 11.3165C23.5315 11.301 23.5051 11.2908 23.4774 11.2865C22.8113 11.2936 22.1586 11.0989 21.6054 10.7279C21.0522 10.3569 20.6242 9.82705 20.378 9.20812C20.1317 8.5892 20.0786 7.9102 20.2257 7.26054C20.3729 6.61087 20.7133 6.02098 21.2022 5.56855C20.7022 4.93294 20.1328 4.35515 19.5046 3.84592C19.0379 4.33301 18.4368 4.67016 17.7778 4.81442C17.1188 4.95869 16.4318 4.90353 15.8043 4.65598C15.1782 4.39351 14.6477 3.94513 14.2846 3.37145C13.9216 2.79778 13.7434 2.12646 13.7741 1.44824C12.9641 1.35793 12.1465 1.35793 11.3365 1.44824C11.3531 2.11835 11.1667 2.77782 10.8017 3.34004C10.4367 3.90226 9.91017 4.34095 9.2913 4.59848C8.66589 4.83822 7.9838 4.88878 7.32988 4.74386C6.67596 4.59894 6.07909 4.26494 5.61353 3.78341C4.96773 4.29431 4.38075 4.87542 3.8634 5.51604C4.3609 5.97685 4.70526 6.57904 4.8501 7.24152C4.99493 7.90399 4.93328 8.59495 4.67346 9.22132C4.39798 9.83823 3.94622 10.3599 3.37501 10.7207C2.80379 11.0815 2.13864 11.2653 1.46322 11.249C1.37524 12.0558 1.37524 12.8698 1.46322 13.6767C1.49163 13.6939 1.523 13.7058 1.55572 13.7117C2.21157 13.7056 2.85412 13.8966 3.40018 14.2599C3.94624 14.6232 4.37065 15.1421 4.61845 15.7493C4.87099 16.3716 4.92876 17.0558 4.78412 17.7116C4.63949 18.3673 4.29925 18.9638 3.80839 19.4221C4.31325 20.0622 4.88858 20.6434 5.52352 21.1547C5.98907 20.6659 6.59022 20.3276 7.24964 20.1832C7.90906 20.0388 8.59659 20.0951 9.2238 20.3447C9.8487 20.6059 10.3784 21.0526 10.7414 21.6245C11.1045 22.1963 11.2834 22.8657 11.2539 23.5424L11.2389 23.5449ZM12.524 17.1519C11.6081 17.1524 10.7127 16.8813 9.95088 16.3728C9.18909 15.8643 8.59522 15.1413 8.24438 14.2953C7.89353 13.4492 7.80148 12.5181 7.97986 11.6198C8.15824 10.7214 8.59904 9.89612 9.24651 9.2483C9.89398 8.60049 10.719 8.15924 11.6173 7.98038C12.5156 7.80151 13.4467 7.89306 14.2929 8.24345C15.1392 8.59383 15.8625 9.18731 16.3714 9.94883C16.8803 10.7103 17.1519 11.6057 17.1519 12.5216C17.1512 13.749 16.6635 14.926 15.7958 15.7941C14.9282 16.6622 13.7515 17.1506 12.524 17.1519ZM12.524 9.27633C11.8812 9.27633 11.2528 9.46695 10.7183 9.82409C10.1838 10.1812 9.76721 10.6888 9.52121 11.2828C9.27521 11.8767 9.21084 12.5302 9.33625 13.1607C9.46166 13.7911 9.77122 14.3703 10.2258 14.8248C10.6803 15.2794 11.2595 15.5889 11.89 15.7144C12.5204 15.8398 13.174 15.7754 13.7679 15.5294C14.3618 15.2834 14.8694 14.8668 15.2265 14.3323C15.5837 13.7978 15.7743 13.1694 15.7743 12.5266C15.7746 12.0995 15.6908 11.6766 15.5276 11.282C15.3644 10.8874 15.125 10.5288 14.8232 10.2267C14.5213 9.92461 14.1629 9.68497 13.7684 9.52147C13.3739 9.35798 12.9511 9.27382 12.524 9.27382V9.27633Z" fill="#F7941E"/>
</svg>
