<svg width="22" height="28" viewBox="0 0 22 28" fill="none" xmlns="http://www.w3.org/2000/svg">
<path fill-rule="evenodd" clip-rule="evenodd" d="M10.6909 11.0255C13.219 11.0255 15.319 8.92746 15.319 6.27642C15.319 3.62535 13.219 1.52727 10.6909 1.52727C8.16277 1.52727 6.06277 3.62535 6.06277 6.27642C6.06277 8.92746 8.16277 11.0255 10.6909 11.0255ZM10.6909 12.5528C14.0904 12.5528 16.8463 9.74277 16.8463 6.27642C16.8463 2.81004 14.0904 0 10.6909 0C7.29136 0 4.53552 2.81004 4.53552 6.27642C4.53552 9.74277 7.29136 12.5528 10.6909 12.5528Z" fill="#F7941E"/>
<path fill-rule="evenodd" clip-rule="evenodd" d="M19.2583 24.7128C19.5938 24.1927 19.8545 23.3831 19.8545 22.0705C19.8545 16.8539 15.7217 12.6801 10.6909 12.6801C5.66003 12.6801 1.52727 16.8539 1.52727 22.0705C1.52727 23.3831 1.78801 24.1927 2.1235 24.7128C2.44857 25.2166 2.93488 25.5903 3.66959 25.8671C4.43145 26.154 5.41058 26.3165 6.63057 26.3974C7.77414 26.4732 9.03306 26.473 10.4221 26.4727C10.5111 26.4726 10.6008 26.4726 10.6909 26.4726C10.7811 26.4726 10.8707 26.4726 10.9598 26.4727C12.3487 26.473 13.6076 26.4732 14.7512 26.3974C15.9712 26.3165 16.9503 26.154 17.7122 25.8671C18.4469 25.5903 18.9332 25.2166 19.2583 24.7128ZM10.9759 28C16.7486 28.0015 21.3818 28.0028 21.3818 22.0705C21.3818 16.0408 16.5953 11.1528 10.6909 11.1528C4.78648 11.1528 0 16.0408 0 22.0705C0 28.0028 4.63321 28.0015 10.4059 28C10.5006 28 10.5956 27.9999 10.6909 27.9999C10.7862 27.9999 10.8812 28 10.9759 28Z" fill="#F7941E"/>
</svg>
