<svg width="22" height="20" viewBox="0 0 22 20" fill="none" xmlns="http://www.w3.org/2000/svg">
<path d="M16.3057 3.20576e-09H2.66485C1.96263 -3.44165e-05 1.28879 0.2771 0.789782 0.771164C0.290779 1.26523 0.00695261 1.93628 0 2.63846V17.3611C0.00695261 18.0632 0.290779 18.7343 0.789782 19.2284C1.28879 19.7224 1.96263 19.9996 2.66485 19.9995H19.4982C19.6032 20.0032 19.7077 19.9853 19.8054 19.9468C19.9031 19.9083 19.9919 19.8501 20.0661 19.7759C20.1404 19.7016 20.1985 19.6129 20.237 19.5152C20.2755 19.4175 20.2935 19.3129 20.2898 19.208V15.4614H20.8438C21.0538 15.4614 21.2551 15.378 21.4035 15.2295C21.552 15.0811 21.6354 14.8798 21.6354 14.6698V9.34015C21.6354 9.13022 21.552 8.92889 21.4035 8.78045C21.2551 8.63201 21.0538 8.54861 20.8438 8.54861H20.2898V4.93392C20.2935 4.82898 20.2755 4.72441 20.237 4.62671C20.1985 4.529 20.1404 4.44027 20.0661 4.36602C19.9919 4.29177 19.9031 4.2336 19.8054 4.19512C19.7077 4.15665 19.6032 4.1387 19.4982 4.14238H17.0972V0.791538C17.0972 0.581609 17.0138 0.380278 16.8654 0.231836C16.7169 0.0833938 16.5156 3.20576e-09 16.3057 3.20576e-09ZM1.58308 2.63846C1.58303 2.49762 1.61118 2.35819 1.66586 2.22839C1.72054 2.0986 1.80065 1.98106 1.90146 1.88271C2.00227 1.78435 2.12175 1.70717 2.25286 1.65571C2.38397 1.60425 2.52405 1.57955 2.66485 1.58308H15.5142V4.14238H2.66485C2.37794 4.14238 2.10279 4.02841 1.89992 3.82554C1.69705 3.62267 1.58308 3.34752 1.58308 3.06061V2.63846ZM20.0523 10.1317V13.8783H15.2239V10.1317H20.0523ZM18.7067 8.54861H14.4324C14.3274 8.54493 14.2229 8.56288 14.1252 8.60135C14.0275 8.63983 13.9387 8.698 13.8645 8.77225C13.7902 8.8465 13.7321 8.93523 13.6936 9.03293C13.6551 9.13064 13.6372 9.23521 13.6408 9.34015V14.6698C13.6372 14.7748 13.6551 14.8794 13.6936 14.9771C13.7321 15.0748 13.7902 15.1635 13.8645 15.2377C13.9387 15.312 14.0275 15.3702 14.1252 15.4086C14.2229 15.4471 14.3274 15.4651 14.4324 15.4614H18.7067V18.4165H2.66485C2.52405 18.42 2.38397 18.3953 2.25286 18.3438C2.12175 18.2924 2.00227 18.2152 1.90146 18.1168C1.80065 18.0185 1.72054 17.9009 1.66586 17.7711C1.61118 17.6413 1.58303 17.5019 1.58308 17.3611V5.488C1.92548 5.63462 2.29251 5.71519 2.66485 5.72546H18.7067V8.54861Z" fill="#F7941E"/>
</svg>
