<svg width="82" height="82" viewBox="0 0 82 82" fill="none" xmlns="http://www.w3.org/2000/svg">
<path d="M58.1092 0.166668H23.8909C9.02752 0.166668 0.166687 9.0275 0.166687 23.8908V58.0683C0.166687 72.9725 9.02752 81.8333 23.8909 81.8333H58.0684C72.9317 81.8333 81.7925 72.9725 81.7925 58.1092V23.8908C81.8334 9.0275 72.9725 0.166668 58.1092 0.166668ZM41 16.5C49.1259 16.5 55.7 23.0742 55.7 31.2C55.7 33.1192 55.3325 34.9567 54.6792 36.6308C53.005 40.8775 49.3709 44.185 44.8792 45.41C43.6542 45.7367 42.3475 45.9408 41 45.9408C39.6525 45.9408 38.3459 45.7775 37.1209 45.41C32.6292 44.185 28.995 40.9183 27.3209 36.6308C26.6675 34.9567 26.3 33.1192 26.3 31.2C26.3 23.0742 32.8742 16.5 41 16.5ZM31.2 65.5C23.0742 65.5 16.5 58.9258 16.5 50.8C16.5 45.5355 19.2972 40.9137 23.4367 38.3164C23.6947 38.1545 24.0319 38.273 24.1533 38.5523C26.3625 43.6363 30.813 47.4601 36.1409 48.8808C37.6925 49.33 39.285 49.5342 41 49.5342C42.4726 49.5342 43.8503 49.3762 45.1889 49.0603C45.4812 48.9913 45.7753 49.1837 45.8112 49.4818C45.8617 49.9005 45.9 50.3394 45.9 50.7592C45.9 55.0875 44.0217 59.0075 41 61.7025C38.3867 64.0708 34.9567 65.5 31.2 65.5ZM50.8 65.5C48.6345 65.5 46.5349 65.0381 44.6793 64.1736C44.3712 64.0301 44.3137 63.624 44.549 63.3786C47.7584 60.0305 49.575 55.508 49.575 50.8C49.575 49.9833 49.4934 49.1258 49.3709 48.35L49.3052 47.9341C49.2713 47.7196 49.3801 47.5084 49.5721 47.4067C53.2144 45.4783 56.1678 42.3967 57.8088 38.5558C57.9287 38.2751 58.2662 38.1542 58.5254 38.3154C62.7022 40.9126 65.5 45.5349 65.5 50.8C65.5 58.9258 58.9259 65.5 50.8 65.5Z" fill="#130052"/>
</svg>
