<svg width="98" height="98" viewBox="0 0 98 98" fill="none" xmlns="http://www.w3.org/2000/svg">
<path d="M79.0941 19.9675L55.1658 9.31001C51.6541 7.75834 46.3458 7.75834 42.8341 9.31001L18.9058 19.9675C12.8625 22.6625 11.9641 26.3375 11.9641 28.2975C11.9641 30.2575 12.8625 33.9325 18.9058 36.6275L42.8341 47.285C44.59 48.0608 46.795 48.4692 49 48.4692C51.205 48.4692 53.41 48.0608 55.1658 47.285L79.0941 36.6275C85.1375 33.9325 86.0358 30.2575 86.0358 28.2975C86.0358 26.3375 85.1783 22.6625 79.0941 19.9675Z" fill="#130052"/>
<path d="M49 69.58C47.4484 69.58 45.8967 69.2533 44.4675 68.6408L16.9459 56.3908C12.74 54.5125 9.47336 49.49 9.47336 44.8758C9.47336 43.2017 10.8209 41.8542 12.495 41.8542C14.1692 41.8542 15.5167 43.2017 15.5167 44.8758C15.5167 47.0808 17.3542 49.9392 19.3959 50.8375L46.9175 63.0875C48.2242 63.6592 49.735 63.6592 51.0417 63.0875L78.5634 50.8375C80.605 49.9392 82.4425 47.1217 82.4425 44.8758C82.4425 43.2017 83.79 41.8542 85.4642 41.8542C87.1384 41.8542 88.4859 43.2017 88.4859 44.8758C88.4859 49.4492 85.2192 54.5125 81.0134 56.3908L53.4917 68.6408C52.1034 69.2533 50.5517 69.58 49 69.58Z" fill="#130052"/>
<path d="M49 89.8333C47.4484 89.8333 45.8967 89.5067 44.4675 88.8942L16.9459 76.6442C12.4134 74.6433 9.47336 70.1108 9.47336 65.1292C9.47336 63.455 10.8209 62.1075 12.495 62.1075C14.1692 62.1075 15.5167 63.455 15.5167 65.1292C15.5167 67.7017 17.0275 70.0292 19.3959 71.0908L46.9175 83.3408C48.2242 83.9125 49.735 83.9125 51.0417 83.3408L78.5634 71.0908C80.8909 70.07 82.4425 67.7017 82.4425 65.1292C82.4425 63.455 83.79 62.1075 85.4642 62.1075C87.1384 62.1075 88.4859 63.455 88.4859 65.1292C88.4859 70.1108 85.5459 74.6025 81.0134 76.6442L53.4917 88.8942C52.1034 89.5067 50.5517 89.8333 49 89.8333Z" fill="#130052"/>
</svg>
