<svg width="20" height="20" viewBox="0 0 20 20" fill="none" xmlns="http://www.w3.org/2000/svg">
<path d="M15.2614 10.377C13.9583 10.3723 12.7118 10.9171 11.8198 11.8813C10.5367 10.8421 8.94255 10.2789 7.30116 10.2852H7.28822C5.31548 10.2894 3.48484 11.0679 2.12806 12.4846C0.749594 13.9146 -0.0041583 15.8691 1.72556e-05 17.9899C0.000825425 18.106 0.0456788 18.2171 0.125014 18.3003C0.205966 18.3826 0.316146 18.4285 0.430772 18.4272L11.7379 18.4053C11.7637 18.436 11.7895 18.4622 11.8155 18.4929C13.2999 20.0878 15.6596 20.4608 17.5517 19.3998C19.4438 18.3388 20.3891 16.1127 19.8496 13.9878C19.3101 11.8629 17.4229 10.3776 15.2614 10.377ZM0.874457 17.5483C0.964972 15.8298 1.61972 14.26 2.74389 13.0926C3.93715 11.8463 5.55241 11.1598 7.28822 11.1598H7.30116C8.74993 11.154 10.1572 11.6507 11.2899 12.5678C10.3356 14.0641 10.2727 15.9731 11.1262 17.5309L0.874457 17.5483ZM15.2614 19.1225C13.1202 19.1225 11.3847 17.3605 11.3847 15.187C11.3847 13.0137 13.1202 11.2515 15.2614 11.2515C17.4025 11.2515 19.138 13.0137 19.138 15.187C19.138 17.3605 17.4025 19.1225 15.2614 19.1225Z" fill="#F7941E"/>
<path d="M7.29258 9.24411C9.80706 9.24411 11.8455 7.17473 11.8455 4.62212C11.8455 2.06938 9.80706 0 7.29258 0C4.7781 0 2.73962 2.06938 2.73962 4.62212C2.74205 7.17364 4.77904 9.24165 7.29258 9.24411ZM7.29258 0.87457C9.33146 0.87457 10.984 2.55247 10.984 4.62212C10.984 6.69164 9.33146 8.36954 7.29258 8.36954C5.25384 8.36954 3.60113 6.69164 3.60113 4.62212C3.60356 2.55343 5.25478 0.877169 7.29258 0.87457Z" fill="#F7941E"/>
<path d="M17.0058 14.748H13.5167C13.2788 14.748 13.0859 14.9439 13.0859 15.1853C13.0859 15.4269 13.2788 15.6226 13.5167 15.6226H17.0058C17.2437 15.6226 17.4364 15.4269 17.4364 15.1853C17.4364 14.9439 17.2437 14.748 17.0058 14.748Z" fill="#F7941E"/>
</svg>
