<svg width="18" height="18" viewBox="0 0 18 18" fill="none" xmlns="http://www.w3.org/2000/svg">
<g clip-path="url(#clip0)">
<path d="M14.9232 5.88164C14.6841 5.88164 14.4902 6.07555 14.4902 6.31464V17.1337H0.865992V3.50955H11.4594C11.6985 3.50955 11.8924 3.31564 11.8924 3.07655C11.8924 2.83746 11.6985 2.64355 11.4594 2.64355H0.432996C0.19391 2.64355 0 2.83746 0 3.07655V17.5667C0 17.8058 0.19391 17.9997 0.432996 17.9997H14.9232C15.1623 17.9997 15.3562 17.8058 15.3562 17.5667V6.31464C15.3562 6.07555 15.1623 5.88164 14.9232 5.88164Z" fill="#4337FC"/>
<path d="M17.8735 0.126868C17.7044 -0.0422171 17.4302 -0.0423614 17.2611 0.126868L5.80365 11.5843L2.96082 8.74146C2.79174 8.57231 2.51751 8.57231 2.34849 8.74146C2.17941 8.91055 2.17941 9.18471 2.34849 9.35372L5.49753 12.5028C5.58203 12.5873 5.69288 12.6296 5.80373 12.6296C5.91457 12.6296 6.02535 12.5873 6.10993 12.5028L17.8735 0.739196C18.0426 0.570111 18.0426 0.295953 17.8735 0.126868Z" fill="#4337FC"/>
</g>
<defs>
<clipPath id="clip0">
<rect width="18" height="18" fill="white"/>
</clipPath>
</defs>
</svg>
