<svg width="20" height="20" viewBox="0 0 20 20" fill="none" xmlns="http://www.w3.org/2000/svg">
<path d="M7.61602 9.32786C10.0189 9.32786 11.9669 7.37997 11.9669 4.97698C11.9669 2.57399 10.0189 0.625977 7.61602 0.625977C5.21303 0.625977 3.26501 2.57399 3.26501 4.97698C3.2672 7.37907 5.2138 9.32567 7.61602 9.32786ZM7.61602 1.44925C9.56429 1.44925 11.1436 3.02871 11.1436 4.97698C11.1436 6.92525 9.56429 8.50458 7.61602 8.50458C5.66762 8.50458 4.08829 6.92525 4.08829 4.97698C4.09048 3.02948 5.66852 1.45144 7.61602 1.44925Z" fill="#FF5556"/>
<path d="M15.2313 15.2559C15.0042 15.2565 14.8202 15.4404 14.8196 15.6674V17.524C14.8196 17.7513 15.0039 17.9356 15.2313 17.9356C15.4586 17.9356 15.6429 17.7513 15.6429 17.524V15.6674C15.6422 15.4404 15.4583 15.2565 15.2313 15.2559Z" fill="#FF5556"/>
<path d="M16.6391 15.2559C16.4121 15.2565 16.2282 15.4404 16.2275 15.6674V17.524C16.2275 17.7513 16.4118 17.9356 16.6391 17.9356C16.8665 17.9356 17.0508 17.7513 17.0508 17.524V15.6674C17.0502 15.4404 16.8661 15.2565 16.6391 15.2559Z" fill="#FF5556"/>
<path d="M13.8276 15.2559C13.6006 15.2565 13.4167 15.4404 13.416 15.6674V17.524C13.416 17.7513 13.6003 17.9356 13.8276 17.9356C14.055 17.9356 14.2393 17.7513 14.2393 17.524V15.6674C14.2386 15.4404 14.0546 15.2565 13.8276 15.2559Z" fill="#FF5556"/>
<path d="M18.1663 10.7737H17.1V9.91346C17.0999 9.54065 16.7977 9.23867 16.4249 9.23828H14.0416C13.6688 9.23867 13.3669 9.54065 13.3665 9.91346V10.7737H12.3004C11.886 10.7742 11.5019 10.9912 11.2877 11.3459C10.1882 10.6629 8.91862 10.3034 7.62415 10.3086H7.61179C5.72662 10.3128 3.97717 11.0455 2.68051 12.3792C1.36325 13.7251 0.642997 15.5651 0.646989 17.5616C0.647633 17.7887 0.831527 17.9725 1.05856 17.9731L11.7735 17.9527V18.0885C11.7747 18.7996 12.3508 19.3758 13.0619 19.3769H17.4006C18.1118 19.3758 18.6878 18.7996 18.689 18.0885V13.0171C19.1813 12.7737 19.4413 12.2233 19.3168 11.6881C19.192 11.1532 18.7155 10.7746 18.1663 10.7737ZM14.1858 10.0616H16.2767V10.7737H14.1858V10.0616ZM12.3004 11.597H18.1663C18.3234 11.5972 18.4621 11.6996 18.5084 11.8499C18.5548 12.0002 18.4977 12.1631 18.3679 12.2514C18.3384 12.2434 18.3079 12.2392 18.2774 12.2392C18.1923 12.2403 18.1093 12.2661 18.0385 12.3132H12.4239C12.3536 12.2649 12.2703 12.2391 12.1852 12.2392C12.1544 12.2389 12.124 12.243 12.0947 12.2514C11.9641 12.1626 11.9073 11.9985 11.9547 11.8478C12.0019 11.6972 12.1426 11.5954 12.3004 11.597ZM1.48263 17.1459C1.56916 15.5282 2.19876 14.0504 3.26903 12.9512C4.40935 11.778 5.95301 11.1318 7.61179 11.1318H7.62415C8.88746 11.1246 10.121 11.5134 11.1519 12.2433C11.238 12.5777 11.4648 12.8585 11.7735 13.013V17.1253L1.48263 17.1459ZM17.4006 18.5537H13.066C12.9427 18.5538 12.8243 18.5047 12.737 18.4177C12.6497 18.3304 12.6008 18.212 12.601 18.0885V13.1406H17.8699V18.0885C17.8652 18.3452 17.6572 18.5515 17.4006 18.5537Z" fill="#FF5556"/>
</svg>
