<svg width="23" height="23" viewBox="0 0 23 23" fill="none" xmlns="http://www.w3.org/2000/svg">
<path d="M8.43875 10.7857C11.0969 10.7857 13.2519 8.63072 13.2519 5.97229C13.2519 3.31415 11.0969 1.15918 8.43875 1.15918C5.78046 1.15918 3.62549 3.31415 3.62549 5.97229C3.62805 8.62958 5.78146 10.783 8.43875 10.7857ZM8.43875 2.06992C10.5939 2.06992 12.3413 3.81718 12.3413 5.97229C12.3413 8.12769 10.5939 9.87495 8.43875 9.87495C6.28349 9.87495 4.53623 8.12769 4.53623 5.97229C4.53879 3.81817 6.28448 2.07234 8.43875 2.06992Z" fill="#2CA4FA"/>
<path d="M19.9594 11.7191C19.8742 11.6338 19.7588 11.5859 19.6384 11.5859C19.5179 11.5859 19.4024 11.6338 19.3173 11.7191L18.1288 12.9075L15.1963 15.8402C13.8268 13.391 11.2402 11.874 8.43421 11.874C4.16742 11.874 0.692993 15.3484 0.692993 19.615C0.693705 19.8662 0.897137 20.0698 1.14829 20.0705H12.446L12.0725 21.1861C12.0168 21.3491 12.0591 21.5295 12.1819 21.6505C12.2679 21.7355 12.384 21.783 12.505 21.7827C12.5545 21.7818 12.6035 21.7741 12.6508 21.7599L15.8884 20.6806C15.8931 20.6806 15.8931 20.6806 15.8975 20.6761C15.912 20.6721 15.9258 20.6658 15.9385 20.6578C15.9419 20.6574 15.9452 20.6558 15.9476 20.6533C15.9613 20.6443 15.9795 20.635 15.9932 20.6259C16.0069 20.617 16.0206 20.6031 16.0341 20.5942C16.0387 20.5895 16.0434 20.5895 16.0434 20.585C16.0478 20.5805 16.0569 20.5759 16.0615 20.5667L20.9338 15.7081L22.1225 14.5197C22.2077 14.4344 22.2556 14.319 22.2556 14.1986C22.2556 14.0781 22.2077 13.9626 22.1225 13.8775L19.9594 11.7191ZM15.7517 19.6014L14.2354 18.085L18.4475 13.873L19.964 15.3893L15.7517 19.6014ZM1.62182 19.155C1.85873 15.5989 4.82316 12.78 8.43876 12.78C11.0067 12.7837 13.357 14.2236 14.5269 16.5096L13.2701 17.7662L13.2519 17.7846C13.2473 17.789 13.2473 17.7937 13.2429 17.7937C13.2204 17.8223 13.2007 17.8527 13.1836 17.8847C13.1831 17.8882 13.1815 17.8913 13.1789 17.8937C13.1745 17.9075 13.1653 17.9212 13.1608 17.9349C13.1608 17.9393 13.1608 17.9393 13.1563 17.944L12.751 19.1597H1.62182V19.155ZM13.7938 18.9274L14.9094 20.043L13.2336 20.6031L13.7938 18.9274ZM20.6104 14.7427L19.0943 13.2263L19.636 12.6846L21.1525 14.2009L20.6104 14.7427Z" fill="#2CA4FA"/>
</svg>
