<svg width="19" height="19" viewBox="0 0 19 19" fill="none" xmlns="http://www.w3.org/2000/svg">
<g clip-path="url(#clip0)">
<path d="M12.7921 11.1471L12.7436 11.1252C12.6276 11.0724 12.5108 11.0226 12.3917 10.976C12.2618 10.924 12.1299 10.8758 11.9962 10.8307C11.8906 10.796 11.7842 10.7636 11.6767 10.732C11.5129 10.6847 11.3475 10.6418 11.1772 10.6041C11.1194 10.5921 11.0604 10.5806 11.0018 10.5701L10.9618 10.5624C10.8612 10.5427 10.7602 10.5254 10.6581 10.5103L10.6288 10.5057C10.6277 10.5057 10.6269 10.5049 10.6258 10.5049L10.5965 10.5011C10.5117 10.4884 10.4273 10.4764 10.3394 10.4664L10.0403 10.4418C9.67264 10.4175 9.29374 10.4183 8.93032 10.4448L8.82435 10.4537L8.77499 10.4576L8.65127 10.4687C8.53757 10.4806 8.42464 10.4965 8.31172 10.5146L8.27855 10.5192C8.20149 10.5319 8.12437 10.5462 8.04844 10.5605C7.96406 10.5755 7.88076 10.5921 7.79752 10.6102C7.63644 10.6464 7.47644 10.6877 7.32153 10.7328C7.19817 10.7682 7.07643 10.8071 6.96195 10.8465L6.88255 10.875C6.63972 10.961 6.39846 11.0596 6.16487 11.1679L6.10244 11.1976L6.1013 11.1992C3.36981 12.5065 1.6084 15.292 1.6084 18.3145C1.6084 18.3839 1.61302 18.452 1.61727 18.5207L1.63772 19.0001H17.3613L17.3825 18.5261C17.3871 18.4559 17.3914 18.3861 17.3914 18.3145C17.3914 15.2438 15.5872 12.4337 12.7921 11.1471ZM2.37951 18.2293C2.41267 15.5155 4.01719 13.0261 6.46269 11.8794L6.54131 11.8486L6.55055 11.8397C6.74209 11.7522 6.93982 11.6725 7.14024 11.6019L7.20381 11.5792C7.3129 11.5414 7.42157 11.5068 7.53449 11.4747C7.67518 11.4335 7.81857 11.3965 7.96232 11.3641C8.03669 11.3484 8.11111 11.3333 8.18782 11.319C8.24869 11.3079 8.3092 11.2963 8.37049 11.2867L8.40053 11.2813C8.51076 11.2639 8.62141 11.2481 8.73163 11.2362L8.98369 11.2142C9.31359 11.1899 9.62928 11.1864 10.0116 11.2142L10.2567 11.2347C10.3172 11.2416 10.3777 11.2497 10.4514 11.2601L10.5396 11.2728C10.6318 11.2863 10.7239 11.3021 10.8163 11.3195L10.8595 11.3276C10.9116 11.3372 10.9632 11.3472 11.0121 11.3576C11.164 11.3908 11.3131 11.43 11.4612 11.4729C11.559 11.5014 11.6562 11.5307 11.751 11.5623C11.8712 11.6023 11.99 11.6459 12.1075 11.6925C12.2204 11.7369 12.3318 11.7843 12.442 11.8348L12.4613 11.8437C14.9623 12.9911 16.5865 15.4886 16.6196 18.2286H2.37951V18.2293ZM7.5947 9.45125C7.65251 9.47553 7.71225 9.4967 7.77198 9.51793L7.89726 9.56339C7.94541 9.58186 7.99399 9.60003 8.04335 9.61545C8.50278 9.75998 8.98339 9.83434 9.47209 9.83824L9.51102 9.83902C9.67869 9.83902 9.84673 9.83014 10.0078 9.81359C10.0633 9.80819 10.1173 9.79932 10.1716 9.79008L10.2923 9.77197C10.3601 9.76309 10.4279 9.75308 10.4989 9.73923C10.5474 9.72921 10.5945 9.7165 10.6415 9.70378L10.7733 9.67026C10.8384 9.65449 10.9035 9.63865 10.9679 9.61862C11.008 9.60591 11.0474 9.59128 11.0863 9.57658L11.1922 9.53844C11.2678 9.51224 11.3441 9.48525 11.4204 9.45328C11.4501 9.44057 11.479 9.42672 11.5075 9.4128L11.5418 9.39583C11.6463 9.34918 11.7503 9.30138 11.8536 9.2459L11.9206 9.20584C12.0363 9.1403 12.1515 9.07247 12.2683 8.99271C12.3288 8.95187 12.3866 8.90599 12.4437 8.86053L12.641 8.70713C13.7757 7.76786 14.4279 6.38955 14.4279 4.96002L14.4302 4.91918C14.4302 2.20657 12.2233 0 9.51065 0C6.92141 0 4.76725 2.02462 4.60653 4.60931L4.60227 4.6733C4.59609 4.75462 4.59112 4.83594 4.59112 4.91918C4.59034 6.9005 5.76937 8.67924 7.5947 9.45125ZM5.3708 4.72673L5.37542 4.65735C5.51107 2.47776 7.32717 0.770747 9.51024 0.770747C11.7981 0.770747 13.6589 2.63159 13.6609 4.88398L13.6585 4.92446C13.657 6.1586 13.1066 7.32066 12.145 8.11887L11.9619 8.25842C11.9211 8.29159 11.8798 8.32469 11.8285 8.36019C11.7361 8.42304 11.6381 8.47966 11.5387 8.53597L11.4836 8.56949C11.4003 8.61423 11.3128 8.65387 11.2219 8.69435L11.1197 8.74371C11.0611 8.768 10.9995 8.78917 10.9386 8.8104L10.8114 8.85627C10.7867 8.86551 10.7617 8.87552 10.7374 8.88284C10.69 8.89747 10.6414 8.90869 10.5932 8.92062L10.4394 8.95996C10.4063 8.96884 10.3735 8.97808 10.3443 8.98425C10.293 8.99427 10.2406 9.00122 10.1886 9.00854L10.0421 9.03049C10.0067 9.03667 9.97117 9.04284 9.93147 9.04668C9.80313 9.06017 9.67402 9.06749 9.54298 9.06863L9.50676 9.06827H9.50598C9.08396 9.06791 8.66962 9.00506 8.27339 8.88098C8.23909 8.87019 8.20557 8.85669 8.17204 8.84398L8.02715 8.79121C7.98205 8.77537 7.93738 8.75996 7.8942 8.74185C6.35558 8.0911 5.36114 6.59021 5.36114 4.91942C5.36114 4.85429 5.36618 4.7903 5.3708 4.72673Z" fill="#1CA8EE"/>
</g>
<defs>
<clipPath id="clip0">
<rect width="19" height="19" fill="white"/>
</clipPath>
</defs>
</svg>
