<svg width="26" height="15" viewBox="0 0 26 15" fill="none" xmlns="http://www.w3.org/2000/svg">
<path d="M22.425 3.72881C17.2037 -1.24294 8.70877 -1.24294 3.48746 3.72881L0 7.04917L3.57398 10.4523C6.18441 12.938 9.61346 14.1812 13.043 14.1812C16.4724 14.1812 19.9011 12.9384 22.5119 10.4523L25.9994 7.13155L22.425 3.72881ZM21.8905 9.86102C17.0117 14.5062 9.07372 14.5062 4.19497 9.86102L1.24198 7.04917L4.10845 4.3197C8.9872 -0.325449 16.9252 -0.325449 21.804 4.3197L24.757 7.13155L21.8905 9.86102Z" fill="#0DE06D"/>
<path d="M12.5478 3.73242C10.8526 3.73242 9.47363 5.04551 9.47363 6.65969C9.47363 6.89052 9.67038 7.07787 9.9128 7.07787C10.1552 7.07787 10.352 6.89052 10.352 6.65969C10.352 5.50676 11.337 4.56878 12.5478 4.56878C12.7903 4.56878 12.987 4.38144 12.987 4.1506C12.987 3.91977 12.7907 3.73242 12.5478 3.73242Z" fill="#0DE06D"/>
<path d="M12.9868 1.6416C9.83884 1.6416 7.27759 4.08043 7.27759 7.07795C7.27759 10.0755 9.83884 12.5143 12.9868 12.5143C16.1348 12.5143 18.696 10.0755 18.696 7.07795C18.696 4.08043 16.1352 1.6416 12.9868 1.6416ZM12.9868 11.6779C10.3232 11.6779 8.15593 9.61422 8.15593 7.07795C8.15593 4.54169 10.3232 2.47796 12.9868 2.47796C15.6504 2.47796 17.8177 4.54169 17.8177 7.07795C17.8177 9.61422 15.6508 11.6779 12.9868 11.6779Z" fill="#0DE06D"/>
</svg>
