<svg width="16" height="16" viewBox="0 0 16 16" fill="none" xmlns="http://www.w3.org/2000/svg">
<path d="M15.663 8.18765C15.663 7.64553 15.619 7.10047 15.5253 6.56714H8.00293V9.6382H12.3106C12.1319 10.6287 11.5575 11.5049 10.7165 12.0616V14.0543H13.2864C14.7956 12.6653 15.663 10.614 15.663 8.18765Z" fill="#4285F4"/>
<path d="M8.00296 15.9796C10.1539 15.9796 11.9678 15.2734 13.2894 14.0543L10.7194 12.0617C10.0044 12.5481 9.08135 12.8236 8.00589 12.8236C5.9253 12.8236 4.1612 11.4199 3.52824 9.53271H0.876221V11.5869C2.23007 14.28 4.98758 15.9796 8.00296 15.9796Z" fill="#34A853"/>
<path d="M3.52527 9.53274C3.1912 8.54226 3.1912 7.46974 3.52527 6.47926V4.42505H0.876184C-0.254952 6.67853 -0.254952 9.33347 0.876184 11.587L3.52527 9.53274Z" fill="#FBBC04"/>
<path d="M8.00296 3.18539C9.13996 3.16781 10.2389 3.59565 11.0623 4.38099L13.3392 2.10407C11.8975 0.750225 9.98391 0.0059028 8.00296 0.029346C4.98758 0.029346 2.23007 1.72898 0.876221 4.42495L3.52531 6.47916C4.15534 4.58905 5.92237 3.18539 8.00296 3.18539Z" fill="#EA4335"/>
</svg>
