<svg width="17" height="16" viewBox="0 0 17 16" fill="none" xmlns="http://www.w3.org/2000/svg">
<path d="M9.99994 3.41287e-06C6.2573 0.00408606 3.17836 2.94829 3.00694 6.687L1.16794 9.445C1.00674 9.68408 0.956588 9.9811 1.03035 10.2598C1.1041 10.5386 1.29459 10.7719 1.55294 10.9L2.99994 11.618V13.5C2.99994 14.8807 4.11922 16 5.49994 16H7.99994C9.65679 16 10.9999 14.6569 10.9999 13V8.723C10.216 8.2704 9.8338 7.34768 10.0681 6.47331C10.3024 5.59895 11.0947 4.99095 11.9999 4.99095C12.9051 4.99095 13.6975 5.59895 13.9318 6.47331C14.1661 7.34768 13.7839 8.2704 12.9999 8.723V13C12.9963 14.0855 12.6357 15.1396 11.9739 16H13.9999C14.5522 16 14.9999 15.5523 14.9999 15V11.889C16.9723 9.8775 17.5451 6.87889 16.453 4.28203C15.3608 1.68517 12.8171 -0.00277014 9.99994 3.41287e-06Z" fill="#1B1D21"/>
</svg>
